<?xml version="1.0" encoding="utf-8"?>
<!-- Generator: Adobe Illustrator 23.0.5, SVG Export Plug-In . SVG Version: 6.00 Build 0)  -->
<svg version="1.1" id="Layer_1" xmlns="http://www.w3.org/2000/svg" xmlns:xlink="http://www.w3.org/1999/xlink" x="0px" y="0px"
	 viewBox="0 0 512 512" style="enable-background:new 0 0 512 512;" xml:space="preserve">
<style type="text/css">
	.st0{fill:#2C2C2C;}
	.st1{fill:url(#SVGID_1_);}
	.st2{fill:url(#SVGID_2_);}
	.st3{fill:url(#SVGID_3_);}
	.st4{fill:url(#SVGID_4_);}
	.st5{fill:url(#SVGID_5_);}
	.st6{fill:url(#SVGID_6_);}
	.st7{fill:url(#SVGID_7_);}
	.st8{fill:url(#SVGID_8_);}
	.st9{fill:none;}
	.st10{fill:url(#SVGID_9_);}
	.st11{fill:url(#SVGID_10_);}
	.st12{fill:url(#SVGID_11_);}
	.st13{fill:url(#SVGID_12_);}
	.st14{fill:url(#SVGID_13_);}
	.st15{fill:url(#SVGID_14_);}
	.st16{fill:url(#SVGID_15_);}
	.st17{fill:url(#SVGID_16_);}
	.st18{fill:url(#SVGID_17_);}
	.st19{fill:url(#SVGID_18_);}
	.st20{fill:url(#SVGID_19_);}
	.st21{fill:url(#SVGID_20_);}
	.st22{fill:url(#SVGID_21_);}
	.st23{fill:url(#SVGID_22_);}
	.st24{fill:url(#SVGID_23_);}
	.st25{fill:url(#SVGID_24_);}
	.st26{fill:url(#SVGID_25_);}
	.st27{fill:url(#SVGID_26_);}
	.st28{fill:url(#SVGID_27_);}
	.st29{fill:url(#SVGID_28_);}
	.st30{fill:url(#SVGID_29_);}
	.st31{fill:url(#SVGID_30_);}
	.st32{fill:url(#SVGID_31_);}
	.st33{fill:url(#SVGID_32_);}
</style>
<g>
	<path class="st0" d="M299.6,337.7c0-7.7,0-15.4,0-23.1c0-7,0-7-6.1-4c-12.4,6.1-24.7,12.3-37.1,18.4c-15.3,7.5-29.6,2.7-37.2-12.5
		c-6.7-13.4-13.3-26.8-19.9-40.3c-7-14.3-2.3-28.9,12-36c55.4-27.6,110.9-55,166.4-82.4c14-6.9,28.3-1.8,35.6,12
		c2.1,3.9,2.8,10.3,6.7,11.1c3.6,0.7,8.1-3.1,12.2-5.1c16.1-7.9,17.3-7.5,25.3,8.9c8.5,17.4,16.9,34.7,25.8,51.9
		c3.2,6.3,2.9,11.1-1.7,16.6c-29.6,36.2-58.8,72.8-88.3,109.1c-3.4,4.2-4.3,7.4-1.5,12.4c4.8,8.4,8.8,17.2,12.9,25.9
		c1.5,3.2,2.8,4.4,6.6,2.6c11.5-5.5,20.2-2.2,25.9,9.1c9.7,19.4,19.3,38.8,28.8,58.3c5.9,12,2.8,21-9,26.9
		c-8.3,4.1-16.6,8.3-24.9,12.3c-10.5,5-20,1.9-25.3-8.6c-10-19.9-19.8-39.9-29.6-59.9c-5.3-10.7-2.4-20,8.3-25.3
		c4.3-2.1,3.9-4.1,2.1-7.6c-5.9-11.6-11.5-23.3-17.5-34.9c-2.8-5.4-2.3-9.8,1.6-14.6C401.4,322,431,285.1,461,248.3
		c3.3-4,3.6-6.9,1.3-11.4c-6.9-13.1-13.4-26.4-19.8-39.7c-1.6-3.3-3-4.8-6.4-2.3c-1.1,0.8-2.4,1.4-3.7,1.8c-3.9,1.3-4.5,3.2-2.4,7
		c4.3,7.9,8.9,15.9,6.3,25.7c-1.8,6.8-5.3,12.4-11.4,15.9c-5.5,3.1-11.1,5.9-16.9,8.5c-5.1,2.3-10.1,0.1-12.4-4.7
		c-2.1-4.5-0.6-9.4,4.1-12.1c4.4-2.5,9.1-4.7,13.7-7c4.3-2.2,5.6-5.7,3.6-9.8c-6.9-14.2-13.9-28.3-21-42.4
		c-2.8-5.4-7.2-4.4-11.7-2.2c-18,8.9-36,17.9-54,26.8c-36,17.8-72.1,35.7-108.1,53.5c-7.7,3.8-8.5,6.2-4.7,14
		c6.1,12.4,12.2,24.7,18.4,37.1c3.5,7,6.2,7.9,13.2,4.4c33-16.3,66-32.7,99.1-49c2.6-1.3,5.2-3.1,8.3-2.5c4.3,0.7,7.3,3.2,8.3,7.4
		c1.1,4.9-1.1,8.6-5.4,10.8c-11.3,5.7-22.5,11.5-34,16.6c-5.3,2.4-7.2,5.3-6.9,11.1c0.5,10.6,0.1,21.3,0.1,32
		C312.2,337.7,305.9,337.7,299.6,337.7z M448.8,478.9c-0.4-0.8-0.7-1.5-1-2.2c-8.8-17.8-17.7-35.7-26.4-53.5c-1.2-2.5-2.4-3-5-1.7
		c-6.1,3.2-12.3,6.3-18.5,9.2c-3.1,1.4-3.5,2.8-2,5.8c8.8,17.4,17.4,34.9,26,52.5c1.2,2.5,2.3,3.7,5.3,2.1c6.4-3.4,13-6.5,19.6-9.8
		C447.7,480.7,449,480.4,448.8,478.9z"/>
	<linearGradient id="SVGID_1_" gradientUnits="userSpaceOnUse" x1="18.7476" y1="128.1675" x2="357.2245" y2="128.1675">
		<stop  offset="0" style="stop-color:#8335D6"/>
		<stop  offset="1" style="stop-color:#CD2153"/>
	</linearGradient>
	<path class="st1" d="M273.7,118.8c0-5.1-0.1-10.2,0-15.4c0.1-6.7,3.4-10.5,10.1-10.6c16.7-0.2,33.5-0.3,50.2,0
		c6.7,0.1,10.4,4.2,10.5,11.1c0.2,16.4,0.2,32.7,0,49.1c-0.1,7.3-3.9,10.6-11.2,10.7c-16.4,0-32.7,0.1-49.1,0
		c-7.2,0-10.5-3.3-10.6-10.4c-0.1-5.1,0-10.2,0-15.4C273.7,131.5,273.7,125.1,273.7,118.8z M308.5,144.7c4.1,0,8.3-0.1,12.4,0
		c3.1,0.1,4.1-1.2,4.1-4.2c-0.1-7.9-0.1-15.8,0-23.7c0.1-3.3-1-4.6-4.4-4.5c-7.9,0.2-15.8,0.2-23.7,0c-3.5-0.1-4.4,1.4-4.3,4.6
		c0.2,7.9,0.1,15.8,0,23.7c-0.1,3,0.9,4.3,4,4.2C300.6,144.5,304.6,144.7,308.5,144.7z"/>
	<linearGradient id="SVGID_2_" gradientUnits="userSpaceOnUse" x1="18.7474" y1="128.1979" x2="357.2238" y2="128.1979">
		<stop  offset="0" style="stop-color:#8335D6"/>
		<stop  offset="1" style="stop-color:#CD2153"/>
	</linearGradient>
	<path class="st2" d="M99.7,137.8c-0.1,4.9-0.1,9.8-0.2,14.7c-0.2,7.7-3.6,11-11.2,11.1c-4.9,0.1-9.8,0-14.7,0c-6.4,0-12.7,0-19.1,0
		c-5.3,0-10.6,0.1-15.9-0.1c-6.4-0.2-9.9-3.6-9.9-9.9c-0.1-16.7-0.1-33.5,0-50.2c0-6.4,3.7-10.4,10.3-10.5c16.7-0.3,33.5-0.3,50.2,0
		c6.5,0.1,10,4,10.3,10.6c0.3,5.1,0.2,10.2,0.2,15.3C99.7,125.2,99.7,131.5,99.7,137.8z M63.5,144.7c4.3,0,8.7-0.1,13,0
		c3.1,0.1,4.1-1.2,4.1-4.2c-0.1-8-0.1-16.1,0-24.1c0.1-3.1-1.2-4.2-4.2-4.1c-8.3,0.1-16.6,0.1-24.8,0c-3.1-0.1-4.2,1.1-4.1,4.2
		c0.2,4.1-0.1,8.3,0.1,12.4c0.2,5.1-2.2,11.6,1.1,14.8C52,146.9,58.5,144.3,63.5,144.7z"/>
	<linearGradient id="SVGID_3_" gradientUnits="userSpaceOnUse" x1="18.7474" y1="373.2538" x2="357.2241" y2="373.2538">
		<stop  offset="0" style="stop-color:#8335D6"/>
		<stop  offset="1" style="stop-color:#CD2153"/>
	</linearGradient>
	<path class="st3" d="M99.7,382.8c-0.1,5.1,0,10.3-0.2,15.4c-0.3,6.8-4.1,10.5-10.8,10.6c-16.4,0.1-32.7,0.1-49.1,0
		c-7.4,0-10.9-3.5-11-10.8c-0.1-16.2-0.1-32.3,0-48.5c0-7.8,3.9-11.4,11.8-11.6c4.7-0.1,9.5-0.1,14.2-0.2c6.3,0,12.6,0,18.9,0
		c5.1,0.1,10.2,0,15.3,0.2c6.6,0.2,10.5,4.1,10.7,10.7c0.2,5.1,0.1,10.2,0.2,15.3C99.7,370.2,99.7,376.5,99.7,382.8z M63.3,389.8
		c4.9,0,9.1-0.1,13.2,0c3.1,0.1,4.2-1,4.1-4.1c-0.1-8.2-0.2-16.5,0-24.7c0.1-3.5-1.3-4.3-4.5-4.3c-6.1-0.1-12.1,0.4-18.2,0.3
		c-12.7-0.4-10.1-1.5-10.4,10c-0.1,2.2-0.1,4.3,0,6.5c0.4,5.2-2.3,12,1.1,15.3C52.1,392.1,58.8,389.4,63.3,389.8z"/>
	<linearGradient id="SVGID_4_" gradientUnits="userSpaceOnUse" x1="18.7469" y1="373.2363" x2="357.2234" y2="373.2363">
		<stop  offset="0" style="stop-color:#8335D6"/>
		<stop  offset="1" style="stop-color:#CD2153"/>
	</linearGradient>
	<path class="st4" d="M299.6,337.7c6.3,0,12.7,0,19,0c4.7,0.1,9.4,0.1,14.2,0.2c7.9,0.2,11.8,3.8,11.8,11.5
		c0.2,15.9,0.2,31.9,0,47.8c-0.1,7.9-3.9,11.5-11.8,11.5c-15.9,0.1-31.9,0.1-47.8,0c-7.8,0-11.1-3.4-11.2-11.1
		c-0.1-4.9,0-9.8-0.1-14.8c0-6.3,0-12.7,0-19c0-4.9,0-9.8,0.1-14.7c0.1-7.6,3.4-11,11.1-11.2C289.8,337.8,294.7,337.7,299.6,337.7z
		 M307.7,389.8c5.4,0,9.7-0.1,14.1,0c2.8,0.1,3.9-0.9,3.9-3.7c-0.1-8.3-0.1-16.5,0-24.8c0-3.3-1.3-4.5-4.5-4.5
		c-6.3-0.1-12.5,0.5-18.8,0.2c-11.5-0.4-9.5-1.5-9.6,9.5c0,2.4,0,4.7,0.1,7.1c0.1,5.1-2.2,11.6,0.8,14.9
		C296.8,392.2,303.6,389.2,307.7,389.8z"/>
	<path class="st0" d="M99.7,137.8c0-6.3,0-12.7,0-19c58,0,116,0,174-0.1c0,6.3,0,12.7,0,19C215.7,137.8,157.7,137.8,99.7,137.8z"/>
	<path class="st0" d="M73.5,337.7c-6.3,0-12.6,0-18.9,0c0-58,0-116,0-174c6.4,0,12.7,0,19.1,0C73.6,221.7,73.5,279.7,73.5,337.7z"/>
	<path class="st0" d="M273.7,363.8c0,6.3,0,12.7,0,19c-58,0-116,0-174,0c0-6.3,0-12.6,0-19C157.7,363.8,215.7,363.8,273.7,363.8z"/>
	<path class="st0" d="M354.4,10c-0.2-5.1,3-9.6,9-10c6-0.3,9.5,3.4,10.1,11.1c1.1,13.8,2,27.5,3,41.3c0.5,6.9-2.9,11.4-8.6,11.9
		c-6,0.5-9.9-3-10.5-10.1C356.3,40.2,355.5,26.2,354.4,10z"/>
	<path class="st0" d="M465.7,33c0.1,4.6-1.4,6.9-3.3,9c-8.9,10.1-17.6,20.2-26.5,30.2c-4.7,5.3-10,6-14.5,2c-4.2-3.7-4.3-9.2,0-14.2
		c9-10.5,18.1-20.8,27.2-31.2c3-3.4,6.7-4.9,11.1-3C463.6,27.6,465.5,30.5,465.7,33z"/>
	<path class="st0" d="M16.7,282.6c0-6.7-0.1-13.4,0-20.1c0.1-6,4-10,9.4-10c5.3,0,9.4,4.1,9.5,10c0.2,13.4,0.1,26.8,0,40.2
		c-0.1,6.4-4.1,10.3-9.8,10.2c-5.4-0.1-9-4-9.1-10.2C16.6,296,16.7,289.3,16.7,282.6z"/>
	<path class="st0" d="M452.2,136.2c-9.8,0.4-14.3-2.2-14.8-8.6c-0.5-6.4,3.9-9.7,14-10.4c10.8-0.8,21.6-1.6,32.5-2.2
		c7.1-0.4,11.3,3.1,11.5,8.9c0.2,5.9-3.7,9.6-10.7,10C473.9,134.7,463.1,135.5,452.2,136.2z"/>
	<path class="st0" d="M16.7,224c0-2.6-0.1-5.1,0-7.7c0.3-5.3,3.9-8.9,8.9-9.1c5.1-0.2,9.4,3,9.8,8.2c0.4,5.9,0.4,11.8,0,17.7
		c-0.3,4.9-5.1,8.6-9.8,8.4c-4.9-0.2-8.6-4-8.9-9.2C16.5,229.5,16.7,226.7,16.7,224z"/>
	<path class="st0" d="M382.4,265.4c-5.2,0-9.4-4.1-9.5-9.3c-0.1-5.2,3.9-9.5,9.1-9.7c5.3-0.2,10,4.3,9.9,9.6
		C391.8,261.1,387.5,265.4,382.4,265.4z"/>
</g>
</svg>
