<?xml version="1.0" encoding="utf-8"?>
<!-- Generator: Adobe Illustrator 23.0.5, SVG Export Plug-In . SVG Version: 6.00 Build 0)  -->
<svg version="1.1" id="Layer_1" xmlns="http://www.w3.org/2000/svg" xmlns:xlink="http://www.w3.org/1999/xlink" x="0px" y="0px"
	 viewBox="0 0 512 512" style="enable-background:new 0 0 512 512;" xml:space="preserve">
<style type="text/css">
	.st0{fill:#2C2C2C;}
	.st1{fill:url(#SVGID_1_);}
	.st2{fill:url(#SVGID_2_);}
	.st3{fill:url(#SVGID_3_);}
	.st4{fill:url(#SVGID_4_);}
	.st5{fill:url(#SVGID_5_);}
	.st6{fill:url(#SVGID_6_);}
	.st7{fill:url(#SVGID_7_);}
	.st8{fill:url(#SVGID_8_);}
	.st9{fill:none;}
	.st10{fill:url(#SVGID_9_);}
	.st11{fill:url(#SVGID_10_);}
	.st12{fill:url(#SVGID_11_);}
	.st13{fill:url(#SVGID_12_);}
	.st14{fill:url(#SVGID_13_);}
	.st15{fill:url(#SVGID_14_);}
	.st16{fill:url(#SVGID_15_);}
	.st17{fill:url(#SVGID_16_);}
	.st18{fill:url(#SVGID_17_);}
	.st19{fill:url(#SVGID_18_);}
	.st20{fill:url(#SVGID_19_);}
	.st21{fill:url(#SVGID_20_);}
	.st22{fill:url(#SVGID_21_);}
	.st23{fill:url(#SVGID_22_);}
	.st24{fill:url(#SVGID_23_);}
	.st25{fill:url(#SVGID_24_);}
	.st26{fill:url(#SVGID_25_);}
	.st27{fill:url(#SVGID_26_);}
	.st28{fill:url(#SVGID_27_);}
	.st29{fill:url(#SVGID_28_);}
	.st30{fill:url(#SVGID_29_);}
	.st31{fill:url(#SVGID_30_);}
	.st32{fill:url(#SVGID_31_);}
	.st33{fill:url(#SVGID_32_);}
</style>
<g>
	<path class="st0" d="M5,512c-4.1-2.6-5.2-6.3-5.1-11c0.3-13.5,0.1-27,0.1-40.5c0-4.6,2.1-7.7,6.7-8.5c10.5-1.8,21-3.5,31.5-5
		c8.3-1.1,8.3-0.9,8.3-9.4c0-3.8-0.1-7.7,0-11.5c0.3-10.6,7.4-17.8,18-18c7.8-0.2,15.7-0.1,23.5-0.1c0.3,0,0.6-0.2,1.8-0.6
		c0-4,0.1-8.2,0-12.5c-0.2-11.2,4.9-19.1,14.6-24.2c13.7-7.2,27.4-14.5,41.2-21.5c5.5-2.8,8.8-6.6,9.6-12.9
		c1.2-8.9,2.9-17.7,4.6-26.6c2-10.3,9.5-16.6,20-16.7c9-0.1,18-0.1,27,0c5.4,0.1,8.7-1.9,10.2-7.4c1.4-5.3,3.5-10.4,5.2-15.6
		c3.8-11.2,11.9-17.9,22.9-21.1c10.5-3.1,20.1,1.7,24.7,11.5c3.6,7.7,7.8,15.1,10.9,23c2.1,5.3,3.5,11.1,4.1,16.8
		c0.7,6.4,0.4,13,0.1,19.5c-0.2,4.4,1.6,6.3,5.8,7.1c20.7,4.2,41.4,8.6,62.1,13c13.1,2.8,22.3,9.5,25.2,23.6
		c1.9,9.1,4.3,10.6,13.8,10.7c12.3,0.2,24.7,0.4,37,0.7c11.3,0.2,19.1,7.9,19.2,19.2c0.1,12.8,0.2,25.7-0.1,38.5
		c-0.1,5.4,2.1,8.1,6.9,10.2c14.4,6.1,28.6,12.6,42.9,19c7.2,3.2,10.8,8,10.6,16.6c-0.2,7.5,2.3,15,3.6,22.5c0,3.7,0,7.3,0,11
		c-3.7,0-7.3,0-11,0c-1.9-3.3-4.6-6.5-5.5-10.1c-1.7-6.7-2.7-13.7-3.2-20.7c-0.3-3.6-1.6-5.3-4.6-6.6c-13.4-5.8-26.8-11.8-40.2-17.5
		c-10.2-4.3-15.4-11.8-15.5-22.7c0-10.8,0-21.6,0-32.5c-0.1-12.2,1.5-10.8-10.8-11.1c-12.8-0.3-25.6-0.8-38.4-1c-2,0-4.3,0-5.9,1
		c-11,7.2-21.8,14.6-32.7,22.1c-1.2,0.8-2.7,1.9-2.9,3.1c-1.3,6.8-2.2,13.6-3.3,20.7c9.6,2.1,18.6,4.2,27.7,6.2
		c4.4,0.9,7,3.4,7.9,7.8c1.4,6.8,2.7,13.7,4.6,20.4c1.4,5.1-0.1,8.5-4.1,11.7c-12.1,9.6-24.1,19.3-36.1,29c-2,0-4,0-6,0
		c-7.1-5.7-7.1-10.3,0.1-16c7.4-5.9,14.4-12.5,22.3-17.6c6.7-4.4,7.8-9.2,5.4-16.2c-1-3-2-4.7-5.4-5.4c-8.5-1.6-16.9-3.7-25.3-5.7
		c-7.2-1.7-9.1-4.4-8-11.7c1.3-8.7,3.1-17.4,4.2-26.1c0.7-5.8,3.3-9.6,8.2-12.7c10.9-7,21.5-14.5,31.9-21.6c-1.2-4.3-2.7-8.1-3.2-12
		c-1-7-5.5-9.8-11.6-11.1c-15.8-3.3-31.7-6.4-47.4-10.1c-9.9-2.3-20.8-1.9-29.1-9.9c-11.8,13.3-23.6,26.5-35.2,39.8
		c-0.8,1-1,2.8-1,4.2c-0.1,14.2,0.1,28.3-0.1,42.5c0,3.1,1,4.4,3.8,5.4c8,2.9,15.9,5.9,23.8,9.1c5.8,2.3,7.4,6.1,5.2,11.9
		c-1.9,4.9-4,9.8-6,14.8c1.6,1,2.8,1.8,4.1,2.6c10.3,6.2,18.9,14.2,25.9,23.9c4.9,6.8,5,11.7,0.4,14.8c-4.4,3-8.6,1.3-13.4-5.3
		c-8.2-11.1-18.1-20.2-31.4-24.5c-28.4-9.1-53.2,0.9-77.9,15.2c3.2,2.2,5.8,3.9,8.4,5.6c7.9,5.2,8,10.9,0.2,16.2c-1.7,0-3.3,0-5,0
		c-15.9-10.4-31.7-20.8-47.6-31.1c-4.2-2.7-5.8-6-4.5-11c1.9-7.1,3.7-14.2,5.1-21.3c1.2-5.9,4.4-8.7,10.3-9.7
		c10.6-1.8,21.1-4.2,32.3-6.5c-1.7-9-1.6-18.5-5.3-26.1c-6.3-13.1-15.1-25-22.9-37.7c-11.3,5.9-22.3,11.3-32.9,17.5
		c-2.2,1.3-3.8,4.9-4.3,7.7c-0.7,3.9-0.2,8-0.2,12c-0.1,11.2-7.2,18.4-18.4,18.6c-6.7,0.1-13.3,0.2-20,0c-3.6-0.1-5.2,0.9-4.9,4.8
		c0.3,4.5,0.2,9,0,13.5c-0.3,10.9-6.6,18-17.5,19.6c-9.3,1.4-18.7,2.6-28.3,3.9c0,10.2,0,19.8,0,29.9c1.8,0,3.6,0,5.4,0
		c18,0,36,0,54,0c6.2,0,10.4,4.7,8.6,9.9c-0.8,2.3-3.1,4.1-4.7,6.1C55,512,30,512,5,512z M157.1,361.1c7.8,12.4,15.2,24,22.4,35.8
		c1.4,2.2,2.5,4.8,3,7.3c2,10.3,3.8,20.6,5.5,31c1.3,7.7-0.7,10.4-8.2,11.9c-10.8,2.2-21.5,4.4-32.2,6.7c-1.5,0.3-3.4,1.6-3.8,2.9
		c-1.3,3.4-2.1,7-2.7,10.6c-0.2,1.1,0.6,3,1.5,3.7c5.2,3.6,10.5,6.9,15.2,9.9c28.1-19,57.6-30.2,91.9-23.2c1.2-2.8,2.3-5.4,3.5-8.4
		c-8.2-3.2-15.8-6.4-23.7-9.1c-5.3-1.9-7.6-5.1-7.6-10.8c0.2-17.7,0.2-35.3,0-53c0-4.1,1.3-7.3,4-10.3c13.5-15,26.9-30,40.3-45.1
		c1.1-1.2,2.8-2.6,2.8-4c0-8.7,2-17.7-2-26.1c-3.2-6.8-6.6-13.4-9.9-20.2c-3.5-7.2-7-8.3-13.3-3.1c-2.5,2.1-4.6,5.2-6,8.3
		c-2.2,5-3.7,10.3-5.5,15.5c-4.1,12.1-12.2,17.9-25.1,18.1c-8.5,0.1-17,0.2-25.5,0c-4.4-0.1-7,1-7.2,5.9c-0.2,3.5-1,6.9-1.7,10.3
		C170.4,338.6,170.9,352.8,157.1,361.1z"/>
	<path class="st0" d="M512,270c-1.3,10.2-2.3,20.5-4.1,30.6c-6.5,37.7-21,72-44,103.3c0-2.8,0-5.7,0-8.5c0-2.3,0.4-4.9-0.4-6.9
		c-2.7-6.5-0.2-11.5,2.9-17.1c25.5-47.2,34.6-97.5,26.7-150.7c-1.8-12.1-9.4-17.7-21.4-15.7c-4.4,0.7-8.7,2-13.7,3.1
		c-1.2-3.3-2.6-6.7-3.4-10.2c-0.7-3,0-5.6,3.7-6.3c4.6-0.9,9.1-2.3,13.7-2.8c4.6-0.5,9.2-0.1,15.1-0.1
		c-5.5-13.3-10.1-26.7-16.5-39.3c-28.1-55.3-71.1-94.5-128.8-117.4c-7.9-3.1-8.8-2.9-14.3,3.7c-1.6,1.9-2.9,4.1-4.7,6.7
		c-4.3-2.5-8.7-5-13.6-7.8c2.3-3.7,4.5-6.9,6.9-10.8c-24-6.3-48-9.1-73-7.5c0,5.5-0.1,10.4,0,15.3c0.3,14.6-6.8,24-20.1,29.6
		c-8.3,3.4-16.2,7.6-24.2,11.6c-2.5,1.3-4.8,3.1-6.7,5.1c-1.5,1.7-2.7,3.9-3.2,6.1c-0.8,4.2-2.6,7.2-7.1,7.8
		c-4.4,0.5-7.3-1.7-8.8-5.8c-2.3-6.5-0.2-12.4,4.6-16.3c7.5-6.2,15.6-11.8,24-16.9c6.2-3.7,13.4-5.8,19.8-9.3
		c2.3-1.2,4.8-4.3,5.1-6.7c0.7-6.2,0.2-12.6,0.2-18.9c-30.8,2.5-73.7,17.4-100.7,36.7c2.3,11,4.8,21.4,6.5,32
		c3.2,19.8-5.1,35.8-22.8,45.3c-2.3,1.3-4.7,2.6-7.1,3.6c-14.9,5.9-27.5,14.7-37,27.8c-3,4.1-7.1,7.5-11.1,10.8
		c-7.4,6.1-15.6,9.6-26.1,4.9c-2.6,9.3-5.1,18.1-7.6,27.2c6.4,1.2,12.6,1.8,18.4,3.6c5.8,1.8,11.7,4.2,16.8,7.4
		c9.3,5.9,13.4,14.8,13,25.9c-0.3,7.8,0.1,15.6-0.1,23.5c-0.3,10.9,4.5,19.2,12.4,26.1c2,1.7,3.9,3.6,6.7,6
		c-4.8,2.7-9.1,5.3-13.5,7.6c-0.6,0.3-2.1-0.5-2.9-1.1c-11-9.4-18.3-20.6-18.5-35.6c-0.1-8.8-0.4-17.7,0-26.5
		c0.3-6.9-2.7-11.5-8.5-14.5c-8-4.2-16.7-5.2-26.2-6c-0.7,8.4-1.7,16.5-2.1,24.6c-1.1,27.5,2.6,54.5,11,80.7c1.2,3.9,0.5,5.8-3,7.4
		c-3.2,1.5-6.1,3.4-9.9,5.5c-2.2-7.2-4.5-14-6.3-21C-27.5,181.8,56.8,41.1,195.8,7.5C210,4.1,224.7,3,239.2,0.8
		c1.6-0.2,3.2-0.6,4.9-0.8c7.7,0,15.3,0,23,0c7.3,0.8,14.6,1.4,21.8,2.3c52.3,7.1,98.5,27.8,137.7,63.1
		c44.1,39.7,71.4,88.9,81.6,147.5c1.7,9.6,2.6,19.4,3.9,29.1C512,251.3,512,260.7,512,270z M112.1,64.5c-1.6,1.1-2.3,1.5-2.9,2
		c-20,15.6-37.5,33.6-51.3,54.8c-8,12.4-14.5,25.7-21.6,38.7c-0.6,1.2-0.2,3-0.2,4.5c1.7,0,3.5,0.5,5-0.1c1.8-0.7,3.5-2,4.9-3.4
		c4.5-4.7,9.1-9.3,13.2-14.3c6.2-7.4,13.2-13.6,21.8-18c7.7-3.9,15.5-7.7,23.1-11.8c7.1-3.8,12-9.5,12.8-17.9
		C117.9,87.5,114.9,76.4,112.1,64.5z"/>
	<linearGradient id="SVGID_1_" gradientUnits="userSpaceOnUse" x1="4.1794" y1="188.5309" x2="440.2288" y2="188.5309">
		<stop  offset="0" style="stop-color:#8335D6"/>
		<stop  offset="1" style="stop-color:#CD2153"/>
	</linearGradient>
	<path class="st1" d="M230,236.9c1.5-1,2.9-2.2,4.4-3c32.5-18.6,65-37.2,97.5-55.9c1.7-1,3.4-2,5.3-3.1c-2.6-4.3-5-8.3-7.3-12.3
		c-3-5.3-2.1-8.9,2.8-12.4c2.2-1.5,4.4-3,7.5-5c-10.1-12.3-19.5-24.5-29.8-36c-16.1-18.2-34.3-33.9-54.6-47.3c-6.2-4-9-9.8-7.6-17.1
		c1.3-6.2,5.2-10.8,11.4-11.9c3.7-0.7,8.1-0.3,11.5,1.1c42.3,17.9,79.1,43.7,110.6,77.1c1.1,1.2,2.1,2.5,3.1,3.6
		c9.5-4.1,11.4-3.5,16.5,5.1c12.1,20.3,24.1,40.7,36.3,60.9c2.7,4.4,3.7,8.4-0.3,12.7c-0.7,0.8-0.5,3.1,0,4.4
		c14.1,36.2,20.2,73.7,18.7,112.5c-0.3,6.6-0.8,13.3-1.7,19.9c-1,8.3-6.9,13.8-14.7,14.5c-7.8,0.6-14.1-4.5-16.8-12.8
		c-8.2-25.7-16.3-51.3-24.9-76.8c-3.1-9.2-7.5-18-11.6-27.6c-2,1.2-3.5,2.2-4.9,3.1c-5.4,3.5-9.6,2.6-13-3c-2.1-3.4-4-6.8-6.4-10.8
		c-23.9,16.4-47.6,32.7-71.7,49.3c-2.3-4.9-4.4-9.5-6.9-14.7c23.4-16.1,46.6-32.1,70.3-48.4c-2.8-4.7-5.5-9.2-8.4-14.2
		c-1.8,0.9-3.3,1.7-4.9,2.6c-23.8,13.6-47.6,27.3-71.6,40.8c-2.1,1.2-5.3,1.5-7.8,1c-8.7-1.9-17.2-1.5-25.4,2
		c-1.8,0.8-3.7,1.4-5.5,2.1L230,236.9z M346.9,160c10.7,17.9,21.1,35.3,31.6,53c14.5-9.6,28.4-19,42.7-28.5
		c-10.6-17.7-21.1-35.1-31.6-52.8C375.1,141.3,361.1,150.6,346.9,160z M438.3,325.5c4.6-42-0.6-82.5-16-122.3
		c-8,5.3-15.3,10.1-22.6,15C415.9,253.2,428.4,288.8,438.3,325.5z M269.8,51.3c33,23.3,59.9,52.5,83.3,85.3
		c6.6-4.4,12.6-8.4,18.9-12.5C342.4,92.5,308.7,68.2,269.8,51.3z"/>
	<linearGradient id="SVGID_2_" gradientUnits="userSpaceOnUse" x1="4.1794" y1="333.3289" x2="440.2288" y2="333.3289">
		<stop  offset="0" style="stop-color:#8335D6"/>
		<stop  offset="1" style="stop-color:#CD2153"/>
	</linearGradient>
	<path class="st2" d="M230.1,237.1c-4.6,4-9.7,7.6-13.8,12c-3.2,3.5-5.7,7.8-7.6,12.2c-3.6,8.3-13.9,16.1-23,15.7
		c-14.1-0.6-26.4,2.8-35.3,14.6c-1.2,1.6-2.6,3.2-3.1,5.1c-1.6,6.5-6.7,9.3-12,12.3c-18.1,10.2-36.1,20.7-54.2,31
		c-1.7,1-3.4,2-5.6,3.3c4.3,6.2,8.4,12.2,12.5,18.2c-3.4,4.2-6.7,8.3-10.4,13c-5.3-7.7-10.5-15.2-16.1-23.3
		c-3.8,2.2-7.5,4.3-11.2,6.4c-9.7,5.5-19.4,11.1-29,16.6c-5.9,3.4-6.8,7-3.2,12.7c4.5,7,9.1,13.9,13.6,21c0.8,1.2,1.6,2.8,1.4,4
		c-0.9,5.7-2.2,11.3-3.6,17.9c-2.3-2.2-5-4.1-6.8-6.7c-6.6-9.6-13.1-19.3-19.1-29.3c-7.5-12.3-3.4-25.9,9.8-33.6
		c21.5-12.4,43-24.7,64.6-37c49-28,98-56.1,147-84.1c1.6-0.9,3.3-1.5,4.9-2.3C230,236.9,230.1,237.1,230.1,237.1z"/>
	<path class="st0" d="M259.7,84.1c4.4,3.5,8.6,6.8,13.7,10.9c-8.1,1.7-7.7,7.8-8.4,13.4c-1.5,11.9-6.3,21.4-18,26.8
		c-2.9,1.3-4.7,5-6.5,8.3c24.6,4,49.3-1.8,72.9,3.7c-0.5,5.4-0.9,10.5-1.4,15.9c-21.4-4.7-43.6-0.7-65.6-2.1
		c-12.1-0.8-19.4-5.1-21.2-12.5c-2.2-8.9,2.9-22.1,12.2-26.3c9.7-4.5,12.1-12,12.6-21.1C250.3,93.9,253.5,88.5,259.7,84.1z"/>
	<path class="st0" d="M152.3,262.2c-5-42.9,29.9-84.3,79.6-80.7c14.9,1.1,29.1,4.8,44.3,9.6c-6.6,3.8-12.4,7.3-18.3,10.4
		c-1.1,0.6-2.9,0-4.3-0.4c-13.2-3.1-26.5-5.3-40-2.5c-24.6,5-43.2,25.8-45.3,50.7c-0.3,3.4-1.5,5-4.3,6.4
		C160.2,257.7,156.5,259.9,152.3,262.2z"/>
	<path class="st0" d="M362,324.8c8.7-12.4,16.9-24.3,25.7-36.9c-3.5-1.2-6.1-2.1-8.7-3.1c-13.6-5.3-24.5-13.7-29-28.2
		c-3.7-11.9-3.9-10,7.9-17.3c2.2,3.8,5.1,7.4,6.6,11.5c3.2,9,9.5,14.8,18.1,18c3,1.1,4.5,2.8,5.4,5.7c2.6,7.9,5.5,15.7,8.1,23.6
		c0.5,1.4,0.8,3.6,0.1,4.6c-6.4,9.8-13.1,19.5-19.6,29.1C371.2,329.2,366.6,327,362,324.8z"/>
	<path class="st0" d="M415.6,351.5c3.4,2.2,6.6,4.4,10.4,6.9c-5.9,0-11.4,0-17.8,0C411.1,355.8,413.4,353.7,415.6,351.5z"/>
	<path class="st0" d="M384.3,180.2c-4.4,0.1-8-3.2-8.2-7.5c-0.2-4.4,3.6-8.4,8-8.4c4.2,0,7.9,3.7,8,7.9
		C392.1,176.5,388.7,180,384.3,180.2z"/>
</g>
</svg>
