<?xml version="1.0" encoding="utf-8"?>
<!-- Generator: Adobe Illustrator 23.0.5, SVG Export Plug-In . SVG Version: 6.00 Build 0)  -->
<svg version="1.1" id="Layer_1" xmlns="http://www.w3.org/2000/svg" xmlns:xlink="http://www.w3.org/1999/xlink" x="0px" y="0px"
	 viewBox="0 0 512 512" style="enable-background:new 0 0 512 512;" xml:space="preserve">
<style type="text/css">
	.st0{fill:#2C2C2C;}
	.st1{fill:url(#SVGID_1_);}
	.st2{fill:url(#SVGID_2_);}
	.st3{fill:url(#SVGID_3_);}
	.st4{fill:url(#SVGID_4_);}
	.st5{fill:url(#SVGID_5_);}
	.st6{fill:url(#SVGID_6_);}
	.st7{fill:url(#SVGID_7_);}
	.st8{fill:url(#SVGID_8_);}
	.st9{fill:none;}
	.st10{fill:url(#SVGID_9_);}
	.st11{fill:url(#SVGID_10_);}
	.st12{fill:url(#SVGID_11_);}
	.st13{fill:url(#SVGID_12_);}
	.st14{fill:url(#SVGID_13_);}
	.st15{fill:url(#SVGID_14_);}
	.st16{fill:url(#SVGID_15_);}
	.st17{fill:url(#SVGID_16_);}
	.st18{fill:url(#SVGID_17_);}
	.st19{fill:url(#SVGID_18_);}
	.st20{fill:url(#SVGID_19_);}
	.st21{fill:url(#SVGID_20_);}
	.st22{fill:url(#SVGID_21_);}
	.st23{fill:url(#SVGID_22_);}
	.st24{fill:url(#SVGID_23_);}
	.st25{fill:url(#SVGID_24_);}
	.st26{fill:url(#SVGID_25_);}
	.st27{fill:url(#SVGID_26_);}
	.st28{fill:url(#SVGID_27_);}
	.st29{fill:url(#SVGID_28_);}
	.st30{fill:url(#SVGID_29_);}
	.st31{fill:url(#SVGID_30_);}
	.st32{fill:url(#SVGID_31_);}
	.st33{fill:url(#SVGID_32_);}
</style>
<g>
	<path class="st0" d="M338.3,0c6.2,1,12.4,2.1,18.6,3.1c1.6,0.3,3.2,0.8,5.3,1.3c-1.3,4.8-2.5,9.4-3.6,13.8c-9.3-1-18.1-2-28.3-3.2
		c0-4.8,0-9.9,0-15C332.9,0,335.6,0,338.3,0z"/>
	<path class="st0" d="M260.3,512c-2.9-0.5-5.8-1-8.7-1.4c-2.4-0.3-3.6-1.3-3.1-3.9c0.5-2.6,0.4-5.4,1.3-7.8c0.4-1.2,2.3-2.6,3.6-2.7
		c8.1-0.2,16.2-0.1,24.9-0.1c0.6,5,1.1,9.5,1.7,14.1c-1.3,0.6-2.4,1.2-3.6,1.8C270.9,512,265.6,512,260.3,512z"/>
	<linearGradient id="SVGID_1_" gradientUnits="userSpaceOnUse" x1="115.3709" y1="329.1987" x2="424.614" y2="329.1987">
		<stop  offset="0" style="stop-color:#8335D6"/>
		<stop  offset="1" style="stop-color:#CD2153"/>
	</linearGradient>
	<path class="st1" d="M282.2,242.4c9.5,3,20.4,6.6,31.4,9.8c12.2,3.5,24.4,1.8,36.6-0.5c7.8-1.4,15.5-3.4,23.1-5.6
		c13-3.7,22.8-12.6,33-20.7c1.2-0.9,1.8-3.5,1.6-5.2c-0.7-6.1-1.8-12.1-2.8-18.3c1.3-0.3,2.2-0.6,3.2-0.8
		c10.9-2.3,10.3-2.2,13.1,8.5c6,22.3,2.3,44.5-0.8,66.6c-3,21.2-11.4,40.5-22.2,58.9c-2,3.4-2.6,6.5-1.4,10.3
		c1.3,4.1,1.9,8.4,3,13.3c-5.7,0.6-10.9,2.9-16.3-0.2c-50.9,62.2-144,97.4-239.6,47.5c-6.2,7.7-9.5,20-14.3,52.5
		c-4.4,0-8.8,0-14.4,0c0.8-7.7,1.3-15.4,2.6-23c2.4-14.9,7.8-28.8,15.1-42.1c1-1.9,1.4-4.4,1.2-6.6c-1-14.8,0.7-29.3,4.6-43.5
		c2.5-9,4.9-18.3,9.3-26.5c4.7-8.8,11.3-16.6,17.6-24.5c7.1-8.8,13.5-18.6,23.8-24c11.1-5.8,22.7-10.6,33.8-16.3
		c10.4-5.4,21.6-7.3,33-8c5.9-0.4,11.9,0.4,17.9,0.3C276.6,244.2,278.8,243.2,282.2,242.4z M409.4,243.2c-2.6,1.6-4.1,2.5-5.6,3.4
		c-16.7,10.5-34.5,18.1-54.2,20.2c-8.7,1-17.6,0.7-26.4,1.1c-3.1,0.1-6.4,1.3-9.1,0.4c-15.3-4.8-30.5-8.8-46.8-8.6
		c-55.5,0.4-103.9,39.1-115.9,93.4c-1.1,5-1.6,10.1-2.6,16.6c2-1.6,2.6-2.1,3.2-2.7c27.6-28,60.9-41.7,100.3-42
		c25.2-0.2,48-8.3,68-23.9c1.5-1.2,3.1-2.4,4.8-3.7c2.3,2.8,4.4,5.4,6.5,8c0.8,1,1.6,2.1,2.3,3.1c-0.4,0.5-0.7,1-1.1,1.3
		c-0.9,0.8-1.8,1.5-2.7,2.2c-23.8,17.9-50.6,27.1-80.3,27.7c-16.6,0.3-32.4,3.5-47.5,10.1c-20.8,9.1-37.6,23-50.6,41.5
		c0.4,0.6,0.5,0.9,0.8,1.1c0.7,0.5,1.4,1,2.1,1.4c35.5,19.3,73.1,24.7,112.9,17.8c30-5.2,55.9-18.6,79.7-36.9
		c11.5-8.8,20-20.3,28.8-31.6c2.3-3,4.3-5.9,1.4-10.3c9-0.9,11.8-7.8,14.2-14.2c4.8-12.9,9-26,13.3-39
		C408.6,268.1,409.1,256.3,409.4,243.2z"/>
	<path class="st0" d="M259.3,68.6c-9.6,0-18.5,0.9-27.1-0.4c-4.5-0.7-8.5-5.2-13.6-8.5c7.1-8.3,13.9-16.1,21.2-24.6
		c3.8,4.1,7,7.6,10.2,11.1c-2.2,2.3-4.1,4.3-6.7,7.1c6,0.7,11.2,1.3,17.1,2.1C260,60.1,259.7,64.6,259.3,68.6z"/>
	<path class="st0" d="M223.4,214.9c4.6-3.5,8.4-6.4,10.7-8.1c7.3,6.5,14.1,12.7,21.4,19.3c-3.1,3.8-6.3,7.7-10.1,12.4
		C238,230.6,230.9,222.9,223.4,214.9z"/>
	<path class="st0" d="M222,487.8c-1.9,4.2-3.8,8.5-6.2,13.9c-9.5-5.2-18.6-10.3-28.3-15.6c3.5-4.7,6.3-8.5,9.3-12.5
		C205.2,478.3,213.3,482.9,222,487.8z"/>
	<path class="st0" d="M381.6,147.3c4-2.8,7.9-5.5,12.5-8.7c5,9.4,9.9,18.4,15.1,28.1c-5.1,2.3-9.4,4.2-14.2,6.4
		C390.6,164.5,386.2,156,381.6,147.3z"/>
	<path class="st0" d="M85.9,328c-4.1,2.4-8.2,4.8-13.3,7.9c-4.1-9.3-8.1-18-11.8-26.8c-0.3-0.8,0.6-3,1.5-3.4
		c3.6-1.7,7.3-2.9,10.9-4.3C77.4,310.3,81.5,318.8,85.9,328z"/>
	<path class="st0" d="M429.8,67.9c3.9-2.7,7.7-5.3,12.6-8.7c5,9.8,9.8,19.1,14.8,29.1c-5.6,1.8-10.1,3.3-14.6,4.8
		C438.3,84.6,434.2,76.5,429.8,67.9z"/>
	<path class="st0" d="M459.7,173.2c-4.6,9.9-8.9,19.2-13.5,29c-4.7-2.8-8.8-5.2-13.1-7.7c3.9-8.7,7.7-17.1,11.6-25.9
		C449.3,170,453.9,171.4,459.7,173.2z"/>
	<path class="st0" d="M174.8,453.7c-3.7,3-7.2,5.8-11.7,9.4c-5.8-9.1-11.4-17.9-17.4-27.4c5.3-2.4,9.7-4.3,14-6.3
		C164.7,437.6,169.6,445.5,174.8,453.7z"/>
	<path class="st0" d="M341.6,103.8c3.1-3.9,6-7.5,9.4-11.8c7.9,7.1,15.5,13.9,23.6,21.2c-4.3,3.7-8,6.9-11.7,10.1
		C355.8,116.8,349,110.5,341.6,103.8z"/>
	<path class="st0" d="M420.1,33.2c-3.8,4.4-6.9,8-10,11.5c-8-5.6-15.7-11-23.6-16.5c2.2-4,4.3-8.1,7.1-13.1
		C402.6,21.2,411.1,27.1,420.1,33.2z"/>
	<path class="st0" d="M136.7,80.9c2.8,4.9,5.2,8.8,7.6,13c-7.5,5.7-14.8,11.3-22.7,17.4c-3.1-3.6-6.3-7.2-10-11.5
		C120.1,93.3,128.2,87.3,136.7,80.9z"/>
	<path class="st0" d="M166.9,66.1c10.5-3.2,20.2-6.1,30.6-9.3c0.8,5.6,1.6,10.4,2.3,15.2c-9.1,2.7-18,5.2-27.4,8
		C170.6,75.7,169,71.4,166.9,66.1z"/>
	<path class="st0" d="M296.5,3.6c1.4,4.9,2.6,8.7,3.4,12.5c0.2,1-0.8,3-1.7,3.4c-8,3.1-16.1,5.9-24.6,8.9c-2-3.7-4.1-7.8-6.9-13
		C276.8,11.4,286.4,7.6,296.5,3.6z"/>
	<path class="st0" d="M401.7,378.5c-1.1,10.6-2.2,20.7-3.4,31.6c-5.5-1.4-10-2.6-14.7-3.8c1.1-9.3,2.1-18.3,3.2-27.8
		C391.1,378.5,395.7,378.5,401.7,378.5z"/>
	<path class="st0" d="M332.4,477.5c2.8,4.1,5.3,7.9,8.6,12.7c-9.6,4.8-18.6,9.4-28.1,14.1c-2.1-5.3-3.8-9.5-5.6-14
		C315.5,486.1,323.7,481.9,332.4,477.5z"/>
	<path class="st0" d="M217.7,94.5c-2.2,9.8-4.2,18.8-6.4,28.2c-3.6-0.3-7.6-0.5-11.4-1.1c-0.9-0.2-2.4-2-2.3-2.8
		c1.8-9.5,3.8-19,5.9-29C209.2,91.6,213.5,93.1,217.7,94.5z"/>
	<path class="st0" d="M114.2,385.7c-7.8-7.9-15-15.2-22.7-23c4.2-3.4,7.8-6.3,11-8.9c6.9,6.9,13.5,13.6,20.5,20.7
		C120.7,377.5,117.9,381.1,114.2,385.7z"/>
	<path class="st0" d="M367.1,467.9c-4.3-3.9-7.5-7-10.8-10c5.6-8,10.9-15.7,16.5-23.7c4,2.1,8,4.2,13,6.8
		C379.5,450.1,373.5,458.7,367.1,467.9z"/>
	<path class="st0" d="M71.5,184.9c-2.4,9.4-4.7,18.5-7.1,28.1c-4.5-0.7-9-1.3-14.6-2.2c2.6-10.3,5-20.1,7.6-30.6
		C62.6,182,66.9,183.4,71.5,184.9z"/>
	<path class="st0" d="M464.7,139.8c-5.6-0.4-10-0.8-14.7-1.1c-0.8-9.3-1.5-18.4-2.4-28.2c4.5-0.9,9.1-1.8,14.5-2.9
		C463,118.7,463.8,128.8,464.7,139.8z"/>
	<path class="st0" d="M88.9,124.3c4.3,3.4,7.9,6.3,11.4,9.1c-5.4,8.4-10.5,16.3-15.7,24.5c-4.2-2.3-8.2-4.4-12.9-7
		C77.5,142,82.9,133.5,88.9,124.3z"/>
	<path class="st0" d="M219.9,180.8c-4,1.6-8.2,3.2-13.4,5.3c-3.1-10.2-6-20-9.2-30.4c5.8-1,10.4-1.7,14.7-2.5
		C214.7,162.5,217.2,171.3,219.9,180.8z"/>
	<path class="st0" d="M47.3,244.4c5.6,0,9.9,0,14.5,0c1,9.6,2,19.1,3,29c-4.5,0.7-9,1.4-14.4,2.2C49.4,265,48.4,254.9,47.3,244.4z"
		/>
	<path class="st0" d="M322.6,74.8c-2.8,4.8-4.9,8.6-7.1,12.3c-8.9-3.7-17.4-7.2-26.6-11c1.3-4.1,2.7-8.4,4.5-13.8
		C303.3,66.5,312.7,70.5,322.6,74.8z"/>
	<path class="st0" d="M352.7,274.3c7.5,8,14.6,15.6,22,23.6c-4.3,3.2-7.9,5.9-9.7,7.2c-7.3-6.5-14.3-12.6-21.6-19.1
		C346.1,282.6,349,279,352.7,274.3z"/>
</g>
</svg>
