<?xml version="1.0" encoding="utf-8"?>
<!-- Generator: Adobe Illustrator 23.0.5, SVG Export Plug-In . SVG Version: 6.00 Build 0)  -->
<svg version="1.1" id="Layer_1" xmlns="http://www.w3.org/2000/svg" xmlns:xlink="http://www.w3.org/1999/xlink" x="0px" y="0px"
	 viewBox="0 0 512 512" style="enable-background:new 0 0 512 512;" xml:space="preserve">
<style type="text/css">
	.st0{fill:#2C2C2C;}
	.st1{fill:url(#SVGID_1_);}
	.st2{fill:url(#SVGID_2_);}
	.st3{fill:url(#SVGID_3_);}
	.st4{fill:url(#SVGID_4_);}
	.st5{fill:url(#SVGID_5_);}
	.st6{fill:url(#SVGID_6_);}
	.st7{fill:url(#SVGID_7_);}
	.st8{fill:url(#SVGID_8_);}
	.st9{fill:none;}
	.st10{fill:url(#SVGID_9_);}
	.st11{fill:url(#SVGID_10_);}
	.st12{fill:url(#SVGID_11_);}
	.st13{fill:url(#SVGID_12_);}
	.st14{fill:url(#SVGID_13_);}
	.st15{fill:url(#SVGID_14_);}
	.st16{fill:url(#SVGID_15_);}
	.st17{fill:url(#SVGID_16_);}
	.st18{fill:url(#SVGID_17_);}
	.st19{fill:url(#SVGID_18_);}
	.st20{fill:url(#SVGID_19_);}
	.st21{fill:url(#SVGID_20_);}
	.st22{fill:url(#SVGID_21_);}
	.st23{fill:url(#SVGID_22_);}
	.st24{fill:url(#SVGID_23_);}
	.st25{fill:url(#SVGID_24_);}
	.st26{fill:url(#SVGID_25_);}
	.st27{fill:url(#SVGID_26_);}
	.st28{fill:url(#SVGID_27_);}
	.st29{fill:url(#SVGID_28_);}
	.st30{fill:url(#SVGID_29_);}
	.st31{fill:url(#SVGID_30_);}
	.st32{fill:url(#SVGID_31_);}
	.st33{fill:url(#SVGID_32_);}
</style>
<g>
	<path class="st0" d="M0,309c5.1,0,10.2,0,15.6,0c0,5.7,0,10.9,0,17c-5.2,0-10.4,0-15.6,0C0,320.3,0,314.6,0,309z"/>
	<path class="st0" d="M512,326c-5.1,0-10.2,0-15.6,0c0-5.7,0-10.9,0-17c5.2,0,10.4,0,15.6,0C512,314.6,512,320.3,512,326z"/>
	<linearGradient id="SVGID_1_" gradientUnits="userSpaceOnUse" x1="118.0567" y1="255.9205" x2="393.8749" y2="255.9205">
		<stop  offset="0" style="stop-color:#8335D6"/>
		<stop  offset="1" style="stop-color:#CD2153"/>
	</linearGradient>
	<path class="st1" d="M258.8,131.9c10.8,0.3,21.1,6.6,27.8,18.1c14,23.8,27.7,47.8,41.5,71.8c15.6,27.1,31.3,54.2,46.9,81.3
		c5.3,9.2,10.9,18.2,15.6,27.7c7.7,15.4,1.2,35.6-13.5,43.9c-17.1,9.6-36.8,5.9-46.7-9.5c-7.7-12-14.5-24.5-21.9-36.6
		c-1-1.6-3.5-3.1-5.3-3.1c-31.5-0.2-63-0.1-94.4-0.2c-4,0-5,2.6-6.4,5.1c-6.9,11.7-13.4,23.7-20.7,35.1c-9.9,15.3-29.8,19-46.8,9.4
		c-14.7-8.3-21.3-28.6-13.4-43.9c7.9-15.3,16.8-30.1,25.4-45c14.8-25.7,29.7-51.3,44.5-77c11.2-19.4,22.3-38.8,33.5-58.1
		C232,138.5,243.2,131.8,258.8,131.9z M255.5,309.3c18.5,0,37,0.1,55.5-0.1c3.7,0,5.6,1.3,7.3,4.4c7.6,13.5,15.3,26.8,23.2,40.2
		c5.9,10.1,17.5,13.4,27,7.8c9.4-5.5,12.2-17.3,6.4-27.4c-33.5-58.2-67.3-116.2-100.6-174.6c-8.8-15.5-28-15.3-36.7,0
		c-33.2,58.3-67.1,116.4-100.4,174.6c-2.2,3.8-3.1,8.9-2.8,13.3c0.5,8.3,6.9,14.6,14.6,16.3c8.4,1.8,16.7-1.7,21.3-9.6
		c7.8-13.3,15.6-26.7,23.1-40.2c1.9-3.4,3.9-4.9,8.1-4.8C219.5,309.5,237.5,309.3,255.5,309.3z"/>
	<path class="st0" d="M32.3,325.6c0-5.5,0-10.6,0-16.1c5.1,0,10.1,0,15.4,0c0,5.3,0,10.6,0,16.1C42.6,325.6,37.7,325.6,32.3,325.6z"
		/>
	<path class="st0" d="M464.4,309.3c5.1,0,10,0,15.1,0c0,5.4,0,10.7,0,16.3c-5,0-9.9,0-15.1,0C464.4,320.4,464.4,315.2,464.4,309.3z"
		/>
	<path class="st0" d="M47.2,254.7c0,5.4,0,10.6,0,16.1c-5,0-9.8,0-14.9,0c0-5.3,0-10.5,0-16.1C37.2,254.7,42,254.7,47.2,254.7z"/>
	<path class="st0" d="M464.8,254.5c5.1,0,9.9,0,14.9,0c0,5.5,0,10.7,0,16.2c-5,0-9.7,0-14.9,0C464.8,265.5,464.8,260.3,464.8,254.5z
		"/>
	<path class="st0" d="M195.8,24.9c5.1-2.9,9.7-5.5,14.6-8.3c2.7,4.6,5.1,8.9,7.8,13.5c-4.9,2.8-9.4,5.5-14.4,8.4
		C201.1,33.9,198.6,29.7,195.8,24.9z"/>
	<path class="st0" d="M293.7,30.1c2.7-4.7,5.1-8.9,7.8-13.5c4.9,2.8,9.6,5.5,14.6,8.3c-2.7,4.6-5.1,8.9-7.9,13.6
		C303.3,35.7,298.8,33,293.7,30.1z"/>
	<path class="st0" d="M156.3,65.9c-2.7-4.7-5.1-9-7.8-13.6c4.9-2.8,9.5-5.5,14.5-8.4c2.6,4.6,5.1,8.9,7.8,13.6
		C165.9,60.4,161.3,63,156.3,65.9z"/>
	<path class="st0" d="M211.9,52.7c4.9-2.8,9.4-5.5,14.4-8.4c2.6,4.5,5.1,8.7,7.9,13.5c-4.8,2.8-9.4,5.5-14.5,8.4
		C217.1,61.6,214.6,57.3,211.9,52.7z"/>
	<path class="st0" d="M277.7,57.9c2.7-4.7,5.1-8.8,7.8-13.6c4.9,2.8,9.6,5.5,14.5,8.3c-2.7,4.6-5.1,8.9-7.8,13.6
		C287.4,63.5,282.9,60.8,277.7,57.9z"/>
	<path class="st0" d="M250.3,85.6c-4.8,2.8-9.4,5.4-14.5,8.4c-2.6-4.5-5.2-8.9-7.9-13.5c4.8-2.8,9.4-5.4,14.5-8.4
		C245,76.5,247.6,80.9,250.3,85.6z"/>
	<path class="st0" d="M276.2,94c-5-2.9-9.6-5.5-14.5-8.4c2.6-4.6,5.1-8.9,7.8-13.6c4.9,2.8,9.6,5.5,14.6,8.3
		C281.5,84.9,279,89.2,276.2,94z"/>
	<path class="st0" d="M60.3,468c-5-2.9-9.6-5.5-14.5-8.4c2.6-4.6,5.1-8.9,7.8-13.6c4.9,2.8,9.6,5.5,14.6,8.3
		C65.5,458.9,63.1,463.2,60.3,468z"/>
	<path class="st0" d="M394.9,445.6c2.8,4.8,5.2,9.1,7.9,13.6c-5,2.9-9.5,5.5-14.5,8.4c-2.7-4.6-5.1-8.8-7.9-13.6
		C385.3,451.3,389.8,448.6,394.9,445.6z"/>
	<path class="st0" d="M109.2,459.3c2.7-4.7,5.1-8.8,7.8-13.6c4.8,2.8,9.4,5.5,14.5,8.4c-2.7,4.6-5.1,8.9-7.8,13.6
		C118.9,464.8,114.4,462.2,109.2,459.3z"/>
	<path class="st0" d="M410.9,473.4c2.8,4.7,5.2,9,7.9,13.6c-4.9,2.9-9.5,5.5-14.5,8.4c-2.6-4.5-5.1-8.7-7.9-13.6
		C401.2,479,405.7,476.4,410.9,473.4z"/>
	<path class="st0" d="M92.3,412.6c-5.1-3-9.6-5.6-14.5-8.5c2.7-4.6,5.2-8.9,7.8-13.5c4.9,2.8,9.5,5.5,14.5,8.3
		C97.6,403.4,95.1,407.7,92.3,412.6z"/>
	<path class="st0" d="M458.4,446c2.7,4.7,5.2,9,7.8,13.6c-4.9,2.8-9.4,5.5-14.4,8.4c-2.7-4.6-5.2-8.9-8-13.6
		C448.7,451.6,453.3,449,458.4,446z"/>
	<path class="st0" d="M172.3,93.7c-2.7-4.6-5.1-8.8-7.9-13.6c4.8-2.8,9.4-5.5,14.5-8.4c2.6,4.5,5,8.6,7.9,13.5
		C182.1,87.9,177.5,90.6,172.3,93.7z"/>
	<path class="st0" d="M333,71.7c5.1,2.9,9.6,5.6,14.5,8.4c-2.7,4.7-5.1,9-7.8,13.6c-4.9-2.9-9.5-5.5-14.5-8.4
		C327.7,80.8,330.2,76.5,333,71.7z"/>
	<path class="st0" d="M450.3,431.9c-5.1,2.9-9.7,5.6-14.6,8.4c-2.7-4.6-5.2-8.9-7.9-13.5c4.8-2.8,9.4-5.5,14.4-8.4
		C445,422.9,447.5,427.1,450.3,431.9z"/>
	<path class="st0" d="M434.3,404.1c-5.1,2.9-9.6,5.5-14.6,8.4c-2.7-4.7-5.2-8.9-7.9-13.5c4.9-2.8,9.4-5.5,14.5-8.4
		C428.9,395.1,431.4,399.3,434.3,404.1z"/>
	<path class="st0" d="M349,44c4.9,2.9,9.5,5.5,14.5,8.4c-2.7,4.7-5.2,9.1-7.8,13.6c-5-2.9-9.5-5.5-14.5-8.4
		C343.8,53,346.3,48.6,349,44z"/>
	<path class="st0" d="M101.1,473.4c5.1,2.9,9.5,5.5,14.5,8.4c-2.7,4.6-5.2,8.9-7.9,13.6c-5-2.9-9.6-5.6-14.6-8.4
		C95.8,482.4,98.3,478.1,101.1,473.4z"/>
	<path class="st0" d="M61.8,431.9c2.7-4.7,5.2-8.9,7.9-13.6c4.8,2.8,9.4,5.4,14.5,8.3c-2.6,4.6-5.1,8.9-7.8,13.6
		C71.4,437.4,66.8,434.8,61.8,431.9z"/>
	<path class="st0" d="M245.1,109c7.3-7.4,14.4-8,21.7-0.1c-1.8,3.2-3.6,7-5.9,10.6c-1.7,2.7-7.5,2.7-9.4,0
		C249.2,116.1,247.2,112.5,245.1,109z"/>
	<path class="st0" d="M447.8,254.1c0,5.8,0,10.9,0,16.5c-4.6,0-9.3,0-14.4,0c0-5,0-10.1,0-15.4C438,254.8,442.6,254.5,447.8,254.1z"
		/>
	<path class="st0" d="M64.4,254.2c4.9,0.3,9.4,0.6,14.3,0.9c0,5.2,0,10.2,0,15.6c-4.8,0-9.3,0-14.3,0
		C64.4,265.5,64.4,260.3,64.4,254.2z"/>
	<path class="st0" d="M125.1,431.5c2.8-4.4,5.4-8.4,8.1-12.7c4.5,2.7,8.8,5.2,13.3,7.8c-2.2,4.5-4.2,8.7-6.5,13.4
		C134.8,437.1,130.2,434.4,125.1,431.5z"/>
	<path class="st0" d="M372.1,440c-2.2-4.5-4.3-8.7-6.6-13.4c4.4-2.6,8.6-5.2,13.2-7.9c2.7,4.1,5.3,8.1,8.3,12.6
		C381.9,434.3,377.3,437,372.1,440z"/>
	<path class="st0" d="M447.6,309.1c0,5.7,0,10.9,0,16.9c-4.8-0.2-9.5-0.5-14.9-0.8c0-4.6-0.1-8.9,0.1-13.1c0-0.9,1.4-2.2,2.3-2.3
		C439.2,309.4,443.3,309.3,447.6,309.1z"/>
	<path class="st0" d="M79.1,309.9c0,5.3,0,10,0,15.3c-4.9,0.3-9.6,0.6-14.6,1c0-5.9,0-11.1,0-17C69.2,309.4,73.8,309.6,79.1,309.9z"
		/>
	<path class="st0" d="M96.1,255.2c5,0,9.6,0,14.6,0c0,5,0,10,0,15.6c-4,0-8.1,0.1-12.1-0.1c-0.9-0.1-2.3-1.5-2.3-2.4
		C96,264.1,96.1,259.8,96.1,255.2z"/>
	<path class="st0" d="M401.1,270.5c0-5.1,0-9.9,0-15.1c4.8,0,9.5,0,14.5,0c0.1,1,0.3,1.9,0.3,2.9
		C416.1,272.1,416.1,272.1,401.1,270.5z"/>
	<path class="st0" d="M369.2,270.9c0-5.6,0-10.5,0-15.7c4.9,0,9.4,0,14.6,0c0,4.4,0.2,8.7-0.1,12.9c-0.1,1-1.9,2.5-3.1,2.6
		C377,271.1,373.4,270.9,369.2,270.9z"/>
	<path class="st0" d="M128.1,255.2c5.2,0,9.7,0,14.6,0c0,5.2,0,10.1,0,15.7c-4,0-7.9,0.2-11.8-0.1c-1-0.1-2.6-1.9-2.7-3
		C127.9,263.7,128.1,259.7,128.1,255.2z"/>
	<path class="st0" d="M316.8,99.3c5.3,3.1,9.7,5.7,14.6,8.5c-2.8,4.2-5.3,8.1-8.2,12.6c-4.3-2.5-8.7-5.1-13-7.7
		C312.4,108.3,314.5,104.1,316.8,99.3z"/>
	<path class="st0" d="M188.8,120.3c-2.8-4.3-5.4-8.1-8.2-12.5c4.8-2.8,9.2-5.4,14.6-8.5c2,4.1,4.1,8,5.7,12c0.3,0.6-0.8,2.3-1.7,2.9
		C195.8,116.3,192.3,118.2,188.8,120.3z"/>
	<path class="st0" d="M403.7,383.6c-2.4-4.2-4.6-8-7-12.1c4.5-2.6,8.7-5,13.2-7.7c2.6,4.4,5.1,8.6,7.7,12.8
		C413,378.9,408.5,381.2,403.7,383.6z"/>
	<path class="st0" d="M97.1,325.2c0-5.3,0-10.1,0-15.5c4.1,0,8-0.1,11.9,0.1c0.8,0,2.1,1.3,2.1,2.1c0.2,3.6,0.3,7.3,0,11
		c-0.1,0.9-1.5,2.2-2.4,2.3C105,325.4,101.2,325.2,97.1,325.2z"/>
	<path class="st0" d="M414.9,309.7c0,5.4,0,10.2,0,15.6c-4,0-7.8,0-11.5,0c-0.2,0-0.4,0-0.5,0c-4.6-3.2-1.3-7.8-2.1-11.7
		c-0.5-2.1,0.2-3.9,3.1-3.8C407.3,309.7,410.8,309.7,414.9,309.7z"/>
	<path class="st0" d="M101.9,363.7c4.7,2.7,8.8,5.1,13.3,7.6c-2,3.5-3.7,7-5.9,10.2c-0.5,0.8-2.6,1.2-3.5,0.8
		c-3.7-1.7-7.2-3.8-11.2-6C97,372.3,99.3,368.3,101.9,363.7z"/>
	<path class="st0" d="M162.6,398.8c-2.3,4.2-4.6,8.2-7,12.5c-4.5-2.6-8.7-5-13.3-7.7c2.5-4.5,4.7-8.4,7-12.6
		C153.7,393.6,157.9,396.1,162.6,398.8z"/>
	<path class="st0" d="M301.4,128.3c4.6,2.6,8.7,4.9,13.2,7.4c-2.4,4.3-4.6,8.2-7,12.5c-3.8-2.1-7.5-4-11-6.2
		c-0.9-0.6-1.6-2.8-1.2-3.6C297,135,299.2,131.8,301.4,128.3z"/>
	<path class="st0" d="M349.3,398.7c4.7-2.6,8.8-4.9,13.4-7.5c2.4,4.2,4.6,8,7.1,12.3c-4.5,2.6-8.7,5-13.3,7.7
		C354.1,407.1,351.9,403.2,349.3,398.7z"/>
	<path class="st0" d="M197.5,135.7c4.5-2.6,8.6-5,13.2-7.7c2.3,4.1,4.6,8.1,7,12.5c-4.6,2.7-8.7,5-13.2,7.7
		C202.1,143.9,199.9,139.9,197.5,135.7z"/>
	<linearGradient id="SVGID_2_" gradientUnits="userSpaceOnUse" x1="218.7138" y1="238.1721" x2="293.3076" y2="238.1721">
		<stop  offset="0" style="stop-color:#8335D6"/>
		<stop  offset="1" style="stop-color:#CD2153"/>
	</linearGradient>
	<path class="st2" d="M218.7,270.5c12.4-21.6,24.6-42.7,37.2-64.6c12.6,21.7,24.8,42.9,37.4,64.6C268.3,270.5,244,270.5,218.7,270.5
		z M265.6,254.5c-3.3-5.9-6.2-10.9-9.6-16.9c-3.6,6.3-6.3,11.3-9.5,16.9C253.2,254.5,258.7,254.5,265.6,254.5z"/>
</g>
</svg>
