<?xml version="1.0" encoding="utf-8"?>
<!-- Generator: Adobe Illustrator 23.0.5, SVG Export Plug-In . SVG Version: 6.00 Build 0)  -->
<svg version="1.1" id="Layer_1" xmlns="http://www.w3.org/2000/svg" xmlns:xlink="http://www.w3.org/1999/xlink" x="0px" y="0px"
	 viewBox="0 0 512 512" style="enable-background:new 0 0 512 512;" xml:space="preserve">
<style type="text/css">
	.st0{fill:#2C2C2C;}
	.st1{fill:url(#SVGID_1_);}
	.st2{fill:url(#SVGID_2_);}
	.st3{fill:url(#SVGID_3_);}
	.st4{fill:url(#SVGID_4_);}
	.st5{fill:url(#SVGID_5_);}
	.st6{fill:url(#SVGID_6_);}
	.st7{fill:url(#SVGID_7_);}
	.st8{fill:url(#SVGID_8_);}
	.st9{fill:none;}
	.st10{fill:url(#SVGID_9_);}
	.st11{fill:url(#SVGID_10_);}
	.st12{fill:url(#SVGID_11_);}
	.st13{fill:url(#SVGID_12_);}
	.st14{fill:url(#SVGID_13_);}
	.st15{fill:url(#SVGID_14_);}
	.st16{fill:url(#SVGID_15_);}
	.st17{fill:url(#SVGID_16_);}
	.st18{fill:url(#SVGID_17_);}
	.st19{fill:url(#SVGID_18_);}
	.st20{fill:url(#SVGID_19_);}
	.st21{fill:url(#SVGID_20_);}
	.st22{fill:url(#SVGID_21_);}
	.st23{fill:url(#SVGID_22_);}
	.st24{fill:url(#SVGID_23_);}
	.st25{fill:url(#SVGID_24_);}
	.st26{fill:url(#SVGID_25_);}
	.st27{fill:url(#SVGID_26_);}
	.st28{fill:url(#SVGID_27_);}
	.st29{fill:url(#SVGID_28_);}
	.st30{fill:url(#SVGID_29_);}
	.st31{fill:url(#SVGID_30_);}
	.st32{fill:url(#SVGID_31_);}
	.st33{fill:url(#SVGID_32_);}
</style>
<g>
	<g>
		<linearGradient id="SVGID_1_" gradientUnits="userSpaceOnUse" x1="30.4055" y1="213.358" x2="426.4711" y2="213.358">
			<stop  offset="0" style="stop-color:#8335D6"/>
			<stop  offset="1" style="stop-color:#CD2153"/>
		</linearGradient>
		<path class="st1" d="M418.3,264.5c5.4,0,10.7,0,16.3,0c0,5.8,0,11.2,0,17c-5.3,0-10.5,0-16.7,0c0,7.4,0,14.4,0,21.4
			c0,10.7-2.2,12.9-12.7,12.9c-20.6,0-41.2,0-61.8,0c-7.9,0-10.8-3-10.8-11c0-7.4,0-14.9,0-22.9c-5.7,0-11,0-16.7,0
			c0-5.9,0-11.1,0-17c5.2,0,10.6,0,16.3,0c0.8-7.4,1-12.9-5.8-18.4c-26.8-21.4-35.1-58.3-21.4-89.6c13.5-30.7,46.8-49.9,78.9-45.5
			c36,5,62.4,30.5,67.2,65.6c3.8,27.8-5.2,51.4-26.8,69.2C417.7,251.8,417.5,257.3,418.3,264.5z M400.9,264.6c0-4,0.4-7.6-0.1-11
			c-1-7.8,2-12.5,8.7-17c24-16.2,32-47.8,19.7-74.2c-12.2-26-41.7-39.9-69.4-31.9c-23.8,6.9-38.7,22.9-42.9,47.3
			c-4.4,25.4,5.1,45.7,26.2,60.2c4.8,3.3,7.2,6.8,6.8,12.6c-0.4,4.5-0.1,9.1-0.1,13.8c6,0,11.4,0,17.1,0c0-14.6,0.1-28.7-0.1-42.9
			c0-2.5-1.3-5.5-3-7.3c-6.4-6.8-13.3-13.2-20-19.7c4.4-4.5,8.2-8.2,12.7-12.8c6.2,6.7,12.3,13.3,19.2,20.8
			c7-7.2,13.3-13.7,19.3-19.8c4.1,3.9,7.9,7.5,12.4,11.7c-7,6.8-13.8,13.2-20.3,20c-1.6,1.7-2.8,4.5-2.9,6.8
			c-0.3,13.1-0.1,26.3-0.1,39.4c0,1.3,0.3,2.7,0.4,4.1C389.8,264.6,394.9,264.6,400.9,264.6z M400.6,282.1c-17.2,0-33.9,0-50.5,0
			c0,5.8,0,11.2,0,16.4c17,0,33.6,0,50.5,0C400.6,293,400.6,287.7,400.6,282.1z"/>
		<path class="st0" d="M272.7,145.6c0,5.7,0,10.9,0,16.5c-53.8,0-107.4,0-161.4,0c0-5.3,0-10.7,0-16.5
			C164.9,145.6,218.6,145.6,272.7,145.6z"/>
		<path class="st0" d="M272.7,111.5c0,5.6,0,10.9,0,16.4c-42.4,0-84.6,0-127.3,0c0-5.3,0-10.7,0-16.4
			C187.6,111.5,229.9,111.5,272.7,111.5z"/>
		<path class="st0" d="M451.8,341.8c0,5.6,0,10.9,0,16.4c-42.5,0-84.6,0-127.3,0c0-5.3,0-10.7,0-16.4
			C366.7,341.8,409,341.8,451.8,341.8z"/>
		<path class="st0" d="M127.8,111.5c0,5.6,0,10.7,0,16.3c-5.4,0-10.8,0-16.6,0c0-5.2,0-10.6,0-16.3
			C116.6,111.5,122,111.5,127.8,111.5z"/>
		<path class="st0" d="M306.8,341.7c0,5.6,0,10.8,0,16.4c-5.5,0-10.8,0-16.5,0c0-5.4,0-10.8,0-16.4
			C295.7,341.7,301,341.7,306.8,341.7z"/>
		<path class="st0" d="M135.9,319c-5.5-2.2-10.4-4.1-15.8-6.3c11.4-28.4,22.6-56.5,34.1-85.2c5.3,2.1,10.3,4,15.9,6.2
			C158.6,262.2,147.3,290.2,135.9,319z"/>
		<path class="st0" d="M115.9,291.9c-3.4,4.5-6.5,8.8-10.1,13.6c-4.5-3.3-8.9-6.5-13.2-9.8c-6.8-5.1-13.7-10.1-20.4-15.4
			c-5.2-4.1-5.5-10.1-0.5-14c11.1-8.6,22.4-16.8,34-25.6c3.5,4.6,6.7,8.9,10.2,13.6c-8.3,6.3-16.3,12.3-24.9,18.8
			C99.6,279.6,107.6,285.7,115.9,291.9z"/>
		<path class="st0" d="M184.2,240.8c11.7,8.7,22.8,17,33.8,25.4c5.2,4,5.2,10,0,14c-11,8.4-22.1,16.6-33.8,25.4
			c-3.3-4.5-6.6-8.8-10.2-13.6c8.2-6.2,16.3-12.2,24.9-18.7c-8.4-6.3-16.3-12.4-24.8-18.8C177.4,249.9,180.6,245.6,184.2,240.8z"/>
		<path class="st0" d="M119.1,51.3c-5.6,0-10.7,0-16.3,0c0-5.4,0-10.8,0-16.6c5.2,0,10.6,0,16.3,0C119.1,40.1,119.1,45.5,119.1,51.3
			z"/>
		<path class="st0" d="M136.9,34.5c5.6,0,10.7,0,16.2,0c0,5.5,0,10.8,0,16.6c-5.3,0-10.7,0-16.2,0C136.9,45.5,136.9,40,136.9,34.5z"
			/>
		<path class="st0" d="M187.4,34.7c0,5.5,0,10.7,0,16.4c-5.4,0-10.7,0-16.5,0c0-5.3,0-10.7,0-16.4C176.4,34.7,181.8,34.7,187.4,34.7
			z"/>
	</g>
	<g>
		<path class="st9" d="M119.6,451.9c82.6,0,164.7,0,246.8,0c0-5.6,0-10.9,0-16.4c-82.4,0-164.5,0-246.8,0
			C119.6,441.1,119.6,446.3,119.6,451.9z"/>
		<path class="st9" d="M93.9,384.1h-1.5c92.9,0,185.8,0,278.7,0.1c3.4,0,7.2,0.6,10.2,2.1c21.4,10.4,42.6,21.2,63.8,31.8
			c3.7,1.8,6.8,4,6.9,8.6c0.1,4.8-3.1,7.1-7,9c-20.7,10.3-41.2,20.7-61.9,30.8c-3.7,1.8-8.1,2.8-12.1,2.8
			c-93.1,0.2-186.2,0.1-279.3,0.1c-2,0-4.1,0-6,0c-2.2,17.7,5.6,25.9,23.3,25.8c115.8-0.4,231.7-0.2,347.5-0.2
			c15.4,0,21.3-5.9,21.3-21.2c0-103.4,0-206.8,0-310.2c0-25.7,0-51.5,0-77.6c-131.1,0-261.6,0-392,0c0,34.1,0,67.7,0,102
			c2.5,0,4.8,0,7,0c56.1,0,112.3,0,168.4,0c9.4,0,11.9,2.5,11.9,12c0,48.9,0,97.7,0,146.6c0,9.5-2.5,12-12,12
			c-56.3,0-112.6,0-168.9,0c-2.1,0-4.2,0-6.4,0c0,6.3,0,12.2,0,18.2h8.2V384.1z"/>
		<path class="st9" d="M102.1,401.4c-5.5,0-10.8,0-16.4,0c0,17.2,0,33.9,0,50.5c5.8,0,11.1,0,16.4,0
			C102.1,434.8,102.1,418.2,102.1,401.4z"/>
		<path class="st9" d="M384.2,406.6c0,13.7,0,26.6,0,40.2c13.4-6.7,26.2-13.1,40.2-20.1C410.3,419.6,397.4,413.2,384.2,406.6z"/>
		<path class="st9" d="M366.5,401.4c-82.4,0-164.5,0-246.8,0c0,5.6,0,10.8,0,16.4c82.6,0,164.7,0,246.8,0
			C366.5,412.1,366.5,406.9,366.5,401.4z"/>
		<path class="st9" d="M34.4,452c11.2,0,22.1,0,33.5,0c0-17.2,0-33.9,0-50.5c-11.4,0-22.5,0-33.5,0C34.4,418.6,34.4,435.2,34.4,452z
			"/>
		<path class="st9" d="M457.4,17.3c-76.2,0-152.4,0-228.6,0c-41.7,0-83.5,0-125.2,0c-9.4,0-17.3,5.6-17.8,14.2
			c-0.7,12.1-0.2,24.4-0.2,36.8c130.8,0,261.1,0,392.1,0c0-10.6,0-20.7,0-30.8C477.6,23.7,471.2,17.3,457.4,17.3z"/>
		<path class="st9" d="M34.5,341.2c73.9,0,147.3,0,221,0c0-45.4,0-90.6,0-136c-73.8,0-147.3,0-221,0C34.5,250.9,34.5,296,34.5,341.2
			z"/>
		<path d="M85.6,384.1c0-2.5,0-4.9,0-7.4H67.9c0,2.5,0,4.9,0,7.4c-2.2,0-4.4,0-6.6,0v0H85.6z"/>
	</g>
	<g>
		<path class="st9" d="M102.1,401.4c-5.5,0-10.8,0-16.4,0c0,17.2,0,33.9,0,50.5c5.8,0,11.1,0,16.4,0
			C102.1,434.8,102.1,418.2,102.1,401.4z"/>
		<path class="st9" d="M366.5,401.4c-82.4,0-164.5,0-246.8,0c0,5.6,0,10.8,0,16.4c82.6,0,164.7,0,246.8,0
			C366.5,412.1,366.5,406.9,366.5,401.4z"/>
		<path class="st9" d="M384.2,406.6c0,13.7,0,26.6,0,40.2c13.4-6.7,26.2-13.1,40.2-20.1C410.3,419.6,397.4,413.2,384.2,406.6z"/>
		<path class="st9" d="M119.6,451.9c82.6,0,164.7,0,246.8,0c0-5.6,0-10.9,0-16.4c-82.4,0-164.5,0-246.8,0
			C119.6,441.1,119.6,446.3,119.6,451.9z"/>
		<path class="st9" d="M34.4,452c11.2,0,22.1,0,33.5,0c0-17.2,0-33.9,0-50.5c-11.4,0-22.5,0-33.5,0C34.4,418.6,34.4,435.2,34.4,452z
			"/>
		<path class="st9" d="M34.5,341.2c73.9,0,147.3,0,221,0c0-45.4,0-90.6,0-136c-73.8,0-147.3,0-221,0C34.5,250.9,34.5,296,34.5,341.2
			z"/>
		<path class="st9" d="M457.4,17.3c-76.2,0-152.4,0-228.6,0c-41.7,0-83.5,0-125.2,0c-9.4,0-17.3,5.6-17.8,14.2
			c-0.7,12.1-0.2,24.4-0.2,36.8c130.8,0,261.1,0,392.1,0c0-10.6,0-20.7,0-30.8C477.6,23.7,471.2,17.3,457.4,17.3z"/>
		<linearGradient id="SVGID_2_" gradientUnits="userSpaceOnUse" x1="30.4052" y1="426.7074" x2="426.4704" y2="426.7074">
			<stop  offset="0" style="stop-color:#8335D6"/>
			<stop  offset="1" style="stop-color:#CD2153"/>
		</linearGradient>
		<path class="st2" d="M85.6,469.4c1.9,0,4,0,6,0c93.1,0,186.2,0,279.3-0.1c4.1,0,8.5-1.1,12.1-2.8c20.7-10.1,41.3-20.6,61.9-30.8
			c3.9-1.9,7.1-4.2,7-9c-0.1-4.6-3.2-6.7-6.9-8.6c-21.3-10.6-42.5-21.3-63.8-31.8c-3-1.5-6.8-2.1-10.2-2.1
			c-92.9-0.1-185.8-0.1-278.7-0.1c-2.1,0-4.2,0-6.7,0H61.3v0c-11.2,0-22.2,0-33.2,0c-8.1,0-11,2.9-11,10.8c0,21.1,0,42.3,0,63.4
			c0,8.3,2.8,11,11.3,11.1c13.1,0,26.2,0,39.9,0c0,0,0,0,0,0L85.6,469.4C85.6,469.4,85.6,469.4,85.6,469.4z M384.2,406.6
			c13.2,6.6,26.1,13,40.2,20.1c-14,7-26.8,13.4-40.2,20.1C384.2,433.3,384.2,420.3,384.2,406.6z M366.5,451.9
			c-82.1,0-164.2,0-246.8,0c0-5.6,0-10.9,0-16.4c82.3,0,164.5,0,246.8,0C366.5,441,366.5,446.3,366.5,451.9z M119.6,401.4
			c82.3,0,164.5,0,246.8,0c0,5.4,0,10.7,0,16.4c-82.1,0-164.2,0-246.8,0C119.6,412.2,119.6,407,119.6,401.4z M85.7,401.4
			c5.7,0,10.9,0,16.4,0c0,16.9,0,33.5,0,50.5c-5.3,0-10.7,0-16.4,0C85.7,435.3,85.7,418.5,85.7,401.4z M67.9,452
			c-11.3,0-22.2,0-33.5,0c0-16.9,0-33.5,0-50.5c11,0,22,0,33.5,0C67.9,418.1,67.9,434.9,67.9,452z"/>
		<path d="M85.6,469.4H68.2c0,2.4,0,4,0,5.6c0,1.2,0.1,2.4,0.1,3.6h17.1C85.1,475.8,85.2,472.8,85.6,469.4z"/>
		<path class="st0" d="M494.9,39.2C495,16.7,479.8-0.1,455.6,0C338.5,0.6,221.5,0.3,104.4,0.3c-21.6,0-36.2,14.5-36.2,36
			c0,47.8,0,95.6,0,143.4c0,2.6,0,5.2,0,8.2c-2.3,0-4.1,0-5.8,0c-11.9,0-23.8,0-35.7,0c-6.1,0-9.6,3.1-9.6,8.9
			c-0.1,50.8-0.1,101.6,0,152.4c0,5.9,3.4,9.1,9.4,9.2c10.7,0.1,21.3,0,32,0c3.1,0,6.3,0,9.4,0c0,6.3,0,12.2,0,18.2
			c0,2.5,0,4.9,0,7.4c-2.2,0-4.4,0-6.6,0v0h24.4c0-2.5,0-4.9,0-7.4c0-6,0-12,0-18.2c2.2,0,4.3,0,6.4,0c56.3,0,112.6,0,168.9,0
			c9.5,0,12-2.5,12-12c0-48.9,0-97.7,0-146.6c0-9.5-2.5-12-11.9-12c-56.1,0-112.3,0-168.4,0c-2.3,0-4.5,0-7,0c0-34.2,0-67.9,0-102
			c130.5,0,260.9,0,392,0c0,26.1,0,51.9,0,77.6c0,103.4,0,206.8,0,310.2c0,15.3-5.9,21.2-21.3,21.2c-115.8,0-231.7-0.2-347.5,0.2
			c-14.2,0.1-22.1-5.3-23.4-16.6c-0.3-2.7-0.3-5.8,0.2-9.2H68.2c0,2.4,0,4,0,5.6c0,1.2,0.1,2.4,0.1,3.6c1.5,21,15.2,33.5,37.1,33.5
			c117.3,0,234.5,0,351.8,0c23.5,0,37.5-13.9,37.5-37.4C494.7,329.5,494.4,184.4,494.9,39.2z M255.6,205.2c0,45.4,0,90.5,0,136
			c-73.7,0-147.1,0-221,0c0-45.1,0-90.3,0-136C108.3,205.2,181.8,205.2,255.6,205.2z M477.6,68.3c-131,0-261.4,0-392.1,0
			c0-12.4-0.6-24.6,0.2-36.8c0.5-8.6,8.4-14.2,17.8-14.2c41.7,0,83.5,0,125.2,0c76.2,0,152.4,0,228.6,0c13.9,0,20.2,6.3,20.2,20.1
			C477.6,47.6,477.6,57.7,477.6,68.3z"/>
	</g>
</g>
</svg>
