<?xml version="1.0" encoding="utf-8"?>
<!-- Generator: Adobe Illustrator 23.0.5, SVG Export Plug-In . SVG Version: 6.00 Build 0)  -->
<svg version="1.1" id="Layer_1" xmlns="http://www.w3.org/2000/svg" xmlns:xlink="http://www.w3.org/1999/xlink" x="0px" y="0px"
	 viewBox="0 0 512 512" style="enable-background:new 0 0 512 512;" xml:space="preserve">
<style type="text/css">
	.st0{fill:#2C2C2C;}
	.st1{fill:url(#SVGID_1_);}
	.st2{fill:url(#SVGID_2_);}
	.st3{fill:url(#SVGID_3_);}
	.st4{fill:url(#SVGID_4_);}
	.st5{fill:url(#SVGID_5_);}
	.st6{fill:url(#SVGID_6_);}
	.st7{fill:url(#SVGID_7_);}
	.st8{fill:url(#SVGID_8_);}
	.st9{fill:none;}
	.st10{fill:url(#SVGID_9_);}
	.st11{fill:url(#SVGID_10_);}
	.st12{fill:url(#SVGID_11_);}
	.st13{fill:url(#SVGID_12_);}
	.st14{fill:url(#SVGID_13_);}
	.st15{fill:url(#SVGID_14_);}
	.st16{fill:url(#SVGID_15_);}
	.st17{fill:url(#SVGID_16_);}
	.st18{fill:url(#SVGID_17_);}
	.st19{fill:url(#SVGID_18_);}
	.st20{fill:url(#SVGID_19_);}
	.st21{fill:url(#SVGID_20_);}
	.st22{fill:url(#SVGID_21_);}
	.st23{fill:url(#SVGID_22_);}
	.st24{fill:url(#SVGID_23_);}
	.st25{fill:url(#SVGID_24_);}
	.st26{fill:url(#SVGID_25_);}
	.st27{fill:url(#SVGID_26_);}
	.st28{fill:url(#SVGID_27_);}
	.st29{fill:url(#SVGID_28_);}
	.st30{fill:url(#SVGID_29_);}
	.st31{fill:url(#SVGID_30_);}
	.st32{fill:url(#SVGID_31_);}
	.st33{fill:url(#SVGID_32_);}
</style>
<g>
	<g>
		<path class="st0" d="M76.1,87.6c0,25.2,0,49.6,0,74.6c2.6,0.1,4.7,0.3,6.8,0.3c38.2,0,76.3,0,114.5,0c6.7,0,6.7,0,6.7,6.9
			c0,4-0.1,8-0.2,12c0,0.4-0.4,0.9-0.7,1.7c-42,0-84.1,0-126.7,0c-0.1,2.4-0.3,4.3-0.3,6.2c0,55.5,0,111,0,166.5
			c0,10.1,0.7,8.4-8.6,8.5c-22.6,0.1-38.7,11.2-43.2,31.1c-5.7,25.5,5.3,47.6,29.6,53.5c4.3,1.1,8.9,1.5,13.3,1.5
			c126,0.1,252,0.1,378,0c1.3,0,2.6-0.1,4.5-0.2c0-74.4,0-148.6,0-223.3c7.1,0,13.6,0,20.6,0c0,81.2,0,162.4,0,244.3
			c-2.2,0-4.3,0-6.4,0c-132.7,0-265.3,0-398,0c-34.1,0-63.8-29.3-63.8-63.4c-0.2-85.5-0.1-171,0-256.5c0.1-33.9,29.3-63.1,63.2-63.6
			C68.5,87.5,71.8,87.6,76.1,87.6z M55.1,109.6C40.5,113,30.5,121,26,134.3c-2.3,6.6-3.1,14-3.1,21c-0.2,66.5-0.1,133-0.1,199.5
			c0,1.6,0.2,3.2,0.3,5.5c2-1.4,3.2-2.6,4.6-3.3c7.5-3.9,14.9-8.1,22.7-11.2c3.7-1.4,5.3-2.5,5.3-6.7c-0.1-74.8-0.1-149.6-0.1-224.5
			C55.5,113.3,55.3,111.9,55.1,109.6z"/>
		<linearGradient id="SVGID_1_" gradientUnits="userSpaceOnUse" x1="139.3634" y1="209.7717" x2="510.0374" y2="209.7717">
			<stop  offset="0" style="stop-color:#8335D6"/>
			<stop  offset="1" style="stop-color:#CD2153"/>
		</linearGradient>
		<path class="st1" d="M349.5,286.3c7.1,8.5,2.7,17.9,4.4,27.2c-1.6-0.8-2.7-1.2-3.5-1.7c-7.1-4.7-7-4.6-13.8,0.2
			c-26.8,18.8-55.3,34-88,39.6c-19.8,3.4-39.5,3-58.5-4.1c-2.9-1.1-4.8-0.6-6.9,1.6c-9.2,9.8-18.7,19.5-28.4,29.6
			c-5-4.5-9.9-8.8-15.2-13.7c4.8-5.2,9.4-10.2,14.1-15.1c5.3-5.5,10.8-10.9,16-16.5c1.1-1.2,2.2-3.3,1.9-4.5
			c-5.3-20.7-1.5-40.7,5.3-60.3c11.9-34.3,31.8-63.9,55.3-93c4,4.7,7.8,9.1,12,14c1.1-2,1.8-3.1,2.3-4.3
			c10.9-26.3,28.5-47.8,50.3-65.5c36-29.3,75.1-53.4,118.7-69.8c17.8-6.7,35.9-10.8,55.2-8.6c23.8,2.6,38.7,17.2,39.5,39.8
			c0.4,11.3-2.3,22.1-6.1,32.7c-8.9,24.5-22.4,46.4-37.5,67.4c-22.1,30.8-46.2,59.9-74.8,85c-11.4,10-24.1,17.2-39.4,19
			C351.5,285.4,350.8,285.8,349.5,286.3z M288.2,269.3c17.3-1,33.4-1.8,49.6-2.8c16.5-0.9,31-6.4,43.2-18
			c34.7-32.7,63.9-69.7,89-110c8.8-14.2,16.4-29,19.6-45.6c3.3-17-3.6-28.7-18.6-31.4c-3.7-0.7-7.6-0.8-11.4-0.6
			c-18.8,0.9-36,7.7-53,15c-34.2,14.7-65.3,34.7-94.2,57.8c-20.4,16.3-37.3,35.7-47.2,60.4c-4.3,10.6-8.5,21.2-13.3,33
			c-6.4-6.7-12.3-12.9-18.6-19.6c-4.6,6.7-8.9,12.7-12.8,18.8c-12.9,20-24.1,40.7-29,64.2c-1.5,7-1.6,14.2-2.4,21.3
			c0.6,0.2,1.1,0.4,1.7,0.5c76.4-73,156.5-141.6,239.7-207.4c4.3,5.5,8.4,10.7,12.8,16.3c-83.3,66-163.8,134.6-239.6,208.6
			c46.9,10.5,84.2-11,121.9-35.1C312.7,286.1,300.8,278,288.2,269.3z"/>
	</g>
	<path class="st0" d="M357.1,375.6c-21.3,0-137.4,0-158.8,0c-1.2,0-2.3,0.1-3.5,0c-3.4-0.4-5.7-2.3-5.8-5.7
		c-0.1-3.5,2.1-5.4,5.6-5.9c1-0.1,2-0.1,3-0.1c43.5,0,181.8,0,225.2,0c0.7,0,1.3,0,2,0c3.9,0.1,6.5,2,6.5,6
		c-0.1,3.7-2.6,5.6-6.3,5.7c-1.2,0-2.3,0-3.5,0C400,375.6,378.5,375.6,357.1,375.6z"/>
	<path class="st0" d="M357.6,431.6c-22,0-138.8,0-160.8,0c-5.5,0-8.9-3.1-7.7-7.2c1.2-3.9,4.3-4.6,7.9-4.6c30.5,0.1,155.8,0,186.3,0
		c13.2,0,26.3,0,39.5,0c5.7,0,8.7,2.1,8.6,6c-0.1,3.8-3,5.7-8.8,5.7C400.9,431.6,379.3,431.6,357.6,431.6z"/>
	<path class="st0" d="M342,391.9c16,0,32,0,48,0c1.3,0,2.7-0.1,4,0.1c3.4,0.5,6,2.7,5.2,6c-0.5,2.2-3.1,4.5-5.3,5.4
		c-2.3,0.9-5.2,0.2-7.9,0.2c-30.6,0-156.1,0-186.7,0c-1.2,0-2.3,0-3.5,0c-3.9-0.1-6.6-1.9-6.6-5.9c0-4,2.7-5.8,6.6-5.8
		c12,0,118.8,0,130.8,0C331.6,391.9,336.8,391.9,342,391.9z"/>
	<path class="st0" d="M127.8,212.8c-21.3,0-6.9,0-28.2,0c-1.2,0-2.3,0.1-3.5,0c-3.4-0.4-5.7-2.3-5.8-5.7c-0.1-3.5,2.1-5.4,5.6-5.9
		c1-0.1,2-0.1,3-0.1c43.5,0,51.2,0,94.7,0c0.7,0,1.3,0,2,0c3.9,0.1,6.5,2,6.5,6c-0.1,3.7-2.6,5.6-6.3,5.7c-1.2,0-2.3,0-3.5,0
		C170.8,212.8,149.3,212.8,127.8,212.8z"/>
	<path class="st0" d="M128.3,268.8c-22,0-8.2,0-30.2,0c-5.5,0-8.9-3.1-7.7-7.2c1.2-3.9,4.3-4.6,7.9-4.6c30.5,0.1,25.2,0,55.7,0
		c13.2,0-5.8,0,7.4,0c5.7,0,8.7,2.1,8.6,6c-0.1,3.8-3,5.7-8.8,5.7C139.5,268.9,150,268.8,128.3,268.8z"/>
	<path class="st0" d="M112.7,229.1c16,0,32,0,48,0c1.3,0,2.7-0.1,4,0.1c3.4,0.5,6,2.7,5.2,6c-0.5,2.2-3.1,4.5-5.3,5.4
		c-2.3,0.9-5.2,0.2-7.9,0.2c-30.6,0-25.5,0-56.2,0c-1.2,0-2.3,0-3.5,0c-3.9-0.1-6.6-1.9-6.6-5.9c0-4,2.7-5.8,6.6-5.8
		c12,0-11.8,0,0.2,0C102.4,229.1,107.5,229.1,112.7,229.1z"/>
</g>
</svg>
