<svg id="Layer_1" data-name="Layer 1" xmlns="http://www.w3.org/2000/svg" xmlns:xlink="http://www.w3.org/1999/xlink" viewBox="0 0 530.06 373"><defs><style>.cls-1{fill:#fc4470;}.cls-2{fill:#ff0136;}.cls-3{fill:#86806e;}.cls-4{fill:#29333b;}.cls-5{clip-path:url(#clip-path);}.cls-6{fill:#ed8dce;}.cls-7{fill:#989898;}.cls-8{fill:#546274;}.cls-9{fill:#fcc37e;}.cls-10{fill:#ffb400;}.cls-11{fill:#d39305;}.cls-12{fill:#4d388a;}.cls-13{fill:#57cccc;}.cls-14{clip-path:url(#clip-path-2);}.cls-15{fill:#fff;}.cls-16{fill:#eceeee;}.cls-17{fill:#ff4f5b;}.cls-18{fill:#ffa9be;}.cls-19{fill:#a03554;}.cls-20{opacity:0.3;}.cls-21{fill:#f5f5f5;}.cls-22{fill:#1a2e35;}.cls-23{fill:#fafafa;}.cls-24{fill:#cad5d7;}</style><clipPath id="clip-path"><path class="cls-1" d="M49.08,251.41c2.56,2.15,4.36-22.24,4.36-22.24s.37-34.55-3.3-36.37-7.08,10.26-9.09,37.38l9,.43Z"/></clipPath><clipPath id="clip-path-2"><path class="cls-1" d="M9.6,253.17c.8,10.39,3.51,75.65,11.57,77a133.45,133.45,0,0,0,17.38,1.63h3.26a135.79,135.79,0,0,0,17.73-1.64c8.06-1.3,10.76-66.56,11.57-77C59.42,260.22,10.88,257.34,9.6,253.17Z"/></clipPath></defs><title>2d-3d-illustration</title><path class="cls-2" d="M71.2,253.19c0,1.79-13.08,17.66-30.07,17.66S9.68,255,9.68,253.19s14.47-2.52,31.45-2.52S71.2,251.39,71.2,253.19Z"/><path class="cls-3" d="M38.58,310s0,13.89,3.58,13.51c2.72-.29,4.53-13.12,4.53-13.12Z"/><polygon class="cls-4" points="43.06 216.73 42.48 228.73 38.58 309.95 46.69 310.34 50.59 229.12 51.17 217.12 43.06 216.73"/><path class="cls-1" d="M49.08,251.41c2.56,2.15,4.36-22.24,4.36-22.24s.37-34.55-3.3-36.37-7.08,10.26-9.09,37.38l9,.43Z"/><g class="cls-5"><rect class="cls-4" x="46.3" y="220.41" width="1.22" height="14.18" transform="translate(-182.58 263.43) rotate(-87.25)"/></g><path class="cls-6" d="M27.48,320.17c2.25-.31,4.11-.29,3.76-2.83l-.61-4.47L22.2,314l.61,4.48c.35,2.54,2.14,2,4.39,1.71Z"/><rect class="cls-7" x="21.98" y="310.9" width="8.51" height="2.55" transform="matrix(0.99, -0.14, 0.14, 0.99, -42.24, 6.47)"/><rect class="cls-8" x="15.46" y="218.12" width="2.55" height="93.64" transform="matrix(0.99, -0.14, 0.14, 0.99, -35.91, 4.75)"/><rect class="cls-8" x="20.52" y="217.37" width="3.4" height="93.64" transform="translate(-35.76 5.48) rotate(-7.82)"/><rect class="cls-4" x="17.99" y="217.77" width="2.55" height="93.64" transform="translate(-35.8 5.08) rotate(-7.82)"/><polygon class="cls-4" points="11.63 199.62 10.8 205.61 13.5 205.24 11.63 199.62"/><polygon class="cls-9" points="17.53 217.57 13.5 205.24 10.8 205.61 9.1 218.73 17.53 217.57"/><path class="cls-1" d="M73.29,209.68c-2.21-.52-3.94-1.21-4.53,1.28l-1,4.4,8.28,2,1-4.4c.59-2.48-1.26-2.65-3.47-3.17Z"/><rect class="cls-4" x="70.29" y="213.33" width="2.55" height="8.51" transform="translate(-156.66 236.99) rotate(-76.65)"/><rect class="cls-10" x="16.54" y="263.79" width="93.64" height="2.55" transform="translate(-209.17 265.53) rotate(-76.65)"/><rect class="cls-10" x="11.16" y="262.09" width="93.64" height="3.4" transform="translate(-212.07 259.31) rotate(-76.65)"/><rect class="cls-11" x="14.06" y="263.2" width="93.64" height="2.55" transform="translate(-210.51 262.52) rotate(-76.63)"/><polygon class="cls-12" points="44.53 327.82 47.47 322.54 44.81 321.91 44.53 327.82"/><polygon class="cls-9" points="45.51 308.95 44.81 321.91 47.47 322.54 53.79 310.92 45.51 308.95"/><path class="cls-13" d="M38.18,319.6,38,317.05,32.13,223.6l-3.4.21-2.55.16-2.55.17,5.9,93.45.16,2.54.28,4.52c.16,2.55,2,2.16,4.25,2l.29,0c2.26-.14,4.12,0,4-2.54Z"/><polygon class="cls-13" points="27.56 205.26 26.29 211.17 29.01 211 27.56 205.26"/><polygon class="cls-9" points="32.13 223.6 29.01 211 26.29 211.17 23.63 224.13 32.13 223.6"/><path class="cls-1" d="M9.6,253.17c.8,10.39,3.51,75.65,11.57,77a133.45,133.45,0,0,0,17.38,1.63h3.26a135.79,135.79,0,0,0,17.73-1.64c8.06-1.3,10.76-66.56,11.57-77C59.42,260.22,10.88,257.34,9.6,253.17Z"/><g class="cls-14"><path class="cls-15" d="M14.71,257.39a3.49,3.49,0,1,1-3.38-3.58A3.48,3.48,0,0,1,14.71,257.39Z"/><path class="cls-15" d="M14.2,275.65a3.57,3.57,0,1,1-3.46-3.59A3.53,3.53,0,0,1,14.2,275.65Z"/><path class="cls-15" d="M20.12,270.14a3.48,3.48,0,1,1,3.6-3.41A3.5,3.5,0,0,1,20.12,270.14Z"/><path class="cls-15" d="M1.51,269.54a3.48,3.48,0,1,1,.3-7,3.48,3.48,0,1,1-.3,7Z"/><path class="cls-15" d="M13.68,293.91a3.55,3.55,0,0,1-3.75,3.36,3.48,3.48,0,1,1,.22-6.95A3.58,3.58,0,0,1,13.68,293.91Z"/><path class="cls-15" d="M19.72,288.4A3.48,3.48,0,1,1,23.4,285,3.53,3.53,0,0,1,19.72,288.4Z"/><path class="cls-15" d="M.72,287.79a3.48,3.48,0,1,1,.3-7,3.48,3.48,0,1,1-.3,7Z"/><path class="cls-15" d="M13.17,312.17a3.6,3.6,0,0,1-3.83,3.36,3.48,3.48,0,1,1,.22-6.95A3.62,3.62,0,0,1,13.17,312.17Z"/><path class="cls-15" d="M19.33,306.66a3.48,3.48,0,1,1,.15-7,3.48,3.48,0,1,1-.15,7Z"/><path class="cls-15" d="M-.06,306a3.59,3.59,0,0,1-3.53-3.64,3.58,3.58,0,0,1,3.83-3.31,3.48,3.48,0,1,1-.3,7Z"/><path class="cls-15" d="M12.65,330.43a3.64,3.64,0,0,1-3.9,3.36,3.49,3.49,0,1,1,.22-7A3.66,3.66,0,0,1,12.65,330.43Z"/><path class="cls-15" d="M18.94,324.92a3.49,3.49,0,1,1,.15-6.95,3.49,3.49,0,1,1-.15,6.95Z"/><path class="cls-15" d="M-.85,324.29a3.62,3.62,0,0,1-3.6-3.65,3.62,3.62,0,0,1,3.9-3.3A3.62,3.62,0,0,1,3.05,321,3.62,3.62,0,0,1-.85,324.29Z"/><path class="cls-15" d="M33.05,257.71a3.49,3.49,0,1,1-3.45-3.51A3.47,3.47,0,0,1,33.05,257.71Z"/><path class="cls-15" d="M32.93,276a3.57,3.57,0,1,1-3.53-3.51A3.52,3.52,0,0,1,32.93,276Z"/><path class="cls-15" d="M38.73,270.34a3.48,3.48,0,1,1,3.53-3.49A3.5,3.5,0,0,1,38.73,270.34Z"/><path class="cls-15" d="M32.81,294.24a3.64,3.64,0,1,1-3.6-3.51A3.56,3.56,0,0,1,32.81,294.24Z"/><path class="cls-15" d="M38.73,288.6a3.48,3.48,0,1,1,3.61-3.48A3.53,3.53,0,0,1,38.73,288.6Z"/><path class="cls-15" d="M32.69,312.51A3.73,3.73,0,1,1,29,309,3.59,3.59,0,0,1,32.69,312.51Z"/><path class="cls-15" d="M38.73,306.87a3.48,3.48,0,1,1,3.68-3.48A3.57,3.57,0,0,1,38.73,306.87Z"/><path class="cls-15" d="M32.57,330.77a3.65,3.65,0,0,1-3.83,3.45,3.49,3.49,0,1,1,.07-7A3.65,3.65,0,0,1,32.57,330.77Z"/><path class="cls-15" d="M38.73,325.14a3.49,3.49,0,1,1,3.76-3.49A3.62,3.62,0,0,1,38.73,325.14Z"/><path class="cls-15" d="M51.4,257.63a3.5,3.5,0,1,1-3.53-3.43A3.48,3.48,0,0,1,51.4,257.63Z"/><path class="cls-15" d="M51.67,275.9a3.57,3.57,0,1,1-3.6-3.44A3.51,3.51,0,0,1,51.67,275.9Z"/><path class="cls-15" d="M57.35,270.14a3.48,3.48,0,1,1,3.46-3.56A3.5,3.5,0,0,1,57.35,270.14Z"/><path class="cls-15" d="M51.94,294.16a3.64,3.64,0,1,1-3.68-3.43A3.56,3.56,0,0,1,51.94,294.16Z"/><path class="cls-15" d="M57.74,288.4a3.48,3.48,0,1,1,3.53-3.56A3.55,3.55,0,0,1,57.74,288.4Z"/><path class="cls-15" d="M52.21,312.43A3.72,3.72,0,1,1,48.46,309,3.59,3.59,0,0,1,52.21,312.43Z"/><path class="cls-15" d="M58.14,306.66a3.48,3.48,0,1,1,3.6-3.56A3.57,3.57,0,0,1,58.14,306.66Z"/><path class="cls-15" d="M52.48,330.69a3.8,3.8,0,1,1-3.82-3.43A3.64,3.64,0,0,1,52.48,330.69Z"/><path class="cls-15" d="M58.53,324.92a3.49,3.49,0,1,1,3.68-3.56A3.61,3.61,0,0,1,58.53,324.92Z"/><path class="cls-15" d="M69.74,257.16a3.49,3.49,0,1,1-3.6-3.35A3.48,3.48,0,0,1,69.74,257.16Z"/><path class="cls-15" d="M70.41,275.42a3.57,3.57,0,1,1-3.68-3.36A3.53,3.53,0,0,1,70.41,275.42Z"/><path class="cls-15" d="M76,269.54a3.48,3.48,0,1,1,3.38-3.64A3.51,3.51,0,0,1,76,269.54Z"/><path class="cls-15" d="M71.07,293.67a3.65,3.65,0,1,1-3.75-3.35A3.56,3.56,0,0,1,71.07,293.67Z"/><path class="cls-15" d="M76.75,287.79a3.48,3.48,0,1,1,3.45-3.64A3.55,3.55,0,0,1,76.75,287.79Z"/><path class="cls-15" d="M71.73,311.93a3.73,3.73,0,1,1-3.82-3.35A3.59,3.59,0,0,1,71.73,311.93Z"/><path class="cls-15" d="M77.53,306a3.48,3.48,0,1,1,3.53-3.64A3.59,3.59,0,0,1,77.53,306Z"/><path class="cls-15" d="M72.4,330.18a3.81,3.81,0,1,1-3.91-3.35A3.65,3.65,0,0,1,72.4,330.18Z"/><path class="cls-15" d="M78.32,324.29a3.49,3.49,0,1,1,3.6-3.65A3.62,3.62,0,0,1,78.32,324.29Z"/></g><polygon class="cls-4" points="57.04 327.65 55.55 72.92 446.98 72.92 446.98 330.29 57.04 327.65"/><path class="cls-16" d="M137.81,279.16c15.15-.79,30.56,2.78,45.69,4.52l-8.12-2.15a48.82,48.82,0,0,1,54.29-52.77c10.77,1.26,21.36,6.1,32.05,4.3,19.6-3.3,29.67-26.63,48.28-33.62,23.78-8.93,51.49,11.95,74.95,2.18,9.5-4,16.41-12.35,25.24-17.65,7.55-4.54,18.5-5.86,24.87-.63V128.6c-6.27,12.12-21.69,18-35.59,16.86-14.75-1.22-28.17-8.61-41-16s-26-15-40.68-16.92c-20.87-2.68-41.12,6.65-61.37,12.35-18.29,5.16-38,7.38-56.23,2.1-.61-.17-1.21-.4-1.81-.61a30.89,30.89,0,0,1-7.61,5.41c-15.54,7.53-36.26-2.56-50.45,7.27-8.49,5.89-11.45,16.94-17.69,25.18-11.51,15.22-39.24,19.61-55.18,8.95V299.07l.06,16.29h8.35C89.45,294.67,113,280.45,137.81,279.16ZM377.59,166.9a8.43,8.43,0,0,1,3.18-1.52c.15,0,.29-.12.44-.16l-.16.08a9.15,9.15,0,1,1-6.34,11.94c-1.4-3.89.44-8.48,3.8-10.76Z"/><path class="cls-17" d="M435.06,183.34c-6.37-5.23-17.32-3.91-24.87.63-8.83,5.3-15.74,13.69-25.24,17.65-23.46,9.77-51.17-11.11-74.95-2.18-18.61,7-28.68,30.32-48.28,33.62-10.69,1.8-21.28-3-32.05-4.3a48.82,48.82,0,0,0-54.29,52.77l8.12,2.15c11.8,1.36,23.43,1.61,34.64-2.18,32.29-10.91,49.86-52,83.72-55.93,18.78-2.17,37.52,8.27,56.15,5.1,15.12-2.57,27.15-13.53,39.64-22.43,12.27-8.74,24.53-17.07,38.47-12v-12A12.18,12.18,0,0,0,435.06,183.34Z"/><path class="cls-18" d="M397.65,208.24c-12.49,8.9-24.52,19.86-39.64,22.43-18.63,3.17-37.37-7.27-56.15-5.1-33.86,3.91-51.43,45-83.72,55.93-11.21,3.79-22.84,3.54-34.64,2.18-15.13-1.74-30.54-5.31-45.69-4.52-24.81,1.29-48.36,15.51-61.93,36.21H84.1a61.25,61.25,0,0,1,29.75-16.69A60.22,60.22,0,0,1,162.4,308c3.17,2.27,6.16,4.87,9.16,7.43l61.62.06c2.72-1.54,5.45-3.06,8.24-4.48,11.16-5.67,23.9-9.6,36.15-7,7.53,1.6,14.63,5.71,18.87,11.55l66,.07a18.13,18.13,0,0,1,10.66-9.39c5-1.52,10.72-.94,15-3.94,4.95-3.49,5.88-10.27,7.9-16,5.61-15.85,23.69-26.11,40.18-23V196.29C422.18,191.17,409.92,199.5,397.65,208.24Zm-58.32,94.13c-10.5,5.17-24.89-.63-28.86-11.64-3.12-8.68.82-19,8.2-24.27l-1.64.76a25.31,25.31,0,0,1,8.25-3.84l-.36.17c8.43-1.83,18.14,1.47,22.82,8.85C354,282.28,349.83,297.2,339.33,302.37Zm73.19-74.84a5.55,5.55,0,0,1-5.41-9.67l-.56.26a5.06,5.06,0,0,1,1.94-.93,2.15,2.15,0,0,1,.27-.1l-.1,0a5.57,5.57,0,0,1,3.86,10.39Z"/><path class="cls-17" d="M395.94,286.36c-2,5.71-2.95,12.49-7.9,16-4.25,3-10,2.42-15,3.94a18.13,18.13,0,0,0-10.66,9.39l73.71.07V263.36C419.63,260.25,401.55,270.51,395.94,286.36Z"/><path class="cls-17" d="M113.85,298.69A61.25,61.25,0,0,0,84.1,315.38l87.46.09c-3-2.56-6-5.16-9.16-7.43A60.22,60.22,0,0,0,113.85,298.69Z"/><path class="cls-17" d="M277.57,304.05c-12.25-2.6-25,1.33-36.15,7-2.79,1.42-5.52,2.94-8.24,4.48l63.26.07C292.2,309.76,285.1,305.65,277.57,304.05Z"/><path class="cls-19" d="M252,101.87c-11,.82-22.78-1.08-32.57,4-8.77,4.57-14.1,13.87-21.28,20.58.6.21,1.2.44,1.81.61,18.24,5.29,37.94,3.06,56.23-2.09,20.25-5.71,40.5-15,61.37-12.35,14.68,1.88,27.86,9.55,40.68,16.91s26.23,14.75,41,16c13.9,1.15,29.32-4.74,35.59-16.86V83.55h0l-158.2-.08C275.86,94.37,263,101.06,252,101.87Z"/><path class="cls-2" d="M374.71,177.24a9.19,9.19,0,1,0,6.34-11.94l.16-.08c-.15,0-.29.12-.44.16a8.43,8.43,0,0,0-3.18,1.52l.92-.42C375.15,168.76,373.31,173.35,374.71,177.24Z"/><path class="cls-17" d="M324.92,263.55l.36-.17a25.31,25.31,0,0,0-8.25,3.84l1.64-.76c-7.38,5.29-11.32,15.59-8.2,24.27,4,11,18.36,16.81,28.86,11.64s14.69-20.09,8.41-30C343.06,265,333.35,261.72,324.92,263.55Z"/><path class="cls-19" d="M324.92,263.55l.36-.17a25.31,25.31,0,0,0-8.25,3.84l1.64-.76c-7.38,5.29-11.32,15.59-8.2,24.27,4,11,18.36,16.81,28.86,11.64s14.69-20.09,8.41-30C343.06,265,333.35,261.72,324.92,263.55Z"/><path class="cls-17" d="M414.78,219.51a5.87,5.87,0,0,0-6.12-2.37l.1,0a2.15,2.15,0,0,0-.27.1,5.06,5.06,0,0,0-1.94.93l.56-.26a5.55,5.55,0,1,0,7.67,1.65Z"/><path class="cls-17" d="M122.65,164.27c6.24-8.24,9.2-19.29,17.69-25.18,14.19-9.83,34.91.26,50.45-7.27a30.89,30.89,0,0,0,7.61-5.41c7.18-6.72,12.51-16,21.28-20.59,9.79-5.1,21.56-3.21,32.57-4s23.61-7.43,24.39-18.33c0-.06,0,.07,0,0H66.73L67,173c.14.1.29.17.43.27C83.41,183.88,111.14,179.49,122.65,164.27Z"/><path class="cls-2" d="M435.06,183.34c-6.37-5.23-17.32-3.91-24.87.63-8.83,5.3-15.74,13.69-25.24,17.65-23.46,9.77-51.17-11.11-74.95-2.18-18.61,7-28.68,30.32-48.28,33.62-10.69,1.8-21.28-3-32.05-4.3a48.82,48.82,0,0,0-54.29,52.77l8.12,2.15c11.8,1.36,23.43,1.61,34.64-2.18,32.29-10.91,49.86-52,83.72-55.93,18.78-2.17,37.52,8.27,56.15,5.1,15.12-2.57,27.15-13.53,39.64-22.43,12.27-8.74,24.53-17.07,38.47-12v-12A12.18,12.18,0,0,0,435.06,183.34Z"/><path class="cls-10" d="M217.91,83.47H66.73L67,173c.14.1.29.17.43.27,15.94,10.66,43.67,6.27,55.18-8.95,6.24-8.24,9.2-19.29,17.69-25.18,14.19-9.83,34.91.26,50.45-7.27a30.89,30.89,0,0,0,7.61-5.41c7.18-6.72,12.51-16,21.28-20.59,9.79-5.1,21.56-3.21,32.57-4s23.61-7.43,24.39-18.33"/><g class="cls-20"><path d="M395.94,286.36c-2,5.71-2.95,12.49-7.9,16-4.25,3-10,2.42-15,3.94a18.13,18.13,0,0,0-10.66,9.39l73.71.07V263.36C419.63,260.25,401.55,270.51,395.94,286.36Z"/></g><path class="cls-2" d="M414.78,219.51a5.87,5.87,0,0,0-6.12-2.37l.1,0a2.15,2.15,0,0,0-.27.1,5.06,5.06,0,0,0-1.94.93l.56-.26a5.55,5.55,0,1,0,7.67,1.65Z"/><path class="cls-19" d="M113.85,298.69A61.25,61.25,0,0,0,84.1,315.38l87.46.09c-3-2.56-6-5.16-9.16-7.43A60.22,60.22,0,0,0,113.85,298.69Z"/><path class="cls-19" d="M277.57,304.05c-12.25-2.6-25,1.33-36.15,7-2.79,1.42-5.52,2.94-8.24,4.48l63.26.07C292.2,309.76,285.1,305.65,277.57,304.05Z"/><rect class="cls-16" x="310.29" y="56.03" width="67.47" height="84.39" transform="translate(243.91 441.71) rotate(-89.68)"/><rect class="cls-1" x="314.49" y="58.99" width="58.98" height="78.46" transform="translate(243.85 441.65) rotate(-89.68)"/><polygon class="cls-17" points="304.58 127.5 332.19 90.99 349.04 114.02 360.62 101.82 383.04 127.93 304.58 127.5"/><path class="cls-17" d="M356.39,86.63a6.18,6.18,0,1,1-6.14-6.21A6.18,6.18,0,0,1,356.39,86.63Z"/><polygon class="cls-19" points="304.58 127.5 332.19 90.99 349.04 114.02 360.62 101.82 383.04 127.93 304.58 127.5"/><path class="cls-19" d="M356.39,86.63a6.18,6.18,0,1,1-6.14-6.21A6.18,6.18,0,0,1,356.39,86.63Z"/><rect class="cls-16" x="364.94" y="-11.03" width="101.95" height="127.52" transform="translate(354.91 467.52) rotate(-88.86)"/><rect class="cls-1" x="371.28" y="-6.55" width="89.11" height="118.56" transform="translate(354.83 467.44) rotate(-88.86)"/><polygon class="cls-17" points="355.68 96.1 398.19 41.55 423.14 76.7 440.91 58.53 474.22 98.46 355.68 96.1"/><path class="cls-17" d="M434.86,35.49A9.34,9.34,0,1,1,425.71,26,9.35,9.35,0,0,1,434.86,35.49Z"/><polygon class="cls-19" points="355.68 96.1 398.19 41.55 423.14 76.7 440.91 58.53 474.22 98.46 355.68 96.1"/><path class="cls-19" d="M434.86,35.49A9.34,9.34,0,1,1,425.71,26,9.35,9.35,0,0,1,434.86,35.49Z"/><rect class="cls-16" x="9.61" y="47.68" width="146.11" height="56.8"/><rect class="cls-4" x="9.41" y="47.66" width="146.51" height="12.2"/><rect class="cls-21" x="17.85" y="75.04" width="14.44" height="14.44"/><path class="cls-22" d="M32.28,89.48a8.92,8.92,0,0,1-.08-1.12c0-.82-.06-1.8-.1-3C32,82.85,32,79.29,31.92,75l.36.37-14.43,0,.42-.42h0v3.87c0,1.27,0,2.51,0,3.73,0,2.41,0,4.69-.05,6.81l-.36-.37c4.25,0,7.81.12,10.35.19l3,.09a6,6,0,0,1,1.11.09,36.9,36.9,0,0,1-3.85.18c-2.51.06-6.17.15-10.58.18h-.37v-.37c0-2.12,0-4.4,0-6.81,0-1.22,0-2.46,0-3.73V75.07h0c-.37.38.52-.51.43-.42l14.43.06h.37V75c0,4.41-.12,8.07-.19,10.58A34.13,34.13,0,0,1,32.28,89.48Z"/><line class="cls-23" x1="32.28" y1="75.04" x2="17.85" y2="89.48"/><path class="cls-2" d="M17.85,89.48c-.17-.17,2.93-3.53,6.92-7.52s7.35-7.08,7.51-6.92-2.93,3.53-6.92,7.52S18,89.64,17.85,89.48Z"/><rect class="cls-10" x="36.63" y="75.04" width="14.44" height="14.44"/><rect class="cls-4" x="55.42" y="75.04" width="14.44" height="14.44"/><rect class="cls-2" x="74.2" y="75.04" width="14.44" height="14.44"/><rect class="cls-17" x="92.98" y="75.04" width="14.44" height="14.44"/><rect class="cls-13" x="92.98" y="75.04" width="14.44" height="14.44"/><rect class="cls-17" x="111.77" y="75.04" width="14.44" height="14.44"/><g class="cls-20"><rect class="cls-18" x="111.77" y="75.04" width="14.44" height="14.44"/></g><rect class="cls-17" x="130.55" y="75.04" width="14.44" height="14.44"/><rect class="cls-19" x="130.55" y="75.04" width="14.44" height="14.44"/><rect class="cls-16" x="316.66" y="223.61" width="204.31" height="142.28"/><rect class="cls-24" x="316.66" y="223.61" width="204.31" height="17.78"/><path class="cls-4" d="M327.75,233a2.13,2.13,0,1,1-2.13-2.23A2.18,2.18,0,0,1,327.75,233Z"/><path class="cls-4" d="M336.4,233a2.14,2.14,0,1,1-2.14-2.23A2.19,2.19,0,0,1,336.4,233Z"/><path class="cls-4" d="M345,233a2.13,2.13,0,1,1-2.13-2.23A2.18,2.18,0,0,1,345,233Z"/><rect class="cls-2" x="336.08" y="258.81" width="29.12" height="69.85"/><rect class="cls-8" x="380.98" y="258.81" width="29.12" height="69.85"/><rect class="cls-24" x="425.88" y="258.81" width="29.12" height="69.85"/><rect class="cls-8" x="470.78" y="259.36" width="29.12" height="69.85"/><rect class="cls-2" x="332.71" y="336.37" width="176.48" height="15.96"/><polygon class="cls-4" points="495.77 349.06 499.56 368.28 502.69 362.92 509.39 372.5 512.74 370.35 506.04 360.76 512.2 359.86 495.77 349.06"/></svg>