<?xml version="1.0" encoding="utf-8"?>
<!-- Generator: Adobe Illustrator 23.0.5, SVG Export Plug-In . SVG Version: 6.00 Build 0)  -->
<svg version="1.1" id="Layer_1" xmlns="http://www.w3.org/2000/svg" xmlns:xlink="http://www.w3.org/1999/xlink" x="0px" y="0px"
	 viewBox="0 0 530.1 373" style="enable-background:new 0 0 530.1 373;" xml:space="preserve">
<style type="text/css">
	.st0{fill:#E4EBF7;}
	.st1{fill:#FFFFFF;}
	.st2{fill:#D793C9;}
	.st3{fill:#ABDAF7;}
	.st4{fill:#70B2DD;}
	.st5{fill:#F29C8B;}
	.st6{fill:url(#SVGID_1_);}
	.st7{fill:#3150BC;}
	.st8{fill:#78AAF9;}
	.st9{fill:#FEB19E;}
	.st10{fill:#525559;}
	.st11{fill:url(#SVGID_2_);}
	.st12{fill:#FF856A;}
	.st13{fill:#1B3151;}
	.st14{fill:#23406D;}
	.st15{fill:#4E79B7;}
	.st16{opacity:0.49;fill:#1B3151;}
	.st17{fill:url(#SVGID_3_);}
	.st18{fill:url(#SVGID_4_);}
	.st19{fill:url(#SVGID_5_);}
	.st20{fill:url(#SVGID_6_);}
	.st21{fill:url(#SVGID_7_);}
	.st22{fill:#94D6D4;}
	.st23{fill:url(#SVGID_8_);}
	.st24{fill:#FFF7D1;}
	.st25{fill:url(#SVGID_9_);}
	.st26{fill:url(#SVGID_10_);}
	.st27{fill:url(#SVGID_11_);}
	.st28{fill:#F5E5A1;}
	.st29{fill:#CDCDCD;}
	.st30{fill:#1B1464;}
	.st31{fill:url(#SVGID_12_);}
	.st32{fill:url(#SVGID_13_);}
	.st33{fill:#D78785;}
	.st34{fill:#CA605D;}
	.st35{fill:#C5514E;}
	.st36{fill:#BE3C39;}
	.st37{fill:#B5211E;}
	.st38{fill:url(#SVGID_14_);}
	.st39{fill:#CA6AB6;}
	.st40{fill:#C55BAF;}
	.st41{fill:#BE45A6;}
	.st42{fill:#B5279A;}
	.st43{fill:url(#SVGID_15_);}
	.st44{fill:#9BC7D7;}
	.st45{fill:#72B1CA;}
	.st46{fill:#63AAC5;}
	.st47{fill:#4CA0BE;}
	.st48{fill:#2E92B5;}
	.st49{fill:url(#SVGID_16_);}
	.st50{fill:url(#SVGID_17_);}
	.st51{fill:url(#SVGID_18_);}
	.st52{fill:url(#SVGID_19_);}
	.st53{fill:#E6E6E6;}
	.st54{fill:url(#SVGID_20_);}
	.st55{fill:url(#SVGID_21_);}
	.st56{fill:url(#SVGID_22_);}
	.st57{fill:url(#SVGID_23_);}
	.st58{fill:url(#SVGID_24_);}
	.st59{fill:#E47EDA;}
	.st60{fill:#3C2BDA;}
	.st61{fill:#619CE3;}
	.st62{fill:#CCCCCC;}
	.st63{fill:#4D4D4D;}
	.st64{fill:url(#SVGID_25_);}
	.st65{fill:#999999;}
	.st66{fill:#666666;}
	.st67{fill:#F1D34E;}
	.st68{fill:#C85676;}
	.st69{fill:#8043B1;}
	.st70{fill:#FF0000;}
	.st71{fill:#FFFF00;}
	.st72{fill:#00FF00;}
	.st73{fill:#00FFFF;}
	.st74{fill:#0000FF;}
	.st75{fill:#FF00FF;}
	.st76{fill:#BF272D;}
	.st77{fill:#EF5A24;}
	.st78{fill:#F9AE3B;}
	.st79{fill:#FAEC21;}
	.st80{fill:#39B34A;}
	.st81{fill:#8AC43F;}
	.st82{fill:#006837;}
	.st83{fill:#00A79B;}
	.st84{fill:#0071BA;}
	.st85{fill:#333333;}
	.st86{fill:#808080;}
	.st87{fill:#B3B3B3;}
	.st88{fill:#F2F2F2;}
	.st89{fill:#EB1C24;}
	.st90{fill:url(#SVGID_26_);}
	.st91{fill:url(#SVGID_27_);}
	.st92{fill:url(#SVGID_28_);}
	.st93{fill:url(#SVGID_29_);}
	.st94{fill:url(#SVGID_30_);}
	.st95{fill:url(#SVGID_31_);}
	.st96{fill:url(#SVGID_32_);}
	.st97{fill:url(#SVGID_33_);}
	.st98{fill:url(#SVGID_34_);}
	.st99{fill:url(#SVGID_35_);}
	.st100{fill:url(#SVGID_36_);}
	.st101{fill:url(#SVGID_37_);}
	.st102{fill:url(#SVGID_38_);}
	.st103{fill:#FFB293;}
	.st104{fill:#FFCAB5;}
	.st105{fill:url(#SVGID_39_);}
	.st106{fill:url(#SVGID_40_);}
	.st107{fill:url(#SVGID_41_);}
	.st108{fill:url(#SVGID_42_);}
	.st109{fill:url(#SVGID_43_);}
	.st110{fill:url(#SVGID_44_);}
	.st111{fill:url(#SVGID_45_);}
	.st112{fill:url(#SVGID_46_);}
	.st113{fill:url(#SVGID_47_);}
	.st114{fill:url(#SVGID_48_);}
	.st115{fill:url(#SVGID_49_);}
	.st116{fill:url(#SVGID_50_);}
	.st117{fill:url(#SVGID_51_);}
	.st118{fill:#FFE2E6;}
	.st119{opacity:0.4;fill:url(#SVGID_52_);}
	.st120{opacity:4.000000e-02;}
	.st121{fill:url(#SVGID_53_);}
	.st122{fill:#FFD275;}
	.st123{fill:url(#SVGID_54_);}
	.st124{opacity:0.4;fill:url(#SVGID_55_);}
	.st125{fill:#FF7872;}
	.st126{fill:url(#SVGID_56_);}
	.st127{fill:#005048;}
	.st128{fill:#57ABB9;}
	.st129{fill:#DFF3F7;}
	.st130{fill:#3C7582;}
	.st131{fill:#A0E0D6;}
	.st132{fill:#E7E7CE;}
	.st133{fill:#00BEA6;}
	.st134{fill:none;stroke:#161636;stroke-width:0.9096;stroke-linecap:round;stroke-linejoin:round;}
	.st135{fill:none;stroke:#161636;stroke-width:0.9096;stroke-linecap:round;stroke-linejoin:round;stroke-dasharray:2.697,3.596;}
	.st136{fill:none;stroke:#161636;stroke-width:0.9096;stroke-linecap:round;stroke-linejoin:round;stroke-dasharray:2.615,3.4866;}
	.st137{fill:#161636;}
	.st138{opacity:0.4;}
	.st139{fill:#FBF9DD;}
	.st140{fill:#FE7F58;}
	.st141{fill:#EE4026;}
	.st142{fill:#95170A;}
	.st143{fill:url(#SVGID_57_);}
	.st144{fill:url(#SVGID_58_);}
	.st145{fill:#FF9E7D;}
	.st146{fill:#004D62;}
	.st147{fill:#D5495B;}
	.st148{fill:#FF605B;}
	.st149{fill:#F8F8DC;}
	.st150{fill:#00BEA5;}
	.st151{fill:#FFBEAA;}
	.st152{fill:url(#SVGID_59_);}
	.st153{fill:#FD5757;}
	.st154{fill:#FF8B8B;}
	.st155{fill:#06061E;}
	.st156{fill:#005160;}
	.st157{fill:#005A6C;}
	.st158{fill:#FF9F81;}
	.st159{fill:url(#SVGID_60_);}
	.st160{fill:#FFB8A0;}
	.st161{fill:url(#SVGID_61_);}
	.st162{fill:#003746;}
	.st163{fill:#3B7A8B;}
	.st164{opacity:0.2;fill-rule:evenodd;clip-rule:evenodd;fill:url(#SVGID_62_);}
	.st165{clip-path:url(#SVGID_64_);}
	.st166{fill-rule:evenodd;clip-rule:evenodd;fill:#C7C0DD;}
	.st167{opacity:0.4;fill-rule:evenodd;clip-rule:evenodd;fill:url(#SVGID_65_);}
	.st168{fill-rule:evenodd;clip-rule:evenodd;fill:#350A3D;}
	.st169{fill-rule:evenodd;clip-rule:evenodd;fill:url(#SVGID_66_);}
	.st170{fill-rule:evenodd;clip-rule:evenodd;fill:#CB6459;}
	.st171{fill-rule:evenodd;clip-rule:evenodd;fill:#B24949;}
	.st172{fill-rule:evenodd;clip-rule:evenodd;fill:#005A6C;}
	.st173{fill-rule:evenodd;clip-rule:evenodd;fill:#E6AD83;}
	.st174{fill-rule:evenodd;clip-rule:evenodd;fill:#B02539;}
	.st175{fill-rule:evenodd;clip-rule:evenodd;fill:#ECD8DA;}
	.st176{fill-rule:evenodd;clip-rule:evenodd;fill:#DF9AA3;}
	.st177{fill-rule:evenodd;clip-rule:evenodd;fill:#C73048;}
	.st178{fill-rule:evenodd;clip-rule:evenodd;fill:#CF4A60;}
	.st179{fill-rule:evenodd;clip-rule:evenodd;fill:#D4A037;}
	.st180{fill-rule:evenodd;clip-rule:evenodd;fill:url(#SVGID_67_);}
	.st181{fill-rule:evenodd;clip-rule:evenodd;fill:url(#SVGID_68_);}
	.st182{fill-rule:evenodd;clip-rule:evenodd;fill:url(#SVGID_69_);}
	.st183{fill-rule:evenodd;clip-rule:evenodd;fill:#FFFFFF;}
	.st184{fill-rule:evenodd;clip-rule:evenodd;fill:url(#SVGID_70_);}
	.st185{fill-rule:evenodd;clip-rule:evenodd;fill:#F2DBDF;}
	.st186{fill-rule:evenodd;clip-rule:evenodd;fill:#BD263E;}
	.st187{fill-rule:evenodd;clip-rule:evenodd;fill:#472055;}
	.st188{fill-rule:evenodd;clip-rule:evenodd;fill:#542763;}
	.st189{fill-rule:evenodd;clip-rule:evenodd;fill:#9EBCD2;}
	.st190{fill-rule:evenodd;clip-rule:evenodd;fill:#7696AE;}
	.st191{fill-rule:evenodd;clip-rule:evenodd;fill:url(#SVGID_71_);}
	.st192{fill-rule:evenodd;clip-rule:evenodd;fill:url(#SVGID_72_);}
	.st193{fill-rule:evenodd;clip-rule:evenodd;fill:url(#SVGID_73_);}
	.st194{fill-rule:evenodd;clip-rule:evenodd;fill:#E7E2EF;}
	.st195{fill:#F4A640;}
	.st196{fill:#ADCFD8;}
	.st197{fill:#55769F;}
	.st198{fill:#DAEEF7;}
	.st199{fill:#FEB546;}
	.st200{fill:#FF5B7E;}
	.st201{fill:#E03268;}
	.st202{fill:#07085B;}
	.st203{fill:#02CCC0;}
	.st204{fill:#06BFAD;}
	.st205{opacity:0.5;fill:#55769F;}
	.st206{fill:#C4DFE8;}
	.st207{fill:#FFC0BB;}
	.st208{opacity:0.6;fill:#FC8D84;}
	.st209{fill:#050645;}
	.st210{fill:#F99893;}
	.st211{fill:#6F747A;}
	.st212{fill:#CDD6E0;}
	.st213{fill:#D9D9D9;}
	.st214{fill:#71BF9D;}
	.st215{fill:none;stroke:#E57E55;stroke-width:0.8859;stroke-linecap:round;stroke-linejoin:round;stroke-miterlimit:10;}
	.st216{fill:none;stroke:#E57E55;stroke-width:0.7092;stroke-linecap:round;stroke-linejoin:round;stroke-miterlimit:10;}
	.st217{fill:#FFD25A;}
	.st218{fill:#FFBE57;}
	.st219{fill:none;stroke:#FFFFFF;stroke-width:0.8649;stroke-miterlimit:10;}
	.st220{fill:#764582;}
	.st221{fill:#9D68AA;}
	.st222{fill:#FFFFFF;stroke:#764582;stroke-width:0.865;stroke-miterlimit:10;}
	.st223{fill-rule:evenodd;clip-rule:evenodd;fill:#764582;}
	.st224{fill-rule:evenodd;clip-rule:evenodd;fill:#FFFFFF;stroke:#764582;stroke-width:0.9101;stroke-miterlimit:10;}
	.st225{fill:none;stroke:#764582;stroke-width:1.1238;stroke-miterlimit:10;}
	.st226{fill:#FFFFFF;stroke:#764582;stroke-width:0.9101;stroke-linecap:round;stroke-linejoin:round;stroke-miterlimit:10;}
	.st227{opacity:0.7;fill:#A1ABAD;}
	.st228{fill:#DD4026;}
	.st229{fill:#E2E2E2;}
	.st230{fill:#FD6141;}
	.st231{fill:none;}
	.st232{fill:none;stroke:#EFE9DA;stroke-width:1.0282;stroke-linecap:round;stroke-miterlimit:10;}
	.st233{fill:none;stroke:#EFE9DA;stroke-width:1.0282;stroke-miterlimit:10;}
	.st234{fill:#3C8460;}
	.st235{opacity:0.2;fill:#764582;}
	.st236{fill:#E4BCE8;}
	.st237{fill:none;stroke:#FFFFFF;stroke-width:0.8648;stroke-miterlimit:10;}
	.st238{fill:#FDEEFF;}
	.st239{fill:#A1ABAD;}
	.st240{fill:#FFCC5A;stroke:#764582;stroke-width:0.865;stroke-miterlimit:10;}
	.st241{fill-rule:evenodd;clip-rule:evenodd;fill:#9D68AA;}
	.st242{fill:#FFB072;}
	.st243{fill:#3E2344;}
	.st244{fill:#FFDCAE;}
	.st245{fill:#FFFFFF;stroke:#FD6141;stroke-width:1.6475;stroke-linecap:round;stroke-linejoin:round;stroke-miterlimit:10;}
	.st246{fill:#FF8976;}
	.st247{fill:#F99441;}
	.st248{clip-path:url(#SVGID_75_);fill:#FFAEC1;}
	.st249{clip-path:url(#SVGID_75_);fill:#FFB072;}
	.st250{fill:#552F5E;}
	.st251{fill:#F29353;}
	.st252{clip-path:url(#SVGID_77_);fill:#FFAEC1;}
	.st253{clip-path:url(#SVGID_77_);fill:#FFB072;}
	.st254{fill:none;stroke:#FFFFFF;stroke-width:0.4429;stroke-miterlimit:10;}
	.st255{fill-rule:evenodd;clip-rule:evenodd;fill:#FFB072;}
	.st256{fill:#E57E55;}
	.st257{opacity:0.5;fill:#E57E55;}
	.st258{opacity:0.7;fill-rule:evenodd;clip-rule:evenodd;fill:#A1ABAD;}
	.st259{fill:none;stroke:#FFFFFF;stroke-width:0.4429;stroke-linecap:round;stroke-linejoin:round;stroke-miterlimit:10;}
	.st260{fill-rule:evenodd;clip-rule:evenodd;fill:#FD6141;}
	.st261{opacity:0.5;}
	.st262{fill-rule:evenodd;clip-rule:evenodd;fill:#DD4026;}
	.st263{clip-path:url(#SVGID_79_);fill:#DD4026;}
	.st264{fill:#F7B614;}
	.st265{opacity:0.5;fill:#FFBE57;}
	.st266{clip-path:url(#SVGID_81_);fill:#DD4026;}
	.st267{fill:none;stroke:#FFFFFF;stroke-width:0.4429;stroke-linecap:round;stroke-miterlimit:10;}
	.st268{opacity:0.3;fill:#764582;}
</style>
<g>
	<ellipse class="st118" cx="265" cy="297.2" rx="237.5" ry="75.8"/>
	<g>
		<g>
			<linearGradient id="SVGID_1_" gradientUnits="userSpaceOnUse" x1="414.1858" y1="226.3931" x2="488.9178" y2="226.3931">
				<stop  offset="0" style="stop-color:#8335D6"/>
				<stop  offset="1" style="stop-color:#CD2153"/>
			</linearGradient>
			<path style="opacity:0.4;fill:url(#SVGID_1_);" d="M444,202.2c5.3-0.9,10.8-0.7,16.2-0.9c9.8-0.4,19.5-2.1,28.8-5.3
				c-2,7.1-4,14.1-5.9,21.2c-1.5,5.5-3.1,11-5.6,16c-2.4,4.8-5.7,9.3-9.7,12.9c-8.2,7.7-19.9,12.1-30.9,10.1
				c-9.7-1.7-18.8-8.5-21.6-18.2C409.8,219.7,427.5,205,444,202.2z"/>
			<path class="st120" d="M482.6,201.9c-7.5,3.3-15,6.7-22.2,10.5c1.2-2.5,2.6-4.9,4.4-7.1c0.7-0.8-0.6-2-1.2-1.1
				c-2.2,2.9-4,6-5.5,9.3c0,0.1,0,0.1,0,0.2c-3.2,1.7-6.4,3.6-9.6,5.5c-4.5,2.8-9.1,5.9-13.1,9.6c1.7-6.3,3.7-12.5,6-18.7
				c0.4-1-1.1-1.8-1.5-0.8c-2.7,7.1-4.9,14.3-6.8,21.6c-3.8,3.8-7,8.2-9,13.3c-0.4,1,1.1,1.8,1.5,0.8c0.9-2.2,2-4.3,3.3-6.3
				c0,0,0,0,0,0c9.3,0.1,19-0.5,28.2,1c1.1,0.2,1.4-1.5,0.4-1.6c-9-1.5-18.4-0.9-27.5-1c5.2-7,12.7-12.3,20.1-16.8c0,0,0,0,0,0
				c8.6,0.4,17.6,0.2,26,2.1c1,0.2,1.4-1.4,0.4-1.6c-7.7-1.7-15.9-1.7-23.8-2.1c9.8-5.8,20.2-10.5,30.5-15.1
				C484.1,203.1,483.6,201.5,482.6,201.9z"/>
		</g>
		<g>
			<linearGradient id="SVGID_2_" gradientUnits="userSpaceOnUse" x1="396.614" y1="178.0416" x2="492.0689" y2="178.0416">
				<stop  offset="0" style="stop-color:#8335D6"/>
				<stop  offset="1" style="stop-color:#CD2153"/>
			</linearGradient>
			<path class="st11" d="M403.3,174.1c5.4-8,13.8-13.9,23.2-16.3c6.3-1.6,13-1.7,18.7-4.8c5.8-3.2,9.6-9.2,14.4-13.8
				c4.5-4.2,10.2-7.4,16.4-7.6c6.2-0.2,12.6,3.1,15.1,8.7c3.2,7.3-1.3,16.2-8.1,20.4c-3.5,2.1-7.7,3.6-9.6,7.2
				c-1,1.9-1.1,4.1-1.3,6.2c-0.4,6.7-0.8,13.4-2.5,19.8c-2.3,8.7-7,16.8-13.9,22.5c-6.9,5.7-15.9,9-24.9,8.3
				c-4.6-0.4-9.1-1.7-13.5-3.3C396.2,213.5,390.7,192.7,403.3,174.1z"/>
			<path class="st120" d="M485.8,144.5c-3.9,0.8-7.7,1.4-11.6,1.8c2.5-2.1,5-4.2,7.6-6.1c0.8-0.6-0.3-1.8-1.1-1.1
				c-2.9,2.2-5.7,4.5-8.4,6.8c0.1-2.3,0.4-4.5,0.9-6.7c0.2-1-1.3-1.5-1.5-0.5c-0.6,2.8-0.9,5.7-1,8.5c-5.5,4.7-10.8,9.7-15.9,14.8
				c0.3-3.1,0.5-6.1,0.5-9.2c0-1-1.6-1.1-1.6-0.1c0,3.7-0.2,7.4-0.7,11c-8.6,8.8-16.8,18.1-24.7,27.5c0.9-9.6,2-19.2,3.3-28.8
				c0.1-1-1.4-1.1-1.6-0.1c-1.4,10.3-2.6,20.6-3.5,30.9c0,0,0,0,0,0c-3.6,4.4-7.2,8.8-10.8,13.2c-0.3-0.4-0.6-1.1-0.8-2
				c-0.5-2.4-1-4.9-1.4-7.4c-0.9-5.6-1.4-11.3-1.7-16.9c0-1-1.6-1.1-1.6-0.1c0.5,9.5,1.8,19,3.9,28.3c-0.9,1.1-1.7,2.1-2.6,3.2
				c-0.6,0.8,0.7,1.6,1.3,0.8c0.9-1.1,1.8-2.3,2.8-3.4c11-0.8,21.4-5.1,32.4-5c1,0,1.1-1.6,0.1-1.6c-9.3-0.1-18,3-27.1,4.4
				c-1.7,0.3-3,0.6-4,0.4c3.6-4.5,7.3-8.9,11-13.4l32.9-7.2c1-0.2,0.6-1.7-0.4-1.5c-10.3,2.3-20.6,4.5-30.9,6.8
				c7.8-9.3,15.8-18.5,24.3-27.1c4.8-0.1,9.5-0.5,14.2-1.3c1-0.2,0.6-1.7-0.4-1.5c-4.1,0.7-8.2,1.1-12.3,1.2
				c5.3-5.3,10.7-10.4,16.4-15.3c4.7-0.4,9.4-1.1,14.1-2.1C487.1,145.8,486.8,144.3,485.8,144.5z"/>
		</g>
		<path class="st122" d="M482.8,118.4c-12.4,0.5-25.4,3.3-34.3,11.7c3.8-7.6,7.6-15.2,11.2-22.8c1.2,0.6,2.7,0.7,4,0.5
			c6.3-0.8,8.3-6.4,8.8-12c0.2-3,0.1-5.9,0-8.9c-0.1-2.1,1.4-12.4-3.6-9.1c-2.4,1.6-4.3,3.7-6.3,5.7c-3.1,2.9-5.6,6.5-6.7,10.4
			c-0.8,2.9-0.8,6,0.4,9.3c0.4,1.2,1,2.4,2,3.3c0,0,0.1,0.1,0.1,0.1c-4.2,8.9-8.6,17.7-13.1,26.5c0-0.1,0-0.1,0-0.2
			c0.6-3.7,0.9-7.5,0.3-11.2c-1.1-6.3-4.7-11.8-10-15.4c-0.4-0.3-1-0.2-1.1,0.4c0,0.2-3.9,15.7-1.2,22.8c1,2.7,2.6,5.2,4.7,7.2
			c1,1,2.7,2.6,4.3,2.5c-4.7,9.2-9.4,18.3-14,27.6c0.2-1.7,0-3.6-0.1-4.9c-0.6-5.3-3-10.5-7.1-14.1c-1.6-1.4-3.5-2.6-5.6-3.2
			c-2.3,3.9-2.6,8.6-2.2,13.1c0.2,2.5,0.6,5,1.8,7.1c1.1,2,2.9,3.5,5,4.5c1.5,0.8,4.5,2,6.3,1.4c-5.5,11.3-10.8,22.6-15.6,34.2
			c-0.7-2.9-2.6-5.4-4.9-7.3c-2.3-1.9-5.1-3.2-7.8-4.4c-1.8-0.8-3.8-1.6-5-3.2c0.9,2.2,0.8,4.5,1.1,6.8c0.4,3.1,1.6,6.1,3.4,8.6
			c1.2,1.7,2.7,3.2,4.5,4.1c2.1,1,4.7,1.4,6.5,0.6c-1.7,4.3-3.3,8.6-4.9,12.9c-4.3,12.1-7.8,24.5-10.2,37.1
			c-0.2,0.9,1.2,1.2,1.3,0.3c3.7-18.6,9.6-36.5,16.7-54c0.1,2.2,1.3,4.4,4,5.9c1.2,0.6,2.6,0.9,3.9,1.1c4.1,0.4,8.4-0.8,11.7-3.4
			c3.3-2.5,5.6-6.4,6.2-10.5c0.1-0.5,0.1-1-0.3-1.3c-0.3-0.2-0.6-0.1-0.9,0c-3,0.7-6.1,0.4-9.1,0.1c-3-0.3-6.1-0.6-9.1,0.2
			c-1.6,0.4-3,1.3-4,2.4c4.3-10,8.9-19.9,13.7-29.7c0.6,1.3,2.5,2.2,3.7,2.8c5.9,2.7,13,2.8,19,0.3c6-2.5,10.9-7.6,13.1-13.7
			c-6.2-2.5-13.1-3-19.6-1.3c-4.3,1.1-8.3,3.1-11.8,5.8c-0.6,0.4-1.4,1.1-2.3,1.8c4.8-9.6,9.7-19.1,14.5-28.7
			c4.2,8.6,17.4,7.3,25,4.1c9.3-3.9,16.1-13.1,14.1-23.4C483.4,118.6,483,118.4,482.8,118.4z"/>
	</g>
	<g>
		<g>
			<linearGradient id="SVGID_3_" gradientUnits="userSpaceOnUse" x1="28.9965" y1="205.3027" x2="104.5522" y2="205.3027">
				<stop  offset="0" style="stop-color:#8335D6"/>
				<stop  offset="1" style="stop-color:#CD2153"/>
			</linearGradient>
			<path class="st17" d="M74.1,180.6c-5.4-0.8-10.8-0.4-16.2-0.5c-9.8-0.1-19.5-1.7-28.9-4.6c2.1,7,4.3,14,6.4,21
				c1.7,5.4,3.3,10.9,6,15.9c2.5,4.8,5.9,9.1,10,12.7c8.4,7.5,20.1,11.6,31.2,9.4c9.6-2,18.5-9,21.1-18.7
				C108.7,197.3,90.7,183,74.1,180.6z"/>
			<path class="st120" d="M35.5,181.2c7.5,3.2,15.1,6.3,22.5,9.9c-1.3-2.5-2.8-4.8-4.5-7c-0.7-0.8,0.5-2,1.2-1.2
				c2.3,2.8,4.2,5.9,5.7,9.2c0,0.1,0,0.1,0,0.2c3.3,1.7,6.5,3.4,9.7,5.3c4.6,2.7,9.2,5.7,13.3,9.2c-1.8-6.3-4-12.4-6.4-18.5
				c-0.4-1,1.1-1.8,1.5-0.8c2.8,7,5.3,14.1,7.3,21.4c3.9,3.7,7.2,8,9.3,13c0.4,1-1,1.8-1.5,0.8c-0.9-2.2-2.1-4.3-3.4-6.2
				c0,0,0,0,0,0c-9.3,0.3-19-0.1-28.2,1.6c-1.1,0.2-1.5-1.4-0.4-1.6c8.9-1.7,18.3-1.4,27.4-1.7c-5.4-6.9-13-12-20.5-16.3
				c0,0,0,0,0,0c-8.6,0.6-17.6,0.7-26,2.7c-1,0.3-1.4-1.4-0.4-1.6c7.7-1.9,15.8-2.1,23.8-2.6c-9.9-5.6-20.4-10-30.9-14.4
				C34,182.4,34.5,180.8,35.5,181.2z"/>
		</g>
		<g>
			<linearGradient id="SVGID_4_" gradientUnits="userSpaceOnUse" x1="43.5857" y1="172.3626" x2="159.294" y2="172.3626">
				<stop  offset="0" style="stop-color:#8335D6"/>
				<stop  offset="1" style="stop-color:#CD2153"/>
			</linearGradient>
			<path style="opacity:0.4;fill:url(#SVGID_4_);" d="M151.3,167.7c-6.5-9.8-16.8-17-28.1-19.9c-7.6-1.9-15.8-2.1-22.7-5.9
				c-7.1-4-11.6-11.2-17.4-16.8c-5.4-5.2-12.4-9.1-19.9-9.3c-7.5-0.3-15.3,3.7-18.3,10.5c-3.9,8.9,1.6,19.7,9.8,24.8
				c4.2,2.6,9.3,4.4,11.6,8.8c1.2,2.3,1.3,4.9,1.5,7.5c0.5,8.1,0.9,16.2,3,24c2.8,10.5,8.5,20.4,16.8,27.4c8.3,7,19.3,11,30.2,10.2
				c5.6-0.4,11.1-2.1,16.4-4C159.7,215.5,166.5,190.3,151.3,167.7z"/>
			<path class="st120" d="M51.2,131.6c4.7,1,9.4,1.8,14.1,2.3c-3-2.6-6.1-5.1-9.3-7.5c-1-0.7,0.3-2.1,1.3-1.4
				c3.5,2.7,6.9,5.5,10.2,8.3c-0.1-2.7-0.4-5.4-1-8.2c-0.3-1.2,1.5-1.8,1.8-0.6c0.7,3.4,1.1,6.9,1.2,10.4c6.7,5.7,13,11.8,19.2,18
				c-0.4-3.7-0.5-7.4-0.5-11.1c0-1.2,1.9-1.3,1.9-0.1c0,4.5,0.3,8.9,0.8,13.4c10.4,10.7,20.3,22,29.9,33.5
				c-1.1-11.7-2.4-23.3-3.9-34.9c-0.2-1.2,1.7-1.3,1.9-0.1c1.7,12.5,3.1,25,4.2,37.5c0,0,0,0,0,0c4.4,5.3,8.8,10.7,13.1,16.1
				c0.4-0.5,0.7-1.3,1-2.5c0.6-3,1.2-5.9,1.7-8.9c1.1-6.8,1.8-13.7,2.1-20.6c0.1-1.2,2-1.3,1.9-0.1c-0.6,11.6-2.2,23-4.8,34.3
				c1,1.3,2.1,2.6,3.1,3.9c0.8,0.9-0.8,2-1.6,1c-1.1-1.4-2.2-2.7-3.3-4.1c-13.3-1-25.9-6.2-39.3-6.2c-1.2,0-1.3-1.9-0.1-1.9
				c11.3,0,21.9,3.7,32.9,5.4c2,0.3,3.6,0.8,4.9,0.5c-4.4-5.4-8.8-10.9-13.3-16.3l-39.9-8.8c-1.2-0.3-0.8-2.1,0.4-1.8
				c12.5,2.8,25,5.5,37.5,8.3c-9.5-11.3-19.2-22.5-29.5-33c-5.8-0.1-11.6-0.6-17.3-1.6c-1.2-0.2-0.8-2,0.4-1.8c5,0.8,9.9,1.3,15,1.5
				c-6.4-6.5-13-12.7-19.9-18.6c-5.8-0.5-11.4-1.4-17.1-2.6C49.6,133.2,50,131.3,51.2,131.6z"/>
		</g>
		<path class="st125" d="M75,124.7c10.8,1.4,21.9,4.9,29,12.9c-2.7-6.9-5.4-13.8-8-20.8c-1.1,0.4-2.4,0.4-3.6,0.2
			c-5.4-1.2-6.8-6.2-6.7-11.1c0-2.6,0.4-5.2,0.7-7.8c0.2-1.8-0.2-10.9,3.8-7.7c1.9,1.5,3.4,3.6,5.1,5.4c2.5,2.8,4.4,6.1,5,9.6
			c0.5,2.6,0.2,5.3-1.1,8.1c-0.5,1-1.1,2-2,2.7c0,0-0.1,0.1-0.1,0.1c3,8.1,6.2,16.2,9.4,24.2c0,0,0-0.1,0-0.1
			c-0.2-3.3-0.2-6.6,0.6-9.8c1.4-5.4,5-9.9,9.9-12.7c0.4-0.2,0.9-0.1,1,0.4c0,0.2,2.2,14-0.7,20c-1.1,2.3-2.7,4.3-4.6,5.9
			c-1,0.8-2.6,2-4,1.8c3.4,8.4,6.8,16.7,10.1,25.1c0-1.5,0.3-3.1,0.5-4.3c0.9-4.6,3.5-8.9,7.3-11.7c1.5-1.1,3.3-2,5.1-2.4
			c1.7,3.6,1.6,7.7,0.9,11.6c-0.4,2.1-0.9,4.3-2.2,6.1c-1.1,1.6-2.8,2.8-4.7,3.6c-1.4,0.5-4.1,1.4-5.6,0.7c4,10.3,7.7,20.6,11,31.1
			c0.8-2.5,2.7-4.6,4.8-6c2.2-1.5,4.7-2.4,7.2-3.2c1.7-0.5,3.5-1.1,4.6-2.4c-0.9,1.8-1,3.9-1.5,5.9c-0.6,2.7-1.9,5.2-3.6,7.2
			c-1.2,1.4-2.6,2.6-4.3,3.2c-1.9,0.7-4.2,0.8-5.8,0.1c1.1,3.9,2.2,7.7,3.2,11.7c2.8,10.9,4.9,22,6.1,33.2c0.1,0.8-1.1,0.9-1.2,0.2
			c-1.7-16.6-5.5-32.6-10.4-48.4c-0.2,1.9-1.4,3.8-3.9,4.8c-1.1,0.5-2.3,0.6-3.5,0.6c-3.6,0-7.3-1.4-10-3.9c-2.7-2.5-4.3-6-4.6-9.6
			c0-0.4,0-0.9,0.4-1.1c0.2-0.1,0.5,0,0.8,0.1c2.5,0.9,5.3,0.8,7.9,0.8c2.7,0,5.4,0,7.9,0.9c1.4,0.5,2.5,1.3,3.4,2.4
			c-3-9.1-6.2-18.1-9.7-27c-0.7,1.1-2.4,1.8-3.5,2.1c-5.4,1.9-11.5,1.4-16.6-1.2c-5-2.6-8.9-7.5-10.4-13c5.6-1.7,11.7-1.6,17.2,0.4
			c3.7,1.3,7,3.3,9.8,6c0.5,0.4,1.2,1,1.8,1.7c-3.4-8.8-7-17.5-10.5-26.1c-4.4,7.2-15.7,5-22.2,1.6c-7.8-4.2-13-12.6-10.5-21.6
			C74.4,124.8,74.8,124.7,75,124.7z"/>
	</g>
	<g>
		<g>
			<linearGradient id="SVGID_5_" gradientUnits="userSpaceOnUse" x1="261.7914" y1="66.5564" x2="338.3131" y2="66.5564">
				<stop  offset="0" style="stop-color:#8335D6"/>
				<stop  offset="1" style="stop-color:#CD2153"/>
			</linearGradient>
			<path class="st19" d="M293.1,41.2c5.4-0.6,10.8-0.1,16.2,0c9.8,0.2,19.6-1.1,29-3.8c-2.4,6.9-4.7,13.9-7.1,20.8
				c-1.8,5.4-3.7,10.8-6.4,15.7c-2.7,4.7-6.2,8.9-10.3,12.4c-8.6,7.2-20.5,11-31.4,8.5c-9.6-2.3-18.3-9.5-20.6-19.3
				C258.1,57,276.5,43.2,293.1,41.2z"/>
			<path class="st120" d="M331.7,43c-7.6,2.9-15.3,5.9-22.8,9.3c1.3-2.4,2.9-4.7,4.7-6.9c0.7-0.8-0.5-2-1.2-1.2
				c-2.4,2.7-4.3,5.7-5.9,9c0,0.1,0,0.1,0,0.2c-3.3,1.6-6.6,3.2-9.8,5c-4.6,2.6-9.4,5.5-13.6,8.9c2-6.2,4.3-12.3,6.9-18.3
				c0.4-1-1-1.8-1.4-0.9c-3,6.9-5.7,14-7.9,21.2c-4,3.6-7.5,7.8-9.7,12.8c-0.4,1,1,1.8,1.4,0.9c1-2.2,2.2-4.2,3.6-6.1c0,0,0,0,0,0
				c9.3,0.6,19,0.5,28.1,2.5c1,0.2,1.5-1.4,0.4-1.6c-8.9-1.9-18.3-1.9-27.4-2.4c5.5-6.7,13.4-11.6,20.9-15.7c0,0,0,0,0,0
				c8.6,0.9,17.5,1.2,25.9,3.5c1,0.3,1.5-1.3,0.4-1.6c-7.6-2.1-15.8-2.6-23.7-3.3c10.1-5.3,20.7-9.4,31.3-13.5
				C333.1,44.2,332.7,42.6,331.7,43z"/>
		</g>
		<path class="st127" d="M315.9,14.7c0-0.2-0.2-0.4-0.4-0.4c-8.4-1.2-17.4-1-24.4,3.5c4.3-5.6,8.6-11.3,12.7-17.1
			c0.3-0.5-0.4-1.1-0.7-0.6c-4.7,6.5-9.5,12.9-14.4,19.3c0,0,0-0.1,0-0.1c0.9-2.4,1.5-4.9,1.6-7.5c0.1-4.4-1.7-8.5-4.7-11.6
			c-0.2-0.2-0.7-0.3-0.8,0.1c0,0.1-4.6,10-3.7,15.1c0.3,1.9,1.1,3.8,2.2,5.4c0.6,0.8,1.5,2.1,2.6,2.2c-4.3,5.5-8.6,11.1-12.8,16.6
			c0.3-1.1,0.5-2.4,0.5-3.3c0.3-3.6-0.7-7.4-3-10.3c-0.9-1.2-2-2.2-3.3-2.8c-2,2.3-2.8,5.4-3.2,8.5c-0.2,1.7-0.2,3.4,0.3,5
			c0.5,1.5,1.5,2.7,2.7,3.6c0.9,0.7,2.7,1.9,4,1.7c-5.1,6.8-10.1,13.7-14.7,20.9c-0.1-2-1-4-2.3-5.5c-1.3-1.6-3-2.8-4.7-3.9
			c-1.1-0.7-2.4-1.5-2.9-2.8c0.3,1.5-0.1,3.1-0.1,4.7c-0.1,2.1,0.3,4.2,1.2,6.2c0.6,1.3,1.4,2.5,2.5,3.3c1.3,0.9,3,1.5,4.3,1.3
			c-1.7,2.6-3.3,5.3-4.9,8c-4.4,7.6-8.3,15.4-11.5,23.5c-0.2,0.6,0.6,0.9,0.9,0.4c4.8-12,11-23.2,18-33.9c-0.2,1.5,0.3,3.1,1.9,4.4
			c0.7,0.6,1.6,1,2.5,1.2c2.7,0.8,5.7,0.5,8.2-0.8c2.5-1.3,4.5-3.6,5.5-6.2c0.1-0.3,0.2-0.7-0.1-0.9c-0.2-0.1-0.4-0.1-0.6-0.1
			c-2.1,0.1-4.1-0.5-6.1-1.1c-2-0.6-4-1.1-6.1-1c-1.1,0.1-2.2,0.5-3,1.1c4.1-6.2,8.5-12.2,12.9-18.1c0.3,1,1.4,1.8,2.1,2.3
			c3.6,2.5,8.3,3.5,12.6,2.6c4.3-0.9,8.2-3.7,10.5-7.5c-3.8-2.4-8.4-3.6-12.9-3.4c-3,0.2-5.9,1-8.6,2.4c-0.4,0.2-1.1,0.5-1.7,0.9
			c4.4-5.8,8.9-11.6,13.3-17.3c1.7,6.3,10.7,7.1,16.2,5.9C310.2,27.2,315.9,21.9,315.9,14.7z"/>
	</g>
	<g>
		<g>
			<path class="st128" d="M133.3,202.8V87.3c0-13.1,10.6-23.6,23.6-23.6h226c11,0,20,9,20,20v119.1c0,13.1-10.6,23.6-23.6,23.6
				H156.9C143.8,226.4,133.3,215.8,133.3,202.8z"/>
			<path class="st129" d="M381.7,220H154.5c-8.3,0-15-6.7-15-15V85c0-8.3,6.7-15,15-15h227.3c8.3,0,15,6.7,15,15v120
				C396.7,213.3,390,220,381.7,220z"/>
		</g>
		<path class="st128" d="M324.8,255.1H211.4c-1.2,0-2.2-1-2.2-2.2l0,0c0-1.2,1-2.2,2.2-2.2h113.4c1.2,0,2.2,1,2.2,2.2l0,0
			C327,254.1,326,255.1,324.8,255.1z"/>
		<polygon class="st130" points="325.4,250.7 210.8,250.7 220.5,226.4 315.6,226.4 		"/>
		<g>
			<rect x="150.8" y="98.1" class="st131" width="234.5" height="112.4"/>
			<g>
				<rect x="150.8" y="81.6" class="st132" width="234.5" height="16.6"/>
				<g>
					<path class="st125" d="M161.6,89.9c0-1.8-1.4-3.2-3.2-3.2c-1.8,0-3.2,1.4-3.2,3.2c0,1.8,1.4,3.2,3.2,3.2
						C160.2,93.1,161.6,91.7,161.6,89.9z"/>
					<path class="st122" d="M173.5,89.9c0-1.8-1.4-3.2-3.2-3.2c-1.8,0-3.2,1.4-3.2,3.2c0,1.8,1.4,3.2,3.2,3.2
						C172,93.1,173.5,91.7,173.5,89.9z"/>
					<path class="st133" d="M185.4,89.9c0-1.8-1.4-3.2-3.2-3.2s-3.2,1.4-3.2,3.2c0,1.8,1.4,3.2,3.2,3.2S185.4,91.7,185.4,89.9z"/>
				</g>
			</g>
			<rect x="161.8" y="110.6" class="st133" width="27.8" height="81.8"/>
			<g>
				<rect x="164.1" y="113.3" class="st131" width="10.4" height="10.4"/>
				<rect x="176.8" y="113.3" class="st131" width="10.4" height="10.4"/>
			</g>
			<g>
				<rect x="164.1" y="126.8" class="st131" width="10.4" height="10.4"/>
				<rect x="176.8" y="126.8" class="st131" width="10.4" height="10.4"/>
			</g>
			<g>
				<rect x="164.1" y="140.2" class="st131" width="10.4" height="10.4"/>
				<rect x="176.8" y="140.2" class="st131" width="10.4" height="10.4"/>
			</g>
			<g>
				<rect x="164.1" y="153.7" class="st131" width="10.4" height="10.4"/>
				<rect x="176.8" y="153.7" class="st131" width="10.4" height="10.4"/>
			</g>
			<g>
				<rect x="164.1" y="167.1" class="st131" width="10.4" height="10.4"/>
				<rect x="176.8" y="167.1" class="st131" width="10.4" height="10.4"/>
			</g>
			<g>
				<g>
					<g>
						<polyline class="st134" points="355.7,178.7 355.7,180.1 354.3,180.1 						"/>
						<line class="st135" x1="350.7" y1="180.1" x2="201.5" y2="180.1"/>
						<polyline class="st134" points="199.7,180.1 198.3,180.1 198.3,178.7 						"/>
						<line class="st136" x1="198.3" y1="175.3" x2="198.3" y2="128.2"/>
						<polyline class="st134" points="198.3,126.4 198.3,125.1 199.7,125.1 						"/>
						<line class="st135" x1="203.3" y1="125.1" x2="352.5" y2="125.1"/>
						<polyline class="st134" points="354.3,125.1 355.7,125.1 355.7,126.4 						"/>
						<line class="st136" x1="355.7" y1="129.9" x2="355.7" y2="177"/>
					</g>
				</g>
				<g>
					<rect x="194" y="120.7" class="st137" width="8.6" height="8.6"/>
					<rect x="351.4" y="120.7" class="st137" width="8.6" height="8.6"/>
				</g>
				<g>
					<rect x="194" y="175.8" class="st137" width="8.6" height="8.6"/>
					<rect x="351.4" y="175.8" class="st137" width="8.6" height="8.6"/>
				</g>
			</g>
			<rect x="199.2" y="110.6" class="st133" width="156.5" height="3.8"/>
			<rect x="199.2" y="190.6" class="st133" width="156.5" height="3.8"/>
		</g>
		<g class="st138">
			<path class="st139" d="M396.3,79.1c-1.9-5.3-6.9-9.1-12.8-9.1h-1.9L231.6,220h23.8L396.3,79.1z"/>
			<path class="st139" d="M286.9,70.1L142.5,214.4c2.5,3.4,6.4,5.5,10.9,5.5h65.3L368.6,70.1H286.9z"/>
			<polygon class="st139" points="139.9,156.4 139.9,197.5 267.3,70.1 226.2,70.1 			"/>
		</g>
	</g>
	<g>
		<path class="st140" d="M168.2,167.6c2.2,0.8,4.4,1.3,6.7,1.8c4,0.9,7.9,1.8,11.9,2.7c1,0.2,2.1,0.5,3.2,0.2c1.5-0.4,3.2-1.1,4.5-2
			c1.4-1.1,1.9-6.3,2.8-7.8c0.6-0.9,1.8-1.2,1.7-0.7c-0.2,0.8,0.4,8.8,0.2,9.6c-0.4,1.7-1.8,3.1-3.4,3.8c-1.6,0.7-3.3,1-5,1.1
			c-4.8,0.4-9.5,0.6-14.3,0.3c-4.3-0.3-8.6-0.1-12.8-1.1c-4.1-0.9-7.9-1.8-11.6-3.7c-1.5-0.7-2.9-2.6-3.9-3.8
			c-3.1-3.5,1.1-9.7,5.4-8.9c2.4,0.5,4.9,2.9,6.9,4.2C162.8,165,165.4,166.5,168.2,167.6z"/>
		<g>
			<g>
				<path class="st141" d="M135.4,321.6c0,1.1-0.9,2.1-1.9,2.5c-1,0.4-2.2,0.5-3.3,0.5c-8.5,0.1-17,0.2-25.5,0.3
					c-2.9,0-5.8,0.1-8.5-0.9c-0.3-1.3-0.1-2.5,0.2-3.8c0.5-2.2,1.6-4.4,2-6.6c0.5-2.5,0-5.1,0.2-7.7c0-0.2,0-0.5,0.2-0.6
					c0.1-0.1,0.3-0.1,0.4-0.1c2.7-0.1,5.3-0.2,8-0.3c0.8,0,5.8,0,6,0.6c0.7,2.4,2.5,4.4,4.5,6.1c2,1.6,4.1,3,6,4.8
					c0.8,0.8,1.6,1.6,2.6,2.1c1.6,0.7,3.5,0.3,5.3,0.3c1.2,0,2.6,0.5,3.3,1.4C135.1,320.5,135.4,321,135.4,321.6z"/>
				<path class="st142" d="M135.4,321.6c0,1.1-0.9,2.1-1.9,2.5c-1,0.4-2.2,0.5-3.3,0.5c-8.5,0.1-17,0.2-25.5,0.3
					c-2.9,0-5.8,0.1-8.5-0.9c-0.3-1.3-0.1-2.5,0.2-3.8c0.3-0.1,0.6-0.2,0.9-0.2c2.7-0.2,5.9,0.8,8.6,1c2.8,0.2,5.7,0.5,8.6,0.5
					c6.8,0.4,13.9,0.7,20.4-1.4C135.1,320.5,135.4,321,135.4,321.6z"/>
			</g>
			<linearGradient id="SVGID_6_" gradientUnits="userSpaceOnUse" x1="94.8084" y1="252.8461" x2="139.1035" y2="252.8461">
				<stop  offset="0" style="stop-color:#3855E1"/>
				<stop  offset="1" style="stop-color:#5C7EF7"/>
			</linearGradient>
			<path class="st20" d="M117.2,250.3c1.8,2.4,3.7,5.3,2.9,8.1c-0.4,1.3-1.3,2.3-2.1,3.3c-9,11.2-12.3,25.9-15.3,40
				c-0.1,0.6-0.2,1.4,0.2,1.9c0.3,0.3,0.7,0.5,1.2,0.6c2.6,0.6,5.1,1.3,7.7,1.9c0.5,0.1,1,0.2,1.4,0.1c1.4-0.3,1.7-2.1,1.9-3.4
				c0.4-2,1.3-3.8,2.1-5.6c3.5-7.1,6.9-14.3,10.4-21.4c2.3-4.8,4.8-9.8,8.7-13.4c0.9-0.9,2-1.7,2.5-2.9c0.5-1.3,0.3-2.8,0-4.1
				c-1.3-5.8-3.5-11.4-5.7-16.9c-4.7-11.9-9.3-23.9-14-35.8c-0.4-0.9-0.7-1.9-1.5-2.5c-1.5-1.2-3.7-0.4-5.4,0.4
				c-5.8,3-11,7.3-15,12.5c-2,2.6-3.4,5.5-1.4,8.3c2.1,3,4.5,5.8,6.6,8.8C107.2,236.9,112.1,243.7,117.2,250.3z"/>
		</g>
		<g>
			<g>
				<path class="st141" d="M63.3,295.7c0.5,1.5,0,3.1-0.2,4.7c-0.6,3.4-0.2,7,0.2,10.4c0.2,2,0.5,3.9,1.2,5.8
					c0.5,1.3,1.3,2.5,1.8,3.8c0.3,0.7,0.5,1.5,0.5,2.3c0,0.7-0.1,1.3-0.4,1.9c-0.7,1.3-2.3,2.1-3.8,2.1c-1.5,0-3-0.6-4.2-1.4
					c-4.2-2.6-6.8-7.1-8.9-11.6c-2-4.5-3.5-9.3-6.2-13.5c-0.6-1-1.3-1.9-1.4-3c-0.2-1.1,0.4-2.4,1.5-2.7c0.5-0.1,1.1-0.3,1.6-0.5
					c3.4-1.2,6.1-3.2,9.3-5c3.2-1.9,5.8,2.1,7.7,4.4C62.4,294,63,294.8,63.3,295.7z"/>
				<path class="st142" d="M65.6,323.1c0.4-0.1,0.8-0.3,1.2-0.4c0,0.7-0.1,1.3-0.4,1.9c-0.7,1.3-2.3,2.1-3.8,2.1
					c-1.5,0-3-0.6-4.2-1.4c-4.2-2.6-6.8-7.1-8.9-11.6c-2-4.5-3.5-9.3-6.2-13.5c-0.6-1-1.3-1.9-1.4-3c-0.2-1.1,0.4-2.4,1.5-2.7
					c0.5-0.1,1.1-0.3,1.6-0.5c0.4,0.8,0.5,1.8,0.7,2.6c1.1,4.7,3.3,9.1,5.5,13.3c2.1,4,4.3,8.1,7.7,11.1
					C60.7,322.6,63.2,323.8,65.6,323.1z"/>
			</g>
			<linearGradient id="SVGID_7_" gradientUnits="userSpaceOnUse" x1="55.5439" y1="239.8737" x2="114.1999" y2="239.8737">
				<stop  offset="0" style="stop-color:#3855E1"/>
				<stop  offset="1" style="stop-color:#5C7EF7"/>
			</linearGradient>
			<path class="st21" d="M113.9,190c0.7,1,0.2,2.4-0.3,3.5c-4,8.7-10.9,16.7-10.9,26.3c0,2.3,0.5,4.7,1,7c0.1,0.5,0.2,0.9,0.3,1.4
				c2.8,12.4,5.6,25.2,4,37.8c-0.2,1.2-0.4,2.5-1,3.6c-0.7,1.1-1.7,2-2.8,2.7c-9,6.2-20.6,7.8-29.3,14.5c-4,3.1-7.2,7.1-11.4,9.8
				c-3.1-2.3-5.9-5.1-7.9-8.4c7.2-4,11.5-11.7,17.9-16.8c3.8-3,8.2-5.1,12.5-7.2c1-0.5,2.1-1.1,2.5-2.1c0.3-0.7,0.2-1.4,0.1-2.1
				c-1.2-9.1-4.8-17.6-8.1-26.1c-0.8-2-1.6-4-2.3-6.1c-2.4-6.6-4.3-13.3-4.6-20.3c-0.2-4.1,0.3-8.2,1.6-12c1.1-3.5,2.8-6.8,5.1-9.6
				c2.4-2.8,4.3-2.7,7.8-2.4c8.2,0.8,16.2,2.6,23.9,5.4C112.6,189.1,113.4,189.4,113.9,190z"/>
		</g>
		<path class="st145" d="M146.1,183.2c1.9,1.2,3.9,2.3,6,2.9c4.7,1.3,9.7,0.2,14.5-0.8c6.8-1.4,13.7-2.7,20.5-3.8
			c2.1-0.3,4.2-0.7,6.3-0.2c1.5,0.3,3.5,0.9,4.5-0.3c0.4-0.5,0.9-0.9,1-1.6c0.4-4,0.5-13.7,0-17.6c-0.9,0.3-1.8,6.7-2,7.6
			c-0.2,1-0.2,2-0.9,2.8c-0.3,0.4-0.7,0.6-1.1,0.9c-0.5,0.5-0.8,1.2-1.4,1.7c-0.8,0.8-1.9,1.1-3,1.3c-4.9,0.9-9.9,0.4-14.9-0.1
			c-5.1-0.5-10.2-1.2-15.2-2.1c-2.8-0.5-5.8-1.1-8-3c-2.5-2-3.8-5.2-5.5-7.9c-0.4-0.5-0.8-1.1-1.3-1.4c-0.7-0.4-1.5-0.3-2.2-0.3
			c-2.7,0.3-5.4,1-7.6,2.6c-1.5,1.1-3.6,3.2-3.5,5.2c0.1,1.8,3.2,2,4.3,3.3C139.7,176.2,142.1,180.7,146.1,183.2z"/>
		<path class="st42" d="M116.6,148.3c-1.7,2.2-3.3,4.4-5,6.7c-1.9,2.5-3.8,5.1-5.9,7.5c-6.6,7.8-14.5,14.5-23.3,19.6
			c-0.9,0.5-1.9,1.1-2.2,2.1c-0.3,1,0.2,2,0.7,3c6,10.7,15.2,19.3,25.4,26.1c0.8,0.5,1.7,1.1,2.7,1c1-0.1,1.8-0.7,2.6-1.3
			c7.5-6.2,14.1-13.5,19.5-21.6c2.3-3.5,4.6-7.3,8.1-9.6c1.2-0.8,2.7-1.9,2.3-3.2c-0.1-0.4-0.4-0.7-0.6-1c-2.1-2.6-4.3-5.2-6.7-7.6
			c3.3-0.8,4.9-4.8,8.1-6c2.2-0.9,5,0.1,6.3,2.1c1.1-2.4,3-4.4,5.4-5.5c-1.3-2.4-2.8-4.7-4.3-7c-1.9-2.7-3.9-5.4-6.4-7.5
			c-4.4-3.7-10.2-5.9-15.9-6.5C121.8,138.8,119.4,144.5,116.6,148.3z"/>
		<path class="st140" d="M139.1,136.4c-1.2,1.8-2.8,3.3-4.4,4.8c1.4,0.7,2.9,1.4,3.9,2.6c2.2,2.8,1.2,7.4,3.7,10
			c-0.2-1,0.6-1.9,1.2-2.6c1.3-1.4,2.5-2.8,3.8-4.2c0.8-0.9,1.7-1.8,2.8-2.2c1-0.4,2.2-0.2,3.3-0.1c-2.2-4.2-4.5-8.5-7.8-11.9
			c-0.9-0.9-2.9-2.9-4.2-1.6c-0.6,0.6-0.6,1.8-0.9,2.6C140.1,134.7,139.6,135.6,139.1,136.4z"/>
		<path class="st145" d="M158.2,115c1,1.6,3,5.8,3,7.1c0,1.4-0.4,1.6-0.3,3.1c0,2.4,2.3,3.1,3,5.7c0,0.7-1.2,0.8-1.9,0.8
			c-0.3,0-0.5,0.1-0.7,0.2c-0.7,0.5,0.1,1.6-0.2,2.4c-0.4,1-2.1,0.8-2.7,1.7c-0.4,0.6,0,1.4,0.4,2c0.4,0.6,0.9,1.2,0.8,1.9
			c-0.1,0.9-1.2,1.6-1.2,2.5c0.1,0.5,0.3,1.1,0.1,1.6c-0.4,0.8-0.9,1-1.8,1.3c-1.5,0.5-5.1-0.7-6.3-1.6c-4.7-3.9-7.4-7.4-7.1-8.2
			c0.2-0.6,0.9-1.1,0.8-1.8c-0.2-0.7-1.2-0.7-1.8-1.1c-0.6-0.4-0.8-1.1-1-1.7c-0.2-0.7-0.4-1.4-0.6-2.1c-0.3-0.8-0.5-1.7-0.4-2.6
			c0.1-0.9,0.6-1.8,1.4-2.1c0.7-0.2,1.4,0,2,0.4c0.6,0.4,1,1,1.5,1.5c1-1.1,1.9-2.2,2.7-3.3c0.2-0.2,0.3-0.4,0.4-0.7
			c0.1-0.3,0-0.6-0.1-0.9c-0.3-1.2-0.6-2.3-0.7-3.6c-0.1-0.9-0.1-1.8,0.2-2.6c0.7-1.8,2.9-2.7,4.8-2.5c1.9,0.2,3.7,1.2,5.3,2.2
			C157.9,114.7,158.2,115,158.2,115z"/>
		<path class="st146" d="M143,126.3c1.1-0.7,2.1-0.1,2.7,0.7c0.2,0.3,0.4,0.6,0.8,0.5c0.3,0,0.4-0.3,0.6-0.5c0.9-1.3,0.1-1.9,1-3.2
			c0.3-0.4,1.8-1.6,2.2-1.8c8.2-2.7,9.1-5,9.1-5.2c0-0.8-0.9-4.5-4.9-6.8c-2.5-1.4-6-3-11.8-2.6c-2.1,0.1-4.4,1.4-6.4,2.1
			c-1-1.1-2.3-2.4-3.8-2.5c-1.1-0.1-2.2,0.5-3.1,1c-2.2,1.3-4.3,3-5.1,5.4c-1.5,3.9,0.9,8.3,0.4,12.5c-0.2,1.4-0.6,2.8-0.1,4
			c0.4,1.1,1.5,1.8,2,2.8c0.7,1.3,0.4,2.9,0.7,4.4c0.3,1.6,1.5,3.1,3,3.8c1.6,0.7,3.7,0.8,4.7,2.2c0.8,1.1,0.6,2.7,0.9,4.1
			c0.3,1.4,1.2,2.6,2.3,3.4c0.4,0.3,0.9,0.5,1.2,0.8c0.8,0.8,1,2,1.3,3.1c0.3,1.1,0.8,2.3,1.9,2.6c1,0.3,2.1-0.5,2.5-1.4
			c0.4-1-0.1-5.8-0.1-6.6c-0.1-2.2-3.3-8.8-3.5-10.7c-0.1-1.2-0.8-2.4-0.3-3.5c0.1-0.3,0.4-0.6,0.5-0.9c0.4-0.9,0.1-2-0.1-3.1
			C141.2,129,143,126.3,143,126.3z"/>
	</g>
	<g>
		<g>
			<g>
				<g>
					<path class="st147" d="M384.3,206.9c-4.7,14.1-5.6,29-6.5,43.8c-0.2,3.1-0.4,6.2-0.6,9.2c-0.1,1.3-0.2,2.6,0.1,3.9
						c0.2,1.2,0.8,2.4,1.2,3.6c1.6,4.4,1.5,9.2,1.4,13.9c-0.2,9.1-0.4,18.3-1.8,27.3c-0.4,2.7-0.9,5.3-1.4,7.9
						c-0.2,0.7-0.3,1.5,0.1,2.2c0.4,0.7,1.2,0.9,1.9,1.1c2.3,0.7,4.6,1.4,6.9,2.1c2.1,0.6,4.8,1.1,6.1-0.7c2-2.8-2.4-6.8-0.8-9.9
						c0.3-0.7,0.9-1.2,1.2-1.8c0.3-0.6,0.4-1.4,0.5-2.1c0.7-6.1,1.4-12.2,2.1-18.3c0.5-4.6,1.1-9.3,0.7-13.9
						c-0.2-2.7-0.7-5.4-0.8-8.2c-0.1-7.8,3.6-15.1,7.3-22.1c1.7-3.2,3.4-6.6,4.1-10.2c0.8-3.9,0.3-8-0.2-11.9
						c-0.7-5.5-1.3-11-2-16.5c-0.2-1.8-0.5-3.7-1.4-5.3c-2.1-3.6-7.4-4.8-11.3-4.5C386.3,196.9,385.6,202.9,384.3,206.9z"/>
					<path class="st148" d="M393.5,212.4c1.5,4.9,4,9.3,5.9,14c3.6,8.8,5.3,18.2,7.3,27.5c0.8,3.8,1.7,7.6,3.1,11.2
						c1.3,3.4,3.1,6.6,4.2,10.1c1.4,4.4,1.6,9.1,1.6,13.7c0,10.4-1.1,20.7-3.4,30.9c4.4,1.1,8.9,2.2,13.3,3.3
						c-1.3-4.8-0.3-10,0.5-14.9c1.5-10,1.9-20.2,2.2-30.3c0.1-2,0.1-4.1-0.2-6.1c-0.6-3.4-2.4-6.6-3.2-10c-0.9-3.6-0.7-7.4-0.5-11.2
						c0.4-6.2,0.7-12.3,1.1-18.5c0.1-2.1,0.3-4.2,0.8-6.2c0.5-1.9,1.5-3.7,2.1-5.6c1.6-4.7,1.5-9.8,1-14.7c-0.1-1.2-0.3-2.5-1-3.4
						c-0.9-1.2-2.4-1.6-3.8-2c-7.9-2.2-16.2-4.5-24.5-3.7c-3.6,0.3-6.1,0.4-7.3,3.9C391.5,203.9,392.4,208.7,393.5,212.4z"/>
					<path class="st149" d="M392.3,329.2c-0.1,0.9-0.9,1.7-1.8,2c-0.9,0.3-1.9,0.3-2.8,0.3c-1.4,0-2.7,0-4.1,0c-3.5,0-7,0-10.6,0.2
						c-6.2,0.4-12.7,1.6-18.6-0.6c-0.3-0.1-0.5-0.2-0.7-0.4c-0.4-0.3-0.5-0.9-0.4-1.4c0.1-0.5,0.3-0.9,0.7-1.3
						c0.2-0.2,0.4-0.4,0.6-0.5c0.6-0.4,1.4-0.6,2.1-0.9c1.9-0.5,3.8-1,5.8-1.3c0.3-0.1,0.7-0.1,1-0.3c0.4-0.2,0.8-0.6,1.1-0.9
						c0.8-0.7,1.7-1.1,2.6-1.6c2.5-1.5,4.6-3.6,6.8-5.5c0.7-0.7,2.4-1.9,2.9-0.5c0.2,0.6,0,1,0.5,1.5c0.5,0.6,1.3,0.9,1.9,1.2
						c2.5,1.1,5.1,2.1,7.9,2.4c1.4,0.1,2.8,0,4.2-0.1c-0.1,1.9-0.2,3.9,0.4,5.7c0.1,0.3,0.2,0.6,0.3,0.9
						C392.2,328.5,392.3,328.8,392.3,329.2z"/>
					<path class="st150" d="M392.3,329.2c-0.1,0.9-0.9,1.7-1.8,2c-0.9,0.3-1.9,0.3-2.8,0.3c-1.4,0-2.7,0-4.1,0c-3.5,0-7,0-10.6,0.2
						c-6.2,0.4-12.7,1.6-18.6-0.6c-0.3-0.1-0.5-0.2-0.7-0.4c-0.4-0.3-0.5-0.9-0.4-1.4c0.1-0.5,0.3-0.9,0.7-1.3
						c0.1,0.6-0.2,1.2,0.6,1.7c0.6,0.4,1.4,0.4,2.1,0.4c9.6-0.1,19.3-0.2,28.9-0.3c1.3,0,2.6,0,3.8-0.4c0.9-0.3,1.8-0.7,2.5-1.3
						c0,0,0.1,0,0.1-0.1C392.2,328.5,392.3,328.8,392.3,329.2z"/>
					<path class="st149" d="M425.9,330.3c0,0.4-0.1,0.9-0.4,1.2c-0.2,0.2-0.5,0.4-0.7,0.5c-1.3,0.7-2.6,1.4-3.9,2.1
						c-1.3,0.7-2.5,1.4-3.9,1.8c-0.9,0.3-1.9,0.4-2.9,0.6c-2,0.3-4,0.6-6,0.6c-2.1,0-4.2-0.4-6.2-1.1c-0.4-0.1-0.8-0.3-0.9-0.7
						c-0.1-0.3-0.1-0.6,0-0.9c0.1-0.4,0.2-0.7,0.3-1c0.4-1.1,1.1-2,2-2.8c0.8-0.7,1.9-1.3,2.5-2.2c0.3-0.5,0.5-1,0.9-1.5
						c0.3-0.4,0.7-0.7,1.1-1.1c1.4-1.3,2.3-2.8,2.8-4.6c0.5-1.6,1.7-2.8,3.4-3c0.7-0.1,1.5,0.1,2.2,0.3c1.3,0.4,2.6,0.9,3.6,1.8
						c0.3,0.3,0.6,0.7,1,1c0.7,0.6,1.7,0.6,2.6,0.7c0.2,0,0.5,0.1,0.7,0.2c0.2,0.2,0.2,0.4,0.3,0.6c0.4,1.5,0.8,3.1,1.2,4.6
						c0.1,0.5,0.2,0.9,0.3,1.4C425.9,329.4,425.9,329.9,425.9,330.3z"/>
					<path class="st150" d="M425.9,330.3c0,0.4-0.1,0.9-0.4,1.2c-0.2,0.2-0.5,0.4-0.7,0.5c-1.3,0.7-2.6,1.4-3.9,2.1
						c-1.3,0.7-2.5,1.4-3.9,1.8c-0.9,0.3-1.9,0.4-2.9,0.6c-2,0.3-4,0.6-6,0.6c-2.1,0-4.2-0.4-6.2-1.1c-0.4-0.1-0.8-0.3-0.9-0.7
						c-0.1-0.3-0.1-0.6,0-0.9c0.1-0.4,0.2-0.7,0.3-1c0.2,0.1,0.3,0.1,0.5,0.2c1.1,0.4,2.2,0.7,3.4,0.8c2.8,0.3,5.5,0.5,8.3,0.3
						c2.8-0.2,5.5-0.9,7.8-2.5c1.5-1.1,2.9-2.5,4.5-3.2C425.9,329.4,425.9,329.9,425.9,330.3z"/>
				</g>
				<g>
					<path class="st145" d="M377.1,152.4c-2,1-4,2-5.9,3.1c-5.6,3.2-10.5,7.9-16.8,9.2c-1.9,0.4-3.8,0.4-5.5-0.5
						c-1.1-0.6-2.1-1.5-3.3-1.7c-3.2-0.5-1.6,2.4-2,3.6c-0.6,2-2.9,2.6-3.7,4.4c-1,2.2,0.7,4.8,2.4,6.1c1.4,1.1,3.2,1.6,4.9,1.2
						c3.4-0.8,6.3-3.7,9.9-4.7c3.8-1.1,7.8-1.6,11.6-2.5c6.5-1.5,13-3.1,19.3-5.2c2.6-0.8,5.1-1.8,7.3-3.4c1.4-1,2.6-2.3,3.7-3.5
						c1.2-1.3,2.3-2.5,3.5-3.8c0.2-0.2,0.4-0.5,0.4-0.8c0-0.3-0.3-0.6-0.5-0.9c-2.6-2.3-5.3-4.4-8.1-6.4c-3-2.1-4.7-2.8-7.6-0.6
						C383.7,148.6,380.4,150.6,377.1,152.4z"/>
					<path class="st151" d="M367.1,120.4c-1.8-3.2-4.4-6.3-7.9-7.3c-1-0.3-2.4-0.2-2.8,0.8c-0.3,0.8,0.3,1.6,0.9,2.1
						c0.7,0.5,1.5,0.9,1.9,1.6c0.1,0.1,0.1,0.2,0.2,0.4c0,0.3-0.2,0.5-0.4,0.7c-1.2,1-2.5,2.2-3,3.7c-1,2.8,0.9,5.7,2.6,8.1
						c0.8,1.1,1.7,2.2,2.9,2.7c1,0.4,2.2,0.4,3.2,0.8c1,0.4,1.7,1.3,2.4,2.2c1.9,2.6,3.2,5.6,5,8.2c2.5,3.7,5.7,6.9,9.2,9.7
						c5.8,4.8,12.6,8.9,20.1,9.2c6.9,0.3,13.4-2.8,19.7-5.7c0.6-0.3,1.1-0.5,1.5-1c0.3-0.3,0.4-0.8,0.5-1.2c1-3.1,1.3-6.6,0.3-9.7
						c-1-3.1-3.4-5.9-6.6-6.8c-4.4-1.2-8.8,1.3-13.1,2.7c-3.2,1.1-6.7,1.6-10.1,1.2c-4.7-0.5-8.9-2.7-12.7-5.4
						c-3.6-2.5-7.8-5.7-10-9.5C369.5,125.4,368.5,122.8,367.1,120.4z"/>
					<linearGradient id="SVGID_8_" gradientUnits="userSpaceOnUse" x1="384.3621" y1="163.4832" x2="442.799" y2="163.4832">
						<stop  offset="0" style="stop-color:#3855E1"/>
						<stop  offset="1" style="stop-color:#5C7EF7"/>
					</linearGradient>
					<path class="st23" d="M389.1,141.5c2.9,1,5.6,2.4,8.2,4c0.4,0.3,0.9,0.6,1.4,0.7c0.6,0.1,1.3-0.2,1.8-0.5
						c3.6-1.9,7.3-3.7,10.9-5.6c0.6-0.3,1.3-0.7,2-0.6c0.6,0,1.1,0.3,1.6,0.6c4.9,2.8,7.9,8.5,7.6,14.1c0,0.6-0.1,1.3-0.5,1.8
						c-0.5,0.8-1.5,1.1-2.4,1.3c-4.9,1.4-9.8,2.7-14.7,4.1c-1.5,0.4-3.1,0.9-4.7,0.6c-1.6-0.3-3-1.2-4.6-1c-1.2,3.2-2.3,6.5-3.1,9.9
						c-0.3,1-0.5,2-0.5,3c0,1,0.3,2.1,0.4,3.1c0.6,7.5-8.2,13.2-8.1,20.7c11.4,1.8,23,1.4,34.4,3.1c4.2,0.6,8.6,1.6,12,4.2
						c-1.1-3.4-0.7-7.1-0.2-10.6c1.4-9.9,2.8-19.8,5.9-29.3c1.7-5.2,3.8-10.3,5.2-15.7c1.3-5.3,1.8-11.1,0-16.3
						c-1.8-5.2-6-9.8-11.4-10.8c-6.6-1.2-12.2,2.8-18.2,4.7c-3.2,1-6.3,1.4-9.1,3.4c-2.3,1.7-4.3,3.8-6.3,5.8
						C395.5,137.3,391,142.2,389.1,141.5z"/>
				</g>
				<g>
					<path class="st145" d="M414.3,128.2c-0.4,1.1-0.9,2.2-1.3,3.3c-0.1,0.5-0.1,1.2,0.4,1.4c0.3,0.1,0.7-0.1,0.9-0.4
						c5.6-4.5,12.6-7,19.4-9.4c-1.8-0.9-2.5-3.1-3-5.1c-0.5-1.7-0.9-3.4-1-5.2c0-0.8,0-1.6-0.1-2.3c-0.1-0.7-0.4-1.5-0.7-2.2
						c-0.1-0.3-0.2-0.6-0.5-0.8c-0.2-0.2-0.5-0.2-0.8-0.2c-1.4,0-2.6,0.7-3.8,1.4c-2,1.3-4,2.7-5.8,4.2c-2,1.6-3.9,3.7-3.3,6.4
						C415.3,122.3,415.4,125.2,414.3,128.2z"/>
					<path class="st151" d="M401.9,107.8c-0.2,1.6-1.4,3.2-1,4.8c0.6,0,1.1,0,1.7,0c0.6,1,1.2,2.1,1.8,3.1c0.5,1,1.7,2.1,2.6,1.3
						c-0.8,1.4,0.2,3.2,1.7,3.9c1.4,0.7,3.1,0.6,4.7,0.4c0.5,0,1.1-0.1,1.5-0.4c0.4-0.3,0.6-0.8,0.8-1.3c2-5.1,6.3-9.1,11.4-10.8
						c0.3-0.1,0.7-0.2,0.8-0.6c0.1-0.2,0-0.5-0.1-0.7c-0.5-1.3-1.1-2.6-1.6-3.9c-0.6-1.6-1.6-3.4-3.3-3.5c0.4-1.5-0.7-2.9-2.1-3.6
						c-1.4-0.7-2.9-0.9-4.3-1.6c-1.7-0.8-3-2.3-4.4-3.5c-3.8-3.3-8.8-2.2-10.8,2.5c-0.7,1.6-0.5,3.4-0.5,5.1
						C400.6,102,402.2,105,401.9,107.8z"/>
					<path class="st146" d="M395.2,91.8c0.1,2,1.7,3.9,3.7,4.2c2.8,0.3,5.1-2.4,7.9-2.9c0.4-0.1,0.9-0.1,1.3,0.1
						c0.3,0.2,0.6,0.5,0.7,0.9c0.9,1.9,0.5,4.4,1.7,6.2c0.5,0.8,1.4,1.4,1.8,2.3c0.4,0.8,0.4,1.9,0.9,2.7c0.4,0.8,1.7,1.4,2.3,0.7
						c-0.3-1.3-0.5-2.7-0.2-4c0.3-1.3,1.1-2.6,2.3-3.2c1.2-0.6,2.9-0.3,3.6,0.8c0.9,1.3,0.4,3.1,1.2,4.4c0.5,0.8,1.4,1.3,2,2
						c0.6,0.7,0.8,1.7,1.3,2.4c0.8,1.1,2.4,1.4,3.6,0.9c-0.1-1.7-0.3-3.5-0.1-5.2c0.2-2.5,1-5,1.5-7.5c0.5-2.5,0.7-5.2-0.3-7.5
						c-1.4-3.3-5-5.4-8.5-5c0-1-0.7-1.9-1.5-2.4c-0.8-0.5-1.8-0.7-2.8-0.8c-4.7-0.6-9.5,0.2-13.8,2.2
						C400.2,84.5,394.9,87.4,395.2,91.8z"/>
				</g>
			</g>
		</g>
		<g>
			
				<rect x="281.2" y="232.4" transform="matrix(6.123234e-17 -1 1 6.123234e-17 101.7198 588.7258)" class="st125" width="128.1" height="22.3"/>
			<path class="st147" d="M356.4,179.5v-2c0-6.2-5-11.1-11.1-11.1l0,0c-6.2,0-11.1,5-11.1,11.1v2H356.4z"/>
			
				<rect x="273.8" y="239.8" transform="matrix(6.123234e-17 -1 1 6.123234e-17 94.319 581.325)" class="st153" width="128.1" height="7.5"/>
			
				<rect x="281.2" y="239.8" transform="matrix(6.123234e-17 -1 1 6.123234e-17 101.7198 588.7257)" class="st154" width="128.1" height="7.3"/>
			<polygon class="st141" points="356.4,307.5 334.1,307.5 345.7,326.3 			"/>
			
				<rect x="343.7" y="169.9" transform="matrix(6.123234e-17 -1 1 6.123234e-17 164.207 526.2385)" class="st122" width="3.1" height="22.3"/>
		</g>
	</g>
	<g>
		<g>
			<path class="st155" d="M311,310.1c1.5,0.2,2.9,0,4.4-0.2c1.6-0.2,3.2-0.4,4.8-0.5c0.8-0.1,1.6-0.2,2.3,0.1
				c0.7,0.2,1.4,0.9,1.5,1.6c0.1,1.1-1,1.8-1.9,2.3c-3.8,2-8.2,3.4-12.5,2.7c-1.9-0.3-4-1.1-5-2.8c-0.8-1.3-1-4.2,0.7-4.9
				c0.9-0.4,1.7,0.3,2.5,0.7C308.8,309.6,309.9,309.9,311,310.1z"/>
			<path class="st137" d="M314.9,313.1c2.8,0.1,5.7,0.1,8.5-0.6c1.1-0.3,2.3-0.7,3.4-0.9c1.2-0.1,2.5,0.2,3.2,1.1
				c0.8,1,0.8,2.5,0.2,3.6c-0.5,1.2-1.5,2-2.5,2.9c-5.3,4.5-11.7,8-18.6,8.3c-1.9,0.1-3.8-0.1-5.6,0.5c-2.1,0.7-4,2.3-6.1,1.8
				c-0.7-0.2-1.4-0.6-2-1c-0.4-0.3-0.8-0.6-1-1c-0.1-0.5,0.2-1,0.5-1.5c1.5-2.4,2.5-5.2,3.3-8c0.5-1.6,1-3.3,1.9-4.7
				c0.7-1.1,1.6-2.1,2.8-2.6c1.4-0.6,2.1,0.3,3.4,0.9C309,312.9,312,313,314.9,313.1z"/>
			<path class="st156" d="M283.2,296.4c1.9,1.1,3.8,2.1,5.8,3c5.8,2.6,12.3,3.9,17.4,7.7c-0.8,1.6-1.5,3.2-2.3,4.8
				c-0.5,1.1-1.2,2.2-2.3,2.6c-0.9,0.3-1.9-0.1-2.8-0.4c-6.3-2.5-12.5-5-18.8-7.5c-12.9-5.2-25.9-10.4-38.5-16.3
				c-1.8-0.8-3.6-1.7-5-3.1c-1.4-1.4-2.3-3.5-1.8-5.4c0.7-2.7,3.7-4.1,6.4-5c1.4-0.5,2.5-1.2,4-0.8c1.4,0.3,2.9,1.2,4.2,1.8
				c2.8,1.3,5.6,2.7,8.3,4.2c5.5,3,10.9,6.2,16.4,9.4C277.2,293,280.1,294.8,283.2,296.4z"/>
			<path class="st157" d="M295.7,327.8c-0.9,1.5-5.1-2.6-6.6-3.1c-4.4-1.6-8.8-3.8-13.5-5.8c-9.4-3.9-18.9-7.8-28.3-11.6
				c-2.6-1.1-5.4-2.2-8.2-2.1c-3.2,0.1-6.1,1.8-8.8,3.4c-8.4,4.9-16.9,9.9-25.3,14.8c-4.1,2.4-8.2,4.8-12.7,6.1
				c-3.2,0.9-6.5,1.3-9.8,1.6c-3.2,0.3-6.5,0.5-9.6-0.5c-3.6-1.2-6.4-3.9-9.1-6.5c-0.6-0.6-1.3-1.4-1.4-2.3
				c-0.1-0.6,0.2-1.3,0.5-1.8c1.7-3.7,3.8-7.2,6.1-10.6c0.9-1.3,1.8-2.6,3.1-3.7c1.5-1.3,3.4-2.1,5.2-2.9c6.4-2.7,11.9-6.8,18.5-9
				c10.3-3.4,22-4.1,31.4-9.6c3.4-1.9,6.8-4.4,10.7-4.2c2.6,0.1,5,1.4,7.3,2.7c8.5,4.8,16.9,9.6,25.4,14.4
				c5.2,2.9,10.5,5.9,16.3,6.9c3.9,0.7,10.1,3.4,15,5.1C306.2,310.8,298,324.2,295.7,327.8z"/>
		</g>
		<g>
			<path class="st158" d="M192.4,279.4c0.1,0.9,0.2,1.9,0.7,2.6c0.7,1.1,2.1,1.5,3.4,1.6c2.3,0.2,4.6-0.1,6.9-0.5
				c-0.5,1.5-1.8,2.6-3.1,3.5c-1.8,1.3-3.9,2.4-6.1,2.9c-1.7,0.4-3.7,0.4-5.1-0.8c-0.7-0.6-1.1-1.5-1.5-2.4c-2.5-5.8-4-12.3-3-18.6
				c0.3-1.9,0.9-3.8,2.3-5.2c1.3-1.3,5.4-2.4,5.6,0.4c0.1,1.6-0.3,3.4-0.4,5.1c-0.1,1.8-0.1,3.5-0.1,5.3
				C192.1,275.4,192.2,277.4,192.4,279.4z"/>
			<path class="st158" d="M212.6,280.2c1-0.7,2.1-1.3,3.3-1.4c1.6-0.2,3.2,0.5,4.8,0.1c0.5-0.1,1-0.4,1.6-0.5
				c0.9-0.1,1.7,0.2,2.5,0.6c0.2,0.1,0.4,0.2,0.4,0.4c0.1,0.3-0.2,0.6-0.5,0.8c-3.7,2.3-7.7,4-11.9,5.2c-1.3,0.4-3-0.2-3.1-1.8
				C209.5,282.1,211.6,280.9,212.6,280.2z"/>
			<linearGradient id="SVGID_9_" gradientUnits="userSpaceOnUse" x1="146.6016" y1="307.6667" x2="173.9332" y2="307.6667">
				<stop  offset="0" style="stop-color:#FAEC21"/>
				<stop  offset="0.2285" style="stop-color:#FAE623"/>
				<stop  offset="0.5299" style="stop-color:#FAD62A"/>
				<stop  offset="0.8707" style="stop-color:#F9BA36"/>
				<stop  offset="1" style="stop-color:#F9AE3B"/>
			</linearGradient>
			<path class="st25" d="M173,305.1c-2.1,3.4-4.2,6.7-6.7,9.9c-1.1,1.4-2.4,2.8-3.1,4.5c-0.5,1.1-0.9,2.6-2.1,2.9
				c-0.7,0.2-1.4-0.1-2-0.4c-1.6-0.7-3-1.8-4.1-3.1c-0.8-0.9-1.5-1.9-2.2-2.9c-0.8-1-1.8-1.9-2.6-3c-0.8-1.1-1.3-2.4-1.7-3.7
				c-1.6-5.1-2.3-10.4-1.9-15.7c0-0.3,0.1-0.6,0.3-0.7c0.2-0.1,0.4-0.2,0.6-0.2c1.1,0,2.1,0.1,3.1,0.3c4.5,0.7,8.9,2.1,13,4.1
				c2.4,1.2,4.8,2.6,7.1,3.9c0.9,0.5,2.1,1,2.8,1.7C174.4,303.7,173.7,304.1,173,305.1z"/>
			<path class="st160" d="M145.7,295.2c0.4,3.5,1.1,7.4,4,9.5c2.3,1.8,5.4,1.9,8.4,1.9c3.1,0,6.2,0.1,9.2-0.4
				c2.9-0.5,5.8-1.4,8.5-2.5c8.6-3.4,16.6-8.4,25-12.2c5.5-2.5,11.3-4.5,16.3-7.9c0.7-0.4,0.4-1.5-0.4-1.6l-5.4-0.6
				c-1-0.1-1.9-0.2-2.9-0.1c-1.5,0.1-2.9,0.7-4.3,1.2c-1.9,0.7-3.8,1.5-5.6,2.4c-1.6,0.8-3.2,1.9-5,2.4c-1.3,0.4-2.7,0.6-4.1,0.7
				c-6.7,0.6-13.4,1-20.2,1.1c-1,0-2.1,0-3-0.4c-2.3-0.9-3.1-3.7-3.2-6.2c-0.2-2.9,0.1-5.8-0.2-8.7c-0.3-2.9-1.3-5.8-3.5-7.7
				c-1.9-1.5-4.5-2.1-6.9-1.8c-2.8,0.3-6,0.9-7.9,3.2c-1.8,2.2-0.8,3-0.8,6.1c0,3.3,0.6,7.2,0.9,10.4
				C144.9,287.9,145.3,291.6,145.7,295.2z"/>
			<linearGradient id="SVGID_10_" gradientUnits="userSpaceOnUse" x1="142.3813" y1="263.5258" x2="193.5008" y2="263.5258">
				<stop  offset="0" style="stop-color:#FAEC21"/>
				<stop  offset="0.2285" style="stop-color:#FAE623"/>
				<stop  offset="0.5299" style="stop-color:#FAD62A"/>
				<stop  offset="0.8707" style="stop-color:#F9BA36"/>
				<stop  offset="1" style="stop-color:#F9AE3B"/>
			</linearGradient>
			<path class="st26" d="M185.1,241.9c1.4,0.7,2.7,1.4,3.8,2.5c1.4,1.4,2.1,3.4,2.7,5.4c1.2,4.2,1.8,8.5,1.9,12.8
				c-1.4,0.2-2.7,0.5-4.1,0.7c-0.3,0-0.6,0.1-0.8,0.3c-0.2,0.2-0.2,0.5-0.2,0.7c-0.4,5.4,0.1,10.9,1.5,16.2c0.5,2,1.1,4,1.2,6
				c0,0.3,0,0.7-0.2,0.9c-0.4,0.7-1.4,0.7-2.2,0.7c-4,0-7.9,1.7-11.8,2.5c-4.1,0.9-8.5,1-12.7,0.2c-0.7-0.1-1.5-0.3-2-0.8
				c-0.8-0.7-0.9-1.8-1.1-2.8c-0.8-5.9-1.4-11.8-1.7-17.8c0-0.4-0.1-0.8-0.3-1c-0.3-0.3-0.7-0.3-1.1-0.4c-2.6-0.2-5.3-0.5-7.8,0.1
				s-5.1,2-6.2,4.4c-0.2,0.5-0.6,1.1-1.1,0.8c-0.3-0.1-0.3-0.5-0.3-0.9c-0.1-2.4-0.1-4.8-0.2-7.2c-0.1-2.1-0.1-4.2,0.1-6.3
				c0.6-5.7,3.2-11.1,7.3-15.1c1.7-1.6,3.6-3,5.2-4.7c1.4-1.4,2.6-3.1,4.5-3.6c1.3-0.4,2.7-0.1,4.1,0.1c4,0.7,8.1,1.8,12.1,2.4
				C179.2,238.7,182,240.3,185.1,241.9z"/>
		</g>
		<g>
			<path class="st160" d="M179.5,204.4c0.2,0.4,0.4,0.9,0.6,1.4c0.5,1,1.3,1.7,2.3,2.2c0.6,0.3,1.4,0.6,1.9,1c0.6,0.5,1,1.2,0.7,1.9
				c-0.3,0.8-1.4,1.4-1.1,2.2c0.1,0.2,0.3,0.4,0.5,0.6c0.9,0.8,1.4,2,1.4,3.2c0,0.5-0.1,1.1,0.2,1.5c0.1,0.2,0.4,0.4,0.5,0.5
				c1.1,1,1.1,3-0.1,4c-0.7,0.6-1.6,0.8-2.6,0.9c-3.6,0.6-7.4,0.7-10.8,2.1c-0.9,0.4-1.9,0.8-2.9,0.6c-2-0.4-2.9-3.4-4.9-3.3
				c-0.7,0-1.3,0.4-2,0.6c-1.1,0.2-2.2-0.2-3-1c-0.8-0.8-1.3-1.8-1.8-2.8c-0.6-1.4-1.1-2.9-0.9-4.3c0.1-1.5,1-3,2.4-3.5
				c0.6-0.2,1.3-0.3,1.9-0.4c2.6-0.6,4.4-3.1,5.9-5.3c1.3-2,3.2-4.8,5.8-5.2C175.6,201,178.6,202.7,179.5,204.4z"/>
			<path class="st158" d="M180.5,226.9c-1,1.6-1.5,3.5-2,5.3c-0.7,2.7-1.5,5.4-1.7,8.2c-0.1,0.7-0.1,1.6-0.6,2.1
				c-0.6,0.7-1.7,0.8-2.6,0.5c-0.9-0.3-1.6-1-2.4-1.5c-3.6-2.7-8-3.8-12.2-5.4c-0.4-0.1-0.8-0.3-0.8-0.7c2-0.5,4.2-1.3,4.9-3.2
				c0.3-0.8,0.2-1.7,0.2-2.6c-0.2-2.1-0.3-4.3-0.5-6.4c0-0.3,0-0.6,0.1-0.9c0.2-0.5,0.8-0.7,1.4-0.8c2.9-0.5,5.8,0.4,8.7,0.5
				c3.4,0.2,6.8-0.5,10.1,0.3c0.4,0.1,1.7,0.4,1.7,0.9c0,0.5-1.1,0.7-1.5,0.9C182.1,224.8,181.2,225.8,180.5,226.9z"/>
			<path class="st148" d="M173.4,194c2-0.4,4.3,0.8,5,2.8c0.2,0.6,0.3,1.2,0.4,1.9c0.1,1,0.2,2-0.1,3c-0.2,1-0.9,1.9-1.8,2.2
				c-0.6,0.2-1.3,0.2-1.8,0.6c-0.5,0.4-0.6,1.2-0.8,1.8c-0.5,1.4-1.8,2.5-3.3,2.7c-0.5,0.1-1,0.1-1.3,0.4c-0.2,0.2-0.2,0.6-0.3,0.9
				c-0.2,1.1-1,2-2,2.4c-0.5,0.2-1.1,0.2-1.6,0.4c-0.5,0.2-1,0.6-1.1,1.2c-0.1,0.7,0.6,1.3,1.1,1.8c0.5,0.5,0.9,1.4,0.4,1.9
				c-0.4,0.4-1.1,0.1-1.5-0.2c-0.5-0.3-0.9-0.7-1.5-0.7c-0.6,0-1.1,0.5-1.4,1.1c-0.6,1.2-0.4,2.6,0.4,3.7c0.2,0.3,0.6,0.6,0.7,1
				c0.4,0.9-0.1,2.1,0.6,2.9c0.3,0.3,0.7,0.5,0.9,0.9c0.2,0.4,0,1,0.1,1.5c0.1,0.4,0.4,0.6,0.7,0.9c1,1.2,0.7,3.3-0.6,4.1
				c-0.3,0.2-0.5,0.3-0.8,0.5c-0.2,0.2-0.3,0.5-0.5,0.7c-0.8,1-2.4,1.7-3.6,1.4c-1.5,1.8-4.8,0.9-6.3-1c-0.2-0.3-0.4-0.6-0.8-0.8
				c-0.2-0.1-0.5-0.2-0.7-0.2c-2.2-0.6-3.7-3.3-2.9-5.5c-2.3-0.8-3.8-3-4.3-5.3c-0.2-0.9-0.3-1.9,0-2.7c0.1-0.2,0.2-0.4,0.2-0.6
				c0-0.3-0.2-0.6-0.4-0.8c-1.2-1.7-1.9-3.7-1.9-5.8c0-0.9,0.1-1.8,0.6-2.6c0.5-0.8,1.3-1.3,2.2-1.3c0.1-1.6-0.5-3.2-0.2-4.7
				c0.5-2.1,3-3.5,5.1-2.8c-0.4-1.4,0-3,1-4.1c1-1,2.6-1.5,4-1.1c0-0.9,0.7-1.7,1.5-2c0.8-0.3,1.8-0.2,2.7-0.2
				c0.1-1.3,0.9-2.5,2.1-3.1c1.2-0.6,2.6-0.4,3.7,0.3c-0.1-0.1,2-0.9,2.2-0.9c0.7,0,1.6,0.1,2.3,0.2
				C171.6,191.2,172.6,192.4,173.4,194z"/>
		</g>
		<polygon class="st162" points="262.3,237.9 243.1,240.8 224.9,278.8 245.5,273 		"/>
		<polygon class="st163" points="245.5,273 245.7,276.1 195.9,298.3 193.8,294.9 224.8,279.9 224.9,278.8 		"/>
	</g>
</g>
</svg>
