<?xml version="1.0" encoding="utf-8"?>
<!-- Generator: Adobe Illustrator 23.0.5, SVG Export Plug-In . SVG Version: 6.00 Build 0)  -->
<svg version="1.1" id="Layer_1" xmlns="http://www.w3.org/2000/svg" xmlns:xlink="http://www.w3.org/1999/xlink" x="0px" y="0px"
	 viewBox="0 0 530.1 373" style="enable-background:new 0 0 530.1 373;" xml:space="preserve">
<style type="text/css">
	.st0{fill:#E4EBF7;}
	.st1{fill:#FFFFFF;}
	.st2{fill:#D793C9;}
	.st3{fill:#ABDAF7;}
	.st4{fill:#70B2DD;}
	.st5{fill:#F29C8B;}
	.st6{fill:url(#SVGID_1_);}
	.st7{fill:#3150BC;}
	.st8{fill:#78AAF9;}
	.st9{fill:#FEB19E;}
	.st10{fill:#525559;}
	.st11{fill:url(#SVGID_2_);}
	.st12{fill:#FF856A;}
	.st13{fill:#1B3151;}
	.st14{fill:#23406D;}
	.st15{fill:#4E79B7;}
	.st16{opacity:0.49;fill:#1B3151;}
	.st17{fill:url(#SVGID_3_);}
	.st18{fill:url(#SVGID_4_);}
	.st19{fill:url(#SVGID_5_);}
	.st20{fill:url(#SVGID_6_);}
	.st21{fill:url(#SVGID_7_);}
	.st22{fill:#94D6D4;}
	.st23{fill:url(#SVGID_8_);}
	.st24{fill:#FFF7D1;}
	.st25{fill:url(#SVGID_9_);}
	.st26{fill:url(#SVGID_10_);}
	.st27{fill:url(#SVGID_11_);}
	.st28{fill:#F5E5A1;}
	.st29{fill:#CDCDCD;}
	.st30{fill:#1B1464;}
	.st31{fill:url(#SVGID_12_);}
	.st32{fill:url(#SVGID_13_);}
	.st33{fill:#D78785;}
	.st34{fill:#CA605D;}
	.st35{fill:#C5514E;}
	.st36{fill:#BE3C39;}
	.st37{fill:#B5211E;}
	.st38{fill:url(#SVGID_14_);}
	.st39{fill:#CA6AB6;}
	.st40{fill:#C55BAF;}
	.st41{fill:#BE45A6;}
	.st42{fill:#B5279A;}
	.st43{fill:url(#SVGID_15_);}
	.st44{fill:#9BC7D7;}
	.st45{fill:#72B1CA;}
	.st46{fill:#63AAC5;}
	.st47{fill:#4CA0BE;}
	.st48{fill:#2E92B5;}
	.st49{fill:url(#SVGID_16_);}
	.st50{fill:url(#SVGID_17_);}
	.st51{fill:url(#SVGID_18_);}
	.st52{fill:url(#SVGID_19_);}
	.st53{fill:#E6E6E6;}
	.st54{fill:url(#SVGID_20_);}
	.st55{fill:url(#SVGID_21_);}
	.st56{fill:url(#SVGID_22_);}
	.st57{fill:url(#SVGID_23_);}
	.st58{fill:url(#SVGID_24_);}
	.st59{fill:#E47EDA;}
	.st60{fill:#3C2BDA;}
	.st61{fill:#619CE3;}
	.st62{fill:#CCCCCC;}
	.st63{fill:#4D4D4D;}
	.st64{fill:url(#SVGID_25_);}
	.st65{fill:#999999;}
	.st66{fill:#666666;}
	.st67{fill:#F1D34E;}
	.st68{fill:#C85676;}
	.st69{fill:#8043B1;}
	.st70{fill:#FF0000;}
	.st71{fill:#FFFF00;}
	.st72{fill:#00FF00;}
	.st73{fill:#00FFFF;}
	.st74{fill:#0000FF;}
	.st75{fill:#FF00FF;}
	.st76{fill:#BF272D;}
	.st77{fill:#EF5A24;}
	.st78{fill:#F9AE3B;}
	.st79{fill:#FAEC21;}
	.st80{fill:#39B34A;}
	.st81{fill:#8AC43F;}
	.st82{fill:#006837;}
	.st83{fill:#00A79B;}
	.st84{fill:#0071BA;}
	.st85{fill:#333333;}
	.st86{fill:#808080;}
	.st87{fill:#B3B3B3;}
	.st88{fill:#F2F2F2;}
	.st89{fill:#EB1C24;}
	.st90{fill:url(#SVGID_26_);}
	.st91{fill:url(#SVGID_27_);}
	.st92{fill:url(#SVGID_28_);}
	.st93{fill:url(#SVGID_29_);}
	.st94{fill:url(#SVGID_30_);}
	.st95{fill:url(#SVGID_31_);}
	.st96{fill:url(#SVGID_32_);}
	.st97{fill:url(#SVGID_33_);}
	.st98{fill:url(#SVGID_34_);}
	.st99{fill:url(#SVGID_35_);}
	.st100{fill:url(#SVGID_36_);}
	.st101{fill:url(#SVGID_37_);}
	.st102{fill:url(#SVGID_38_);}
	.st103{fill:#FFB293;}
	.st104{fill:#FFCAB5;}
	.st105{fill:url(#SVGID_39_);}
	.st106{fill:url(#SVGID_40_);}
	.st107{fill:url(#SVGID_41_);}
	.st108{fill:url(#SVGID_42_);}
	.st109{fill:url(#SVGID_43_);}
	.st110{fill:url(#SVGID_44_);}
	.st111{fill:url(#SVGID_45_);}
	.st112{fill:url(#SVGID_46_);}
	.st113{fill:url(#SVGID_47_);}
	.st114{fill:url(#SVGID_48_);}
	.st115{fill:url(#SVGID_49_);}
	.st116{fill:url(#SVGID_50_);}
	.st117{fill:url(#SVGID_51_);}
	.st118{fill:#FFE2E6;}
	.st119{opacity:0.4;fill:url(#SVGID_52_);}
	.st120{opacity:4.000000e-02;}
	.st121{fill:url(#SVGID_53_);}
	.st122{fill:#FFD275;}
	.st123{fill:url(#SVGID_54_);}
	.st124{opacity:0.4;fill:url(#SVGID_55_);}
	.st125{fill:#FF7872;}
	.st126{fill:url(#SVGID_56_);}
	.st127{fill:#005048;}
	.st128{fill:#57ABB9;}
	.st129{fill:#DFF3F7;}
	.st130{fill:#3C7582;}
	.st131{fill:#A0E0D6;}
	.st132{fill:#E7E7CE;}
	.st133{fill:#00BEA6;}
	.st134{fill:none;stroke:#161636;stroke-width:0.9096;stroke-linecap:round;stroke-linejoin:round;}
	.st135{fill:none;stroke:#161636;stroke-width:0.9096;stroke-linecap:round;stroke-linejoin:round;stroke-dasharray:2.697,3.596;}
	.st136{fill:none;stroke:#161636;stroke-width:0.9096;stroke-linecap:round;stroke-linejoin:round;stroke-dasharray:2.615,3.4866;}
	.st137{fill:#161636;}
	.st138{opacity:0.4;}
	.st139{fill:#FBF9DD;}
	.st140{fill:#FE7F58;}
	.st141{fill:#EE4026;}
	.st142{fill:#95170A;}
	.st143{fill:url(#SVGID_57_);}
	.st144{fill:url(#SVGID_58_);}
	.st145{fill:#FF9E7D;}
	.st146{fill:#004D62;}
	.st147{fill:#D5495B;}
	.st148{fill:#FF605B;}
	.st149{fill:#F8F8DC;}
	.st150{fill:#00BEA5;}
	.st151{fill:#FFBEAA;}
	.st152{fill:url(#SVGID_59_);}
	.st153{fill:#FD5757;}
	.st154{fill:#FF8B8B;}
	.st155{fill:#06061E;}
	.st156{fill:#005160;}
	.st157{fill:#005A6C;}
	.st158{fill:#FF9F81;}
	.st159{fill:url(#SVGID_60_);}
	.st160{fill:#FFB8A0;}
	.st161{fill:url(#SVGID_61_);}
	.st162{fill:#003746;}
	.st163{fill:#3B7A8B;}
	.st164{opacity:0.2;fill-rule:evenodd;clip-rule:evenodd;fill:url(#SVGID_62_);}
	.st165{clip-path:url(#SVGID_64_);}
	.st166{fill-rule:evenodd;clip-rule:evenodd;fill:#C7C0DD;}
	.st167{opacity:0.4;fill-rule:evenodd;clip-rule:evenodd;fill:url(#SVGID_65_);}
	.st168{fill-rule:evenodd;clip-rule:evenodd;fill:#350A3D;}
	.st169{fill-rule:evenodd;clip-rule:evenodd;fill:url(#SVGID_66_);}
	.st170{fill-rule:evenodd;clip-rule:evenodd;fill:#CB6459;}
	.st171{fill-rule:evenodd;clip-rule:evenodd;fill:#B24949;}
	.st172{fill-rule:evenodd;clip-rule:evenodd;fill:#005A6C;}
	.st173{fill-rule:evenodd;clip-rule:evenodd;fill:#E6AD83;}
	.st174{fill-rule:evenodd;clip-rule:evenodd;fill:#B02539;}
	.st175{fill-rule:evenodd;clip-rule:evenodd;fill:#ECD8DA;}
	.st176{fill-rule:evenodd;clip-rule:evenodd;fill:#DF9AA3;}
	.st177{fill-rule:evenodd;clip-rule:evenodd;fill:#C73048;}
	.st178{fill-rule:evenodd;clip-rule:evenodd;fill:#CF4A60;}
	.st179{fill-rule:evenodd;clip-rule:evenodd;fill:#D4A037;}
	.st180{fill-rule:evenodd;clip-rule:evenodd;fill:url(#SVGID_67_);}
	.st181{fill-rule:evenodd;clip-rule:evenodd;fill:url(#SVGID_68_);}
	.st182{fill-rule:evenodd;clip-rule:evenodd;fill:url(#SVGID_69_);}
	.st183{fill-rule:evenodd;clip-rule:evenodd;fill:#FFFFFF;}
	.st184{fill-rule:evenodd;clip-rule:evenodd;fill:url(#SVGID_70_);}
	.st185{fill-rule:evenodd;clip-rule:evenodd;fill:#F2DBDF;}
	.st186{fill-rule:evenodd;clip-rule:evenodd;fill:#BD263E;}
	.st187{fill-rule:evenodd;clip-rule:evenodd;fill:#472055;}
	.st188{fill-rule:evenodd;clip-rule:evenodd;fill:#542763;}
	.st189{fill-rule:evenodd;clip-rule:evenodd;fill:#9EBCD2;}
	.st190{fill-rule:evenodd;clip-rule:evenodd;fill:#7696AE;}
	.st191{fill-rule:evenodd;clip-rule:evenodd;fill:url(#SVGID_71_);}
	.st192{fill-rule:evenodd;clip-rule:evenodd;fill:url(#SVGID_72_);}
	.st193{fill-rule:evenodd;clip-rule:evenodd;fill:url(#SVGID_73_);}
	.st194{fill-rule:evenodd;clip-rule:evenodd;fill:#E7E2EF;}
	.st195{fill:#F4A640;}
	.st196{fill:#ADCFD8;}
	.st197{fill:#55769F;}
	.st198{fill:#DAEEF7;}
	.st199{fill:#FEB546;}
	.st200{fill:#FF5B7E;}
	.st201{fill:#E03268;}
	.st202{fill:#07085B;}
	.st203{fill:#02CCC0;}
	.st204{fill:#06BFAD;}
	.st205{opacity:0.5;fill:#55769F;}
	.st206{fill:#C4DFE8;}
	.st207{fill:#FFC0BB;}
	.st208{opacity:0.6;fill:#FC8D84;}
	.st209{fill:#050645;}
	.st210{fill:#F99893;}
	.st211{fill:#6F747A;}
	.st212{fill:#CDD6E0;}
	.st213{fill:#D9D9D9;}
	.st214{fill:#71BF9D;}
	.st215{fill:none;stroke:#E57E55;stroke-width:0.8859;stroke-linecap:round;stroke-linejoin:round;stroke-miterlimit:10;}
	.st216{fill:none;stroke:#E57E55;stroke-width:0.7092;stroke-linecap:round;stroke-linejoin:round;stroke-miterlimit:10;}
	.st217{fill:#FFD25A;}
	.st218{fill:#FFBE57;}
	.st219{fill:none;stroke:#FFFFFF;stroke-width:0.8649;stroke-miterlimit:10;}
	.st220{fill:#764582;}
	.st221{fill:#9D68AA;}
	.st222{fill:#FFFFFF;stroke:#764582;stroke-width:0.865;stroke-miterlimit:10;}
	.st223{fill-rule:evenodd;clip-rule:evenodd;fill:#764582;}
	.st224{fill-rule:evenodd;clip-rule:evenodd;fill:#FFFFFF;stroke:#764582;stroke-width:0.9101;stroke-miterlimit:10;}
	.st225{fill:none;stroke:#764582;stroke-width:1.1238;stroke-miterlimit:10;}
	.st226{fill:#FFFFFF;stroke:#764582;stroke-width:0.9101;stroke-linecap:round;stroke-linejoin:round;stroke-miterlimit:10;}
	.st227{opacity:0.7;fill:#A1ABAD;}
	.st228{fill:#DD4026;}
	.st229{fill:#E2E2E2;}
	.st230{fill:#FD6141;}
	.st231{fill:none;}
	.st232{fill:none;stroke:#EFE9DA;stroke-width:1.0282;stroke-linecap:round;stroke-miterlimit:10;}
	.st233{fill:none;stroke:#EFE9DA;stroke-width:1.0282;stroke-miterlimit:10;}
	.st234{fill:#3C8460;}
	.st235{opacity:0.2;fill:#764582;}
	.st236{fill:#E4BCE8;}
	.st237{fill:none;stroke:#FFFFFF;stroke-width:0.8648;stroke-miterlimit:10;}
	.st238{fill:#FDEEFF;}
	.st239{fill:#A1ABAD;}
	.st240{fill:#FFCC5A;stroke:#764582;stroke-width:0.865;stroke-miterlimit:10;}
	.st241{fill-rule:evenodd;clip-rule:evenodd;fill:#9D68AA;}
	.st242{fill:#FFB072;}
	.st243{fill:#3E2344;}
	.st244{fill:#FFDCAE;}
	.st245{fill:#FFFFFF;stroke:#FD6141;stroke-width:1.6475;stroke-linecap:round;stroke-linejoin:round;stroke-miterlimit:10;}
	.st246{fill:#FF8976;}
	.st247{fill:#F99441;}
	.st248{clip-path:url(#SVGID_75_);fill:#FFAEC1;}
	.st249{clip-path:url(#SVGID_75_);fill:#FFB072;}
	.st250{fill:#552F5E;}
	.st251{fill:#F29353;}
	.st252{clip-path:url(#SVGID_77_);fill:#FFAEC1;}
	.st253{clip-path:url(#SVGID_77_);fill:#FFB072;}
	.st254{fill:none;stroke:#FFFFFF;stroke-width:0.4429;stroke-miterlimit:10;}
	.st255{fill-rule:evenodd;clip-rule:evenodd;fill:#FFB072;}
	.st256{fill:#E57E55;}
	.st257{opacity:0.5;fill:#E57E55;}
	.st258{opacity:0.7;fill-rule:evenodd;clip-rule:evenodd;fill:#A1ABAD;}
	.st259{fill:none;stroke:#FFFFFF;stroke-width:0.4429;stroke-linecap:round;stroke-linejoin:round;stroke-miterlimit:10;}
	.st260{fill-rule:evenodd;clip-rule:evenodd;fill:#FD6141;}
	.st261{opacity:0.5;}
	.st262{fill-rule:evenodd;clip-rule:evenodd;fill:#DD4026;}
	.st263{clip-path:url(#SVGID_79_);fill:#DD4026;}
	.st264{fill:#F7B614;}
	.st265{opacity:0.5;fill:#FFBE57;}
	.st266{clip-path:url(#SVGID_81_);fill:#DD4026;}
	.st267{fill:none;stroke:#FFFFFF;stroke-width:0.4429;stroke-linecap:round;stroke-miterlimit:10;}
	.st268{opacity:0.3;fill:#764582;}
</style>
<g>
	<g>
		<g>
			<path class="st24" d="M412.2,47.8c9.8,20.8,8.8,46,1.3,67.4c-4.2,11.8-10.2,23.6-9.2,36.1c0.3,3.9,1.3,7.5,2.6,11.1
				c5.1,13.4,15.8,24.8,20.6,38.2c9.5,26.6,8,57.8-2.5,85c-6.3,16.4-15.9,31.3-28.3,42.8c-7.5,7-16,12.8-25.5,16.9
				c-6.9,3-14.2,5.1-22.1,6.2c-2.3,0.3-4.6,0.6-7,0.7c-6.1,0.4-12.1-0.2-17.9-1.3c-7.1-1.4-14-3.6-20.9-6.3
				c-4.8-1.9-9.6-3.9-14.3-5.9c-6.9-3-71.7-20.5-123.8,7.9c-6.1,3.3-11.3,6.6-16.8,7.9c-6.5,1.5-12.8,1.3-18.8-0.3
				c-21.9-5.6-40.2-28.7-49.1-51.3c-9.1-23-6.7-47.8,9.8-63.5c4.2-4,9.2-7.4,15.3-10c0.2-0.1,0.4-0.2,0.6-0.3c7-3,14.7-4.2,21.6-7.2
				c1.2-0.5,2.3-1.1,3.4-1.7c6.5-3.7,11.6-9.7,14.5-16.6l0,0c2.4-5.8,3.3-12.2,2.3-18.4c-2.8-17.5-18.5-30.1-24.6-46.7l-0.7-2l0-0.1
				c-4.8-15.6,0-32.7,7.4-47.2c2.3-4.5,4.9-9,7.9-13.3c8.6-12.5,19.8-23.2,32.8-29.7c6.2-3.1,12.9-5.2,19.9-6
				c2.8-0.3,5.6-0.4,8.4-0.3c5.7,0.4,11.2,1.9,15.8,5.2c2.9,2.1,5.3,4.8,7.3,7.8c3.8,5.6,6.4,12.4,9.6,18.5
				c4.8,9.4,13.1,18.9,23.5,18c1.3-0.1,2.6-0.4,3.8-0.8c5-1.6,9.3-5.3,13.2-8.8c2-1.9,4-3.8,6-5.7c7.9-7.7,15.3-16.1,23-24.1
				c10.1-10.6,20.7-20.6,33.4-28.1c0.3-0.2,0.7-0.4,1.1-0.6c12.7-7.2,26.2-8.8,38.5-5.8C390.3,19.4,404.3,30.9,412.2,47.8z"/>
		</g>
		<g>
			<g>
				<path class="st24" d="M293.1,14.3c1.1-3.8,5.1-5.9,8.9-4.8c3.7,1.2,5.9,5.2,4.7,8.9c-1.1,3.8-5.1,5.9-8.9,4.8
					C294.1,22.1,292,18.1,293.1,14.3z"/>
				<path class="st24" d="M320.4,15.3c1.9,0.6,2.9,2.6,2.4,4.5c-0.6,1.9-2.6,3-4.4,2.4c-1.9-0.6-2.9-2.6-2.4-4.5
					S318.6,14.7,320.4,15.3z"/>
				<path class="st24" d="M310.7,1.2c1.8-1.7,4.6-1.6,6.3,0.2c1.7,1.8,1.6,4.7-0.2,6.4c-1.8,1.7-4.6,1.6-6.3-0.2
					C308.8,5.7,308.9,2.9,310.7,1.2z"/>
			</g>
			<g>
				<path class="st24" d="M168.6,360.4c1.6-5.2,7-8,12.1-6.5c5.1,1.6,8,7,6.4,12.2c-1.6,5.2-7,8-12.1,6.5
					C170,371,167.1,365.5,168.6,360.4z"/>
				<path class="st24" d="M200.4,358.6c2.6,0.8,4,3.5,3.2,6.1c-0.8,2.6-3.5,4-6,3.2c-2.6-0.8-4-3.5-3.2-6.1
					C195.2,359.2,197.9,357.8,200.4,358.6z"/>
				<path class="st24" d="M192.6,342.5c2.5-2.3,6.3-2.2,8.6,0.3c2.3,2.5,2.1,6.3-0.3,8.7c-2.5,2.3-6.3,2.2-8.6-0.3
					C190,348.7,190.1,344.8,192.6,342.5z"/>
			</g>
			<g>
				<path class="st24" d="M69.8,200.5c1.6-5.2,7-8,12.1-6.5c5.1,1.6,8,7,6.4,12.2c-1.6,5.2-7,8-12.1,6.5
					C71.1,211.1,68.3,205.6,69.8,200.5z"/>
				<path class="st24" d="M107,201.8c2.6,0.8,4,3.5,3.2,6.1c-0.8,2.6-3.5,4-6,3.2c-2.6-0.8-4-3.5-3.2-6.1
					C101.8,202.4,104.5,201,107,201.8z"/>
				<path class="st24" d="M93.8,182.6c2.5-2.3,6.3-2.2,8.6,0.3c2.3,2.5,2.1,6.3-0.3,8.7c-2.5,2.3-6.3,2.2-8.6-0.3
					C91.2,188.8,91.3,184.9,93.8,182.6z"/>
			</g>
			<g>
				<path class="st24" d="M420,137.4c1.6-5.2,7-8,12.1-6.5c5.1,1.6,8,7,6.4,12.2c-1.6,5.2-7,8-12.1,6.5
					C421.3,148,418.5,142.5,420,137.4z"/>
				<path class="st24" d="M457.2,138.6c2.6,0.8,4,3.5,3.2,6.1c-0.8,2.6-3.5,4-6,3.2c-2.6-0.8-4-3.5-3.2-6.1
					C452,139.3,454.7,137.9,457.2,138.6z"/>
				<path class="st24" d="M444,119.5c2.5-2.3,6.3-2.2,8.6,0.3c2.3,2.5,2.1,6.3-0.3,8.7c-2.5,2.3-6.3,2.2-8.6-0.3
					C441.4,125.7,441.5,121.8,444,119.5z"/>
			</g>
		</g>
	</g>
	<g>
		<g>
			<linearGradient id="SVGID_1_" gradientUnits="userSpaceOnUse" x1="199.4" y1="56.2107" x2="378.0132" y2="56.2107">
				<stop  offset="0" style="stop-color:#516689"/>
				<stop  offset="1" style="stop-color:#1B1464"/>
			</linearGradient>
			<polygon class="st6" points="199.4,112.4 378,112.4 378,0 199.4,0 			"/>
			<linearGradient id="SVGID_2_" gradientUnits="userSpaceOnUse" x1="346.649" y1="113.9975" x2="324.7334" y2="-26.5207">
				<stop  offset="0" style="stop-color:#72003A"/>
				<stop  offset="0.4079" style="stop-color:#AE144F"/>
				<stop  offset="0.608" style="stop-color:#CB1E59"/>
				<stop  offset="0.9987" style="stop-color:#FF306C"/>
			</linearGradient>
			<rect x="304.9" y="8.7" class="st11" width="65.6" height="94.9"/>
			<linearGradient id="SVGID_3_" gradientUnits="userSpaceOnUse" x1="211.6266" y1="106.0019" x2="299.2899" y2="-1.6434">
				<stop  offset="8.108110e-03" style="stop-color:#D5D5DC"/>
				<stop  offset="0.1314" style="stop-color:#DCDCE2"/>
				<stop  offset="0.6743" style="stop-color:#F5F5F7"/>
				<stop  offset="1" style="stop-color:#FFFFFF"/>
			</linearGradient>
			<rect x="206.4" y="8.7" class="st17" width="91.5" height="94.9"/>
		</g>
		<g>
			<g>
				<path class="st28" d="M310.5,58.6c10.4-0.1,20.9-0.2,31.3-0.3c6.2-13.5-8.4-26.9-2.3-40.5c-9.5,0.1-18.9,0.2-28.4,0.2
					C304,31.7,317.7,45.1,310.5,58.6z"/>
				<g>
					<path class="st29" d="M312.5,29.8c0-0.3-0.1-0.6-0.1-0.8c7.2-0.1,14.4-0.1,21.6-0.2c0,0.3,0.1,0.6,0.1,0.8
						C326.9,29.7,319.7,29.7,312.5,29.8z"/>
					<path class="st29" d="M334.7,32.6c-7.3,0.1-14.5,0.1-21.8,0.2c-0.1-0.3-0.1-0.6-0.2-0.8c7.2-0.1,14.5-0.1,21.7-0.2
						C334.6,32,334.7,32.3,334.7,32.6z"/>
					<path class="st29" d="M335.6,35.6c-7.3,0.1-14.6,0.1-22,0.2c-0.1-0.3-0.1-0.6-0.2-0.8c7.3-0.1,14.6-0.1,21.9-0.2
						C335.4,35,335.5,35.3,335.6,35.6z"/>
					<path class="st29" d="M336.4,38.6c-7.4,0.1-14.7,0.1-22.1,0.2c-0.1-0.3-0.1-0.6-0.2-0.8c7.4-0.1,14.7-0.1,22.1-0.2
						C336.3,38,336.4,38.3,336.4,38.6z"/>
					<path class="st29" d="M337.3,41.6c-7.4,0.1-14.8,0.1-22.3,0.2c-0.1-0.3-0.1-0.6-0.2-0.8c7.4-0.1,14.8-0.1,22.2-0.2
						C337.2,41,337.3,41.3,337.3,41.6z"/>
					<path class="st29" d="M338.1,44.6c-7.5,0.1-15,0.1-22.4,0.2c0-0.3-0.1-0.6-0.2-0.8c7.5-0.1,14.9-0.1,22.4-0.2
						C338,44,338,44.3,338.1,44.6z"/>
					<path class="st29" d="M338.5,46.7c0,0.3,0.1,0.6,0.1,0.8c-7.5,0.1-15.1,0.1-22.6,0.2c0-0.3-0.1-0.6-0.1-0.8
						C323.5,46.9,331,46.8,338.5,46.7z"/>
					<path class="st29" d="M312.8,22.5c0.1-0.3,0.1-0.6,0.2-0.9c1.7,0,3.3,0,5,0c-0.1,0.3-0.2,0.6-0.2,0.9
						C316.1,22.5,314.5,22.5,312.8,22.5z"/>
					<path class="st29" d="M317.6,23.7c0,0.3-0.1,0.6-0.1,0.9c-1.7,0-3.4,0-5.1,0c0-0.3,0.1-0.6,0.1-0.9
						C314.2,23.7,315.9,23.7,317.6,23.7z"/>
				</g>
			</g>
			<path class="st30" d="M321.7,18.9c0,1,0.8,1.8,1.8,1.8c1,0,1.8-0.8,1.8-1.8c0-1-0.8-1.8-1.8-1.8C322.5,17.2,321.7,18,321.7,18.9z
				"/>
		</g>
		<g>
			
				<rect x="342.4" y="16.9" transform="matrix(-1 -1.224647e-16 1.224647e-16 -1 700.1332 49.261)" class="st28" width="15.4" height="15.4"/>
			<path class="st30" d="M349.4,17c0,0.5,0.4,1,1,1c0.5,0,1-0.4,1-1c0-0.5-0.4-1-1-1C349.8,16,349.4,16.5,349.4,17z"/>
		</g>
		<g>
			
				<rect x="352.8" y="26.5" transform="matrix(-1 -1.224647e-16 1.224647e-16 -1 721.05 68.3253)" class="st1" width="15.4" height="15.4"/>
			<circle class="st30" cx="360.8" cy="26.5" r="1"/>
		</g>
		<g>
			<g>
				
					<linearGradient id="SVGID_4_" gradientUnits="userSpaceOnUse" x1="256.443" y1="290.2344" x2="319.3842" y2="290.2344" gradientTransform="matrix(-0.4763 0.8793 0.8793 0.4763 222.8692 -321.0025)">
					<stop  offset="8.108110e-03" style="stop-color:#D5D5DC"/>
					<stop  offset="0.1314" style="stop-color:#DCDCE2"/>
					<stop  offset="0.6743" style="stop-color:#F5F5F7"/>
					<stop  offset="1" style="stop-color:#FFFFFF"/>
				</linearGradient>
				<path class="st18" d="M321.1,95.4c13.2-0.1,26.5-0.2,39.7-0.3c7.8-17.2-10.7-34.1-2.9-51.3c-12,0.1-24,0.2-36,0.3
					C312.9,61.3,330.1,78.3,321.1,95.4z"/>
				<g>
					<path class="st29" d="M323.6,58.9c0-0.4-0.1-0.7-0.1-1.1c9.1-0.1,18.2-0.2,27.4-0.2c0,0.4,0.1,0.7,0.2,1.1
						C341.9,58.7,332.7,58.8,323.6,58.9z"/>
					<path class="st29" d="M351.8,62.4c-9.2,0.1-18.4,0.2-27.6,0.2c-0.1-0.4-0.1-0.7-0.2-1.1c9.2-0.1,18.4-0.2,27.6-0.2
						C351.6,61.7,351.7,62.1,351.8,62.4z"/>
					<path class="st29" d="M352.8,66.2c-9.3,0.1-18.5,0.2-27.8,0.2c-0.1-0.4-0.2-0.7-0.2-1.1c9.3-0.1,18.5-0.2,27.8-0.2
						C352.6,65.5,352.7,65.9,352.8,66.2z"/>
					<path class="st29" d="M354,70c-9.3,0.1-18.7,0.2-28,0.2c-0.1-0.4-0.2-0.7-0.3-1.1c9.3-0.1,18.6-0.2,28-0.2
						C353.8,69.3,353.9,69.7,354,70z"/>
					<path class="st29" d="M355.1,73.8c-9.4,0.1-18.8,0.2-28.2,0.2c-0.1-0.4-0.2-0.7-0.2-1.1c9.4-0.1,18.8-0.2,28.2-0.2
						C354.9,73.1,355,73.5,355.1,73.8z"/>
					<path class="st29" d="M356.1,77.6c-9.5,0.1-19,0.2-28.4,0.2c-0.1-0.4-0.1-0.7-0.2-1.1c9.5-0.1,18.9-0.2,28.4-0.2
						C355.9,76.9,356,77.3,356.1,77.6z"/>
					<path class="st29" d="M356.6,80.4c0.1,0.4,0.1,0.7,0.2,1.1c-9.5,0.1-19.1,0.2-28.6,0.2c0-0.4-0.1-0.7-0.1-1.1
						C337.5,80.5,347.1,80.4,356.6,80.4z"/>
					<path class="st29" d="M324,49.7c0.1-0.4,0.2-0.8,0.3-1.2c2.1,0,4.2,0,6.4-0.1c-0.1,0.4-0.2,0.8-0.3,1.2
						C328.2,49.7,326.1,49.7,324,49.7z"/>
					<path class="st29" d="M330.1,51.1c-0.1,0.4-0.1,0.8-0.1,1.2c-2.1,0-4.3,0-6.4,0.1c0-0.4,0.1-0.8,0.2-1.2
						C325.8,51.2,328,51.1,330.1,51.1z"/>
				</g>
			</g>
			<path class="st30" d="M335.3,45.1c0,1.3,1,2.3,2.3,2.3c1.3,0,2.3-1,2.3-2.3c0-1.3-1-2.3-2.3-2.3
				C336.3,42.9,335.3,43.9,335.3,45.1z"/>
		</g>
		<g>
			<g>
				<g>
					
						<linearGradient id="SVGID_5_" gradientUnits="userSpaceOnUse" x1="265.4274" y1="94.4289" x2="284.1439" y2="94.4289" gradientTransform="matrix(-0.9384 -0.3456 -0.3456 0.9384 531.0124 87.6118)">
						<stop  offset="8.108110e-03" style="stop-color:#D5D5DC"/>
						<stop  offset="0.1314" style="stop-color:#DCDCE2"/>
						<stop  offset="0.6743" style="stop-color:#F5F5F7"/>
						<stop  offset="1" style="stop-color:#FFFFFF"/>
					</linearGradient>
					<polygon class="st19" points="241.3,52 258.9,58.5 239.7,110.5 222.2,104 					"/>
					
						<rect x="240.2" y="56.8" transform="matrix(-0.9384 -0.3456 0.3456 -0.9384 459.6794 203.801)" class="st33" width="15.5" height="8.2"/>
					
						<rect x="237.5" y="64.2" transform="matrix(-0.9384 -0.3455 0.3455 -0.9384 451.8033 217.2671)" class="st34" width="15.5" height="8.2"/>
					
						<rect x="234.8" y="71.7" transform="matrix(-0.9384 -0.3456 0.3456 -0.9384 443.9245 230.7367)" class="st35" width="15.5" height="8.2"/>
					
						<rect x="232" y="79.1" transform="matrix(-0.9384 -0.3455 0.3455 -0.9384 436.0502 244.2004)" class="st36" width="15.5" height="8.2"/>
					
						<rect x="229.3" y="86.5" transform="matrix(-0.9384 -0.3456 0.3456 -0.9384 428.1726 257.6684)" class="st37" width="15.5" height="8.2"/>
					
						<rect x="229.1" y="97.3" transform="matrix(-0.9384 -0.3455 0.3455 -0.9384 423.2053 270.7636)" class="st30" width="13.2" height="0.8"/>
					
						<rect x="228" y="100.5" transform="matrix(-0.9384 -0.3456 0.3456 -0.9384 419.7893 276.603)" class="st30" width="13.2" height="0.8"/>
				</g>
				<g>
					
						<linearGradient id="SVGID_6_" gradientUnits="userSpaceOnUse" x1="282.7034" y1="88.0107" x2="301.4191" y2="88.0107" gradientTransform="matrix(-0.9763 -0.2165 -0.2165 0.9763 533.0056 55.1541)">
						<stop  offset="8.108110e-03" style="stop-color:#D5D5DC"/>
						<stop  offset="0.1314" style="stop-color:#DCDCE2"/>
						<stop  offset="0.6743" style="stop-color:#F5F5F7"/>
						<stop  offset="1" style="stop-color:#FFFFFF"/>
					</linearGradient>
					<polygon class="st20" points="225.7,48.8 243.9,52.8 231.9,106.9 213.7,102.9 					"/>
					<g>
						
							<rect x="225.7" y="52.6" transform="matrix(-0.9763 -0.2165 0.2165 -0.9763 449.1895 162.609)" class="st2" width="15.5" height="8.2"/>
						
							<rect x="224" y="60.3" transform="matrix(-0.9763 -0.2165 0.2165 -0.9763 444.1248 177.5236)" class="st39" width="15.5" height="8.2"/>
						
							<rect x="222.3" y="68" transform="matrix(-0.9763 -0.2165 0.2165 -0.9763 439.0583 192.4415)" class="st40" width="15.5" height="8.2"/>
						
							<rect x="220.6" y="75.8" transform="matrix(-0.9763 -0.2165 0.2165 -0.9763 433.9927 207.3578)" class="st41" width="15.5" height="8.2"/>
						
							<rect x="218.9" y="83.5" transform="matrix(-0.9763 -0.2165 0.2165 -0.9763 428.928 222.2728)" class="st42" width="15.5" height="8.2"/>
					</g>
					
						<rect x="219.7" y="94.4" transform="matrix(-0.9763 -0.2165 0.2165 -0.9763 426.6635 236.2351)" class="st30" width="13.2" height="0.8"/>
					
						<rect x="218.9" y="97.7" transform="matrix(-0.9763 -0.2165 0.2165 -0.9763 424.4683 242.7004)" class="st30" width="13.2" height="0.8"/>
				</g>
				<g>
					
						<linearGradient id="SVGID_7_" gradientUnits="userSpaceOnUse" x1="298.7273" y1="79.0016" x2="317.4438" y2="79.0016" gradientTransform="matrix(-0.9987 -5.160000e-02 -5.160000e-02 0.9987 528.9836 13.271)">
						<stop  offset="8.108110e-03" style="stop-color:#D5D5DC"/>
						<stop  offset="0.1314" style="stop-color:#DCDCE2"/>
						<stop  offset="0.6743" style="stop-color:#F5F5F7"/>
						<stop  offset="1" style="stop-color:#FFFFFF"/>
					</linearGradient>
					<polygon class="st21" points="209.3,48.1 228,49.1 225.1,104.4 206.4,103.5 					"/>
					<g>
						
							<rect x="210.6" y="50.5" transform="matrix(-0.9987 -5.164712e-02 5.164712e-02 -0.9987 433.5689 120.4774)" class="st44" width="15.5" height="8.2"/>
						
							<rect x="210.2" y="58.4" transform="matrix(-0.9987 -5.165354e-02 5.165354e-02 -0.9987 432.3419 136.2731)" class="st45" width="15.5" height="8.2"/>
						
							<rect x="209.7" y="66.3" transform="matrix(-0.9987 -5.165321e-02 5.165321e-02 -0.9987 431.1152 152.0674)" class="st46" width="15.5" height="8.2"/>
						
							<rect x="209.3" y="74.3" transform="matrix(-0.9987 -5.165354e-02 5.165354e-02 -0.9987 429.8885 167.8618)" class="st47" width="15.5" height="8.2"/>
						
							<rect x="208.9" y="82.2" transform="matrix(-0.9987 -5.164679e-02 5.164679e-02 -0.9987 428.6625 183.6548)" class="st48" width="15.5" height="8.2"/>
					</g>
					
						<rect x="210.9" y="93" transform="matrix(-0.9987 -5.164596e-02 5.164596e-02 -0.9987 429.9287 197.8216)" class="st30" width="13.2" height="0.8"/>
					
						<rect x="210.7" y="96.4" transform="matrix(-0.9987 -5.163840e-02 5.163840e-02 -0.9987 429.3978 204.667)" class="st30" width="13.2" height="0.8"/>
				</g>
			</g>
			<linearGradient id="SVGID_8_" gradientUnits="userSpaceOnUse" x1="199.4" y1="105.1719" x2="248.0052" y2="105.1719">
				<stop  offset="0" style="stop-color:#516689"/>
				<stop  offset="1" style="stop-color:#1B1464"/>
			</linearGradient>
			<path class="st23" d="M199.4,112.2H248v-9.6c0-2.5-2.1-4.6-4.6-4.6h-44V112.2z"/>
			<linearGradient id="SVGID_9_" gradientUnits="userSpaceOnUse" x1="216.7042" y1="22.6815" x2="288.7066" y2="22.6815">
				<stop  offset="0" style="stop-color:#516689"/>
				<stop  offset="1" style="stop-color:#1B1464"/>
			</linearGradient>
			<path class="st25" d="M218.7,24.6h68.1c1.1,0,1.9-0.9,1.9-1.9l0,0c0-1.1-0.9-1.9-1.9-1.9h-68.1c-1.1,0-1.9,0.9-1.9,1.9l0,0
				C216.7,23.8,217.6,24.6,218.7,24.6z"/>
			<linearGradient id="SVGID_10_" gradientUnits="userSpaceOnUse" x1="216.7042" y1="33.7041" x2="288.7066" y2="33.7041">
				<stop  offset="0" style="stop-color:#516689"/>
				<stop  offset="1" style="stop-color:#1B1464"/>
			</linearGradient>
			<path class="st26" d="M218.7,35.7h68.1c1.1,0,1.9-0.9,1.9-1.9l0,0c0-1.1-0.9-1.9-1.9-1.9h-68.1c-1.1,0-1.9,0.9-1.9,1.9l0,0
				C216.7,34.8,217.6,35.7,218.7,35.7z"/>
			<linearGradient id="SVGID_11_" gradientUnits="userSpaceOnUse" x1="216.7042" y1="44.7814" x2="288.7066" y2="44.7814">
				<stop  offset="0" style="stop-color:#516689"/>
				<stop  offset="1" style="stop-color:#1B1464"/>
			</linearGradient>
			<path class="st27" d="M218.7,46.7h68.1c1.1,0,1.9-0.9,1.9-1.9l0,0c0-1.1-0.9-1.9-1.9-1.9h-68.1c-1.1,0-1.9,0.9-1.9,1.9l0,0
				C216.7,45.9,217.6,46.7,218.7,46.7z"/>
		</g>
	</g>
	<ellipse class="st53" cx="256.7" cy="359.5" rx="160.3" ry="13.5"/>
	<g>
		<g>
			
				<linearGradient id="SVGID_12_" gradientUnits="userSpaceOnUse" x1="227.1466" y1="148.5429" x2="348.741" y2="148.5429" gradientTransform="matrix(-1 0 0 1 525.7938 0)">
				<stop  offset="4.527240e-03" style="stop-color:#4E8DA1"/>
				<stop  offset="0.2667" style="stop-color:#64ACC0"/>
				<stop  offset="0.5537" style="stop-color:#78C6DC"/>
				<stop  offset="0.8076" style="stop-color:#84D6EC"/>
				<stop  offset="1" style="stop-color:#88DCF2"/>
			</linearGradient>
			<polygon class="st31" points="213.6,174.1 177.1,123 257.9,123 298.6,173.4 			"/>
			<linearGradient id="SVGID_13_" gradientUnits="userSpaceOnUse" x1="188.5088" y1="147.9281" x2="284.6925" y2="147.9281">
				<stop  offset="8.108110e-03" style="stop-color:#D5D5DC"/>
				<stop  offset="0.1314" style="stop-color:#DCDCE2"/>
				<stop  offset="0.6743" style="stop-color:#F5F5F7"/>
				<stop  offset="1" style="stop-color:#FFFFFF"/>
			</linearGradient>
			<polygon class="st32" points="217.4,168.6 188.5,127.3 254.9,127.3 284.7,168.6 			"/>
			
				<linearGradient id="SVGID_14_" gradientUnits="userSpaceOnUse" x1="312.2126" y1="149.8932" x2="351.243" y2="149.8932" gradientTransform="matrix(-1 0 0 1 525.7938 0)">
				<stop  offset="4.527240e-03" style="stop-color:#4E8DA1"/>
				<stop  offset="0.2667" style="stop-color:#64ACC0"/>
				<stop  offset="0.5537" style="stop-color:#78C6DC"/>
				<stop  offset="0.8076" style="stop-color:#84D6EC"/>
				<stop  offset="1" style="stop-color:#88DCF2"/>
			</linearGradient>
			<polygon class="st38" points="213.6,174.1 209.3,176.8 174.6,126 177.1,123 			"/>
			
				<linearGradient id="SVGID_15_" gradientUnits="userSpaceOnUse" x1="227.1466" y1="175.1003" x2="316.4624" y2="175.1003" gradientTransform="matrix(-1 0 0 1 525.7938 0)">
				<stop  offset="4.527240e-03" style="stop-color:#4E8DA1"/>
				<stop  offset="0.2667" style="stop-color:#64ACC0"/>
				<stop  offset="0.5537" style="stop-color:#78C6DC"/>
				<stop  offset="0.8076" style="stop-color:#84D6EC"/>
				<stop  offset="1" style="stop-color:#88DCF2"/>
			</linearGradient>
			<polygon class="st43" points="298.6,173.4 294.9,176.8 209.3,176.8 213.6,174.1 			"/>
			
				<linearGradient id="SVGID_16_" gradientUnits="userSpaceOnUse" x1="316.4624" y1="160.3384" x2="358.6951" y2="160.3384" gradientTransform="matrix(-1 0 0 1 525.7938 0)">
				<stop  offset="4.527240e-03" style="stop-color:#4E8DA1"/>
				<stop  offset="0.2667" style="stop-color:#64ACC0"/>
				<stop  offset="0.5537" style="stop-color:#78C6DC"/>
				<stop  offset="0.8076" style="stop-color:#84D6EC"/>
				<stop  offset="1" style="stop-color:#88DCF2"/>
			</linearGradient>
			<polygon class="st49" points="209.3,176.8 167.1,176.8 186.8,143.9 			"/>
			<g>
				<path class="st59" d="M231.1,155.3c-0.4,0-0.7-0.1-1.1-0.2l1.4,2.4c0.3,0.5,1.5,2.6,1.5,2.6s-3.8,0.5-10.5-2.9
					c-2.7-1.4-5.3-3-7.4-5.3c-2.3-2.4-2.9-3.8-2.9-3.8l5.1-0.1c-0.3-0.2-0.6-0.5-0.8-0.8c-0.6-1,0-1.8,1.3-1.6
					c0.8,0.1,1.7,0.6,2.3,1.2c0.4,0.4,0.5,0.9,0.5,1.2l5.3,0l0,0l0.1,0l2.5,4.3c0.3-0.2,0.6-0.3,1.1-0.2c0.9,0.1,1.9,0.7,2.5,1.4
					C232.6,154.4,232.2,155.3,231.1,155.3z"/>
				<path class="st33" d="M245.2,146.2l-5.9-1.3c0.3,0.3,0.4,0.6,0.5,0.9c0.2,1-0.8,1.5-2.2,1c-0.9-0.3-1.7-1-2-1.7
					c-0.2-0.5-0.2-0.9,0-1.1l-0.3-0.1l-4-0.9l-1.8-0.4l0,0l-0.1,0l-1-4.3c-0.4,0.1-0.8,0.1-1.4-0.1c-1-0.3-1.9-1.1-2.2-1.9
					c-0.4-1,0.5-1.6,1.8-1.3c0.4,0.1,0.8,0.3,1.2,0.5l-0.5-2.4c-0.1-0.5-0.5-2.6-0.5-2.6s3.1,0.4,7.7,3.1c1,0.6,2,1.3,3.1,2.1
					c0.1,0.1,0.3,0.2,0.4,0.3c2.4,1.8,4.4,3.8,5.7,6.1C245.2,144.9,245.2,146.2,245.2,146.2z"/>
				<path class="st60" d="M244.5,149.7c1.4,2.8,1.4,5.4,0.3,7.2c-1.3,2.2-4.3,3.6-8.4,3.3l-2.2-4.5c0.4,0.2,0.7,0.2,1.1,0.3
					c1.1,0.1,1.6-0.7,1-1.7c-0.4-0.7-1.4-1.3-2.3-1.5c-0.5-0.1-0.9,0-1.1,0.1l-2.1-4.1l5.5,0.3c-0.2,0.3-0.2,0.7,0.1,1.2
					c0.5,0.7,1.5,1.4,2.4,1.5c1.2,0.2,1.8-0.5,1.3-1.5c-0.2-0.4-0.6-0.8-1-1.1L244.5,149.7z"/>
				<path class="st61" d="M208.8,141.2c-2.2-6.6,2.9-10.9,11.5-9.5l1.5,4.8c-0.4-0.2-0.8-0.3-1.2-0.4c-1.3-0.2-2,0.5-1.5,1.5
					c0.4,0.8,1.3,1.5,2.3,1.8c0.5,0.1,1,0.1,1.3,0l1.5,4.4l-6.3-1c0.3-0.3,0.3-0.7,0.1-1.2c-0.4-0.8-1.4-1.5-2.4-1.8
					c-1.3-0.3-2.2,0.3-1.8,1.3c0.1,0.4,0.5,0.9,0.9,1.2L208.8,141.2z"/>
			</g>
			<g>
				<path class="st59" d="M262.7,161.5c-0.2,0-0.4,0-0.5-0.1l0.7,1.2c0.1,0.2,0.7,1.3,0.7,1.3s-1.9,0.3-5.3-1.4
					c-1.4-0.7-2.6-1.5-3.7-2.6c-1.1-1.2-1.4-1.9-1.4-1.9l2.5,0c-0.2-0.1-0.3-0.3-0.4-0.4c-0.3-0.5,0-0.9,0.7-0.8
					c0.4,0.1,0.9,0.3,1.1,0.6c0.2,0.2,0.3,0.4,0.2,0.6l2.7,0l0,0l0,0l1.3,2.1c0.1-0.1,0.3-0.1,0.6-0.1c0.5,0,1,0.3,1.2,0.7
					C263.5,161,263.3,161.5,262.7,161.5z"/>
				<path class="st33" d="M269.8,156.9l-2.9-0.6c0.1,0.1,0.2,0.3,0.2,0.5c0.1,0.5-0.4,0.8-1.1,0.5c-0.4-0.2-0.9-0.5-1-0.8
					c-0.1-0.2-0.1-0.4,0-0.6l-0.1,0l-2-0.4l-0.9-0.2l0,0l0,0l-0.5-2.1c-0.2,0-0.4,0-0.7-0.1c-0.5-0.2-1-0.6-1.1-0.9
					c-0.2-0.5,0.2-0.8,0.9-0.7c0.2,0,0.4,0.1,0.6,0.2l-0.3-1.2c-0.1-0.2-0.3-1.3-0.3-1.3s1.6,0.2,3.8,1.6c0.5,0.3,1,0.6,1.6,1.1
					c0.1,0,0.1,0.1,0.2,0.1c1.2,0.9,2.2,1.9,2.9,3.1C269.7,156.3,269.8,156.9,269.8,156.9z"/>
				<path class="st60" d="M269.4,158.7c0.7,1.4,0.7,2.7,0.2,3.6c-0.7,1.1-2.1,1.8-4.2,1.7l-1.1-2.3c0.2,0.1,0.4,0.1,0.5,0.1
					c0.6,0,0.8-0.4,0.5-0.8c-0.2-0.4-0.7-0.7-1.2-0.7c-0.2,0-0.4,0-0.6,0.1l-1-2.1l2.8,0.1c-0.1,0.2-0.1,0.4,0.1,0.6
					c0.2,0.4,0.7,0.7,1.2,0.7c0.6,0.1,0.9-0.3,0.7-0.7c-0.1-0.2-0.3-0.4-0.5-0.5L269.4,158.7z"/>
				<path class="st61" d="M251.6,154.4c-1.1-3.3,1.4-5.4,5.7-4.8l0.8,2.4c-0.2-0.1-0.4-0.2-0.6-0.2c-0.6-0.1-1,0.2-0.8,0.8
					c0.2,0.4,0.7,0.8,1.2,0.9c0.3,0.1,0.5,0.1,0.7,0l0.7,2.2l-3.1-0.5c0.1-0.1,0.2-0.4,0-0.6c-0.2-0.4-0.7-0.8-1.2-0.9
					c-0.7-0.2-1.1,0.2-0.9,0.6c0.1,0.2,0.2,0.4,0.5,0.6L251.6,154.4z"/>
			</g>
			<g>
				<polygon class="st62" points="254.9,127.3 187.6,127.3 188.7,128.8 256,128.8 				"/>
				<polygon class="st63" points="255.7,128.4 188.4,128.4 189.6,129.9 256.9,129.9 				"/>
				<g>
					<linearGradient id="SVGID_17_" gradientUnits="userSpaceOnUse" x1="189.4182" y1="149.1689" x2="220.5374" y2="149.1689">
						<stop  offset="4.527240e-03" style="stop-color:#4E8DA1"/>
						<stop  offset="0.2667" style="stop-color:#64ACC0"/>
						<stop  offset="0.5537" style="stop-color:#78C6DC"/>
						<stop  offset="0.8076" style="stop-color:#84D6EC"/>
						<stop  offset="1" style="stop-color:#88DCF2"/>
					</linearGradient>
					<polygon class="st50" points="220.5,168.6 217.4,168.6 189.4,129.7 192.6,129.7 					"/>
					<polygon class="st63" points="193.4,130.9 190.2,130.9 189.4,129.7 192.6,129.7 					"/>
					<path class="st63" d="M194,132.8c0.3,0.4,0.1,0.7-0.3,0.7c-0.5,0-1.1-0.3-1.4-0.7c-0.3-0.4-0.1-0.7,0.3-0.7
						C193.1,132.1,193.7,132.4,194,132.8z"/>
					<path class="st65" d="M195.5,134.9c0.3,0.4,0.1,0.7-0.3,0.7c-0.5,0-1.1-0.3-1.4-0.7c-0.3-0.4-0.1-0.7,0.3-0.7
						C194.6,134.2,195.2,134.5,195.5,134.9z"/>
					<path class="st63" d="M197,137c0.3,0.4,0.1,0.7-0.3,0.7s-1.1-0.3-1.4-0.7c-0.3-0.4-0.1-0.7,0.3-0.7
						C196.1,136.3,196.8,136.6,197,137z"/>
					<path class="st65" d="M198.6,139.2c0.3,0.4,0.1,0.7-0.3,0.7c-0.5,0-1.1-0.3-1.4-0.7c-0.3-0.4-0.1-0.7,0.3-0.7
						C197.6,138.4,198.3,138.7,198.6,139.2z"/>
					<path class="st63" d="M200.1,141.3c0.3,0.4,0.1,0.7-0.3,0.7c-0.5,0-1.1-0.3-1.4-0.7c-0.3-0.4-0.1-0.7,0.3-0.7
						C199.2,140.5,199.8,140.9,200.1,141.3z"/>
					<path class="st65" d="M201.6,143.4c0.3,0.4,0.1,0.7-0.3,0.7c-0.5,0-1.1-0.3-1.4-0.7s-0.1-0.7,0.3-0.7
						C200.7,142.6,201.3,143,201.6,143.4z"/>
					<path class="st63" d="M203.1,145.5c0.3,0.4,0.1,0.7-0.3,0.7c-0.5,0-1.1-0.3-1.4-0.7s-0.1-0.7,0.3-0.7
						C202.2,144.7,202.8,145.1,203.1,145.5z"/>
					<path class="st65" d="M204.6,147.6c0.3,0.4,0.1,0.7-0.3,0.7c-0.5,0-1.1-0.3-1.4-0.7c-0.3-0.4-0.1-0.7,0.3-0.7
						C203.7,146.8,204.3,147.2,204.6,147.6z"/>
					<path class="st63" d="M206.2,149.7c0.3,0.4,0.1,0.7-0.3,0.7c-0.5,0-1.1-0.3-1.4-0.7c-0.3-0.4-0.1-0.7,0.3-0.7
						C205.2,149,205.9,149.3,206.2,149.7z"/>
					<path class="st65" d="M207.7,151.8c0.3,0.4,0.1,0.7-0.3,0.7c-0.5,0-1.1-0.3-1.4-0.7c-0.3-0.4-0.1-0.7,0.3-0.7
						C206.7,151.1,207.4,151.4,207.7,151.8z"/>
					<path class="st63" d="M209.2,153.9c0.3,0.4,0.1,0.7-0.3,0.7c-0.5,0-1.1-0.3-1.4-0.7c-0.3-0.4-0.1-0.7,0.3-0.7
						C208.3,153.2,208.9,153.5,209.2,153.9z"/>
					<polygon class="st63" points="211.6,157.2 210.1,157.2 209.2,155.9 210.7,155.9 					"/>
					<polygon class="st1" points="210.8,156.6 209.4,156.6 208.5,155.3 209.9,155.3 					"/>
				</g>
				<g>
					<polygon class="st66" points="284.7,168.6 281.5,168.6 253.6,129.7 256.7,129.7 					"/>
					<polygon class="st63" points="257.5,130.9 254.4,130.9 253.6,129.7 256.7,129.7 					"/>
					<path class="st63" d="M258.2,132.8c0.3,0.4,0.1,0.7-0.3,0.7c-0.5,0-1.1-0.3-1.4-0.7c-0.3-0.4-0.1-0.7,0.3-0.7
						C257.2,132.1,257.9,132.4,258.2,132.8z"/>
					<path class="st65" d="M259.7,134.9c0.3,0.4,0.1,0.7-0.3,0.7c-0.5,0-1.1-0.3-1.4-0.7c-0.3-0.4-0.1-0.7,0.3-0.7
						C258.8,134.2,259.4,134.5,259.7,134.9z"/>
					<path class="st63" d="M261.2,137c0.3,0.4,0.1,0.7-0.3,0.7c-0.5,0-1.1-0.3-1.4-0.7c-0.3-0.4-0.1-0.7,0.3-0.7
						C260.3,136.3,260.9,136.6,261.2,137z"/>
					<path class="st65" d="M262.7,139.2c0.3,0.4,0.1,0.7-0.3,0.7c-0.5,0-1.1-0.3-1.4-0.7c-0.3-0.4-0.1-0.7,0.3-0.7
						C261.8,138.4,262.4,138.7,262.7,139.2z"/>
					<path class="st63" d="M264.2,141.3c0.3,0.4,0.1,0.7-0.3,0.7s-1.1-0.3-1.4-0.7c-0.3-0.4-0.1-0.7,0.3-0.7
						C263.3,140.5,263.9,140.9,264.2,141.3z"/>
					<path class="st65" d="M265.8,143.4c0.3,0.4,0.1,0.7-0.3,0.7c-0.5,0-1.1-0.3-1.4-0.7c-0.3-0.4-0.1-0.7,0.3-0.7
						C264.8,142.6,265.5,143,265.8,143.4z"/>
					<path class="st63" d="M267.3,145.5c0.3,0.4,0.1,0.7-0.3,0.7c-0.5,0-1.1-0.3-1.4-0.7c-0.3-0.4-0.1-0.7,0.3-0.7
						C266.4,144.7,267,145.1,267.3,145.5z"/>
					<path class="st65" d="M268.8,147.6c0.3,0.4,0.1,0.7-0.3,0.7c-0.5,0-1.1-0.3-1.4-0.7c-0.3-0.4-0.1-0.7,0.3-0.7
						S268.5,147.2,268.8,147.6z"/>
					<path class="st63" d="M270.3,149.7c0.3,0.4,0.1,0.7-0.3,0.7s-1.1-0.3-1.4-0.7c-0.3-0.4-0.1-0.7,0.3-0.7
						C269.4,149,270,149.3,270.3,149.7z"/>
					<path class="st65" d="M271.8,151.8c0.3,0.4,0.1,0.7-0.3,0.7c-0.5,0-1.1-0.3-1.4-0.7c-0.3-0.4-0.1-0.7,0.3-0.7
						C270.9,151.1,271.5,151.4,271.8,151.8z"/>
					<path class="st63" d="M273.4,153.9c0.3,0.4,0.1,0.7-0.3,0.7c-0.5,0-1.1-0.3-1.4-0.7c-0.3-0.4-0.1-0.7,0.3-0.7
						C272.4,153.2,273.1,153.5,273.4,153.9z"/>
				</g>
				<g>
					<g>
						<polygon class="st66" points="262,142 248.8,142 241.9,132.5 255.1,132.5 						"/>
						<polygon class="st63" points="252.3,134.6 247.9,134.6 246.4,132.5 250.8,132.5 						"/>
						<g>
							<g>
								<path class="st1" d="M253.5,134.3c0,0-0.1,0-0.1,0c-0.1,0-0.1-0.1-0.1-0.2l0.1-0.3l-0.7-0.4c-0.1,0-0.1-0.1-0.1-0.2
									c0,0,0.1,0,0.2,0l0.8,0.5c0.1,0,0.1,0.1,0.1,0.2L253.5,134.3C253.5,134.3,253.5,134.3,253.5,134.3z"/>
							</g>
							<g>
								<path class="st1" d="M254.5,134.3c0,0-0.1,0-0.1,0c-0.1,0-0.1-0.1-0.1-0.2l0.1-0.3l-0.7-0.4c-0.1,0-0.1-0.1-0.1-0.2
									c0,0,0.1,0,0.2,0l0.8,0.5c0.1,0,0.1,0.1,0.1,0.2L254.5,134.3C254.6,134.3,254.6,134.3,254.5,134.3z"/>
							</g>
						</g>
						<g>
							<polygon class="st67" points="247,136.3 245.3,136.3 244.2,134.9 245.9,134.9 							"/>
							<polygon class="st68" points="248.7,136.3 247,136.3 245.9,134.9 247.7,134.9 							"/>
							<polygon class="st69" points="250.4,136.3 248.7,136.3 247.7,134.9 249.4,134.9 							"/>
							<polygon class="st33" points="252.1,136.3 250.4,136.3 249.4,134.9 251.1,134.9 							"/>
							<polygon class="st1" points="253.8,136.3 252.1,136.3 251.1,134.9 252.8,134.9 							"/>
							<polygon points="255.6,136.3 253.9,136.3 252.8,134.9 254.5,134.9 							"/>
							<polygon class="st70" points="257.3,136.3 255.6,136.3 254.5,134.9 256.2,134.9 							"/>
						</g>
						<g>
							<polygon class="st71" points="248.1,137.8 246.3,137.8 245.3,136.3 247,136.3 							"/>
							<polygon class="st72" points="249.8,137.8 248.1,137.8 247,136.3 248.7,136.3 							"/>
							<polygon class="st73" points="251.5,137.8 249.8,137.8 248.7,136.3 250.4,136.3 							"/>
							<polygon class="st74" points="253.2,137.8 251.5,137.8 250.4,136.3 252.1,136.3 							"/>
							<polygon class="st75" points="254.9,137.8 253.2,137.8 252.1,136.3 253.8,136.3 							"/>
							<polygon class="st76" points="256.6,137.8 254.9,137.8 253.9,136.3 255.6,136.3 							"/>
							<polygon class="st77" points="258.4,137.8 256.6,137.8 255.6,136.3 257.3,136.3 							"/>
						</g>
						<g>
							<polygon class="st78" points="249.1,139.3 247.4,139.3 246.3,137.8 248.1,137.8 							"/>
							<polygon class="st79" points="250.8,139.3 249.1,139.3 248.1,137.8 249.8,137.8 							"/>
							<polygon class="st80" points="252.5,139.3 250.8,139.3 249.8,137.8 251.5,137.8 							"/>
							<polygon class="st81" points="254.2,139.3 252.5,139.3 251.5,137.8 253.2,137.8 							"/>
							<polygon class="st82" points="256,139.3 254.2,139.3 253.2,137.8 254.9,137.8 							"/>
							<polygon class="st83" points="257.7,139.3 256,139.3 254.9,137.8 256.6,137.8 							"/>
							<polygon class="st84" points="259.4,139.3 257.7,139.3 256.6,137.8 258.4,137.8 							"/>
						</g>
						<g>
							<polygon points="250.6,141.3 248.9,141.3 247.8,139.9 249.5,139.9 							"/>
							<polygon class="st85" points="252.3,141.3 250.6,141.3 249.5,139.9 251.3,139.9 							"/>
							<polygon class="st86" points="254,141.3 252.3,141.3 251.3,139.9 253,139.9 							"/>
							<polygon class="st65" points="255.7,141.3 254,141.3 253,139.9 254.7,139.9 							"/>
							<polygon class="st87" points="257.4,141.3 255.7,141.3 254.7,139.9 256.4,139.9 							"/>
							<polygon class="st53" points="259.2,141.3 257.4,141.3 256.4,139.9 258.1,139.9 							"/>
							<polygon class="st88" points="260.9,141.3 259.2,141.3 258.1,139.9 259.8,139.9 							"/>
						</g>
					</g>
					<g>
						<polygon class="st66" points="270.9,154.3 257.7,154.3 250.8,144.7 264,144.7 						"/>
						<polygon class="st63" points="261.1,146.9 256.8,146.9 255.3,144.7 259.6,144.7 						"/>
						<g>
							<g>
								<path class="st1" d="M262.3,146.5c0,0-0.1,0-0.1,0c-0.1,0-0.1-0.1-0.1-0.2l0.1-0.3l-0.7-0.4c-0.1,0-0.1-0.1-0.1-0.2
									c0,0,0.1,0,0.2,0l0.8,0.5c0.1,0,0.1,0.1,0.1,0.2L262.3,146.5C262.4,146.5,262.3,146.5,262.3,146.5z"/>
							</g>
							<g>
								<path class="st1" d="M263.4,146.5c0,0-0.1,0-0.1,0c-0.1,0-0.1-0.1-0.1-0.2l0.1-0.3l-0.7-0.4c-0.1,0-0.1-0.1-0.1-0.2
									c0,0,0.1,0,0.2,0l0.8,0.5c0.1,0,0.1,0.1,0.1,0.2L263.4,146.5C263.4,146.5,263.4,146.5,263.4,146.5z"/>
							</g>
						</g>
						<g>
							<g>
								<polygon class="st86" points="266.6,148.9 254.3,148.9 253.2,147.4 265.5,147.4 								"/>
								<polygon class="st65" points="256.2,148.9 254.3,148.9 253.2,147.4 255.1,147.4 								"/>
								<path class="st66" d="M255.3,148.2c0.1,0.2-0.1,0.3-0.4,0.3c-0.3,0-0.6-0.1-0.7-0.3c-0.1-0.2,0.1-0.3,0.4-0.3
									C254.8,147.9,255.2,148,255.3,148.2z"/>
								<polygon class="st53" points="258.2,148.9 256.5,148.9 255.5,147.5 257.2,147.5 								"/>
								<path class="st87" d="M265.5,148.6h-6.6c-0.2,0-0.5-0.1-0.6-0.3l0,0c-0.1-0.2-0.1-0.3,0.1-0.3h6.6c0.2,0,0.5,0.1,0.6,0.3
									l0,0C265.8,148.4,265.7,148.6,265.5,148.6z"/>
							</g>
							<g>
								<polygon class="st86" points="267.8,150.7 255.6,150.7 254.5,149.2 266.7,149.2 								"/>
								<polygon class="st65" points="257.5,150.7 255.6,150.7 254.5,149.2 256.4,149.2 								"/>
								<path class="st66" d="M256.5,149.9c0.1,0.2-0.1,0.3-0.4,0.3c-0.3,0-0.6-0.1-0.7-0.3c-0.1-0.2,0.1-0.3,0.4-0.3
									C256.1,149.6,256.4,149.8,256.5,149.9z"/>
								<polygon class="st53" points="259.4,150.6 257.8,150.6 256.8,149.3 258.5,149.3 								"/>
								<path class="st87" d="M266.8,150.3h-6.6c-0.2,0-0.5-0.1-0.6-0.3l0,0c-0.1-0.2-0.1-0.3,0.1-0.3h6.6c0.2,0,0.5,0.1,0.6,0.3
									l0,0C267,150.2,267,150.3,266.8,150.3z"/>
							</g>
						</g>
					</g>
				</g>
				<g>
					<polygon class="st63" points="254.7,127.7 253,127.7 252.8,127.5 254.6,127.5 					"/>
					<polygon class="st63" points="254.9,128 253.2,128 253.1,127.8 254.8,127.8 					"/>
				</g>
				<g>
					<path class="st89" d="M190.2,129.1c0.1,0.2,0.1,0.3-0.1,0.3c-0.2,0-0.5-0.1-0.6-0.3c-0.1-0.2-0.1-0.3,0.1-0.3
						C189.8,128.8,190,129,190.2,129.1z"/>
					<path class="st67" d="M191.4,129.1c0.1,0.2,0.1,0.3-0.1,0.3c-0.2,0-0.5-0.1-0.6-0.3s-0.1-0.3,0.1-0.3
						C191.1,128.8,191.3,129,191.4,129.1z"/>
					<path class="st80" d="M192.7,129.1c0.1,0.2,0.1,0.3-0.1,0.3c-0.2,0-0.5-0.1-0.6-0.3s-0.1-0.3,0.1-0.3
						C192.3,128.8,192.6,129,192.7,129.1z"/>
				</g>
			</g>
		</g>
		<g>
			<g>
				<linearGradient id="SVGID_18_" gradientUnits="userSpaceOnUse" x1="195.1808" y1="147.4913" x2="200.796" y2="147.4913">
					<stop  offset="0" style="stop-color:#FAEC21"/>
					<stop  offset="0.2285" style="stop-color:#FAE623"/>
					<stop  offset="0.5299" style="stop-color:#FAD62A"/>
					<stop  offset="0.8707" style="stop-color:#F9BA36"/>
					<stop  offset="1" style="stop-color:#F9AE3B"/>
				</linearGradient>
				<polygon class="st51" points="198.4,136.9 200.8,137.3 197.6,158.1 195.2,157.7 				"/>
				<linearGradient id="SVGID_19_" gradientUnits="userSpaceOnUse" x1="184.7139" y1="145.8749" x2="190.3289" y2="145.8749">
					<stop  offset="0" style="stop-color:#72003A"/>
					<stop  offset="0.6057" style="stop-color:#CA1E59"/>
					<stop  offset="0.9987" style="stop-color:#FF306C"/>
				</linearGradient>
				<polygon class="st52" points="187.1,135.3 184.7,135.6 187.9,156.5 190.3,156.1 				"/>
				<rect x="190.9" y="132.3" class="st30" width="2.7" height="23.4"/>
			</g>
			
				<linearGradient id="SVGID_20_" gradientUnits="userSpaceOnUse" x1="323.4168" y1="163.0285" x2="342.661" y2="163.0285" gradientTransform="matrix(-1 0 0 1 525.7938 0)">
				<stop  offset="0" style="stop-color:#72003A"/>
				<stop  offset="0.6057" style="stop-color:#CA1E59"/>
				<stop  offset="0.9987" style="stop-color:#FF306C"/>
			</linearGradient>
			<polygon class="st54" points="183.1,149.2 202.4,149.2 202.4,176.9 183.1,176.9 			"/>
		</g>
		<g>
			<linearGradient id="SVGID_21_" gradientUnits="userSpaceOnUse" x1="292.4395" y1="317.5963" x2="140.446" y2="157.7411">
				<stop  offset="0" style="stop-color:#1B1464"/>
				<stop  offset="0.2891" style="stop-color:#323874"/>
				<stop  offset="0.5603" style="stop-color:#435180"/>
				<stop  offset="0.8051" style="stop-color:#4D6187"/>
				<stop  offset="1" style="stop-color:#516689"/>
			</linearGradient>
			<path class="st55" d="M369.8,185.8H120.6v16.4h10.6v158.4c0,0.9,0.8,1.7,1.7,1.7h11.5c0.9,0,1.7-0.8,1.7-1.7V202.1h184.2v158.5
				c0,0.9,0.7,1.6,1.6,1.6h11.7c0.9,0,1.6-0.7,1.6-1.6V202.1h24.6V185.8z"/>
			<path class="st30" d="M380.5,186.8H109.9c-2.6,0-4.8-2.1-4.8-4.8l0,0c0-2.6,2.1-4.8,4.8-4.8h270.7c2.6,0,4.8,2.1,4.8,4.8l0,0
				C385.3,184.6,383.2,186.8,380.5,186.8z"/>
		</g>
		<g>
			<g>
				<linearGradient id="SVGID_22_" gradientUnits="userSpaceOnUse" x1="118.6366" y1="147.2519" x2="172.924" y2="147.2519">
					<stop  offset="0" style="stop-color:#72003A"/>
					<stop  offset="0.6057" style="stop-color:#CA1E59"/>
					<stop  offset="0.9987" style="stop-color:#FF306C"/>
				</linearGradient>
				<path class="st56" d="M120,148.6h51.6c0.7,0,1.4-0.6,1.4-1.4l0,0c0-0.7-0.6-1.4-1.4-1.4H120c-0.7,0-1.4,0.6-1.4,1.4l0,0
					C118.6,148,119.2,148.6,120,148.6z"/>
				<linearGradient id="SVGID_23_" gradientUnits="userSpaceOnUse" x1="118.6366" y1="154.6806" x2="172.924" y2="154.6806">
					<stop  offset="0" style="stop-color:#72003A"/>
					<stop  offset="0.6057" style="stop-color:#CA1E59"/>
					<stop  offset="0.9987" style="stop-color:#FF306C"/>
				</linearGradient>
				<path class="st57" d="M120,156h51.6c0.7,0,1.4-0.6,1.4-1.4v0c0-0.7-0.6-1.4-1.4-1.4H120c-0.7,0-1.4,0.6-1.4,1.4v0
					C118.6,155.4,119.2,156,120,156z"/>
				<linearGradient id="SVGID_24_" gradientUnits="userSpaceOnUse" x1="119.9982" y1="150.9662" x2="171.5626" y2="150.9662">
					<stop  offset="8.108110e-03" style="stop-color:#D5D5DC"/>
					<stop  offset="0.1314" style="stop-color:#DCDCE2"/>
					<stop  offset="0.6743" style="stop-color:#F5F5F7"/>
					<stop  offset="1" style="stop-color:#FFFFFF"/>
				</linearGradient>
				<polygon class="st58" points="120,153.3 171.6,153.3 171.6,148.6 120,148.6 				"/>
			</g>
			<g>
				<linearGradient id="SVGID_25_" gradientUnits="userSpaceOnUse" x1="113.684" y1="157.4038" x2="167.9714" y2="157.4038">
					<stop  offset="0" style="stop-color:#88DCF2"/>
					<stop  offset="0.1098" style="stop-color:#85D6EE"/>
					<stop  offset="0.2549" style="stop-color:#7CC5E2"/>
					<stop  offset="0.4197" style="stop-color:#6DAACF"/>
					<stop  offset="0.5991" style="stop-color:#5884B3"/>
					<stop  offset="0.7902" style="stop-color:#3D5391"/>
					<stop  offset="0.9885" style="stop-color:#1D1867"/>
					<stop  offset="1" style="stop-color:#1B1464"/>
				</linearGradient>
				<path class="st64" d="M115,158.8h51.6c0.7,0,1.4-0.6,1.4-1.4l0,0c0-0.7-0.6-1.4-1.4-1.4H115c-0.7,0-1.4,0.6-1.4,1.4l0,0
					C113.7,158.2,114.3,158.8,115,158.8z"/>
				<linearGradient id="SVGID_26_" gradientUnits="userSpaceOnUse" x1="113.684" y1="164.8325" x2="167.9714" y2="164.8325">
					<stop  offset="0" style="stop-color:#88DCF2"/>
					<stop  offset="0.1098" style="stop-color:#85D6EE"/>
					<stop  offset="0.2549" style="stop-color:#7CC5E2"/>
					<stop  offset="0.4197" style="stop-color:#6DAACF"/>
					<stop  offset="0.5991" style="stop-color:#5884B3"/>
					<stop  offset="0.7902" style="stop-color:#3D5391"/>
					<stop  offset="0.9885" style="stop-color:#1D1867"/>
					<stop  offset="1" style="stop-color:#1B1464"/>
				</linearGradient>
				<path class="st90" d="M115,166.2h51.6c0.7,0,1.4-0.6,1.4-1.4l0,0c0-0.7-0.6-1.4-1.4-1.4H115c-0.7,0-1.4,0.6-1.4,1.4l0,0
					C113.7,165.6,114.3,166.2,115,166.2z"/>
				<linearGradient id="SVGID_27_" gradientUnits="userSpaceOnUse" x1="115.0454" y1="161.1181" x2="166.6097" y2="161.1181">
					<stop  offset="8.108110e-03" style="stop-color:#D5D5DC"/>
					<stop  offset="0.1314" style="stop-color:#DCDCE2"/>
					<stop  offset="0.6743" style="stop-color:#F5F5F7"/>
					<stop  offset="1" style="stop-color:#FFFFFF"/>
				</linearGradient>
				<polygon class="st91" points="115,163.5 166.6,163.5 166.6,158.8 115,158.8 				"/>
			</g>
			<g>
				<linearGradient id="SVGID_28_" gradientUnits="userSpaceOnUse" x1="121.1129" y1="167.5556" x2="175.4002" y2="167.5556">
					<stop  offset="0" style="stop-color:#FAEC21"/>
					<stop  offset="0.2285" style="stop-color:#FAE623"/>
					<stop  offset="0.5299" style="stop-color:#FAD62A"/>
					<stop  offset="0.8707" style="stop-color:#F9BA36"/>
					<stop  offset="1" style="stop-color:#F9AE3B"/>
				</linearGradient>
				<path class="st92" d="M122.5,168.9H174c0.7,0,1.4-0.6,1.4-1.4l0,0c0-0.7-0.6-1.4-1.4-1.4h-51.6c-0.7,0-1.4,0.6-1.4,1.4l0,0
					C121.1,168.3,121.7,168.9,122.5,168.9z"/>
				<linearGradient id="SVGID_29_" gradientUnits="userSpaceOnUse" x1="121.1129" y1="174.9845" x2="175.4002" y2="174.9845">
					<stop  offset="0" style="stop-color:#FAEC21"/>
					<stop  offset="0.2285" style="stop-color:#FAE623"/>
					<stop  offset="0.5299" style="stop-color:#FAD62A"/>
					<stop  offset="0.8707" style="stop-color:#F9BA36"/>
					<stop  offset="1" style="stop-color:#F9AE3B"/>
				</linearGradient>
				<path class="st93" d="M122.5,176.3H174c0.7,0,1.4-0.6,1.4-1.4l0,0c0-0.7-0.6-1.4-1.4-1.4h-51.6c-0.7,0-1.4,0.6-1.4,1.4l0,0
					C121.1,175.7,121.7,176.3,122.5,176.3z"/>
				<linearGradient id="SVGID_30_" gradientUnits="userSpaceOnUse" x1="122.4744" y1="171.2701" x2="174.0388" y2="171.2701">
					<stop  offset="8.108110e-03" style="stop-color:#D5D5DC"/>
					<stop  offset="0.1314" style="stop-color:#DCDCE2"/>
					<stop  offset="0.6743" style="stop-color:#F5F5F7"/>
					<stop  offset="1" style="stop-color:#FFFFFF"/>
				</linearGradient>
				<polygon class="st94" points="122.5,173.6 174,173.6 174,168.9 122.5,168.9 				"/>
			</g>
		</g>
	</g>
	<g>
		<g>
			<g>
				<path class="st103" d="M314.6,107.6c0,0,7.2,13.7,11.4,26.1c2,5.8-11.9,16-12.6,15.8c-0.8-0.1-1.5-0.7-1.7-1.7
					c-0.9-6.3-3.4-17.3-10-24.8L314.6,107.6z"/>
				<g>
					<path class="st104" d="M319.3,94.7c-4.4-8.3-12.2-15.7-18.6-15.3c-7.5,0.5-13.7,4.1-15.2,17.1c-0.3,2.9-0.4,6.2-0.3,10
						c0.1,1.6-1.8,9.8-1.6,10.6c0.2,0.8,2.9,0.9,3.8,0.9c0.1,0,0.2,0,0.2-0.1c3.1,7.3,9.4,13.1,17,13.3c6.9,0.1,14-7.6,16.6-15.8
						C324.4,105.3,320,96.1,319.3,94.7z"/>
				</g>
				<g>
					<linearGradient id="SVGID_31_" gradientUnits="userSpaceOnUse" x1="347.3222" y1="96.6712" x2="227.4384" y2="106.7738">
						<stop  offset="0" style="stop-color:#1B1464"/>
						<stop  offset="0.1574" style="stop-color:#27266C"/>
						<stop  offset="0.5154" style="stop-color:#3E497C"/>
						<stop  offset="0.8091" style="stop-color:#4C5E85"/>
						<stop  offset="1" style="stop-color:#516689"/>
					</linearGradient>
					<path class="st95" d="M327.4,87.7c-0.7-2.2-11.2-17.7-26.8-9.3c-4.8,2.6-16.8,2-21.6,3.8c-5.3,2.1-11.9,8.2-6.1,14.3
						c4.1,4.3,9.3,4.5,13.3,3.6c2.9-0.6,4.3-3.7,3.4-6.5c-0.1-0.1-0.1-0.3-0.1-0.5c1.2,3,12.4,3.6,13.2,15.2
						c1.8-2.2,2.3-7.6,5.8-6.4c2.8,0.9,4.9,3.8,4.2,6.7c-0.8,3.4-4,2.9-3.1,6.6c2,8.3,5.6,6.7,7.9,7.7c4.4,1.9,11.3-15.9,11.7-19.3
						C329.7,98.7,329,92.6,327.4,87.7z"/>
				</g>
			</g>
			<g>
				<g>
					
						<linearGradient id="SVGID_32_" gradientUnits="userSpaceOnUse" x1="458.9038" y1="395.7027" x2="406.8961" y2="223.9194" gradientTransform="matrix(-1 0 0 1 708.5402 0)">
						<stop  offset="0" style="stop-color:#3855E1"/>
						<stop  offset="1" style="stop-color:#5C7EF7"/>
					</linearGradient>
					<polygon class="st96" points="255.1,260.8 292,346.9 300.2,345.5 277.7,258 					"/>
					
						<linearGradient id="SVGID_33_" gradientUnits="userSpaceOnUse" x1="419.9662" y1="363.1754" x2="432.2571" y2="344.4903" gradientTransform="matrix(-1 0 0 1 708.5402 0)">
						<stop  offset="0" style="stop-color:#1B1464"/>
						<stop  offset="0.2891" style="stop-color:#323874"/>
						<stop  offset="0.5603" style="stop-color:#435180"/>
						<stop  offset="0.8051" style="stop-color:#4D6187"/>
						<stop  offset="1" style="stop-color:#516689"/>
					</linearGradient>
					<path class="st97" d="M300.2,345.5l-8.2,1.4l-1.7,5.6c0,0-24.8-2.2-26.5,8.5L281,362c3.8,0.2,7.6-0.2,11.2-1.4l8.7-2.8
						c2.2-0.7,3.3-3.2,2.4-5.3L300.2,345.5z"/>
				</g>
				<g>
					
						<linearGradient id="SVGID_34_" gradientUnits="userSpaceOnUse" x1="461.1805" y1="376.5644" x2="409.1725" y2="204.7803" gradientTransform="matrix(-1 0 0 1 708.5402 0)">
						<stop  offset="0" style="stop-color:#3855E1"/>
						<stop  offset="1" style="stop-color:#5C7EF7"/>
					</linearGradient>
					<path class="st98" d="M322.4,231.9l-71.6,7.1c-17.6,1.7-29.8,18.3-26.2,35.7c6.7,32.1,15.8,76.6,15.8,77.3c0,1.1,8,0,8,0
						l1.9-85.1l76.8-1.5c9.7-0.2,16.9-9.1,15.1-18.6l0,0C340.5,237.5,331.8,231,322.4,231.9z"/>
					
						<linearGradient id="SVGID_35_" gradientUnits="userSpaceOnUse" x1="471.8604" y1="365.8635" x2="484.1487" y2="347.1822" gradientTransform="matrix(-1 0 0 1 708.5402 0)">
						<stop  offset="0" style="stop-color:#1B1464"/>
						<stop  offset="0.2891" style="stop-color:#323874"/>
						<stop  offset="0.5603" style="stop-color:#435180"/>
						<stop  offset="0.8051" style="stop-color:#4D6187"/>
						<stop  offset="1" style="stop-color:#516689"/>
					</linearGradient>
					<path class="st99" d="M248.4,350.8h-8v4.8c0,0-27.4-1.7-27.6,6.8h33c1.5,0,2.7-1.2,2.7-2.7V350.8z"/>
				</g>
				
					<linearGradient id="SVGID_36_" gradientUnits="userSpaceOnUse" x1="347.6434" y1="237.6783" x2="425.2083" y2="119.7611" gradientTransform="matrix(-0.9886 -0.1505 -0.1505 0.9886 732.272 58.1258)">
					<stop  offset="0" style="stop-color:#FAEC21"/>
					<stop  offset="0.2285" style="stop-color:#FAE623"/>
					<stop  offset="0.5299" style="stop-color:#FAD62A"/>
					<stop  offset="0.8707" style="stop-color:#F9BA36"/>
					<stop  offset="1" style="stop-color:#F9AE3B"/>
				</linearGradient>
				<path class="st100" d="M349.2,139.6c2.4,2.1,4.7,4.5,6.8,7.3c8.6,11.4,12.8,26.7,12.4,42.6c-1.3,54.9-15.5,80.3-43.2,74.6
					c-12.2-2.5-19.9-16.5-17.3-31.4l0,0c3.9-22-0.5-44.3-12-60.9v0c-4-5.8-4-14.4,0.1-20.7l0,0c3.7-5.7,13.2-13.6,13.2-13.6
					l15.9-7.1C325.1,130.6,340.7,132.3,349.2,139.6z"/>
			</g>
			<g>
				<g>
					
						<linearGradient id="SVGID_37_" gradientUnits="userSpaceOnUse" x1="271.3156" y1="115.9119" x2="295.5993" y2="115.9119" gradientTransform="matrix(0.1525 -0.9883 -0.9883 -0.1525 303.0508 432.0646)">
						<stop  offset="4.527240e-03" style="stop-color:#4E8DA1"/>
						<stop  offset="0.2667" style="stop-color:#64ACC0"/>
						<stop  offset="0.5537" style="stop-color:#78C6DC"/>
						<stop  offset="0.8076" style="stop-color:#84D6EC"/>
						<stop  offset="1" style="stop-color:#88DCF2"/>
					</linearGradient>
					<path class="st101" d="M215.7,141.4l-1.3,2.4l2.6-0.1l31.3-16.8c0.7-0.4,0.9-1.2,0.5-1.8l0,0c-0.4-0.7-1.2-0.9-1.8-0.5
						L215.7,141.4z"/>
				</g>
				<g>
					<linearGradient id="SVGID_38_" gradientUnits="userSpaceOnUse" x1="221.59" y1="161.7045" x2="332.0026" y2="161.7045">
						<stop  offset="0" style="stop-color:#FAEC21"/>
						<stop  offset="0.2285" style="stop-color:#FAE623"/>
						<stop  offset="0.5299" style="stop-color:#FAD62A"/>
						<stop  offset="0.8707" style="stop-color:#F9BA36"/>
						<stop  offset="1" style="stop-color:#F9AE3B"/>
					</linearGradient>
					<path class="st102" d="M332,151c-0.3,7.3-4.4,13.9-10.6,17.8c-4,2.5-12.1,6.1-18.9,9.1c-30,12.9-65.4,0.7-79.9-28.5
						c-0.3-0.7-0.6-1.3-0.9-2l0,0l7.7-2.8l0,0c12.6,17.1,35.9,22.3,54.7,12.2l20-10.8c3.6-1.9,7.3-3.5,11.3-4.5
						C327.3,138.5,332.4,142.2,332,151z"/>
				</g>
				<path class="st104" d="M221.5,147.3c-0.5-1.3-1.2-2.6-2-3.8c-1.6-2.3-4-7.3,0.2-10.5c4.4-3.2,7.7-4.6,9-2.5c1,1.3,1.2,3,0.6,5.2
					l1.9,2.8c0.6,1,0.4,2.3-0.4,3c-0.6,0.5-1.4,0.9-2.5,1.4l1,1.6L221.5,147.3L221.5,147.3z"/>
			</g>
		</g>
		<g>
			<linearGradient id="SVGID_39_" gradientUnits="userSpaceOnUse" x1="345.3891" y1="310.0257" x2="329.5194" y2="310.0257">
				<stop  offset="0" style="stop-color:#1B1464"/>
				<stop  offset="0.2891" style="stop-color:#323874"/>
				<stop  offset="0.5603" style="stop-color:#435180"/>
				<stop  offset="0.8051" style="stop-color:#4D6187"/>
				<stop  offset="1" style="stop-color:#516689"/>
			</linearGradient>
			<rect x="329.1" y="261.1" class="st105" width="15.1" height="97.9"/>
			<linearGradient id="SVGID_40_" gradientUnits="userSpaceOnUse" x1="336.637" y1="371.4044" x2="336.637" y2="350.379">
				<stop  offset="0" style="stop-color:#1B1464"/>
				<stop  offset="1" style="stop-color:#516689"/>
			</linearGradient>
			<path class="st106" d="M369.6,365.3h-66l0,0c0-7,5.7-12.7,12.7-12.7H357C364,352.6,369.6,358.3,369.6,365.3L369.6,365.3z"/>
			<linearGradient id="SVGID_41_" gradientUnits="userSpaceOnUse" x1="310.5143" y1="227.8139" x2="316.9758" y2="227.8139">
				<stop  offset="0" style="stop-color:#516689"/>
				<stop  offset="0.1949" style="stop-color:#4D6187"/>
				<stop  offset="0.4397" style="stop-color:#435180"/>
				<stop  offset="0.7109" style="stop-color:#323874"/>
				<stop  offset="1" style="stop-color:#1B1464"/>
			</linearGradient>
			<polygon class="st107" points="310.5,243.7 317,243.7 317,211.9 310.5,211.9 			"/>
			<linearGradient id="SVGID_42_" gradientUnits="userSpaceOnUse" x1="338.9375" y1="228.8219" x2="315.8603" y2="181.5857">
				<stop  offset="0" style="stop-color:#72003A"/>
				<stop  offset="0.6057" style="stop-color:#CA1E59"/>
				<stop  offset="0.9987" style="stop-color:#FF306C"/>
			</linearGradient>
			<path class="st108" d="M359.4,215.6h-55.6c-2.8,0-5-2.2-5-5l0,0c0-2.8,2.2-5,5-5h55.6V215.6z"/>
			<linearGradient id="SVGID_43_" gradientUnits="userSpaceOnUse" x1="383.3121" y1="302.6518" x2="309.032" y2="128.1299">
				<stop  offset="0" style="stop-color:#8335D6"/>
				<stop  offset="1" style="stop-color:#CD2153"/>
			</linearGradient>
			<path class="st109" d="M317,231.3h10.4c7.7,0,14.1-5.9,14.7-13.5l-2.5-32.2c-1.6-20.7,14.8-38.4,35.5-38.4l0,0
				c22.6,0,39.5,20.7,34.9,42.8c-6.6,32-16.6,70.9-26.7,75.2c-5.2,2.2-11,3.4-17,3.4h-75c-3.2,0-5.8-2.6-5.8-5.8l0,0
				C285.4,245.5,299.6,231.3,317,231.3z"/>
		</g>
	</g>
</g>
</svg>
