<?xml version="1.0" encoding="utf-8"?>
<!-- Generator: Adobe Illustrator 23.0.5, SVG Export Plug-In . SVG Version: 6.00 Build 0)  -->
<svg version="1.1" id="Layer_1" xmlns="http://www.w3.org/2000/svg" xmlns:xlink="http://www.w3.org/1999/xlink" x="0px" y="0px"
	 viewBox="0 0 530.1 373" style="enable-background:new 0 0 530.1 373;" xml:space="preserve">
<style type="text/css">
	.st0{fill:#E4EBF7;}
	.st1{fill:#FFFFFF;}
	.st2{fill:#D793C9;}
	.st3{fill:#ABDAF7;}
	.st4{fill:#70B2DD;}
	.st5{fill:#F29C8B;}
	.st6{fill:url(#SVGID_1_);}
	.st7{fill:#3150BC;}
	.st8{fill:#78AAF9;}
	.st9{fill:#FEB19E;}
	.st10{fill:#525559;}
	.st11{fill:url(#SVGID_2_);}
	.st12{fill:#FF856A;}
	.st13{fill:#1B3151;}
	.st14{fill:#23406D;}
	.st15{fill:#4E79B7;}
	.st16{opacity:0.49;fill:#1B3151;}
	.st17{fill:url(#SVGID_3_);}
	.st18{fill:url(#SVGID_4_);}
	.st19{fill:url(#SVGID_5_);}
	.st20{fill:url(#SVGID_6_);}
	.st21{fill:url(#SVGID_7_);}
	.st22{fill:#94D6D4;}
	.st23{fill:url(#SVGID_8_);}
	.st24{fill:#FFF7D1;}
	.st25{fill:url(#SVGID_9_);}
	.st26{fill:url(#SVGID_10_);}
	.st27{fill:url(#SVGID_11_);}
	.st28{fill:#F5E5A1;}
	.st29{fill:#CDCDCD;}
	.st30{fill:#1B1464;}
	.st31{fill:url(#SVGID_12_);}
	.st32{fill:url(#SVGID_13_);}
	.st33{fill:#D78785;}
	.st34{fill:#CA605D;}
	.st35{fill:#C5514E;}
	.st36{fill:#BE3C39;}
	.st37{fill:#B5211E;}
	.st38{fill:url(#SVGID_14_);}
	.st39{fill:#CA6AB6;}
	.st40{fill:#C55BAF;}
	.st41{fill:#BE45A6;}
	.st42{fill:#B5279A;}
	.st43{fill:url(#SVGID_15_);}
	.st44{fill:#9BC7D7;}
	.st45{fill:#72B1CA;}
	.st46{fill:#63AAC5;}
	.st47{fill:#4CA0BE;}
	.st48{fill:#2E92B5;}
	.st49{fill:url(#SVGID_16_);}
	.st50{fill:url(#SVGID_17_);}
	.st51{fill:url(#SVGID_18_);}
	.st52{fill:url(#SVGID_19_);}
	.st53{fill:#E6E6E6;}
	.st54{fill:url(#SVGID_20_);}
	.st55{fill:url(#SVGID_21_);}
	.st56{fill:url(#SVGID_22_);}
	.st57{fill:url(#SVGID_23_);}
	.st58{fill:url(#SVGID_24_);}
	.st59{fill:#E47EDA;}
	.st60{fill:#3C2BDA;}
	.st61{fill:#619CE3;}
	.st62{fill:#CCCCCC;}
	.st63{fill:#4D4D4D;}
	.st64{fill:url(#SVGID_25_);}
	.st65{fill:#999999;}
	.st66{fill:#666666;}
	.st67{fill:#F1D34E;}
	.st68{fill:#C85676;}
	.st69{fill:#8043B1;}
	.st70{fill:#FF0000;}
	.st71{fill:#FFFF00;}
	.st72{fill:#00FF00;}
	.st73{fill:#00FFFF;}
	.st74{fill:#0000FF;}
	.st75{fill:#FF00FF;}
	.st76{fill:#BF272D;}
	.st77{fill:#EF5A24;}
	.st78{fill:#F9AE3B;}
	.st79{fill:#FAEC21;}
	.st80{fill:#39B34A;}
	.st81{fill:#8AC43F;}
	.st82{fill:#006837;}
	.st83{fill:#00A79B;}
	.st84{fill:#0071BA;}
	.st85{fill:#333333;}
	.st86{fill:#808080;}
	.st87{fill:#B3B3B3;}
	.st88{fill:#F2F2F2;}
	.st89{fill:#EB1C24;}
	.st90{fill:url(#SVGID_26_);}
	.st91{fill:url(#SVGID_27_);}
	.st92{fill:url(#SVGID_28_);}
	.st93{fill:url(#SVGID_29_);}
	.st94{fill:url(#SVGID_30_);}
	.st95{fill:url(#SVGID_31_);}
	.st96{fill:url(#SVGID_32_);}
	.st97{fill:url(#SVGID_33_);}
	.st98{fill:url(#SVGID_34_);}
	.st99{fill:url(#SVGID_35_);}
	.st100{fill:url(#SVGID_36_);}
	.st101{fill:url(#SVGID_37_);}
	.st102{fill:url(#SVGID_38_);}
	.st103{fill:#FFB293;}
	.st104{fill:#FFCAB5;}
	.st105{fill:url(#SVGID_39_);}
	.st106{fill:url(#SVGID_40_);}
	.st107{fill:url(#SVGID_41_);}
	.st108{fill:url(#SVGID_42_);}
	.st109{fill:url(#SVGID_43_);}
	.st110{fill:url(#SVGID_44_);}
	.st111{fill:url(#SVGID_45_);}
	.st112{fill:url(#SVGID_46_);}
	.st113{fill:url(#SVGID_47_);}
	.st114{fill:url(#SVGID_48_);}
	.st115{fill:url(#SVGID_49_);}
	.st116{fill:url(#SVGID_50_);}
	.st117{fill:url(#SVGID_51_);}
	.st118{fill:#FFE2E6;}
	.st119{opacity:0.4;fill:url(#SVGID_52_);}
	.st120{opacity:4.000000e-02;}
	.st121{fill:url(#SVGID_53_);}
	.st122{fill:#FFD275;}
	.st123{fill:url(#SVGID_54_);}
	.st124{opacity:0.4;fill:url(#SVGID_55_);}
	.st125{fill:#FF7872;}
	.st126{fill:url(#SVGID_56_);}
	.st127{fill:#005048;}
	.st128{fill:#57ABB9;}
	.st129{fill:#DFF3F7;}
	.st130{fill:#3C7582;}
	.st131{fill:#A0E0D6;}
	.st132{fill:#E7E7CE;}
	.st133{fill:#00BEA6;}
	.st134{fill:none;stroke:#161636;stroke-width:0.9096;stroke-linecap:round;stroke-linejoin:round;}
	.st135{fill:none;stroke:#161636;stroke-width:0.9096;stroke-linecap:round;stroke-linejoin:round;stroke-dasharray:2.697,3.596;}
	.st136{fill:none;stroke:#161636;stroke-width:0.9096;stroke-linecap:round;stroke-linejoin:round;stroke-dasharray:2.615,3.4866;}
	.st137{fill:#161636;}
	.st138{opacity:0.4;}
	.st139{fill:#FBF9DD;}
	.st140{fill:#FE7F58;}
	.st141{fill:#EE4026;}
	.st142{fill:#95170A;}
	.st143{fill:url(#SVGID_57_);}
	.st144{fill:url(#SVGID_58_);}
	.st145{fill:#FF9E7D;}
	.st146{fill:#004D62;}
	.st147{fill:#D5495B;}
	.st148{fill:#FF605B;}
	.st149{fill:#F8F8DC;}
	.st150{fill:#00BEA5;}
	.st151{fill:#FFBEAA;}
	.st152{fill:url(#SVGID_59_);}
	.st153{fill:#FD5757;}
	.st154{fill:#FF8B8B;}
	.st155{fill:#06061E;}
	.st156{fill:#005160;}
	.st157{fill:#005A6C;}
	.st158{fill:#FF9F81;}
	.st159{fill:url(#SVGID_60_);}
	.st160{fill:#FFB8A0;}
	.st161{fill:url(#SVGID_61_);}
	.st162{fill:#003746;}
	.st163{fill:#3B7A8B;}
	.st164{opacity:0.2;fill-rule:evenodd;clip-rule:evenodd;fill:url(#SVGID_62_);}
	.st165{clip-path:url(#SVGID_64_);}
	.st166{fill-rule:evenodd;clip-rule:evenodd;fill:#C7C0DD;}
	.st167{opacity:0.4;fill-rule:evenodd;clip-rule:evenodd;fill:url(#SVGID_65_);}
	.st168{fill-rule:evenodd;clip-rule:evenodd;fill:#350A3D;}
	.st169{fill-rule:evenodd;clip-rule:evenodd;fill:url(#SVGID_66_);}
	.st170{fill-rule:evenodd;clip-rule:evenodd;fill:#CB6459;}
	.st171{fill-rule:evenodd;clip-rule:evenodd;fill:#B24949;}
	.st172{fill-rule:evenodd;clip-rule:evenodd;fill:#005A6C;}
	.st173{fill-rule:evenodd;clip-rule:evenodd;fill:#E6AD83;}
	.st174{fill-rule:evenodd;clip-rule:evenodd;fill:#B02539;}
	.st175{fill-rule:evenodd;clip-rule:evenodd;fill:#ECD8DA;}
	.st176{fill-rule:evenodd;clip-rule:evenodd;fill:#DF9AA3;}
	.st177{fill-rule:evenodd;clip-rule:evenodd;fill:#C73048;}
	.st178{fill-rule:evenodd;clip-rule:evenodd;fill:#CF4A60;}
	.st179{fill-rule:evenodd;clip-rule:evenodd;fill:#D4A037;}
	.st180{fill-rule:evenodd;clip-rule:evenodd;fill:url(#SVGID_67_);}
	.st181{fill-rule:evenodd;clip-rule:evenodd;fill:url(#SVGID_68_);}
	.st182{fill-rule:evenodd;clip-rule:evenodd;fill:url(#SVGID_69_);}
	.st183{fill-rule:evenodd;clip-rule:evenodd;fill:#FFFFFF;}
	.st184{fill-rule:evenodd;clip-rule:evenodd;fill:url(#SVGID_70_);}
	.st185{fill-rule:evenodd;clip-rule:evenodd;fill:#F2DBDF;}
	.st186{fill-rule:evenodd;clip-rule:evenodd;fill:#BD263E;}
	.st187{fill-rule:evenodd;clip-rule:evenodd;fill:#472055;}
	.st188{fill-rule:evenodd;clip-rule:evenodd;fill:#542763;}
	.st189{fill-rule:evenodd;clip-rule:evenodd;fill:#9EBCD2;}
	.st190{fill-rule:evenodd;clip-rule:evenodd;fill:#7696AE;}
	.st191{fill-rule:evenodd;clip-rule:evenodd;fill:url(#SVGID_71_);}
	.st192{fill-rule:evenodd;clip-rule:evenodd;fill:url(#SVGID_72_);}
	.st193{fill-rule:evenodd;clip-rule:evenodd;fill:url(#SVGID_73_);}
	.st194{fill-rule:evenodd;clip-rule:evenodd;fill:#E7E2EF;}
	.st195{fill:#F4A640;}
	.st196{fill:#ADCFD8;}
	.st197{fill:#55769F;}
	.st198{fill:#DAEEF7;}
	.st199{fill:#FEB546;}
	.st200{fill:#FF5B7E;}
	.st201{fill:#E03268;}
	.st202{fill:#07085B;}
	.st203{fill:#02CCC0;}
	.st204{fill:#06BFAD;}
	.st205{opacity:0.5;fill:#55769F;}
	.st206{fill:#C4DFE8;}
	.st207{fill:#FFC0BB;}
	.st208{opacity:0.6;fill:#FC8D84;}
	.st209{fill:#050645;}
	.st210{fill:#F99893;}
	.st211{fill:#6F747A;}
	.st212{fill:#CDD6E0;}
	.st213{fill:#D9D9D9;}
	.st214{fill:#71BF9D;}
	.st215{fill:none;stroke:#E57E55;stroke-width:0.8859;stroke-linecap:round;stroke-linejoin:round;stroke-miterlimit:10;}
	.st216{fill:none;stroke:#E57E55;stroke-width:0.7092;stroke-linecap:round;stroke-linejoin:round;stroke-miterlimit:10;}
	.st217{fill:#FFD25A;}
	.st218{fill:#FFBE57;}
	.st219{fill:none;stroke:#FFFFFF;stroke-width:0.8649;stroke-miterlimit:10;}
	.st220{fill:#764582;}
	.st221{fill:#9D68AA;}
	.st222{fill:#FFFFFF;stroke:#764582;stroke-width:0.865;stroke-miterlimit:10;}
	.st223{fill-rule:evenodd;clip-rule:evenodd;fill:#764582;}
	.st224{fill-rule:evenodd;clip-rule:evenodd;fill:#FFFFFF;stroke:#764582;stroke-width:0.9101;stroke-miterlimit:10;}
	.st225{fill:none;stroke:#764582;stroke-width:1.1238;stroke-miterlimit:10;}
	.st226{fill:#FFFFFF;stroke:#764582;stroke-width:0.9101;stroke-linecap:round;stroke-linejoin:round;stroke-miterlimit:10;}
	.st227{opacity:0.7;fill:#A1ABAD;}
	.st228{fill:#DD4026;}
	.st229{fill:#E2E2E2;}
	.st230{fill:#FD6141;}
	.st231{fill:none;}
	.st232{fill:none;stroke:#EFE9DA;stroke-width:1.0282;stroke-linecap:round;stroke-miterlimit:10;}
	.st233{fill:none;stroke:#EFE9DA;stroke-width:1.0282;stroke-miterlimit:10;}
	.st234{fill:#3C8460;}
	.st235{opacity:0.2;fill:#764582;}
	.st236{fill:#E4BCE8;}
	.st237{fill:none;stroke:#FFFFFF;stroke-width:0.8648;stroke-miterlimit:10;}
	.st238{fill:#FDEEFF;}
	.st239{fill:#A1ABAD;}
	.st240{fill:#FFCC5A;stroke:#764582;stroke-width:0.865;stroke-miterlimit:10;}
	.st241{fill-rule:evenodd;clip-rule:evenodd;fill:#9D68AA;}
	.st242{fill:#FFB072;}
	.st243{fill:#3E2344;}
	.st244{fill:#FFDCAE;}
	.st245{fill:#FFFFFF;stroke:#FD6141;stroke-width:1.6475;stroke-linecap:round;stroke-linejoin:round;stroke-miterlimit:10;}
	.st246{fill:#FF8976;}
	.st247{fill:#F99441;}
	.st248{clip-path:url(#SVGID_75_);fill:#FFAEC1;}
	.st249{clip-path:url(#SVGID_75_);fill:#FFB072;}
	.st250{fill:#552F5E;}
	.st251{fill:#F29353;}
	.st252{clip-path:url(#SVGID_77_);fill:#FFAEC1;}
	.st253{clip-path:url(#SVGID_77_);fill:#FFB072;}
	.st254{fill:none;stroke:#FFFFFF;stroke-width:0.4429;stroke-miterlimit:10;}
	.st255{fill-rule:evenodd;clip-rule:evenodd;fill:#FFB072;}
	.st256{fill:#E57E55;}
	.st257{opacity:0.5;fill:#E57E55;}
	.st258{opacity:0.7;fill-rule:evenodd;clip-rule:evenodd;fill:#A1ABAD;}
	.st259{fill:none;stroke:#FFFFFF;stroke-width:0.4429;stroke-linecap:round;stroke-linejoin:round;stroke-miterlimit:10;}
	.st260{fill-rule:evenodd;clip-rule:evenodd;fill:#FD6141;}
	.st261{opacity:0.5;}
	.st262{fill-rule:evenodd;clip-rule:evenodd;fill:#DD4026;}
	.st263{clip-path:url(#SVGID_79_);fill:#DD4026;}
	.st264{fill:#F7B614;}
	.st265{opacity:0.5;fill:#FFBE57;}
	.st266{clip-path:url(#SVGID_81_);fill:#DD4026;}
	.st267{fill:none;stroke:#FFFFFF;stroke-width:0.4429;stroke-linecap:round;stroke-miterlimit:10;}
	.st268{opacity:0.3;fill:#764582;}
</style>
<g>
	<g>
		<path class="st0" d="M528.3,282c-0.2,0.7-0.3,1.4-0.5,2.1c-2.8,11.1-8.3,22.9-16.9,35.4l-43-0.1h-2.3l-231.9-0.6H231l-44.9-0.1
			l-2.9,0l-142.7-0.4c0,0-37.1-43.6,12.6-84.4c23.3-19.1,54.5-16.1,78.3-18.6c1-0.1,2.1-0.2,3.1-0.4c25.2-3.3,40.8-14.5,26.4-69.5
			c-2-7.5-2.7-15.1-2.3-22.6c0-1,0.1-2.1,0.2-3.1c4.8-51,60.7-95,125.1-69c1.2,0.5,2.3,1,3.5,1.5c14.2,6.3,28.9,16,43.4,29.9
			C343,93.5,353.6,104,363,113.5c1.1,1.1,2.1,2.2,3.2,3.2c45.3,46.2,60.9,68.6,85.1,81.8c0.6,0.3,1.3,0.7,1.9,1
			c7,3.6,14.8,6.5,24.2,9c10.2,2.7,19.1,6.6,26.6,11.5c0.6,0.4,1.2,0.8,1.8,1.3C525.3,235.1,534.1,256.3,528.3,282z"/>
		<path class="st0" d="M462.6,81.9c-37.6-28.6-86.5-21.9-76.6,0c9.8,21.9,52.3,78.2,82.4,68.4C498.3,140.4,487.5,100.9,462.6,81.9z"
			/>
		<path class="st1" d="M505.8,221.3c-32,25.7-60.7,38.6-86,38.6c-6.3,0-12.4-0.8-18.3-2.4c-37.8-10.4-66.4-54-85-129.5
			c-8.2-33.6-19.9-58.7-32.5-77.5c1.2,0.5,2.3,1,3.5,1.5c12,18.7,23.1,43.2,31,75.5c18.4,74.7,46.5,117.8,83.5,128
			c28.6,7.9,62.8-4,102-35.4C504.6,220.5,505.2,220.9,505.8,221.3z"/>
		<path class="st1" d="M453.2,199.6c-9.6,9.4-19,14.1-28,14.1c-2,0-4-0.3-6.1-0.7c-27-6.5-45.2-55.6-56.2-99.4
			c1.1,1.1,2.1,2.2,3.2,3.2c11,42.3,28.5,88,53.5,94.1c9.9,2.4,20.5-1.7,31.6-12.3C451.9,198.9,452.5,199.2,453.2,199.6z"/>
		<path class="st1" d="M233.7,318.7H231c17.4-21.5,26.2-44.5,25.6-68.3c-1-44-33.5-81.5-65.2-99.2c-13.8-7.7-24.6-17.7-32.9-28.6
			c0-1,0.1-2.1,0.2-3.1c8.3,11.3,19.3,21.9,33.7,29.9c32.2,18,65.2,56.1,66.3,101C259.2,268.8,254.1,292.9,233.7,318.7z"/>
		<path class="st1" d="M186.1,318.5l-2.9,0c10.6-12.5,17.5-26.4,17.1-40.1c-0.6-18.1-13.6-33.3-38.8-45.2
			c-10.8-5.1-20.8-11.3-30.1-18.2c1-0.1,2.1-0.2,3.1-0.4c8.7,6.3,18,11.9,28,16.6c25.9,12.2,39.3,28.1,40,47
			C202.8,292.5,196.1,306.3,186.1,318.5z"/>
		<path class="st1" d="M528.3,282c-0.2,0.7-0.3,1.4-0.5,2.1c-15.5-1.3-28.7,1.7-39.3,9.1c-9.6,6.7-16.1,16.2-20.5,26.2h-2.3
			c4.5-10.6,11.4-20.8,21.6-27.9C498.4,283.7,512.1,280.5,528.3,282z"/>
	</g>
	<g>
		<path class="st2" d="M105.8,185.8c0,0-4.2,4.5-6.2,24.4c-2,19.7-19.1,29.8-32.6,30.8c-0.1,0-0.2,0-0.3,0l-0.1-0.2l-0.5-1.9
			l-3.5-12.7c0,0-4.3-34.8,41.7-40.3C104.8,185.9,105.3,185.8,105.8,185.8z"/>
		<path class="st3" d="M70.4,319.4c0,0,0.9-102.2-16.5-135.4S0,145.2,0,145.2s39.2,10.2,53.9,49.7c14.8,39.4,10.2,124.6,10.2,124.6
			H70.4z"/>
		<g>
			<path class="st2" d="M64.7,300.1c-56.3-0.3-57-62.8-57-66.3c0-0.1,0-0.1,0-0.1C20.7,253.2,67,251.6,64.7,300.1z"/>
			<path class="st2" d="M64.7,300.1c-56.3-0.3-57-62.8-57-66.3c0.1,2.7,2.3,44.2,27.5,51.3C61.3,292.5,64.7,300.1,64.7,300.1z"/>
		</g>
		<g>
			<path class="st2" d="M118.3,272.3c-6.5,17.9,3.1,36-13.3,47.1H76.3C76.3,319.4,74.6,279.4,118.3,272.3z"/>
			<path class="st2" d="M118.3,272.3c-6.5,17.9,3.1,36-13.3,47.1H94.2C108.2,307.4,109.9,285.7,118.3,272.3z"/>
		</g>
		<path class="st2" d="M105.8,185.8c0,0-4.2,4.5-6.2,24.4c-2,19.7-19.1,29.8-32.6,30.8l-0.3-0.2l-1.9-1.4c0.5-0.2,1-0.3,1.4-0.5
			c27.9-10.5,28.2-36.7,38.2-53C104.8,185.9,105.3,185.8,105.8,185.8z"/>
		<g>
			<path class="st2" d="M62.6,212.8l-0.2,0c-2.8,0.6-35.8,7.4-42.7-25.3C13,155.5,1.5,146.3,0.1,145.3c0,0,0,0-0.1-0.1
				C63.1,155.3,62.6,212.8,62.6,212.8z"/>
			<path class="st2" d="M62.6,212.8l-0.2,0c-2.8,0.6-35.8,7.4-42.7-25.3C13,155.5,1.5,146.3,0.1,145.3
				C31.3,161.8,16.2,207.8,62.6,212.8z"/>
		</g>
	</g>
	<rect x="27" y="319.4" class="st4" width="501.7" height="10.8"/>
	<g>
		<path class="st1" d="M425.6,284.6c0,0,6.1-7.4,3-14.9c-1.9-4.7-5.1-4.5-12.1-13.1c-7-8.5-13.1-29.7,9.1-26.3
			c22.1,3.4,28.4,0.4,24.4-5.5c-4-5.9-17.4-14.6-12.2-26.1c5.2-11.5,25.3-7.6,44.7-5.9c19.5,1.7,13.1-6.8,25-1.1
			c11.9,5.7,11.9,38.2-15.5,36.1c-27.4-2.1-32.5-0.6-31.4,9.4c1.1,10.1,5.9,27.3-11.9,20.7c-17.8-6.5-12.9,1.9-9.6,8.9
			c4.2,8.9-6.1,17.6-6.1,17.6H425.6z"/>
		<path class="st1" d="M423.5,205.7c-5.8-1.2-11.9-10.6-16.8-2.3c-4,6.7,8.1,16.6,17.4,12.7C431.4,213,431,207.2,423.5,205.7z"/>
		<path class="st4" d="M450,315.3v-4.5c5.9,0,11.2-4,12.8-9.6l0.8-2.6c0.5-1.6,0.2-3.3-0.9-4.7c-1-1.3-2.6-2.1-4.2-2.1h-3.5v-4.5
			h3.5c3.1,0,6,1.4,7.9,3.9c1.9,2.5,2.5,5.6,1.6,8.7l-0.8,2.6C464.9,310,457.9,315.3,450,315.3z"/>
		<path class="st3" d="M457.6,284.8l-0.7,4.6l-3.4,23.6c-0.5,3.7-3.7,6.4-7.4,6.4h-16.9c-3.7,0-6.9-2.7-7.4-6.4l-3.3-23.6l-0.6-4.6
			c-0.3-2.4,1.5-4.5,3.9-4.5h31.9C456.1,280.3,458,282.4,457.6,284.8z"/>
		<path class="st4" d="M457.6,284.8l-0.7,4.6h-38.5l-0.6-4.6c-0.3-2.4,1.5-4.5,3.9-4.5h31.9C456.1,280.3,458,282.4,457.6,284.8z"/>
	</g>
	<g>
		<g>
			<path class="st5" d="M385.9,319.4c0,0,5.4-4.1,3.4-22.4c-1.9-18.4-3.4-31.4-3.4-31.4l-40.2,4.4l4.5,36.7L385.9,319.4z"/>
			<linearGradient id="SVGID_1_" gradientUnits="userSpaceOnUse" x1="307.204" y1="306.3969" x2="298.8284" y2="192.6283">
				<stop  offset="0" style="stop-color:#3855E1"/>
				<stop  offset="1" style="stop-color:#5C7EF7"/>
			</linearGradient>
			<path class="st6" d="M350.8,279.4l5.3,40H224.5c0,0-13.1-97.3,14.8-119.7c12.2-9.9,27.8-14.3,41.4-16.2h0
				c17.4-2.4,31.6-0.7,31.6-0.7s3.3,0,8.3,0.4c11.3,1,31.5,4.3,43.5,15.3c17.3,15.9,25.2,79.8,25.2,79.8S374.1,281.7,350.8,279.4z"
				/>
			<path class="st7" d="M350.8,279.4l-6-0.9L326,229.8c0,0,0.6,55.3-16.8,71.7c-17.4,16.4-61.3,8.5-61.3,8.5l-6.1-80.2l-13.2,41.1
				l8.7,48.6h118.8L350.8,279.4z"/>
			<path class="st8" d="M320.6,183.3c-1.2,11-4.4,27.1-13.5,33.7c-14.5,10.5-27.7,6.1-33.3-4.7c-5.7-10.8,1.1-26.4,3-27.7l3.9-1.1h0
				c17.4-2.4,31.6-0.7,31.6-0.7S315.5,182.8,320.6,183.3z"/>
		</g>
		<g>
			<path class="st5" d="M224.5,319.4h-19.1c-12.3,0-21.4-11.2-19-23.3l8-39.5L224.5,319.4z"/>
			<path class="st9" d="M222.1,250.8c0,0,3-6.5,0-9.1c-3-2.7-6.7-2.6-6.7-2.6s-1.8-6.4-13.3-5.2c-11.5,1.1-12.6,11.9-6.2,17
				L222.1,250.8z"/>
			<path class="st10" d="M214.7,243.8l-12.8-34.1c-0.5-1.4-2.1-2.2-3.5-1.8l0,0c-1.7,0.5-2.6,2.3-2,4l13.6,32.9L214.7,243.8z"/>
		</g>
		<g>
			<linearGradient id="SVGID_2_" gradientUnits="userSpaceOnUse" x1="208.7097" y1="127.7245" x2="299.7707" y2="127.7245">
				<stop  offset="0" style="stop-color:#3F2323"/>
				<stop  offset="1" style="stop-color:#5E3434"/>
			</linearGradient>
			<path class="st11" d="M299.7,136c0,0,1.1-19.4-3.8-25.5c-5-6.1-10.3-3.8-10.3-3.8s0.1-9.4-12-12.1c-12.1-2.7-25.7-0.3-35.9,9.1
				c-10.2,9.4-25.3,4.5-25.3,11.1c0,6.6,9.4,9.1,9.4,9.1s-12.9-0.9-13.1,4.8c-0.1,5.7,9.2,15.6,21.9,15.3c0,0,2.8,18.6,21,18
				l27.5-9.5l18.3-9.6L299.7,136z"/>
			<path class="st9" d="M312.2,182.8c0,0-4.1,36.3-23.5,33.9c-10.8-1.3-11.4-10.8-10.5-17c0.5-3.9,1.8-6.9,1.8-6.9l-9.6-13.4
				l27.2-29.1C301.9,164.1,306.6,175.8,312.2,182.8z"/>
			<path class="st12" d="M278.3,199.7c0.5-3.9,1.8-6.9,1.8-6.9l-9.6-13.4l27.2-29.1C308.3,188.3,288.1,197.5,278.3,199.7z"/>
			<path class="st9" d="M239.2,145.8c0,0,19.6,43.4,40.1,41.8c17.2-1.3,22.6-29.6,18.4-37.3c0,0,7.7,0.7,6-8.2
				c-1.7-8.9-10.1-17.9-11.6,0c0,0-10,3.3-13.2-18.3c0,0-9.8,16.1-17.2,18c-7.4,1.9-5.3-5.5-5.3-5.5S251.7,143.5,239.2,145.8z"/>
		</g>
		<g>
			<g>
				<path class="st13" d="M291.9,319.4h-72.8c-2.4,0-4.6-1.5-5.5-3.7l-2.4-6l-20-50.9c-1.5-3.9,1.3-8,5.5-8h72
					c2.4,0,4.5,1.5,5.4,3.7l23.2,56.8C299,315.2,296.1,319.4,291.9,319.4z"/>
				<path class="st14" d="M286.8,319.4h-67.7c-2.4,0-4.6-1.5-5.5-3.7l-2.4-6l-20-50.9c-1.5-3.9,1.3-8,5.5-8h66.9
					c0.6,0,1.2,0.1,1.7,0.3c1.7,0.5,3,1.7,3.7,3.4l23.2,56.8C293.8,315.2,291,319.4,286.8,319.4z"/>
				<path class="st15" d="M245.9,281.9c1.2,4.4-0.1,8.6-2.9,9.4c-2.9,0.8-6.2-2.1-7.4-6.4c-1.2-4.4,0.1-8.6,2.9-9.4
					C241.4,274.7,244.7,277.5,245.9,281.9z"/>
				<path class="st16" d="M291.9,319.4h-72.8c-2.4,0-4.6-1.5-5.5-3.7l-2.4-6c36-3.7,49.6-40.6,54.1-58.6c0-0.1,0-0.2,0.1-0.3h3.3
					c2.4,0,4.5,1.5,5.4,3.7l23.2,56.8C299,315.2,296.1,319.4,291.9,319.4z"/>
			</g>
			<path class="st9" d="M385.9,319.4c0,0-8.2-31.5-90.5-47.4c0,0-6.2-14.5-19.3-15.3l2,9.1c0,0-14.5,3-28,1.3
				c-13.5-1.7-3.7,12.1,5.4,18.9c9.1,6.8,10.9,11.1,24.8,8.1c13.9-3,17.2-3.5,17.2-3.5s17.7,18.7,37.3,28.9H385.9z"/>
		</g>
	</g>
	<g>
		<linearGradient id="SVGID_3_" gradientUnits="userSpaceOnUse" x1="143.2482" y1="239.4051" x2="178.4901" y2="239.4051">
			<stop  offset="0" style="stop-color:#8335D6"/>
			<stop  offset="1" style="stop-color:#CD2153"/>
		</linearGradient>
		<path class="st17" d="M178.5,231.5c0,0-7.9,0.8-12.9,9.3c-4.9,8.5-9.1,13.6-17.2,11.4c-8.1-2.3-7-19.5,5.9-24.4
			C167,222.8,178.5,231.5,178.5,231.5z"/>
		<linearGradient id="SVGID_4_" gradientUnits="userSpaceOnUse" x1="91.6806" y1="182.8547" x2="182.8412" y2="182.8547">
			<stop  offset="0" style="stop-color:#8335D6"/>
			<stop  offset="1" style="stop-color:#CD2153"/>
		</linearGradient>
		<path class="st18" d="M182.8,207.8c0,0-13.1-17.8-34.1-11.3c-21,6.4-40.7,8.3-52.2-11.4c-11.5-19.7-0.4-28.4,9.8-27.1
			c10.2,1.3,19.3,19.7,34.2,19.9C155.6,178.1,179.6,189.6,182.8,207.8z"/>
		<linearGradient id="SVGID_5_" gradientUnits="userSpaceOnUse" x1="333.6872" y1="147.0793" x2="367.2198" y2="147.0793">
			<stop  offset="0" style="stop-color:#8335D6"/>
			<stop  offset="1" style="stop-color:#CD2153"/>
		</linearGradient>
		<path class="st19" d="M334.4,166.6c0,0-5.5-27.6,14.6-36.9c20.1-9.3,24.2,15.1,9.5,18.4C343.6,151.4,335.7,158.8,334.4,166.6z"/>
		<linearGradient id="SVGID_6_" gradientUnits="userSpaceOnUse" x1="283.1059" y1="239.2472" x2="356.1533" y2="239.2472">
			<stop  offset="0" style="stop-color:#8335D6"/>
			<stop  offset="1" style="stop-color:#CD2153"/>
		</linearGradient>
		<path class="st20" d="M283.1,245.3c0,0,5.7-7.9,22.3,0.9c16.5,8.9,33.4,15.7,45.1,2.3c11.7-13.4,3.6-29.1-8.5-25.5
			c-12.1,3.6-11.5,12.5-32.2,10.8C289.2,232,283.1,245.3,283.1,245.3z"/>
	</g>
	<g>
		<linearGradient id="SVGID_7_" gradientUnits="userSpaceOnUse" x1="122.4931" y1="90.1399" x2="188.5165" y2="90.1399">
			<stop  offset="0" style="stop-color:#88DCF2"/>
			<stop  offset="0.1098" style="stop-color:#85D6EE"/>
			<stop  offset="0.2549" style="stop-color:#7CC5E2"/>
			<stop  offset="0.4197" style="stop-color:#6DAACF"/>
			<stop  offset="0.5991" style="stop-color:#5884B3"/>
			<stop  offset="0.7902" style="stop-color:#3D5391"/>
			<stop  offset="0.9885" style="stop-color:#1D1867"/>
			<stop  offset="1" style="stop-color:#1B1464"/>
		</linearGradient>
		<circle class="st21" cx="155.5" cy="90.1" r="33"/>
		
			<ellipse transform="matrix(0.9966 -8.251722e-02 8.251722e-02 0.9966 -6.9078 13.1392)" class="st22" cx="155.5" cy="90.1" rx="24.3" ry="24.3"/>
		<linearGradient id="SVGID_8_" gradientUnits="userSpaceOnUse" x1="152.5963" y1="81.9193" x2="171.3013" y2="81.9193">
			<stop  offset="0" style="stop-color:#88DCF2"/>
			<stop  offset="0.1098" style="stop-color:#85D6EE"/>
			<stop  offset="0.2549" style="stop-color:#7CC5E2"/>
			<stop  offset="0.4197" style="stop-color:#6DAACF"/>
			<stop  offset="0.5991" style="stop-color:#5884B3"/>
			<stop  offset="0.7902" style="stop-color:#3D5391"/>
			<stop  offset="0.9885" style="stop-color:#1D1867"/>
			<stop  offset="1" style="stop-color:#1B1464"/>
		</linearGradient>
		<path class="st23" d="M169.2,89h-12V72.9c0-1.3-1-2.3-2.3-2.3c-1.3,0-2.3,1-2.3,2.3v20.4h1.6h3h12c1.2,0,2.1-0.9,2.1-2.1
			C171.3,90,170.4,89,169.2,89z"/>
	</g>
</g>
</svg>
