<?xml version="1.0" encoding="utf-8"?>
<!-- Generator: Adobe Illustrator 23.0.5, SVG Export Plug-In . SVG Version: 6.00 Build 0)  -->
<svg version="1.1" id="Layer_1" xmlns="http://www.w3.org/2000/svg" xmlns:xlink="http://www.w3.org/1999/xlink" x="0px" y="0px"
	 viewBox="0 0 530.1 373" style="enable-background:new 0 0 530.1 373;" xml:space="preserve">
<style type="text/css">
	.st0{fill:#E4EBF7;}
	.st1{fill:#FFFFFF;}
	.st2{fill:#D793C9;}
	.st3{fill:#ABDAF7;}
	.st4{fill:#70B2DD;}
	.st5{fill:#F29C8B;}
	.st6{fill:url(#SVGID_1_);}
	.st7{fill:#3150BC;}
	.st8{fill:#78AAF9;}
	.st9{fill:#FEB19E;}
	.st10{fill:#525559;}
	.st11{fill:url(#SVGID_2_);}
	.st12{fill:#FF856A;}
	.st13{fill:#1B3151;}
	.st14{fill:#23406D;}
	.st15{fill:#4E79B7;}
	.st16{opacity:0.49;fill:#1B3151;}
	.st17{fill:url(#SVGID_3_);}
	.st18{fill:url(#SVGID_4_);}
	.st19{fill:url(#SVGID_5_);}
	.st20{fill:url(#SVGID_6_);}
	.st21{fill:url(#SVGID_7_);}
	.st22{fill:#94D6D4;}
	.st23{fill:url(#SVGID_8_);}
	.st24{fill:#FFF7D1;}
	.st25{fill:url(#SVGID_9_);}
	.st26{fill:url(#SVGID_10_);}
	.st27{fill:url(#SVGID_11_);}
	.st28{fill:#F5E5A1;}
	.st29{fill:#CDCDCD;}
	.st30{fill:#1B1464;}
	.st31{fill:url(#SVGID_12_);}
	.st32{fill:url(#SVGID_13_);}
	.st33{fill:#D78785;}
	.st34{fill:#CA605D;}
	.st35{fill:#C5514E;}
	.st36{fill:#BE3C39;}
	.st37{fill:#B5211E;}
	.st38{fill:url(#SVGID_14_);}
	.st39{fill:#CA6AB6;}
	.st40{fill:#C55BAF;}
	.st41{fill:#BE45A6;}
	.st42{fill:#B5279A;}
	.st43{fill:url(#SVGID_15_);}
	.st44{fill:#9BC7D7;}
	.st45{fill:#72B1CA;}
	.st46{fill:#63AAC5;}
	.st47{fill:#4CA0BE;}
	.st48{fill:#2E92B5;}
	.st49{fill:url(#SVGID_16_);}
	.st50{fill:url(#SVGID_17_);}
	.st51{fill:url(#SVGID_18_);}
	.st52{fill:url(#SVGID_19_);}
	.st53{fill:#E6E6E6;}
	.st54{fill:url(#SVGID_20_);}
	.st55{fill:url(#SVGID_21_);}
	.st56{fill:url(#SVGID_22_);}
	.st57{fill:url(#SVGID_23_);}
	.st58{fill:url(#SVGID_24_);}
	.st59{fill:#E47EDA;}
	.st60{fill:#3C2BDA;}
	.st61{fill:#619CE3;}
	.st62{fill:#CCCCCC;}
	.st63{fill:#4D4D4D;}
	.st64{fill:url(#SVGID_25_);}
	.st65{fill:#999999;}
	.st66{fill:#666666;}
	.st67{fill:#F1D34E;}
	.st68{fill:#C85676;}
	.st69{fill:#8043B1;}
	.st70{fill:#FF0000;}
	.st71{fill:#FFFF00;}
	.st72{fill:#00FF00;}
	.st73{fill:#00FFFF;}
	.st74{fill:#0000FF;}
	.st75{fill:#FF00FF;}
	.st76{fill:#BF272D;}
	.st77{fill:#EF5A24;}
	.st78{fill:#F9AE3B;}
	.st79{fill:#FAEC21;}
	.st80{fill:#39B34A;}
	.st81{fill:#8AC43F;}
	.st82{fill:#006837;}
	.st83{fill:#00A79B;}
	.st84{fill:#0071BA;}
	.st85{fill:#333333;}
	.st86{fill:#808080;}
	.st87{fill:#B3B3B3;}
	.st88{fill:#F2F2F2;}
	.st89{fill:#EB1C24;}
	.st90{fill:url(#SVGID_26_);}
	.st91{fill:url(#SVGID_27_);}
	.st92{fill:url(#SVGID_28_);}
	.st93{fill:url(#SVGID_29_);}
	.st94{fill:url(#SVGID_30_);}
	.st95{fill:url(#SVGID_31_);}
	.st96{fill:url(#SVGID_32_);}
	.st97{fill:url(#SVGID_33_);}
	.st98{fill:url(#SVGID_34_);}
	.st99{fill:url(#SVGID_35_);}
	.st100{fill:url(#SVGID_36_);}
	.st101{fill:url(#SVGID_37_);}
	.st102{fill:url(#SVGID_38_);}
	.st103{fill:#FFB293;}
	.st104{fill:#FFCAB5;}
	.st105{fill:url(#SVGID_39_);}
	.st106{fill:url(#SVGID_40_);}
	.st107{fill:url(#SVGID_41_);}
	.st108{fill:url(#SVGID_42_);}
	.st109{fill:url(#SVGID_43_);}
	.st110{fill:url(#SVGID_44_);}
	.st111{fill:url(#SVGID_45_);}
	.st112{fill:url(#SVGID_46_);}
	.st113{fill:url(#SVGID_47_);}
	.st114{fill:url(#SVGID_48_);}
	.st115{fill:url(#SVGID_49_);}
	.st116{fill:url(#SVGID_50_);}
	.st117{fill:url(#SVGID_51_);}
	.st118{fill:#FFE2E6;}
	.st119{opacity:0.4;fill:url(#SVGID_52_);}
	.st120{opacity:4.000000e-02;}
	.st121{fill:url(#SVGID_53_);}
	.st122{fill:#FFD275;}
	.st123{fill:url(#SVGID_54_);}
	.st124{opacity:0.4;fill:url(#SVGID_55_);}
	.st125{fill:#FF7872;}
	.st126{fill:url(#SVGID_56_);}
	.st127{fill:#005048;}
	.st128{fill:#57ABB9;}
	.st129{fill:#DFF3F7;}
	.st130{fill:#3C7582;}
	.st131{fill:#A0E0D6;}
	.st132{fill:#E7E7CE;}
	.st133{fill:#00BEA6;}
	.st134{fill:none;stroke:#161636;stroke-width:0.9096;stroke-linecap:round;stroke-linejoin:round;}
	.st135{fill:none;stroke:#161636;stroke-width:0.9096;stroke-linecap:round;stroke-linejoin:round;stroke-dasharray:2.697,3.596;}
	.st136{fill:none;stroke:#161636;stroke-width:0.9096;stroke-linecap:round;stroke-linejoin:round;stroke-dasharray:2.615,3.4866;}
	.st137{fill:#161636;}
	.st138{opacity:0.4;}
	.st139{fill:#FBF9DD;}
	.st140{fill:#FE7F58;}
	.st141{fill:#EE4026;}
	.st142{fill:#95170A;}
	.st143{fill:url(#SVGID_57_);}
	.st144{fill:url(#SVGID_58_);}
	.st145{fill:#FF9E7D;}
	.st146{fill:#004D62;}
	.st147{fill:#D5495B;}
	.st148{fill:#FF605B;}
	.st149{fill:#F8F8DC;}
	.st150{fill:#00BEA5;}
	.st151{fill:#FFBEAA;}
	.st152{fill:url(#SVGID_59_);}
	.st153{fill:#FD5757;}
	.st154{fill:#FF8B8B;}
	.st155{fill:#06061E;}
	.st156{fill:#005160;}
	.st157{fill:#005A6C;}
	.st158{fill:#FF9F81;}
	.st159{fill:url(#SVGID_60_);}
	.st160{fill:#FFB8A0;}
	.st161{fill:url(#SVGID_61_);}
	.st162{fill:#003746;}
	.st163{fill:#3B7A8B;}
	.st164{opacity:0.2;fill-rule:evenodd;clip-rule:evenodd;fill:url(#SVGID_62_);}
	.st165{clip-path:url(#SVGID_64_);}
	.st166{fill-rule:evenodd;clip-rule:evenodd;fill:#C7C0DD;}
	.st167{opacity:0.4;fill-rule:evenodd;clip-rule:evenodd;fill:url(#SVGID_65_);}
	.st168{fill-rule:evenodd;clip-rule:evenodd;fill:#350A3D;}
	.st169{fill-rule:evenodd;clip-rule:evenodd;fill:url(#SVGID_66_);}
	.st170{fill-rule:evenodd;clip-rule:evenodd;fill:#CB6459;}
	.st171{fill-rule:evenodd;clip-rule:evenodd;fill:#B24949;}
	.st172{fill-rule:evenodd;clip-rule:evenodd;fill:#005A6C;}
	.st173{fill-rule:evenodd;clip-rule:evenodd;fill:#E6AD83;}
	.st174{fill-rule:evenodd;clip-rule:evenodd;fill:#B02539;}
	.st175{fill-rule:evenodd;clip-rule:evenodd;fill:#ECD8DA;}
	.st176{fill-rule:evenodd;clip-rule:evenodd;fill:#DF9AA3;}
	.st177{fill-rule:evenodd;clip-rule:evenodd;fill:#C73048;}
	.st178{fill-rule:evenodd;clip-rule:evenodd;fill:#CF4A60;}
	.st179{fill-rule:evenodd;clip-rule:evenodd;fill:#D4A037;}
	.st180{fill-rule:evenodd;clip-rule:evenodd;fill:url(#SVGID_67_);}
	.st181{fill-rule:evenodd;clip-rule:evenodd;fill:url(#SVGID_68_);}
	.st182{fill-rule:evenodd;clip-rule:evenodd;fill:url(#SVGID_69_);}
	.st183{fill-rule:evenodd;clip-rule:evenodd;fill:#FFFFFF;}
	.st184{fill-rule:evenodd;clip-rule:evenodd;fill:url(#SVGID_70_);}
	.st185{fill-rule:evenodd;clip-rule:evenodd;fill:#F2DBDF;}
	.st186{fill-rule:evenodd;clip-rule:evenodd;fill:#BD263E;}
	.st187{fill-rule:evenodd;clip-rule:evenodd;fill:#472055;}
	.st188{fill-rule:evenodd;clip-rule:evenodd;fill:#542763;}
	.st189{fill-rule:evenodd;clip-rule:evenodd;fill:#9EBCD2;}
	.st190{fill-rule:evenodd;clip-rule:evenodd;fill:#7696AE;}
	.st191{fill-rule:evenodd;clip-rule:evenodd;fill:url(#SVGID_71_);}
	.st192{fill-rule:evenodd;clip-rule:evenodd;fill:url(#SVGID_72_);}
	.st193{fill-rule:evenodd;clip-rule:evenodd;fill:url(#SVGID_73_);}
	.st194{fill-rule:evenodd;clip-rule:evenodd;fill:#E7E2EF;}
	.st195{fill:#F4A640;}
	.st196{fill:#ADCFD8;}
	.st197{fill:#55769F;}
	.st198{fill:#DAEEF7;}
	.st199{fill:#FEB546;}
	.st200{fill:#FF5B7E;}
	.st201{fill:#E03268;}
	.st202{fill:#07085B;}
	.st203{fill:#02CCC0;}
	.st204{fill:#06BFAD;}
	.st205{opacity:0.5;fill:#55769F;}
	.st206{fill:#C4DFE8;}
	.st207{fill:#FFC0BB;}
	.st208{opacity:0.6;fill:#FC8D84;}
	.st209{fill:#050645;}
	.st210{fill:#F99893;}
	.st211{fill:#6F747A;}
	.st212{fill:#CDD6E0;}
	.st213{fill:#D9D9D9;}
	.st214{fill:#71BF9D;}
	.st215{fill:none;stroke:#E57E55;stroke-width:0.8859;stroke-linecap:round;stroke-linejoin:round;stroke-miterlimit:10;}
	.st216{fill:none;stroke:#E57E55;stroke-width:0.7092;stroke-linecap:round;stroke-linejoin:round;stroke-miterlimit:10;}
	.st217{fill:#FFD25A;}
	.st218{fill:#FFBE57;}
	.st219{fill:none;stroke:#FFFFFF;stroke-width:0.8649;stroke-miterlimit:10;}
	.st220{fill:#764582;}
	.st221{fill:#9D68AA;}
	.st222{fill:#FFFFFF;stroke:#764582;stroke-width:0.865;stroke-miterlimit:10;}
	.st223{fill-rule:evenodd;clip-rule:evenodd;fill:#764582;}
	.st224{fill-rule:evenodd;clip-rule:evenodd;fill:#FFFFFF;stroke:#764582;stroke-width:0.9101;stroke-miterlimit:10;}
	.st225{fill:none;stroke:#764582;stroke-width:1.1238;stroke-miterlimit:10;}
	.st226{fill:#FFFFFF;stroke:#764582;stroke-width:0.9101;stroke-linecap:round;stroke-linejoin:round;stroke-miterlimit:10;}
	.st227{opacity:0.7;fill:#A1ABAD;}
	.st228{fill:#DD4026;}
	.st229{fill:#E2E2E2;}
	.st230{fill:#FD6141;}
	.st231{fill:none;}
	.st232{fill:none;stroke:#EFE9DA;stroke-width:1.0282;stroke-linecap:round;stroke-miterlimit:10;}
	.st233{fill:none;stroke:#EFE9DA;stroke-width:1.0282;stroke-miterlimit:10;}
	.st234{fill:#3C8460;}
	.st235{opacity:0.2;fill:#764582;}
	.st236{fill:#E4BCE8;}
	.st237{fill:none;stroke:#FFFFFF;stroke-width:0.8648;stroke-miterlimit:10;}
	.st238{fill:#FDEEFF;}
	.st239{fill:#A1ABAD;}
	.st240{fill:#FFCC5A;stroke:#764582;stroke-width:0.865;stroke-miterlimit:10;}
	.st241{fill-rule:evenodd;clip-rule:evenodd;fill:#9D68AA;}
	.st242{fill:#FFB072;}
	.st243{fill:#3E2344;}
	.st244{fill:#FFDCAE;}
	.st245{fill:#FFFFFF;stroke:#FD6141;stroke-width:1.6475;stroke-linecap:round;stroke-linejoin:round;stroke-miterlimit:10;}
	.st246{fill:#FF8976;}
	.st247{fill:#F99441;}
	.st248{clip-path:url(#SVGID_75_);fill:#FFAEC1;}
	.st249{clip-path:url(#SVGID_75_);fill:#FFB072;}
	.st250{fill:#552F5E;}
	.st251{fill:#F29353;}
	.st252{clip-path:url(#SVGID_77_);fill:#FFAEC1;}
	.st253{clip-path:url(#SVGID_77_);fill:#FFB072;}
	.st254{fill:none;stroke:#FFFFFF;stroke-width:0.4429;stroke-miterlimit:10;}
	.st255{fill-rule:evenodd;clip-rule:evenodd;fill:#FFB072;}
	.st256{fill:#E57E55;}
	.st257{opacity:0.5;fill:#E57E55;}
	.st258{opacity:0.7;fill-rule:evenodd;clip-rule:evenodd;fill:#A1ABAD;}
	.st259{fill:none;stroke:#FFFFFF;stroke-width:0.4429;stroke-linecap:round;stroke-linejoin:round;stroke-miterlimit:10;}
	.st260{fill-rule:evenodd;clip-rule:evenodd;fill:#FD6141;}
	.st261{opacity:0.5;}
	.st262{fill-rule:evenodd;clip-rule:evenodd;fill:#DD4026;}
	.st263{clip-path:url(#SVGID_79_);fill:#DD4026;}
	.st264{fill:#F7B614;}
	.st265{opacity:0.5;fill:#FFBE57;}
	.st266{clip-path:url(#SVGID_81_);fill:#DD4026;}
	.st267{fill:none;stroke:#FFFFFF;stroke-width:0.4429;stroke-linecap:round;stroke-miterlimit:10;}
	.st268{opacity:0.3;fill:#764582;}
</style>
<g>
	<g>
		<path class="st214" d="M461.6,260.5c-1.6-8.5-17.4-9.9-17.4-9.9s9.2-15.3,2.7-22.3c-6.5-6.9-21.5,9.4-21.5,9.4s-4.9-10.3-12.3,0
			c0,0-12.2-9.4-22.8-4.5c-7.6,3.4-6.5,12.5-5.2,17.4h-208c-0.2-0.4-0.4-0.7-0.7-1c-7-8.5-27.4-4.1-27.4-4.1s8.5-21-5.5-27.4
			c-14-6.4-30.3,6-30.3,6c-9.7-13.6-16.3,0-16.3,0s-19.8-21.6-28.5-12.4c-8.6,9.2,3.5,29.5,3.5,29.5s-20.8,1.9-23,13.1
			c-2.2,11.2,36,22.8,36,22.8l349.4,0.7C434.4,277.8,463.2,269,461.6,260.5z"/>
		<g>
			<path class="st215" d="M104.2,273.8C98,256,88.4,239.4,76.2,225"/>
			<path class="st215" d="M104.2,274.4c0.5-14,1.9-28.1,4.4-41.9"/>
			<path class="st215" d="M100.5,264.7c-9.1-4.5-18.8-7.6-28.8-9.3"/>
			<path class="st215" d="M91.2,245.6c1.8-4.2,3.1-8.7,3.7-13.3"/>
		</g>
		<g>
			<path class="st216" d="M418.6,275.4c5-14.2,12.7-27.6,22.4-39.1"/>
			<path class="st216" d="M418.6,275.9c-0.4-11.2-1.6-22.5-3.5-33.5"/>
			<path class="st216" d="M421.6,268.1c7.3-3.6,15-6.1,23-7.4"/>
			<path class="st216" d="M429,252.8c-1.5-3.4-2.5-7-3-10.7"/>
		</g>
		<g>
			<g>
				<g>
					<path class="st1" d="M86.4,216.7c0.2,0,0.3,0.1,0.4,0.2c0.1,0.1,0.2,0.2,0.3,0.4c0.1,0.2,0,0.4-0.2,0.5c-0.1,0-0.2,0-0.2,0
						c-0.2,0-0.3-0.1-0.4-0.2c-0.1-0.1-0.2-0.2-0.3-0.4c-0.1-0.2,0-0.4,0.2-0.5C86.3,216.7,86.4,216.6,86.4,216.7z"/>
				</g>
				<g>
					<path class="st1" d="M87.9,217.8c0.2,0,0.3,0.1,0.4,0.2c0.1,0.1,0.2,0.2,0.3,0.4c0.1,0.2,0,0.4-0.2,0.5c-0.1,0-0.2,0-0.2,0
						c-0.2,0-0.3-0.1-0.4-0.2c-0.1-0.1-0.2-0.2-0.3-0.4c-0.1-0.2,0-0.4,0.2-0.5C87.7,217.8,87.8,217.8,87.9,217.8z"/>
				</g>
				<g>
					<path class="st1" d="M89.3,219c0.2,0,0.3,0.1,0.4,0.2c0.1,0.1,0.2,0.2,0.3,0.4c0.1,0.2,0,0.4-0.2,0.5c-0.1,0-0.2,0-0.2,0
						c-0.2,0-0.3-0.1-0.4-0.2c-0.1-0.1-0.2-0.2-0.3-0.4c-0.1-0.2,0-0.4,0.2-0.5C89.1,219,89.2,219,89.3,219z"/>
				</g>
				<g>
					<path class="st1" d="M91.7,221.2c0.2,0.1,0.3,0.2,0.4,0.3c0.1,0.1,0.2,0.2,0.3,0.4c0.1,0.2,0,0.4-0.2,0.5c-0.1,0-0.2,0-0.2,0
						c-0.2-0.1-0.3-0.2-0.4-0.3c-0.1-0.1-0.2-0.2-0.3-0.4c-0.1-0.2,0-0.4,0.2-0.5C91.5,221.1,91.6,221.1,91.7,221.2z"/>
				</g>
				<g>
					<path class="st1" d="M93.3,222.8c0.1,0,0.2,0.1,0.3,0.1c0.1,0.1,0.1,0.1,0.1,0.3c0,0.2-0.2,0.5-0.4,0.5c0,0-0.1,0-0.1,0
						c-0.1,0-0.2-0.1-0.3-0.1c-0.1-0.1-0.1-0.1-0.1-0.3C92.8,223,93,222.8,93.3,222.8C93.3,222.8,93.3,222.8,93.3,222.8z"/>
				</g>
				<g>
					<path class="st1" d="M94.7,224.2c0.1,0,0.2,0.1,0.3,0.1c0.1,0.1,0.1,0.2,0.1,0.3c0,0.2-0.2,0.5-0.4,0.5c0,0-0.1,0-0.1,0
						c-0.1,0-0.2-0.1-0.3-0.1c-0.1-0.1-0.1-0.1-0.1-0.3C94.2,224.4,94.3,224.2,94.7,224.2C94.6,224.2,94.6,224.2,94.7,224.2z"/>
				</g>
			</g>
			<g>
				<g>
					<path class="st1" d="M70.5,211.9c1.2-0.8,2.6-1,4-1.1c1.4,0,2.8,0.4,4,0.9c1.3,0.5,2.5,1.2,3.6,1.9c1.1,0.7,2.2,1.5,3.3,2.4
						c0.1,0.1,0.2,0.3,0,0.5c-0.1,0.1-0.3,0.2-0.5,0.1c-1.1-0.8-2.2-1.5-3.3-2.2c-1.1-0.7-2.3-1.3-3.5-1.8c-1.2-0.5-2.5-0.9-3.7-0.9
						c-1.3,0-2.6,0.2-3.6,0.8c-0.2,0.1-0.4,0-0.5-0.1C70.3,212.2,70.4,212,70.5,211.9z"/>
				</g>
				<g>
					<path class="st1" d="M70.1,213c0,0.1-0.1,0.2-0.2,0.3c-0.1,0.1-0.2,0.2-0.3,0.2c-0.2,0.1-0.4,0-0.5-0.3c0-0.1,0-0.1,0-0.2
						c0-0.2,0.1-0.3,0.2-0.4c0.1-0.1,0.2-0.2,0.4-0.2c0.2,0,0.4,0.1,0.5,0.3C70.2,212.8,70.2,212.9,70.1,213z"/>
				</g>
				<g>
					<path class="st1" d="M69.2,214c0,0.2-0.1,0.3-0.1,0.4c-0.1,0.1-0.1,0.2-0.3,0.3c-0.2,0.1-0.4,0.1-0.5-0.1
						c0-0.1-0.1-0.1-0.1-0.2c0-0.2,0-0.3,0.1-0.4c0.1-0.1,0.2-0.2,0.3-0.3c0.2-0.1,0.4,0,0.5,0.2C69.2,213.9,69.2,214,69.2,214z"/>
				</g>
				<g>
					<path class="st1" d="M68.5,215.3c-0.1,0.3-0.1,0.5-0.2,0.8l-0.2,0.8c-0.1,0.5-0.2,1-0.4,1.6c-0.1,0.2-0.2,0.3-0.4,0.2
						c-0.2,0-0.3-0.2-0.3-0.3c0-0.6,0.1-1.1,0.2-1.7l0.3-0.8c0.1-0.3,0.2-0.5,0.4-0.8c0.1-0.2,0.3-0.2,0.5-0.1
						C68.4,215,68.5,215.2,68.5,215.3z"/>
				</g>
				<g>
					<path class="st1" d="M67.6,219.8c0.1,0.1,0.1,0.2,0.1,0.2c0,0.1,0,0.2-0.1,0.2c-0.2,0.2-0.5,0.2-0.7,0l0,0
						c-0.1-0.1-0.1-0.2-0.1-0.3c0-0.1,0-0.2,0.1-0.2C67.1,219.5,67.4,219.6,67.6,219.8L67.6,219.8z"/>
				</g>
				<g>
					<path class="st1" d="M67.6,221.4c0.1,0.1,0.1,0.2,0.1,0.2c0,0.1,0,0.2-0.1,0.2c-0.2,0.2-0.5,0.2-0.7,0l0,0
						c-0.1-0.1-0.1-0.2-0.1-0.2c0-0.1,0-0.2,0.1-0.3C67.1,221.2,67.4,221.2,67.6,221.4L67.6,221.4z"/>
				</g>
			</g>
		</g>
		<g>
			<g>
				<g>
					<path class="st1" d="M446.4,238.7c0,0.2,0,0.4,0,0.5c0,0.2-0.1,0.3-0.2,0.5c-0.1,0.2-0.4,0.2-0.5,0.1c-0.1-0.1-0.1-0.1-0.1-0.2
						c0-0.2,0-0.3,0-0.5c0-0.2,0.1-0.3,0.2-0.5c0.1-0.2,0.4-0.2,0.5-0.1C446.4,238.6,446.4,238.6,446.4,238.7z"/>
				</g>
				<g>
					<path class="st1" d="M446,240.6c0,0.2,0,0.4,0,0.5c-0.1,0.2-0.1,0.3-0.2,0.5c-0.1,0.2-0.4,0.2-0.5,0c-0.1-0.1-0.1-0.1-0.1-0.2
						c0-0.2,0-0.3,0-0.5c0.1-0.2,0.1-0.3,0.2-0.5c0.1-0.2,0.4-0.2,0.5,0C445.9,240.5,445.9,240.6,446,240.6z"/>
				</g>
				<g>
					<path class="st1" d="M445.4,242.5c0,0.2,0,0.4-0.1,0.5c-0.1,0.2-0.1,0.3-0.3,0.5c-0.2,0.2-0.4,0.2-0.5,0
						c-0.1-0.1-0.1-0.1-0.1-0.2c0-0.2,0-0.3,0.1-0.5c0.1-0.2,0.1-0.3,0.2-0.5c0.1-0.2,0.4-0.2,0.5,0
						C445.4,242.4,445.4,242.4,445.4,242.5z"/>
				</g>
				<g>
					<path class="st1" d="M444.3,245.8c0,0.2,0,0.4-0.1,0.5c-0.1,0.2-0.1,0.3-0.3,0.4c-0.2,0.2-0.4,0.1-0.5,0
						c-0.1-0.1-0.1-0.1-0.1-0.2c0-0.2,0-0.3,0.1-0.5c0.1-0.2,0.1-0.3,0.3-0.4c0.2-0.2,0.4-0.2,0.5,0
						C444.3,245.6,444.3,245.7,444.3,245.8z"/>
				</g>
				<g>
					<path class="st1" d="M443.5,248.1c0,0.1,0,0.2,0,0.3c0,0.1-0.1,0.2-0.2,0.3c-0.2,0.1-0.5,0-0.6-0.2c0,0,0-0.1,0-0.1
						c0-0.1,0-0.2,0-0.3c0-0.1,0.1-0.2,0.2-0.3C443,247.7,443.3,247.8,443.5,248.1C443.4,248.1,443.5,248.1,443.5,248.1z"/>
				</g>
				<g>
					<path class="st1" d="M442.6,250c0,0.1,0,0.2,0,0.3c-0.1,0.1-0.1,0.2-0.2,0.2c-0.2,0.1-0.5,0-0.6-0.2c0,0,0-0.1,0-0.1
						c0-0.1,0-0.2,0-0.3c0.1-0.1,0.1-0.2,0.2-0.2C442.2,249.7,442.5,249.7,442.6,250C442.6,250,442.6,250,442.6,250z"/>
				</g>
			</g>
			<g>
				<g>
					<path class="st1" d="M436.6,230.6c1.2-0.7,2.6-1.4,4-1.8c1.4-0.4,3.1-0.5,4.5,0.3c0.7,0.4,1.2,1.1,1.5,1.8
						c0.3,0.7,0.4,1.5,0.5,2.2c0.1,1.5-0.1,2.9-0.4,4.4c0,0.2-0.2,0.3-0.4,0.3c-0.2,0-0.3-0.2-0.3-0.4c0.2-1.4,0.3-2.8,0.2-4.2
						c-0.1-1.3-0.5-2.7-1.6-3.4c-1.1-0.7-2.5-0.6-3.8-0.3c-1.3,0.3-2.6,0.9-3.9,1.6c-0.2,0.1-0.4,0-0.5-0.1
						C436.3,230.9,436.4,230.7,436.6,230.6z"/>
				</g>
				<g>
					<path class="st1" d="M436,231.6c-0.1,0.1-0.2,0.2-0.3,0.3c-0.1,0.1-0.2,0.1-0.4,0.2c-0.2,0-0.4-0.2-0.4-0.4c0-0.1,0-0.1,0-0.2
						c0.1-0.1,0.2-0.2,0.3-0.3c0.1-0.1,0.3-0.1,0.4-0.2c0.2,0,0.4,0.2,0.4,0.4C436.1,231.5,436,231.6,436,231.6z"/>
				</g>
				<g>
					<path class="st1" d="M434.7,232.5c-0.1,0.1-0.2,0.2-0.3,0.3c-0.1,0.1-0.2,0.2-0.4,0.2c-0.2,0-0.4-0.1-0.4-0.4
						c0-0.1,0-0.1,0-0.2c0.1-0.2,0.2-0.2,0.3-0.3c0.1-0.1,0.2-0.2,0.4-0.2c0.2,0,0.4,0.1,0.4,0.4
						C434.7,232.4,434.7,232.5,434.7,232.5z"/>
				</g>
				<g>
					<path class="st1" d="M433.3,233.5c-0.4,0.4-0.9,0.8-1.3,1.1c-0.5,0.4-0.9,0.7-1.4,1c-0.2,0.1-0.4,0.1-0.5-0.1
						c-0.1-0.1-0.1-0.3,0-0.4c0.4-0.4,0.8-0.8,1.3-1.2c0.5-0.4,0.9-0.7,1.5-1c0.2-0.1,0.4,0,0.5,0.1
						C433.5,233.2,433.4,233.4,433.3,233.5z"/>
				</g>
				<g>
					<path class="st1" d="M429.5,236.7c0,0.1-0.1,0.2-0.1,0.2c-0.1,0-0.1,0.1-0.3,0.1c-0.3,0-0.5-0.2-0.5-0.5l0,0
						c0-0.1,0.1-0.2,0.1-0.2c0.1-0.1,0.1-0.1,0.3-0.1C429.3,236.2,429.5,236.4,429.5,236.7L429.5,236.7z"/>
				</g>
				<g>
					<path class="st1" d="M428.3,237.9c0,0.1-0.1,0.2-0.1,0.3c-0.1,0.1-0.1,0.1-0.3,0.1c-0.3,0-0.5-0.2-0.5-0.5l0,0
						c0-0.1,0.1-0.2,0.1-0.3c0.1-0.1,0.1-0.1,0.3-0.1C428.1,237.4,428.3,237.6,428.3,237.9L428.3,237.9z"/>
				</g>
			</g>
		</g>
	</g>
	<g>
		<path class="st217" d="M259.7,184.5c-53.2-0.8-195.5,43.2-212.9,0c-14.3-35.6,39.2-32.9,42.3-62.4c3.1-29.5-10.8-42,11.4-55.7
			c22.2-13.6,58.4,5.3,82.3-13.6c23.9-19,36.4-32.8,90.2-39.3s93.6,54.1,116.6,60.1c23,6,56-9.3,72.1,9.3s-36.1,59.6-24.9,76.8
			c11.2,17.1,38.6,26.4,28,50.4C454.2,234,311.5,185.3,259.7,184.5z"/>
		<g>
			<g>
				<g>
					<path class="st1" d="M47.3,168c0-0.2,0.1-0.5,0.1-0.7c0.1-0.2,0.2-0.4,0.3-0.6c0.2-0.2,0.4-0.2,0.6,0c0,0.1,0.1,0.2,0.1,0.3
						c0,0.2-0.1,0.4-0.1,0.6c-0.1,0.2-0.2,0.4-0.3,0.6c-0.2,0.2-0.4,0.2-0.6,0.1C47.4,168.2,47.3,168.1,47.3,168z"/>
				</g>
				<g>
					<path class="st1" d="M48.3,165.6c0-0.2,0.1-0.4,0.2-0.6c0.1-0.2,0.2-0.4,0.4-0.6c0.2-0.2,0.5-0.2,0.6,0.1c0,0.1,0,0.2,0,0.3
						c0,0.2-0.1,0.4-0.2,0.6c-0.1,0.2-0.2,0.4-0.4,0.5c-0.2,0.2-0.4,0.2-0.6,0C48.3,165.8,48.3,165.7,48.3,165.6z"/>
				</g>
				<g>
					<path class="st1" d="M49.6,163.4c0.1-0.2,0.2-0.4,0.3-0.6c0.1-0.2,0.3-0.4,0.5-0.5c0.2-0.2,0.5-0.1,0.6,0.1c0,0.1,0,0.2,0,0.3
						c-0.1,0.2-0.2,0.4-0.3,0.6c-0.1,0.2-0.3,0.4-0.4,0.5c-0.2,0.2-0.5,0.1-0.6-0.1C49.5,163.6,49.5,163.5,49.6,163.4z"/>
				</g>
				<g>
					<path class="st1" d="M52.4,159.8c0.1-0.2,0.3-0.4,0.4-0.6c0.2-0.2,0.3-0.3,0.5-0.4c0.3-0.1,0.5,0,0.5,0.2c0,0.1,0,0.2,0,0.3
						c-0.1,0.2-0.3,0.4-0.4,0.5c-0.2,0.1-0.3,0.3-0.5,0.4c-0.2,0.1-0.5,0-0.5-0.2C52.3,160,52.3,159.9,52.4,159.8z"/>
				</g>
				<g>
					<path class="st1" d="M54.7,157.6c0.1-0.2,0.2-0.2,0.3-0.3c0.1-0.1,0.2-0.2,0.4-0.2c0.3,0,0.5,0.2,0.5,0.4c0,0,0,0.1,0,0.1
						c-0.1,0.1-0.2,0.2-0.2,0.3c-0.1,0.1-0.2,0.2-0.4,0.2c-0.3,0-0.5-0.1-0.5-0.4C54.7,157.6,54.7,157.6,54.7,157.6z"/>
				</g>
				<g>
					<path class="st1" d="M56.9,155.9c0.1-0.1,0.2-0.2,0.3-0.3c0.1-0.1,0.2-0.1,0.4-0.1c0.3,0,0.5,0.2,0.4,0.5c0,0,0,0.1,0,0.1
						c-0.1,0.1-0.2,0.2-0.3,0.3c-0.1,0.1-0.2,0.1-0.4,0.1c-0.3,0-0.5-0.2-0.4-0.5C56.9,156,56.9,155.9,56.9,155.9z"/>
				</g>
			</g>
			<g>
				<g>
					<path class="st1" d="M53.1,190.5c-0.6-0.7-1.2-1.5-1.8-2.2c-0.5-0.8-1-1.6-1.5-2.4c-0.4-0.8-0.9-1.7-1.3-2.5l-1-2.6
						c-0.6-1.8-1-3.7-1.1-5.6c-0.1-1.9,0.1-3.8,0.6-5.7c0.1-0.3,0.3-0.4,0.5-0.4c0.2,0.1,0.3,0.3,0.2,0.5c-0.4,1.8-0.5,3.6-0.4,5.4
						c0.1,1.8,0.5,3.6,1.1,5.3l1,2.6c0.4,0.8,0.8,1.6,1.2,2.5c0.5,0.8,0.9,1.6,1.4,2.4c0.6,0.7,1.1,1.5,1.7,2.2
						c0.2,0.2,0.2,0.4,0,0.6C53.5,190.7,53.3,190.7,53.1,190.5z"/>
				</g>
				<g>
					<path class="st1" d="M54.4,191.1c0.2,0.1,0.3,0.2,0.4,0.3c0.1,0.1,0.3,0.3,0.3,0.4c0.1,0.3,0,0.5-0.2,0.5c-0.1,0-0.2,0-0.2,0
						c-0.2-0.1-0.3-0.2-0.5-0.3c-0.1-0.1-0.2-0.3-0.3-0.5c-0.1-0.3,0-0.5,0.3-0.5C54.3,191,54.4,191,54.4,191.1z"/>
				</g>
				<g>
					<path class="st1" d="M56,192.5c0.2,0.1,0.3,0.2,0.5,0.3c0.1,0.1,0.3,0.2,0.4,0.4c0.1,0.2,0.1,0.5-0.2,0.6c-0.1,0-0.2,0-0.2,0
						c-0.2-0.1-0.4-0.2-0.5-0.3c-0.1-0.1-0.3-0.3-0.4-0.5c-0.1-0.3,0-0.5,0.2-0.5C55.8,192.5,55.9,192.5,56,192.5z"/>
				</g>
				<g>
					<path class="st1" d="M57.6,193.8c0.7,0.4,1.3,0.8,1.9,1.1c0.6,0.4,1.3,0.7,2,1.1c0.2,0.1,0.3,0.4,0.2,0.5
						c-0.1,0.1-0.3,0.2-0.5,0.1c-0.7-0.2-1.4-0.6-2.1-1c-0.7-0.4-1.3-0.8-1.9-1.3c-0.2-0.2-0.2-0.4-0.1-0.6
						C57.2,193.7,57.5,193.7,57.6,193.8z"/>
				</g>
				<g>
					<path class="st1" d="M63.3,196.7c0.1,0,0.2,0,0.3,0c0.1,0,0.2,0.1,0.3,0.2c0.2,0.3,0.1,0.5-0.2,0.7l0,0c-0.1,0-0.2,0-0.4,0
						c-0.1,0-0.2-0.1-0.3-0.2C62.9,197.1,63,196.8,63.3,196.7L63.3,196.7z"/>
				</g>
				<g>
					<path class="st1" d="M65.5,197.3c0.1-0.1,0.2,0,0.3,0c0.1,0,0.2,0.1,0.3,0.1c0.2,0.2,0.2,0.5-0.1,0.7l0,0c-0.1,0.1-0.2,0-0.4,0
						c-0.1,0-0.2-0.1-0.3-0.2C65.1,197.7,65.2,197.4,65.5,197.3L65.5,197.3z"/>
				</g>
			</g>
		</g>
		<path class="st218" d="M261.5,41c-24.9,4.1-44.3,15.4-58.2,34c-12.9,17-10.2,38.9,0.9,55.9c10.2,16.2,29.5,21.9,48,25.9
			c51.7,12.2,98.8,27.6,147.7,42.9c21.2,6.5,46.2,16.2,64.6,1.6c0,0,0,0,0,0c1.8-1.4,2.6-3.6,2.2-5.7c-2.9-14.3-21.3-22.9-30-36.2
			c-11.2-17.1,41.1-58.2,24.9-76.8c-16.2-18.6-49.1-3.3-72.1-9.3c-2.7-0.7-5.7-2.2-8.9-4.2C339.5,60.1,306.9,34,261.5,41z"/>
		<path class="st219" d="M444.8,212.6c-21.7,0-59.1-8.3-95.2-16.4c-35.5-7.9-69.1-15.4-89.8-15.8c-0.5,0-1.1,0-1.6,0
			c-17,0-42.1,4.1-68.7,8.4c-30.6,5-65.4,10.6-92.3,10.6c-26.5,0-41.6-5.3-46-16.3c-6.8-17,3.2-23,17.2-31.4
			c11.2-6.7,23.8-14.3,25.4-29.2c1.1-10.5,0.1-19.1-0.7-25.9c-1.5-12.8-2.2-19.2,10.1-26.8c5.3-3.3,11.9-4.7,22.1-4.7
			c3.9,0,7.8,0.2,12,0.4c4.2,0.2,8.6,0.4,13,0.4c10.6,0,24.3-1.1,35.6-10.1c2.2-1.7,4.3-3.4,6.3-5.1c19.7-15.9,33.9-27.4,81.3-33.2
			c2.5-0.3,5-0.5,7.5-0.5c30.1,0,55.7,21.8,76.3,39.3c12.3,10.5,22,18.7,30.8,21c4.3,1.1,9.2,1.7,15,1.7c5.4,0,11-0.5,16.4-0.9
			c5.4-0.4,10.4-0.9,15.3-0.9c11.3,0,18.2,2.4,23.1,8c6.7,7.7-3.6,23.3-12.6,37c-9.9,15-19.2,29.2-12.6,39.3
			c3.8,5.8,9.2,10.7,14.4,15.3c10.9,9.8,19.5,17.6,13.3,31.6C459.3,211.2,453.8,212.6,444.8,212.6z"/>
	</g>
	<g>
		<path class="st220" d="M410.7,256.6H132.8c-1.9,0-3.4-1.5-3.4-3.4V102.8c0-1.9,1.5-3.4,3.4-3.4h277.9c1.9,0,3.4,1.5,3.4,3.4v150.4
			C414.1,255,412.6,256.6,410.7,256.6z"/>
		<path class="st221" d="M405.7,250.6H127.9c-1.9,0-3.4-1.5-3.4-3.4V96.8c0-1.9,1.5-3.4,3.4-3.4h277.9c1.9,0,3.4,1.5,3.4,3.4v150.4
			C409.2,249.1,407.6,250.6,405.7,250.6z"/>
		<g>
			<path class="st222" d="M402.3,244.7H121.3c-1,0-1.9-0.8-1.9-1.9V89.4c0-1,0.8-1.9,1.9-1.9h280.9c1,0,1.9,0.8,1.9,1.9v153.4
				C404.2,243.8,403.3,244.7,402.3,244.7z"/>
			<path class="st223" d="M135.3,100.9h18.2v-1.1h-18.2V100.9z M131,101.5h2.1v-2.1H131V101.5z M135.3,106.8h18.2v-1.1h-18.2V106.8z
				 M131,107.4h2.1v-2.1H131V107.4z M135.3,112.7h18.2v-1.1h-18.2V112.7z M131,113.3h2.1v-2.1H131V113.3z"/>
			<path class="st224" d="M198.5,201.1h-54c-7.4,0-13.4-6-13.4-13.4v-51.5c0-7.4,6-13.4,13.4-13.4h54c7.4,0,13.4,6,13.4,13.4v51.5
				C211.9,195.1,205.9,201.1,198.5,201.1z"/>
			<path class="st224" d="M289.3,201.1h-54c-7.4,0-13.4-6-13.4-13.4v-51.5c0-7.4,6-13.4,13.4-13.4h54c7.4,0,13.4,6,13.4,13.4v51.5
				C302.7,195.1,296.7,201.1,289.3,201.1z"/>
			<path class="st224" d="M380.1,201.1h-54c-7.4,0-13.4-6-13.4-13.4v-51.5c0-7.4,6-13.4,13.4-13.4h54c7.4,0,13.4,6,13.4,13.4v51.5
				C393.6,195.1,387.6,201.1,380.1,201.1z"/>
			<g>
				<g>
					<g>
						<path class="st220" d="M373.8,107.4l-1.4-9.1c0-0.2-0.2-0.4-0.5-0.4l-2.4,0l0-1.1l2.4,0c0.8,0,1.5,0.6,1.6,1.4l0.2,1l15.4,0.1
							l-1.6,7.1L373.8,107.4z M373.9,100.3l0.9,5.9l11.8-0.8l1.1-5L373.9,100.3z"/>
					</g>
					<g>
						<path class="st220" d="M387.7,109.5l-13.3-0.1c-0.3,0-0.6-0.1-0.7-0.3c-0.2-0.2-0.3-0.5-0.2-0.8l0.3-1.6l1.1,0.2l-0.2,1.4
							l13.1,0.1L387.7,109.5z"/>
					</g>
					<path class="st225" d="M377.8,111.7c0,0.8-0.7,1.5-1.5,1.5c-0.8,0-1.5-0.7-1.5-1.5c0-0.8,0.7-1.5,1.5-1.5
						C377.1,110.2,377.8,110.9,377.8,111.7z"/>
					<path class="st225" d="M385.7,111.8c0,0.8-0.7,1.5-1.5,1.5c-0.8,0-1.5-0.7-1.5-1.5c0-0.8,0.7-1.5,1.5-1.5
						C385.1,110.2,385.7,110.9,385.7,111.8z"/>
				</g>
			</g>
			<line class="st226" x1="221.5" y1="206.6" x2="302.7" y2="206.6"/>
		</g>
		<g>
			<path class="st227" d="M293.7,172.5c0,1.1-13.3,2-29.6,2c-16.4,0-29.6-0.9-29.6-2c0-1.1,13.3-2,29.6-2
				C280.5,170.5,293.7,171.4,293.7,172.5z"/>
			<g>
				<g>
					<path class="st228" d="M240.5,151.5c0,0,0.6-1.5,5.8,0.5c2.8,1.1,6.5,3.6,13.6,0.5c0,0,2.2,7.2-6.9,6.6
						C243.9,158.5,240.5,151.5,240.5,151.5z"/>
					<path class="st229" d="M291.1,163.1l2.1,0.6c1.2,0.6,1.1,3.8,0.1,4.8c0,0-8.5,5-33.4,5.4c-14.3-0.3-23.9-2.7-24.4-3.7
						c-0.4-1-0.5-3.2-0.4-4.7l2.7-3.1L291.1,163.1z"/>
					<path class="st230" d="M240.5,151.5c0,0-2.8,2.7-3.1,4.9c-0.5,3.2-1,4.8-0.7,8c0,0,8.1,3.2,21.5,3.3c6.6,0.1,16.2-0.3,23.2-1.6
						c5.9-1.1,11.8-2.5,11.8-2.5c-1.7-6-6.9-3.8-14.3-6.1c-5-1.6-17-11.5-17-11.5s-2.8,2.1-2.9,3.1c-0.1,0.7,1.2,2.4,1.2,2.4
						s-0.3,5.7-6,6C248.7,158.1,240.5,151.5,240.5,151.5z"/>
					<path class="st231" d="M293.2,163.7c0,0-4.5,3-11,4.3c-6.7,1.3-17.6,1.7-24.3,1.5c-7.5-0.3-22.7-3.9-22.7-3.9"/>
					<path class="st232" d="M260.2,151.6c0,0,2.9,0,3.9,0.4c2.4,0.8,9.3,6.4,14.5,7"/>
					<path class="st229" d="M268.8,151.4l-2.3,3.7c-0.3,0.4-1.7-0.6-1.4-1l2.1-3.9C267.7,149.6,269.2,150.8,268.8,151.4z"/>
					<path class="st229" d="M272.1,153.4l-2.4,4c-0.3,0.7-1.8,0-1.6-0.7l2.4-4.5C271.1,151.6,272.6,152.8,272.1,153.4z"/>
					<path class="st229" d="M275.5,155.4l-2.5,4c-0.3,0.6-1.8-0.1-1.5-0.7l2.4-4.5C274.4,153.6,276,154.8,275.5,155.4z"/>
					<path class="st229" d="M261.8,153.5c0-1.1,1.8-1,1.8,0.1l-0.7,6.6c0,1-1,1-1,0L261.8,153.5z"/>
					<path class="st232" d="M255.6,167.8c0,0,0.8-3,3.6-4.3c3.2-1.5,10.7,1.3,14.9-1c1.2-0.7,4.4-3.5,4.4-3.5"/>
					<path class="st232" d="M238.1,154.7c0,0,4.5,2,6.6,4.7c0.9,1.2,2.2,7.6,2.2,7.6"/>
				</g>
			</g>
		</g>
		<g>
			<path class="st227" d="M200.6,172.5c0,1.1-13.3,2-29.6,2s-29.6-0.9-29.6-2c0-1.1,13.3-2,29.6-2S200.6,171.4,200.6,172.5z"/>
			<g>
				<g>
					<path class="st228" d="M147.4,151.5c0,0,0.6-1.5,5.8,0.5c2.8,1.1,6.5,3.6,13.6,0.5c0,0,2.2,7.2-6.9,6.6
						C150.8,158.5,147.4,151.5,147.4,151.5z"/>
					<path class="st229" d="M198,163.1l2.1,0.6c1.2,0.6,1.1,3.8,0.1,4.8c0,0-8.5,5-33.4,5.4c-14.3-0.3-23.9-2.7-24.4-3.7
						c-0.4-1-0.5-3.2-0.4-4.7l2.7-3.1L198,163.1z"/>
					<path class="st217" d="M147.4,151.5c0,0-2.8,2.7-3.1,4.9c-0.5,3.2-1,4.8-0.7,8c0,0,8.1,3.2,21.5,3.3c6.6,0.1,16.2-0.3,23.2-1.6
						c5.9-1.1,11.8-2.5,11.8-2.5c-1.7-6-6.9-3.8-14.3-6.1c-5-1.6-17-11.5-17-11.5s-2.8,2.1-2.9,3.1c-0.1,0.7,1.2,2.4,1.2,2.4
						s-0.3,5.7-6,6C155.6,158.1,147.4,151.5,147.4,151.5z"/>
					<path class="st231" d="M200.1,163.7c0,0-4.5,3-11,4.3c-6.7,1.3-17.6,1.7-24.3,1.5c-7.5-0.3-22.7-3.9-22.7-3.9"/>
					<path class="st233" d="M167.1,151.6c0,0,2.9,0,3.9,0.4c2.4,0.8,9.3,6.4,14.5,7"/>
					<path class="st229" d="M175.7,151.4l-2.3,3.7c-0.3,0.4-1.7-0.6-1.4-1l2.1-3.9C174.6,149.6,176.1,150.8,175.7,151.4z"/>
					<path class="st229" d="M179,153.4l-2.4,4c-0.3,0.7-1.9,0-1.6-0.7l2.4-4.5C177.9,151.6,179.5,152.8,179,153.4z"/>
					<path class="st229" d="M182.4,155.4l-2.5,4c-0.3,0.6-1.8-0.1-1.5-0.7l2.4-4.5C181.3,153.6,182.9,154.8,182.4,155.4z"/>
					<path class="st229" d="M168.6,153.5c0-1.1,1.8-1,1.8,0.1l-0.7,6.6c0,1-1,1-1,0L168.6,153.5z"/>
					<path class="st233" d="M162.5,167.8c0,0,0.8-3,3.6-4.3c3.2-1.5,10.7,1.3,14.9-1c1.2-0.7,4.4-3.5,4.4-3.5"/>
					<path class="st233" d="M145,154.7c0,0,4.5,2,6.6,4.7c0.9,1.2,2.2,7.6,2.2,7.6"/>
				</g>
			</g>
		</g>
		<g>
			<path class="st227" d="M382.6,172.5c0,1.1-13.3,2-29.6,2c-16.4,0-29.6-0.9-29.6-2c0-1.1,13.3-2,29.6-2
				C369.3,170.5,382.6,171.4,382.6,172.5z"/>
			<g>
				<g>
					<path class="st234" d="M329.4,151.5c0,0,0.6-1.5,5.8,0.5c2.8,1.1,6.5,3.6,13.6,0.5c0,0,2.2,7.2-6.9,6.6
						C332.7,158.5,329.4,151.5,329.4,151.5z"/>
					<path class="st229" d="M380,163.1l2.1,0.6c1.2,0.6,1.1,3.8,0.1,4.8c0,0-8.5,5-33.4,5.4c-14.3-0.3-23.9-2.7-24.4-3.7
						c-0.4-1-0.5-3.2-0.4-4.7l2.7-3.1L380,163.1z"/>
					<path class="st214" d="M329.4,151.5c0,0-2.8,2.7-3.1,4.9c-0.5,3.2-1,4.8-0.7,8c0,0,8.1,3.2,21.5,3.3c6.6,0.1,16.2-0.3,23.2-1.6
						c5.9-1.1,11.8-2.5,11.8-2.5c-1.7-6-6.9-3.8-14.3-6.1c-5-1.6-17-11.5-17-11.5s-2.8,2.1-2.9,3.1c-0.1,0.7,1.2,2.4,1.2,2.4
						s-0.3,5.7-6,6C337.6,158.1,329.4,151.5,329.4,151.5z"/>
					<path class="st231" d="M382.1,163.7c0,0-4.5,3-11,4.3c-6.7,1.3-17.6,1.7-24.3,1.5c-7.5-0.3-22.7-3.9-22.7-3.9"/>
					<path class="st233" d="M349.1,151.6c0,0,2.9,0,3.9,0.4c2.4,0.8,9.3,6.4,14.5,7"/>
					<path class="st229" d="M357.6,151.4l-2.3,3.7c-0.3,0.4-1.7-0.6-1.4-1l2.1-3.9C356.6,149.6,358.1,150.8,357.6,151.4z"/>
					<path class="st229" d="M361,153.4l-2.4,4c-0.3,0.7-1.8,0-1.6-0.7l2.4-4.5C359.9,151.6,361.5,152.8,361,153.4z"/>
					<path class="st229" d="M364.4,155.4l-2.5,4c-0.3,0.6-1.8-0.1-1.5-0.7l2.4-4.5C363.3,153.6,364.8,154.8,364.4,155.4z"/>
					<path class="st229" d="M350.6,153.5c0-1.1,1.8-1,1.8,0.1l-0.7,6.6c0,1-1,1-1,0L350.6,153.5z"/>
					<path class="st233" d="M344.5,167.8c0,0,0.8-3,3.6-4.3c3.2-1.5,10.7,1.3,14.9-1c1.2-0.7,4.4-3.5,4.4-3.5"/>
					<path class="st233" d="M327,154.7c0,0,4.5,2,6.6,4.7c0.9,1.2,2.2,7.6,2.2,7.6"/>
				</g>
			</g>
		</g>
		<g>
			<path class="st220" d="M230.6,137.2L230.6,137.2c0,0.6-0.1,0.7-0.4,0.7h-2.6c-0.3,0-0.4-0.2-0.4-0.7v-0.1c0-0.5,0.1-0.7,0.4-0.7
				h2.6C230.5,136.5,230.6,136.7,230.6,137.2z"/>
			<path class="st220" d="M236.6,133.6c0,1.8-1,2.2-1.9,2.2c-0.9,0-1.9-0.4-1.9-2.2c0-1.8,1-2.2,1.9-2.2
				C235.6,131.4,236.6,131.8,236.6,133.6z M234.1,133.6c0,0.5,0.1,1.1,0.6,1.1c0.5,0,0.6-0.6,0.6-1.1c0-0.5-0.1-1.1-0.6-1.1
				C234.2,132.5,234.1,133.1,234.1,133.6z M240.1,131.7c0,0,0,0.1-0.1,0.2l-4.5,8.5c-0.1,0.2-0.3,0.4-0.6,0.4h-0.6
				c-0.2,0-0.3-0.1-0.3-0.2c0-0.1,0-0.1,0.1-0.2l4.5-8.5c0.1-0.2,0.3-0.4,0.6-0.4h0.6C240,131.5,240.1,131.6,240.1,131.7z
				 M241.5,138.6c0,1.8-1,2.2-1.9,2.2c-0.9,0-1.9-0.4-1.9-2.2c0-1.8,1-2.2,1.9-2.2C240.5,136.4,241.5,136.8,241.5,138.6z M239,138.6
				c0,0.5,0.1,1.1,0.6,1.1c0.5,0,0.6-0.6,0.6-1.1c0-0.5-0.1-1.1-0.6-1.1C239.1,137.5,239,138.1,239,138.6z"/>
		</g>
		<g>
			<g>
				<path class="st230" d="M284.5,180.1v0.9c1.2,0,3.4,0.5,3.4,1.2c0,0.3-0.5,1.1-0.7,1.1c-0.3,0-1.1-0.8-2.7-0.8v5.1
					c1.9,0.7,4.1,1.5,4.1,4.5c0,2.5-1.6,4-4.1,4.2v1.1c0,0.2-0.1,0.3-0.4,0.3c-0.3,0-0.4-0.1-0.4-0.3v-1.1c-2.4-0.1-4.3-1-4.3-1.6
					c0-0.3,0.5-1.2,0.8-1.2c0.3,0,1.4,1.1,3.5,1.2v-5.6c-1.9-0.7-4-1.5-4-4.3c0-2.1,1.6-3.6,4-3.9v-0.9c0-0.2,0.1-0.3,0.4-0.3
					C284.4,179.8,284.5,179.9,284.5,180.1z M281.6,185c0,1.2,0.9,1.8,2,2.3v-4.7C282.4,182.9,281.6,183.6,281.6,185z M284.5,194.7
					c1.3-0.2,2.2-1.2,2.2-2.6c0-1.4-1-2-2.2-2.5V194.7z"/>
			</g>
			<path class="st230" d="M274.8,197.1h-34.7c-1.9,0-3.5-1.6-3.5-3.5V193c0-1.9,1.6-3.5,3.5-3.5h34.7c1.9,0,3.5,1.6,3.5,3.5v0.5
				C278.3,195.5,276.7,197.1,274.8,197.1z"/>
		</g>
	</g>
	<g>
		<path class="st235" d="M528,360H2.1c-2,0-2.8-2.5-1.3-3.7l78.8-62.9c1.7-1.3,3.8-2.1,6.1-2.1h358.8c2.2,0,4.4,0.7,6.1,2.1
			l78.8,62.9C530.8,357.6,529.9,360,528,360z"/>
		<g>
			<path class="st236" d="M526,334.3H4.1L85,269.7c1.6-1.3,3.7-2,5.9-2h348.3c2.2,0,4.2,0.7,5.9,2L526,334.3z"/>
			<polygon class="st221" points="474.2,328.5 55.8,328.5 114.7,273.4 415.3,273.4 			"/>
			<polygon class="st1" points="469.1,328.5 61,328.5 118.4,275.8 411.6,275.8 			"/>
			<path class="st221" d="M513.3,351.6H16.8c-7,0-12.7-5.7-12.7-12.7v-4.6H526v4.6C526,346,520.3,351.6,513.3,351.6z"/>
			<line class="st237" x1="4.1" y1="341.1" x2="526" y2="341.1"/>
			<path class="st220" d="M179.5,346.1h-71.4c-2.3,0-4.2-1.9-4.2-4.2v-0.6c0-2.3,1.9-4.2,4.2-4.2h71.4c2.3,0,4.2,1.9,4.2,4.2v0.6
				C183.7,344.2,181.8,346.1,179.5,346.1z"/>
			<path class="st236" d="M179.9,346.1h-72.3c-2.1,0-3.8-1.7-3.8-3.8v-0.6c0-2.1,1.7-3.8,3.8-3.8h72.3c2.1,0,3.8,1.7,3.8,3.8v0.6
				C183.7,344.4,182,346.1,179.9,346.1z"/>
			<g>
				<polygon class="st221" points="435.6,283.5 465.3,309.8 481.2,309.8 481.2,307.7 435.6,281.5 				"/>
				<polygon class="st238" points="435.6,281.5 465.3,307.7 481.2,307.7 448.2,281.5 				"/>
			</g>
			<path class="st1" d="M85.9,294c0,3-5.6,5.4-12.5,5.4c-6.9,0-12.5-2.4-12.5-5.4c0-3,5.6-5.4,12.5-5.4
				C80.3,288.5,85.9,291,85.9,294z"/>
			<path class="st220" d="M82.2,293.6c0,1.9-3.9,3.4-8.7,3.4c-4.8,0-8.7-1.5-8.7-3.4c0-1.9,3.9-3.4,8.7-3.4
				C78.3,290.2,82.2,291.7,82.2,293.6z"/>
			<path class="st1" d="M74.5,292.8c0,0.6-1.3,1.2-3,1.2c-1.7,0-3-0.5-3-1.2c0-0.6,1.3-1.2,3-1.2C73.1,291.6,74.5,292.2,74.5,292.8z
				"/>
		</g>
	</g>
	<g>
		<g>
			<g>
				<g>
					<path class="st236" d="M422.6,73.7H135.2c-6.6,0-11.9-5.3-11.9-11.9v-1.8c0-6.6,5.3-11.9,11.9-11.9h287.5
						c6.6,0,11.9,5.3,11.9,11.9v1.8C434.5,68.4,429.2,73.7,422.6,73.7z"/>
					
						<ellipse transform="matrix(0.2394 -0.9709 0.9709 0.2394 -1.0002 120.6417)" class="st236" cx="76.5" cy="61" rx="12.8" ry="12.8"/>
					
						<ellipse transform="matrix(0.9491 -0.3149 0.3149 0.9491 -13.7897 36.5666)" class="st236" cx="106.3" cy="61" rx="12.8" ry="12.8"/>
				</g>
			</g>
			<polygon class="st236" points="452.2,47.5 456.4,56.6 466.3,57.8 459.1,64.6 460.9,74.4 452.2,69.6 443.5,74.4 445.4,64.6 
				438.1,57.8 448,56.6 			"/>
			<g>
				<g>
					<path class="st222" d="M422.6,69.3H135.2c-6.6,0-11.9-5.3-11.9-11.9v-1.8c0-6.6,5.3-11.9,11.9-11.9h287.5
						c6.6,0,11.9,5.3,11.9,11.9v1.8C434.5,64,429.2,69.3,422.6,69.3z"/>
					<g>
						<path class="st239" d="M198.4,51.8v0.5c1.1,0,2.2,0.5,2.2,0.9c0,0.3-0.4,1-0.6,1c-0.2,0-0.6-0.4-1.6-0.4v2.5
							c1.2,0.5,2.7,1,2.7,2.9c0,1.9-1.2,2.8-2.7,3v0.6c0,0.3-0.1,0.3-0.3,0.3c-0.3,0-0.4-0.1-0.4-0.3v-0.6c-1.8-0.1-2.9-0.7-2.9-1.1
							c0-0.4,0.5-1.1,0.7-1.1c0.2,0,1,0.7,2.2,0.7v-2.8c-1.2-0.5-2.7-1-2.7-2.9c0-1.7,1.2-2.5,2.7-2.7v-0.5c0-0.3,0.1-0.3,0.3-0.3
							C198.3,51.5,198.4,51.6,198.4,51.8z M196.7,54.9c0,0.5,0.4,0.9,0.9,1.1v-2.2C197,54.1,196.7,54.5,196.7,54.9z M198.4,60.6
							c0.5-0.2,0.9-0.6,0.9-1.2c0-0.6-0.4-0.9-0.9-1.2V60.6z"/>
						<path class="st239" d="M205.3,58.4v0.1c0,0.4-0.1,0.6-0.4,0.6h-2.8c-0.3,0-0.4-0.2-0.4-0.6v-0.1c0-0.4,0.1-0.6,0.4-0.6h2.8
							C205.2,57.8,205.3,58,205.3,58.4z"/>
						<path class="st239" d="M210.6,54.6c0,1.9-1.1,2.3-2,2.3c-0.9,0-2-0.4-2-2.3c0-1.9,1.1-2.3,2-2.3
							C209.5,52.3,210.6,52.7,210.6,54.6z M207.8,54.6c0,0.6,0.1,1.3,0.8,1.3c0.7,0,0.8-0.7,0.8-1.3c0-0.6-0.1-1.3-0.8-1.3
							C207.9,53.3,207.8,54,207.8,54.6z M214.4,52.5c0,0,0,0.1-0.1,0.2l-5.1,9.2c-0.1,0.2-0.3,0.3-0.6,0.3h-0.4
							c-0.2,0-0.3-0.1-0.3-0.2c0,0,0-0.1,0.1-0.2l5-9.2c0.1-0.2,0.3-0.3,0.6-0.3h0.4C214.3,52.3,214.4,52.4,214.4,52.5z M215.9,59.9
							c0,1.9-1.1,2.3-2,2.3c-0.9,0-2-0.4-2-2.3c0-1.9,1.1-2.3,2-2.3C214.8,57.6,215.9,58,215.9,59.9z M213.1,59.9
							c0,0.6,0.1,1.3,0.8,1.3c0.7,0,0.8-0.7,0.8-1.3c0-0.6-0.1-1.3-0.8-1.3C213.2,58.6,213.1,59.4,213.1,59.9z"/>
					</g>
					<path class="st239" d="M185.8,63.2h-25c-3.2,0-5.9-2.6-5.9-5.9l0,0c0-3.2,2.6-5.9,5.9-5.9h25c3.2,0,5.9,2.6,5.9,5.9l0,0
						C191.7,60.6,189.1,63.2,185.8,63.2z"/>
					
						<ellipse transform="matrix(0.231 -0.973 0.973 0.231 3.8176 117.9133)" class="st222" cx="76.5" cy="56.5" rx="12.8" ry="12.8"/>
					
						<ellipse transform="matrix(0.9251 -0.3797 0.3797 0.9251 -13.5105 44.5878)" class="st222" cx="106.3" cy="56.5" rx="12.8" ry="12.8"/>
				</g>
			</g>
			<polygon class="st240" points="452.2,43.1 456.4,52.1 466.3,53.4 459.1,60.2 460.9,70 452.2,65.1 443.5,70 445.4,60.2 
				438.1,53.4 448,52.1 			"/>
		</g>
		<polygon class="st220" points="78.1,48.8 70,56.8 78.1,64.9 79.6,63.4 73.1,56.8 79.6,50.3 		"/>
		<polygon class="st220" points="105.1,64.9 113.2,56.9 105.1,48.8 103.6,50.3 110.1,56.9 103.6,63.4 		"/>
		<path class="st220" d="M149.5,63.9l-5.1-5.1c0.7-1.1,1.1-2.4,1.1-3.7c0-3.7-3-6.6-6.7-6.7c-1.7,0-3.5,0.7-4.7,1.9
			c-1.2,1.2-2,2.9-1.9,4.7c0,3.7,3,6.6,6.7,6.7c0,0,0,0,0,0c1.3,0,2.6-0.4,3.7-1.1l5.1,5.1L149.5,63.9z M143.5,55.1
			c0,1.2-0.5,2.4-1.4,3.3c-0.9,0.9-2.1,1.4-3.3,1.4c0,0,0,0,0,0c-2.6,0-4.7-2.1-4.7-4.7c0-1.2,0.5-2.4,1.4-3.3
			c0.9-0.9,2.1-1.4,3.3-1.4C141.3,50.5,143.4,52.6,143.5,55.1z"/>
		<path class="st241" d="M417.2,56.8l-2.9,2.9c-0.3,0.3-0.3,0.9,0,1.2c0.3,0.3,0.9,0.3,1.2,0l2.9-2.9l2.9,2.9c0.3,0.3,0.9,0.3,1.2,0
			c0.3-0.3,0.3-0.9,0-1.2l-2.9-2.9l2.9-2.9c0.3-0.3,0.3-0.9,0-1.2c-0.3-0.3-0.9-0.3-1.2,0l-2.9,2.9l-2.9-2.9c-0.3-0.3-0.9-0.3-1.2,0
			c-0.3,0.3-0.3,0.9,0,1.2L417.2,56.8z M418.5,66.3c-5.2,0-9.4-4.2-9.4-9.4c0-5.2,4.2-9.4,9.4-9.4s9.4,4.2,9.4,9.4
			C427.8,62,423.6,66.3,418.5,66.3z"/>
	</g>
	<g>
		<path class="st230" d="M95.3,116c0-9.5-7.7-17.3-17.3-17.3c-9.5,0-17.3,7.7-17.3,17.3c0,0,0,0,0,0c0,4-1.2,6.6,17.3,39.7
			C96.6,122.4,95.3,118,95.3,116z"/>
		<path class="st1" d="M78,124c-4.2,0-7.6-3.4-7.6-7.6c0-4.2,3.4-7.6,7.6-7.6c4.2,0,7.6,3.4,7.6,7.6C85.6,120.6,82.2,124,78,124z"/>
	</g>
	<g>
		<g>
			<g>
				<path class="st235" d="M216.7,293.2l-7,12.1c-1.4,2.5,0.5,5.4,3.6,5.4h68.9c2.7,0,4.7-2.5,3.8-4.9l-4.4-12.1
					c-0.5-1.5-2.1-2.5-3.8-2.5h-57.5C218.7,291.3,217.4,292,216.7,293.2z"/>
				<g>
					<g>
						<path class="st220" d="M230.8,289.9c0,3.4-2.7,6.1-6.1,6.1c-3.4,0-6.1-2.7-6.1-6.1c0-3.4,2.7-6.1,6.1-6.1
							C228.1,283.7,230.8,286.5,230.8,289.9z"/>
						<path class="st243" d="M228.4,289.9c0,2-1.6,3.7-3.7,3.7c-2,0-3.7-1.6-3.7-3.7c0-2,1.6-3.7,3.7-3.7
							C226.7,286.2,228.4,287.8,228.4,289.9z"/>
						<path class="st244" d="M222.2,289.2l2.1-5.5c0.1-0.3,0.4-0.5,0.7-0.5h7.3c0.7,0,1,0.8,0.6,1.3l-6.6,7.1
							c-0.5,0.6-1.4,0.8-2.2,0.6l-0.7-0.2C222.4,291.5,221.8,290.3,222.2,289.2z"/>
						<path class="st220" d="M226.1,289.9c0,0.8-0.6,1.4-1.4,1.4s-1.4-0.6-1.4-1.4c0-0.8,0.6-1.4,1.4-1.4S226.1,289.1,226.1,289.9z"
							/>
					</g>
					<g>
						<path class="st220" d="M266.3,289.9c0,3.4,2.7,6.1,6.1,6.1c3.4,0,6.1-2.7,6.1-6.1c0-3.4-2.7-6.1-6.1-6.1
							C269,283.7,266.3,286.5,266.3,289.9z"/>
						<path class="st243" d="M268.7,289.9c0,2,1.6,3.7,3.7,3.7s3.7-1.6,3.7-3.7c0-2-1.6-3.7-3.7-3.7S268.7,287.8,268.7,289.9z"/>
						<path class="st244" d="M274.8,289.2l-2.1-5.5c-0.1-0.3-0.4-0.5-0.7-0.5h-7.3c-0.7,0-1,0.8-0.6,1.3l6.6,7.1
							c0.5,0.6,1.4,0.8,2.2,0.6l0.7-0.2C274.6,291.5,275.2,290.3,274.8,289.2z"/>
						<circle class="st220" cx="272.4" cy="289.9" r="1.4"/>
					</g>
					<g>
						<path class="st230" d="M208.7,233c-0.4,0-0.7-0.2-0.8-0.5c-2.1-4.8-5.5-12.6-6.2-13.6c-0.9-0.7-7.9-3.2-14.2-5.2
							c-0.4-0.1-0.6-0.5-0.6-0.9s0.3-0.7,0.6-0.9l11.2-3.6c0.2-0.1,0.3-0.1,0.5,0c1.1,0.3,10.6,2.9,12.6,4.8
							c1.6,1.5,6.4,11.5,7.3,13.5c0.2,0.5,0,1-0.4,1.2c-0.5,0.2-1,0-1.2-0.4c-2.1-4.5-5.9-11.9-6.9-12.9c-1.3-1.2-7.7-3.2-11.6-4.3
							l-8.3,2.7c5.8,1.9,11.8,4.1,12.5,4.9c0.8,1,5.5,11.9,6.4,14c0.2,0.5,0,1-0.5,1.2C208.9,232.9,208.8,233,208.7,233z"/>
					</g>
					<polygon class="st245" points="206.2,228.4 216.4,222 295.4,225.9 297.2,230.8 					"/>
					<path class="st230" d="M205.4,228.5l11.9,39.4c0.4,1.2,1.5,2,2.7,1.9l66.1-2c1.2,0,2.3-0.9,2.6-2.1l8.4-34.9L205.4,228.5z"/>
					<path class="st246" d="M223.2,245c4.3,8.9,13.7,10.7,22.7,10.2c19.3-1,36.2-8.5,47.5-24.5c0,0-70.3-1.8-70.3-1.8
						c-1,0-1.5,6.7-1.6,7.6C221.3,239.5,222,242.4,223.2,245z"/>
					<path class="st230" d="M286,289.7c-0.8-3.2-2.5-6.5-3.7-8.1c-0.6-0.8-1.6-1.8-4-1.8h-54.7c-0.9,0-2.4-0.1-3.1-1.1
						c-0.6-0.9-0.3-2.3,0.1-3.3c1.6-4.1,3.1-6.8,3.1-6.8l-2.1,0.2c-0.1,0.1-1,1.7-2.6,5.9c-0.8,2.1-0.8,3.8,0.1,5
						c0.8,1.2,2.4,1.9,4.6,1.9h2.9v1.2c0,0.8,0.6,1.4,1.4,1.4h1c0.8,0,1.4-0.6,1.4-1.4v-1.2h36.2v1.2c0,0.8,0.6,1.4,1.4,1.4h1
						c0.8,0,1.4-0.6,1.4-1.4v-1.2h8c1.7,0,2.2,0.6,2.6,1.1c1.1,1.5,2.7,4.6,3.4,7.5c0.2,0.6,0.1,1.1-0.1,1.5
						c-0.5,0.6-1.7,0.7-2.1,0.7c-12.7,0.3-40,0.1-54.7,0c-4.4,0-7.7,0-9.3,0c-2.2,0-3.9-0.6-4.7-1.8c-0.8-1.1-0.7-2.8,0.1-4.7
						c1.7-4.4,6.9-17.3,6.9-17.3l-1.7-0.7c0,0-5.1,13-6.9,17.3c-1.3,3.2-0.7,5.3,0.1,6.4c1.1,1.7,3.3,2.6,6.2,2.6c1,0,2.8,0,5.2,0
						v1.2c0,0.8,0.6,1.4,1.4,1.4h1c0.8,0,1.4-0.6,1.4-1.4v-0.9c0.1-0.1,0.2-0.2,0.3-0.3c8.4,0,20.9,0.1,32.4,0.1c3.1,0,6.2,0,9.1,0
						v1.1c0,0.8,0.6,1.4,1.4,1.4h1c0.8,0,1.4-0.6,1.4-1.4v-1.1c3.6,0,6.9-0.1,9.5-0.1c0.9,0,2.6-0.2,3.5-1.4
						C286.2,291.9,286.3,290.9,286,289.7z"/>
					<g>
						<path class="st1" d="M294.5,230.1l-8.2,33.8c-0.2,0.9-1.1,1.6-2,1.6l-30.9,1c2.4-2.6,4.8-5.2,7.1-7.8c0.2-0.2,0.2-0.4,0.1-0.5
							c-0.1-0.1-0.4-0.1-0.5,0.1c-2.5,2.6-5.1,5.3-7.6,7.9l0,0c-0.1,0.1-0.2,0.2-0.2,0.3l-27.2,0.8c2.5-2.7,5.1-5.5,7.6-8.3
							c0.2-0.2,0.2-0.5,0.1-0.6c-0.1-0.1-0.4,0-0.6,0.2c-2.7,2.7-5.3,5.5-7.9,8.3l0,0c-0.1,0.1-0.2,0.3-0.2,0.4l-2.5,0.1
							c-0.9,0-1.8-0.6-2.1-1.5l-5.4-17.9c1.4-1.5,2.8-3.1,4.2-4.6c0.1-0.1,0.1-0.3,0-0.4c-0.1-0.1-0.3-0.1-0.4,0
							c-1.4,1.4-2.7,2.7-4,4.1l-5.8-19.3l-0.9,0.3l11.6,38.1c0.4,1.3,1.6,2.2,2.9,2.2c0,0,0.1,0,0.1,0l62.6-1.9c1.4,0,2.5-1,2.9-2.3
							l8.2-33.8L294.5,230.1z"/>
						<path class="st1" d="M219,242.6c0.2-0.2,0.4-0.4,0.6-0.5c0.2-0.2,0.4-0.4,0.5-0.7c0.1-0.1,0.1-0.2,0-0.3
							c-0.1-0.2-0.3-0.2-0.5-0.1c-0.2,0.2-0.4,0.4-0.6,0.5c-0.2,0.2-0.4,0.4-0.5,0.7c-0.1,0.1-0.1,0.2,0,0.3
							C218.7,242.7,218.9,242.7,219,242.6z"/>
						<path class="st1" d="M220.7,240.8c0.1,0,0.2-0.1,0.2-0.1c0-0.1,0.1-0.1,0.1-0.2c0,0,0,0,0,0c0-0.2-0.2-0.4-0.5-0.4
							c-0.1,0-0.2,0.1-0.2,0.1c0,0.1-0.1,0.1-0.1,0.2c0,0,0,0,0,0C220.3,240.6,220.5,240.8,220.7,240.8z"/>
						<path class="st1" d="M228.3,232.7c1.8-1.9,3.7-3.8,5.5-5.7l0,0c0.2-0.2,0.1-0.4,0-0.6c-0.2-0.2-0.4-0.1-0.6,0
							c-1.8,1.9-3.5,3.9-5.3,5.8c-0.1,0.1-0.1,0.3,0,0.4C228,232.8,228.2,232.8,228.3,232.7z"/>
						<path class="st1" d="M227.3,233.8c0.1,0,0.2-0.1,0.2-0.1c0-0.1,0.1-0.1,0.1-0.2c0,0,0,0,0,0c0-0.2-0.2-0.4-0.5-0.4
							c-0.1,0-0.2,0.1-0.2,0.1c0,0.1-0.1,0.1-0.1,0.2c0,0,0,0,0,0C226.9,233.6,227.1,233.8,227.3,233.8z"/>
						<path class="st1" d="M226.3,234.8c0.1,0,0.2-0.1,0.2-0.1c0-0.1,0.1-0.1,0.1-0.2c0,0,0,0,0,0c0-0.2-0.2-0.4-0.5-0.4
							c-0.1,0-0.2,0.1-0.2,0.1c0,0.1-0.1,0.1-0.1,0.2c0,0,0,0,0,0C225.9,234.6,226.1,234.8,226.3,234.8z"/>
						<path class="st1" d="M225.3,235.9c0.1,0,0.2-0.1,0.2-0.1c0-0.1,0.1-0.1,0.1-0.2c0,0,0,0,0,0c0-0.2-0.2-0.4-0.5-0.4
							c-0.1,0-0.2,0.1-0.2,0.1c0,0.1-0.1,0.1-0.1,0.2c0,0,0,0,0,0C224.9,235.7,225.1,235.9,225.3,235.9z"/>
						<path class="st1" d="M221.9,239.6c0.5-0.4,0.9-0.8,1.3-1.3c0.4-0.5,0.8-0.9,1.2-1.4c0.1-0.1,0.1-0.3,0-0.4
							c-0.1-0.1-0.3-0.2-0.5,0c-0.5,0.4-0.9,0.8-1.3,1.3c-0.4,0.5-0.8,0.9-1.2,1.4c-0.1,0.1-0.1,0.3,0,0.4
							C221.5,239.7,221.7,239.7,221.9,239.6z"/>
						<path class="st1" d="M233.5,257.7c0.1,0.2,0.3,0.2,0.6,0c0.4-0.3,0.7-0.7,1.1-1c0.3-0.4,0.7-0.7,1-1.2
							c0.1-0.2,0.2-0.3,0.1-0.5c-0.1-0.2-0.3-0.2-0.6,0c-0.4,0.3-0.7,0.7-1.1,1c-0.3,0.4-0.7,0.7-1,1.2
							C233.5,257.4,233.4,257.6,233.5,257.7z"/>
						<path class="st1" d="M237.1,254.4c0.1,0,0.2-0.1,0.3-0.2c0.1-0.1,0.2-0.2,0.2-0.4c0,0,0,0,0,0c0.1-0.3-0.1-0.5-0.5-0.4
							c-0.1,0-0.2,0.1-0.3,0.2c-0.1,0.1-0.2,0.2-0.2,0.4c0,0,0,0,0,0C236.5,254.3,236.8,254.5,237.1,254.4z"/>
						<path class="st1" d="M250.8,239.7c3.3-3.4,6.6-6.9,9.8-10.4l0,0c0.3-0.3,0.4-0.7,0.2-0.8c-0.2-0.2-0.5,0-0.8,0.3
							c-3.2,3.5-6.5,7-9.6,10.5c-0.2,0.2-0.2,0.5-0.1,0.6C250.3,240,250.6,239.9,250.8,239.7z"/>
						<path class="st1" d="M249,241.6c0.1,0,0.2-0.1,0.3-0.2c0.1-0.1,0.2-0.2,0.2-0.4c0,0,0,0,0,0c0.1-0.3-0.1-0.5-0.5-0.4
							c-0.1,0-0.2,0.1-0.3,0.2c-0.1,0.1-0.2,0.2-0.2,0.4c0,0,0,0,0,0C248.5,241.5,248.7,241.7,249,241.6z"/>
						<path class="st1" d="M247.2,243.6c0.1,0,0.2-0.1,0.3-0.2c0.1-0.1,0.2-0.2,0.2-0.4c0,0,0,0,0,0c0.1-0.3-0.1-0.5-0.5-0.4
							c-0.1,0-0.2,0.1-0.3,0.2c-0.1,0.1-0.2,0.2-0.2,0.4c0,0,0,0,0,0C246.7,243.5,246.9,243.7,247.2,243.6z"/>
						<path class="st1" d="M245.4,245.5c0.1,0,0.2-0.1,0.3-0.2c0.1-0.1,0.2-0.2,0.2-0.4c0,0,0,0,0,0c0.1-0.3-0.1-0.5-0.5-0.4
							c-0.1,0-0.2,0.1-0.3,0.2c-0.1,0.1-0.2,0.2-0.2,0.4c0,0,0,0,0,0C244.9,245.4,245.1,245.6,245.4,245.5z"/>
						<path class="st1" d="M239.2,252.2c0.8-0.8,1.6-1.6,2.3-2.4c0.8-0.8,1.5-1.6,2.2-2.5c0.2-0.2,0.2-0.4,0.1-0.6
							c-0.1-0.1-0.4-0.1-0.6,0.1c-0.8,0.8-1.6,1.6-2.3,2.4c-0.8,0.8-1.5,1.6-2.2,2.5c-0.2,0.2-0.2,0.4-0.1,0.6
							C238.7,252.5,238.9,252.4,239.2,252.2z"/>
						<path class="st1" d="M261.8,257.3c0.4-0.3,0.7-0.6,1.1-1c0.3-0.4,0.6-0.7,0.9-1.1c0.1-0.2,0.2-0.3,0.1-0.5
							c-0.1-0.2-0.3-0.2-0.6,0c-0.4,0.3-0.7,0.6-1.1,1c-0.3,0.4-0.6,0.7-0.9,1.1c-0.1,0.2-0.2,0.3-0.1,0.5
							C261.4,257.5,261.6,257.5,261.8,257.3z"/>
						<path class="st1" d="M264.8,254.2c0.1,0,0.2-0.1,0.3-0.2c0.1-0.1,0.2-0.2,0.2-0.3c0,0,0,0,0,0c0.1-0.3-0.1-0.5-0.5-0.4
							c-0.1,0-0.2,0.1-0.3,0.2c-0.1,0.1-0.2,0.2-0.2,0.3c0,0,0,0,0,0C264.2,254.1,264.4,254.3,264.8,254.2z"/>
						<path class="st1" d="M277.8,240.2c3.1-3.3,6.3-6.6,9.4-9.9l0,0c0.3-0.3,0.3-0.6,0.2-0.8c-0.2-0.2-0.5,0-0.8,0.2
							c-3.1,3.3-6.2,6.7-9.2,10c-0.2,0.2-0.2,0.4-0.1,0.5C277.4,240.5,277.6,240.4,277.8,240.2z"/>
						<path class="st1" d="M276.2,242c0.1,0,0.2-0.1,0.3-0.2c0.1-0.1,0.2-0.2,0.2-0.3c0,0,0,0,0,0c0.1-0.3-0.1-0.5-0.5-0.4
							c-0.1,0-0.2,0.1-0.3,0.2c-0.1,0.1-0.2,0.2-0.2,0.3c0,0,0,0,0,0C275.6,241.9,275.8,242.1,276.2,242z"/>
						<path class="st1" d="M274.4,243.9c0.1,0,0.2-0.1,0.3-0.2c0.1-0.1,0.2-0.2,0.2-0.3c0,0,0,0,0,0c0.1-0.3-0.1-0.5-0.5-0.4
							c-0.1,0-0.2,0.1-0.3,0.2c-0.1,0.1-0.2,0.2-0.2,0.3c0,0,0,0,0,0C273.9,243.8,274.1,244,274.4,243.9z"/>
						<path class="st1" d="M272.7,245.7c0.1,0,0.2-0.1,0.3-0.2c0.1-0.1,0.2-0.2,0.2-0.3c0,0,0,0,0,0c0.1-0.3-0.1-0.5-0.5-0.4
							c-0.1,0-0.2,0.1-0.3,0.2c-0.1,0.1-0.2,0.2-0.2,0.3c0,0,0,0,0,0C272.2,245.6,272.4,245.8,272.7,245.7z"/>
						<path class="st1" d="M266.7,252.1c0.8-0.7,1.5-1.5,2.2-2.3c0.7-0.8,1.4-1.6,2.1-2.4c0.2-0.2,0.2-0.4,0.1-0.5
							c-0.1-0.1-0.4-0.1-0.6,0.1c-0.8,0.7-1.5,1.5-2.2,2.3c-0.7,0.8-1.4,1.6-2.1,2.4c-0.2,0.2-0.2,0.4-0.1,0.5
							C266.3,252.4,266.5,252.3,266.7,252.1z"/>
					</g>
					<polygon class="st246" points="229.4,292.4 232.7,281 266.8,281 268.6,292.4 					"/>
					<g>
						<path class="st220" d="M227.8,303.6c0,4-3.2,7.2-7.2,7.2s-7.2-3.2-7.2-7.2c0-4,3.2-7.2,7.2-7.2S227.8,299.6,227.8,303.6z"/>
						<path class="st243" d="M224.9,303.6c0,2.4-1.9,4.3-4.3,4.3s-4.3-1.9-4.3-4.3c0-2.4,1.9-4.3,4.3-4.3S224.9,301.2,224.9,303.6z"
							/>
						<path class="st244" d="M217.7,302.8l2.5-6.5c0.1-0.3,0.5-0.6,0.8-0.6h8.6c0.8,0,1.2,0.9,0.7,1.5l-7.7,8.3
							c-0.6,0.7-1.6,1-2.5,0.7l-0.8-0.3C217.9,305.6,217.2,304.1,217.7,302.8z"/>
						<path class="st220" d="M222.2,303.6c0,0.9-0.7,1.7-1.7,1.7c-0.9,0-1.7-0.7-1.7-1.7c0-0.9,0.7-1.7,1.7-1.7
							C221.5,302,222.2,302.7,222.2,303.6z"/>
					</g>
					<g>
						<path class="st220" d="M268.3,303.6c0,4,3.2,7.2,7.2,7.2c4,0,7.2-3.2,7.2-7.2c0-4-3.2-7.2-7.2-7.2
							C271.6,296.4,268.3,299.6,268.3,303.6z"/>
						<path class="st243" d="M271.2,303.6c0,2.4,1.9,4.3,4.3,4.3c2.4,0,4.3-1.9,4.3-4.3c0-2.4-1.9-4.3-4.3-4.3
							C273.1,299.3,271.2,301.2,271.2,303.6z"/>
						<path class="st244" d="M278.4,302.8l-2.5-6.5c-0.1-0.3-0.5-0.6-0.8-0.6h-8.6c-0.8,0-1.2,0.9-0.7,1.5l7.7,8.3
							c0.6,0.7,1.6,1,2.5,0.7l0.8-0.3C278.2,305.6,278.9,304.1,278.4,302.8z"/>
						<path class="st220" d="M273.9,303.6c0,0.9,0.7,1.7,1.7,1.7c0.9,0,1.7-0.7,1.7-1.7c0-0.9-0.7-1.7-1.7-1.7
							C274.6,302,273.9,302.7,273.9,303.6z"/>
					</g>
				</g>
				<g>
					
						<ellipse transform="matrix(0.9992 -3.885729e-02 3.885729e-02 0.9992 -8.6224 11.6132)" class="st217" cx="294.4" cy="227.6" rx="16.3" ry="16.3"/>
					<g>
						<path class="st220" d="M297.5,219v14.4h2.7c0.5,0,0.8,0.4,0.8,1.3v0.4c0,0.9-0.2,1.3-0.8,1.3h-9.9c-0.5,0-0.8-0.4-0.8-1.3
							v-0.4c0-0.9,0.2-1.3,0.8-1.3h3.4v-11.5l-3.5,0.5c-0.7,0-0.8-1.4-0.8-2.1c0-0.4,0.2-0.6,0.7-0.7l6.4-1.2
							C296.8,218.3,297.5,218.6,297.5,219z"/>
					</g>
				</g>
			</g>
			<g>
				<polygon class="st218" points="229.2,215.4 229.2,228.2 259.5,229 259.5,214.1 				"/>
				<polygon class="st247" points="259.5,214.1 259.5,229 273.9,229.4 273.9,216.7 				"/>
				<polygon class="st217" points="228.4,212.9 260.2,211.6 260.2,215.8 228.4,217.1 				"/>
				<polygon class="st218" points="260.2,215.8 275,218.3 275,214.4 260.2,211.6 				"/>
			</g>
		</g>
		<g>
			<ellipse class="st235" cx="159.2" cy="303.5" rx="43.8" ry="2.5"/>
		</g>
		<g>
			<g>
				<g>
					<path class="st242" d="M180.4,274.6c0.7,7,6.6,17.3,8.9,23.1c0.7,1.7,3.9,0.7,3.5-1c-1.2-6.1-2.1-18.4-2.6-24.7
						C189.5,264.5,179.7,267.9,180.4,274.6z"/>
					<g>
						<defs>
							<path id="SVGID_74_" d="M189.4,297.6c0,0-0.7,1.9,0.5,4.5c-0.2,0.1-0.1,1,0.3,1.1c0.4,0.2,3.7,0.2,4.4-0.4
								c0.1-0.2,0-0.6,0-0.6s0.8,0.3,3.1-0.1c2.3-0.4,3.5-1.1,4.4-1.7c0.3-0.2,0.1-0.8-0.2-0.7c0,0-0.2-1.6-1.5-1.5
								c-2.7,0.2-4.7-0.9-6.1-1.8c-0.7-0.4-1.4-0.8-1.8-0.8C191.3,295.7,189.9,296.4,189.4,297.6z"/>
						</defs>
						<use xlink:href="#SVGID_74_"  style="overflow:visible;fill:#ED0C37;"/>
						<clipPath id="SVGID_1_">
							<use xlink:href="#SVGID_74_"  style="overflow:visible;"/>
						</clipPath>
						<path style="clip-path:url(#SVGID_1_);fill:#FFAEC1;" d="M189.9,302.2c1.9,0.2,4.7-0.1,4.7-0.1s5.3-0.1,7.3-2.2
							c2.1-2.1,3.9,0.1,3.9,0.1l-8.6,6.9l-5.6-0.4l-2.5-2.1C189,304.3,188.8,302.1,189.9,302.2z"/>
						<path style="clip-path:url(#SVGID_1_);fill:#FFB072;" d="M189,297.8c0,0,0.8,1.3,2.3,1c1.5-0.3,1.7-1.3,1.4-2.9
							C192.3,294.2,187.4,295.3,189,297.8z"/>
					</g>
				</g>
				<g>
					<path class="st250" d="M157.4,224.2c0,0,10.1,18.2,13.5,25.6c3.3,7.4,7.6,25.8,7.6,25.8s8.3,1.8,12.7-2.2
						c0,0-1.4-19.4-3.8-28.1c-2.4-8.7-11.4-30.1-11.4-30.1C172.3,207.7,153.7,216.5,157.4,224.2z"/>
					<path class="st243" d="M165.6,238.4c0.1-0.1,0.8-3.3,2.9-6.9c1.8-3.1,6.1-5.6,6.6-5.2c0.8,0.7-5.6,5.4-6.9,8.9
						c0,0,7.2-5.2,7.6-4.5C176.3,231.3,168.5,235.6,165.6,238.4z"/>
				</g>
			</g>
			<g>
				<path class="st228" d="M164.6,179.3c1.7,7.7,4.3,17.9,10,22.9c5.7,5,18.1,7.8,18.7,7.8c1.4,0.3,2.9-7,1.8-7.8
					c-1.1-0.8-10.8-4.8-12.6-6.4c-3.1-3-1.8-21.2-5.3-25.1S162.6,170.4,164.6,179.3z"/>
				<path class="st251" d="M195.7,203.6c0,0,4.3,3.6,4.6,4.6s0.2,2.6-0.2,3c-0.4,0.4-3,1.7-4,1c-1-0.7-2.4-2.3-2.4-2.3l0.5-1.8
					c0,0-0.3,1.2-3-0.4C188.6,206.1,193.2,201.1,195.7,203.6z"/>
			</g>
			<g>
				<g>
					<path class="st242" d="M135.2,269.4c-5.2,4.8-10,15.6-13.3,20.9c-1,1.5,1.7,3.6,2.9,2.2c4.2-4.6,13.6-12.6,18.3-16.8
						C148.7,270.7,140.2,264.8,135.2,269.4z"/>
					<g>
						<defs>
							<path id="SVGID_76_" d="M122.5,289.7c0,0-2,0.5-3.5,2.9c-0.2-0.1-0.8,0.5-0.8,0.9c0.1,0.5,1.9,3.2,2.7,3.5
								c0.3,0,0.5-0.3,0.5-0.3s0.2,0.8,1.8,2.5c1.6,1.7,2.9,2.4,3.8,2.8c0.3,0.1,0.7-0.4,0.5-0.6c0,0,1.2-1,0.4-2.1
								c-1.6-2.2-1.8-4.5-1.8-6.1c0-0.8-0.1-1.6-0.3-2C125.1,290.3,123.8,289.4,122.5,289.7z"/>
						</defs>
						<use xlink:href="#SVGID_76_"  style="overflow:visible;fill:#ED0C37;"/>
						<clipPath id="SVGID_2_">
							<use xlink:href="#SVGID_76_"  style="overflow:visible;"/>
						</clipPath>
						<path style="clip-path:url(#SVGID_2_);fill:#FFAEC1;" d="M118.9,292.6c0.9,1.8,2.6,3.9,2.6,3.9s2.9,4.4,5.8,4.9
							c2.9,0.6,2,3.3,2,3.3l-10.4-3.5l-2.7-5l0.4-3.3C116.7,293,118.5,291.6,118.9,292.6z"/>
						<path style="clip-path:url(#SVGID_2_);fill:#FFB072;" d="M122.1,289.5c0,0-0.7,1.3,0.4,2.5c1.1,1.1,2,0.7,3.2-0.5
							C127,290.3,123.4,286.7,122.1,289.5z"/>
					</g>
				</g>
				<g>
					<path class="st220" d="M146.6,217.4c0,0,1.4,26.7-1.6,33.7c-3,7-10.8,18.4-10.8,18.4s2.1,6.6,10,7.6c0,0,11.9-8.4,16.6-21.1
						c4.7-12.7,8.6-26.7,6.7-37C166.5,213.1,148.2,208.9,146.6,217.4z"/>
					<path class="st254" d="M150.1,217.1c0,0,0.2,22.2-0.9,30.8c-1,8.3-13.8,23.7-13.8,23.7"/>
				</g>
			</g>
			<g>
				<g>
					<path class="st1" d="M176.5,171.3c2.1,4.1-1.6,19.6-1.6,26.4c0,5.5,0.9,14.7,1.7,18.2c0.2,0.9-0.2,1.9-1,2.4
						c-3.2,1.9-7.4,2.8-10,3.1c-10,1-14.9-0.8-17.2-1.7c-1.2-0.5-2-1.7-1.8-3c0.5-3.4,1.9-11.7,0.7-19.3c-1.6-10-4.2-23.6,0.5-27.8
						c4.7-4.2,13.5-6.8,13.5-6.8S174,166.2,176.5,171.3z"/>
					<g>
						<path class="st243" d="M163.4,158.6c0,0-2.3-0.4-5.3-4.2c-2-2.5-4.8-13.9,4.1-15.6c8.9-1.7,11.6,4.3,12,8.3
							c0.4,3.9-4,7.2-6,8.6C166.1,157,163.4,158.6,163.4,158.6z"/>
						<path class="st242" d="M161.2,154c0,0-0.3,3.4-1.3,6.1c-1,2.7-2.1,3.5-3.4,4.7c-1.3,1.1,5.1,8,10.8,9.7c0,0,4.1-5,2.2-7.9
							c-1.9-2.8-3.4-3.1-2.7-6.8c0.6-3.3,0.9-5.1,0.9-5.1L161.2,154z"/>
						<g>
							<g>
								<g>
									<path class="st255" d="M161.2,154c0,0-0.3,2.6,0.7,3.6s2.9,3.7,7.1,3.4c5.6-0.4,3.4-9.3,3.4-9.3s0.6-3.4,0-6.2
										c-0.6-2.8-6.1-4.3-10.7-2.9c0,0-1.3,1.2-0.8,6.8c0,0-0.8-1-2.1-0.3c-1,0.5-1.1,1.8-0.8,3C158.5,153.5,160,154.8,161.2,154z
										"/>
								</g>
								<path class="st256" d="M160.8,153.4l-0.5-1.3l0.8-0.3c0,0-0.5-2.5-1.9-1.5C158.1,151,159.4,153.9,160.8,153.4z"/>
							</g>
							<path class="st243" d="M161.4,151.5c0,0-0.6,3.4-0.5,5c0.1,1.5,1.6,6.3,8.6,5.9c7-0.4,4.5-8,3.3-8.5c0,0.5-0.2,1.3-0.7,1.7
								c-0.3-0.7-1.1-1.2-2.2-1c-1-0.6-2.1-0.2-3.3,0.5l-0.9,0.6c-2.2-0.5-3.3-2-3.6-4.1L161.4,151.5z"/>
							<g>
								<path class="st1" d="M167.4,155.8c0,0,3.7,0,3.8,0.3c0.1,0.3-0.4,0.8-1.9,0.8C167.8,156.8,167.4,155.8,167.4,155.8z"/>
								<path class="st256" d="M167.3,155.7c0.2-0.1,0.2,0,0.2-0.1l0.1,0l0.3,0l0.5,0l1,0c0.3,0,0.7,0,1,0.1c0.2,0,0.3,0,0.5,0.1
									c0,0,0.1,0,0.1,0c0.1,0,0.1,0.1,0.1,0.2c0,0.1-0.1,0.2-0.1,0.3c-0.6,0.5-1.3,0.5-2,0.5c-0.4,0-0.7-0.1-1-0.3
									c-0.2-0.1-0.3-0.2-0.4-0.3c-0.1-0.1-0.1-0.1-0.2-0.2l-0.1-0.1l0-0.1l0,0l0,0C167.3,155.9,167.3,155.8,167.3,155.7z
									 M167.5,155.9c0,0,0-0.1,0-0.1L167.5,155.9L167.5,155.9L167.5,155.9l0.1,0.1c0,0.1,0.1,0.1,0.2,0.2c0.1,0.1,0.2,0.2,0.4,0.3
									c0.3,0.2,0.6,0.3,0.9,0.3c0.7,0,1.4,0,1.9-0.4c0.3-0.3-0.2-0.3-0.5-0.3c-0.3,0-0.7,0-1-0.1l-1,0l-0.5,0l-0.3,0L167.5,155.9
									C167.5,155.9,167.4,156,167.5,155.9z"/>
							</g>
							<g>
								<path class="st243" d="M167.9,151.3c0,0.3-0.4,0.3-0.9,0.3c-0.5,0-0.9-0.1-0.9-0.4c0-0.3,0.5-0.5,0.9-0.5
									C167.5,150.7,167.9,151,167.9,151.3z"/>
								<path class="st243" d="M164.6,149.8c0,0,1.4-0.4,1.9-0.4c0.5,0,2.2,0.3,2.3,0.1c0.1-0.2,0.3-0.7,0.3-0.7s-2.3-0.2-2.8-0.1
									C165.7,148.7,164.7,149.4,164.6,149.8z"/>
							</g>
							<g>
								<path class="st243" d="M172.4,151.6c0,0.3-0.4,0.3-0.9,0.3c-0.5,0-0.9-0.1-0.9-0.4c0-0.3,0.5-0.5,0.9-0.5
									C172.1,151,172.5,151.3,172.4,151.6z"/>
								<path class="st243" d="M173.1,150.5c0,0-0.6-0.7-0.9-0.8c-0.3-0.1-1.8,0.1-1.9-0.1c-0.1-0.2-0.1-0.8-0.1-0.8s2,0.1,2.3,0.3
									C172.8,149.3,173.1,150.1,173.1,150.5z"/>
							</g>
							<g>
								<path class="st257" d="M169.9,154.3c0,0-1.2,0-1.1-0.4c0-0.3,2.4-0.7,2.6-0.4C171.5,153.7,170.4,154.2,169.9,154.3z"/>
								<path class="st256" d="M170.1,149.5c0,0-0.3,1.4-0.2,2c0.2,0.5,1.2,1.7,1.3,1.9c0,0.2-1.2,0.9-1.3,0.9
									c-0.1,0,1.7-0.2,1.7-0.8c-0.1-0.6-1.4-2-1.5-2.3C170.1,150.9,170.1,149.5,170.1,149.5z"/>
							</g>
							<path class="st243" d="M161.9,151.9c0.4-0.2,0.9-2.3,0.3-4.3c-0.6-1.8,0.9-3.1,1.9-3.2c1.1-0.1,4.8,0.9,6.3,0.7
								c3.2-0.4,5.7-1.3,5.7-1.9c0-0.6-2.4,0-2.4,0s3.6-0.9,3.3-3.9c0,0-2.7,0.2-5.1-0.6c-2.4-0.8-8.2-1.8-11.2,0.5
								c-2,1.5-3.4,6.3-0.8,8.8C161.1,149.1,161.2,152.4,161.9,151.9z"/>
						</g>
					</g>
					<path class="st258" d="M170.2,171.4c0,0-1.5,30.4-1.2,33.3c0.3,2.9-0.2,13.8,6.7,16c0,0-3.1-15.9-2.7-25.4
						C173.5,185.7,170.2,171.4,170.2,171.4z"/>
				</g>
				<path class="st230" d="M168,164.5c0,0,3,9.5,2.8,21.9c-0.2,12.4-0.7,37.9,8.5,37.3c0,0-3.9-15.6-3.6-21.3
					c0.2-5.7,3.3-26.6,2.2-30.1C176.2,167.1,168,164.5,168,164.5z"/>
				<g>
					<path class="st230" d="M157.5,164c0,0,6.2,9.7,8.2,26.1c0.9,7.8-0.1,20.2-1.3,28.1c-1.4,9.1-19.2,9.1-20.4,6.7
						c-1.1-2.4,4-17.5,2.4-26.1c-1.6-8.6-2.5-22.7-0.6-27.3C147.6,167,157.5,164,157.5,164z"/>
					<path class="st259" d="M148.5,180.5c0,0,3,14.6,2.6,22.4c-0.4,7.8-2.9,23.4-2.9,23.4"/>
					<path class="st228" d="M146.4,172.8c-0.4,0.9-0.6,2.2-0.8,3.8c1.7,12.8,8.9,27.1,19.9,32.2c0.4-4.2,0.6-8.5,0.5-12.5
						c-7.4-7.4-13-16.9-17.4-26.4C147.6,170.8,146.8,171.8,146.4,172.8z"/>
				</g>
			</g>
			<g>
				<path class="st242" d="M189.6,206.1c0,0,5.5,1.3,6.2,2.1c0.7,0.8,1.8,3.4,1.7,3.9c-0.1,0.5-3,1.7-4.3,1.5
					c-1.2-0.2-2.5-0.9-2.5-0.9c0.2-0.6,0.1-1.2-0.5-1.4c-0.7-0.2-1.5,0.2-2.7,0.7C184.5,213.3,186.3,205,189.6,206.1z"/>
				<path class="st246" d="M145.5,179.5c1.5,8.2,12,20.4,16.5,24.3c3.9,3.4,23.4,9.1,24.2,9.1c2,0.4,4.5-6.7,3-7.7
					c-1.5-0.9-18.9-8.9-20.7-11c-1.9-2.1-8.7-20.6-13.6-24.8C149.9,165.2,143.8,170.2,145.5,179.5z"/>
			</g>
		</g>
	</g>
	<g>
		<g>
			<path class="st260" d="M461.4,166.3c8-11.5,16.2-9,19.2-4.1c3,4.8,0.8,12-5.4,18c-4.5,4.5-13.5,7.7-20.8,9.4
				c-5.1-5.5-10.8-13.1-12.1-19.3c-1.9-8.4,0.2-15.6,5.4-18C453,149.9,461.2,152.4,461.4,166.3z"/>
		</g>
		<g class="st261">
			<path class="st262" d="M480.6,162.2c-2.6-4.1-8.9-6.5-15.7,0c5.8-4.5,14-4.6,14.7,3.7c0.8,8.7-6.2,14.7-14.3,13.2
				c-10.6-2-8-10.9-13-15.2c-3.9-3.3-8.6,1.7-8.8,5.8c-0.1,1.9,0.1,3.7,0.4,5.5c2.4,5,6.6,10.4,10.4,14.5c7.2-1.7,16.3-4.9,20.8-9.4
				C481.5,174.2,483.7,167,480.6,162.2z"/>
		</g>
	</g>
	<g>
		<path class="st235" d="M407.9,302.6c0,1.4-19.6,2.5-43.8,2.5c-24.2,0-43.8-1.1-43.8-2.5c0-1.4,19.6-2.5,43.8-2.5
			C388.3,300.1,407.9,301.2,407.9,302.6z"/>
		<g>
			<g>
				<g>
					<g>
						<g>
							<g>
								<defs>
									<path id="SVGID_78_" d="M372.1,292.7c0,0,1.8,1.6,2.1,2c0.3,0.4,1.5,3.8,1.5,3.8c-0.3,0.5-1.1,1.2-1.8,1.3l-1.5-1.9
										c0,0-0.8,3.3-1.5,4.4c-0.9,1.3-6.2,2.8-7,2.4c0,0-1-1.9,0.7-3c3.1-2,3.1-6.1,3.1-6.1C367.3,293.2,369.9,291.4,372.1,292.7z
										"/>
								</defs>
								<use xlink:href="#SVGID_78_"  style="overflow:visible;fill:#FD6141;"/>
								<clipPath id="SVGID_3_">
									<use xlink:href="#SVGID_78_"  style="overflow:visible;"/>
								</clipPath>
								<path style="clip-path:url(#SVGID_3_);fill:#DD4026;" d="M363.3,304.4c0.1,0,6.7-0.9,7.5-2.9c0.6-1.5,1-4.1,1.4-4.4
									c0.4-0.3,2-2.3,2-2.3l2.7,4.6l-10,8.4L363.3,304.4z"/>
							</g>
							<path class="st264" d="M366.5,300l0.9,0.2c0,0,0.6-0.9,0.6-1.7l-0.9-0.3c-0.2-0.1-0.3,0-0.4,0.2l-0.4,1.2
								C366.2,299.8,366.3,299.9,366.5,300z"/>
						</g>
						<path class="st242" d="M360.4,200.9c0-0.3-8.4,37.2-8.1,47.3c0.2,6.3,11.9,35.2,15.4,47.4c0.7,2.3,4.3-0.4,4-2.8
							c-1.4-11.7-1.3-17.9-6.5-43.3c-0.8-4,13.4-39.4,12.3-47.8C376.5,193.5,364.9,188.9,360.4,200.9z"/>
						<path class="st265" d="M377.6,201.8c-1.1-8.3-12.7-12.8-17.2-0.8c0-0.3-7.6,33.6-8.1,45.6c3.8-2.9,8.8-1.4,13.2,0.9
							C367.2,238.8,378.6,209.3,377.6,201.8z"/>
					</g>
					<g>
						<g>
							<g>
								<defs>
									<path id="SVGID_80_" d="M384.2,295.2c0,0,1.1,2.1,1.3,2.7c0.1,0.5,0,4,0,4c-0.4,0.4-1.4,0.7-2.2,0.5l-0.7-2.3
										c0,0-1.1,2.2-2.2,3c-1.3,0.9-6,2-6.8,1.6c0,0-1.1-2.1,0.7-3c4.4-2.2,4.8-5.3,4.8-5.3C379.5,293.9,382.7,293.1,384.2,295.2z
										"/>
								</defs>
								<use xlink:href="#SVGID_80_"  style="overflow:visible;fill:#FD6141;"/>
								<clipPath id="SVGID_4_">
									<use xlink:href="#SVGID_80_"  style="overflow:visible;"/>
								</clipPath>
								<path style="clip-path:url(#SVGID_4_);fill:#DD4026;" d="M373.1,304.5c0.1,0,5.5-0.5,6.8-1.6c1.3-1,2.4-3.5,2.9-3.7
									c0.4-0.2,2.7-1.4,2.7-1.4l0.8,5.3l-12.4,4.3L373.1,304.5z"/>
							</g>
							<path class="st264" d="M376.6,300.3l0.8,0.5c0,0,0.9-0.6,1.1-1.4l-0.7-0.6c-0.1-0.1-0.3-0.1-0.4,0l-0.8,1
								C376.4,300,376.5,300.2,376.6,300.3z"/>
						</g>
						<path class="st242" d="M368.8,203.4c-0.1,3.3,0.4,38.1,3.5,47.6c1.9,5.9,5.8,34.5,7.2,44.2c0.5,3.6,4.3,3.6,4.6,0.2
							c1-12.6,5.1-30.2,0.5-45.6c-1.2-3.9,4.2-43.6,0.9-51.2C382,191,369,191.3,368.8,203.4z"/>
						<path class="st265" d="M384.3,247.2c0.1-9.8,4-41.9,1-48.6c-3.3-7.6-16.4-7.3-16.6,4.8c-0.1,3,0.4,32.7,2.8,44.9
							C375.3,246.1,380.1,246,384.3,247.2z"/>
					</g>
					<g>
						<path class="st230" d="M360.8,196.9l-0.4,3.4c0,0-6.1,15.5-8.8,40.7c6.5-1.8,18.9,4.2,37.2,1.7c0,0,7.2-32.3-5.4-46.6
							C370.9,181.7,361.5,189.3,360.8,196.9z"/>
						<path class="st228" d="M360.8,200.2c0,0-0.5,4.8,7.9,5.7c8.4,0.9,16.7-5.2,16.5-7C385,197.1,360.8,200.2,360.8,200.2z"/>
						<path class="st267" d="M381.5,197.8c0,0,9.6,15.9,3.7,44.4"/>
					</g>
				</g>
				<g>
					<g>
						<path class="st242" d="M326.8,187.8c-0.1,0-3.5-0.2-4.1,0c-0.6,0.2-2,0.8-2.4,1c-1,0.5,0,1.2,0.7,1.1c1-0.1,1.4-0.3,1.8-0.2
							c0.2,0,0.4,0.1,0.6,0.2c-0.4,0.3-2,1.4-3.2,1.9c-0.7,0.3-1.3,0.4-2.3,0.8c-0.4,0.1-0.4,0.7,0.1,0.8c0.4,0.1,1.6,0.1,2.6-0.3
							c0.4-0.2,0.9-0.3,1.2-0.5c0,0-0.9,0.6-1.4,0.8c-0.6,0.3-1.3,0.4-2.2,0.8c-0.4,0.2-0.3,0.7,0.2,0.7c0.1,0,0.4,0,0.7,0
							c-0.2,0.2-0.1,0.6,0.3,0.6c0.2,0,0.6,0,1.1-0.1c0.1,0.1,0.2,0.2,0.4,0.2c3.5,0,5.6-1.9,7.6-2.4
							C331.7,190.1,329.1,188.2,326.8,187.8z"/>
						<path class="st250" d="M367.8,162.6c-2.4-1.4-6.5-1.8-9.7,2.8c-3.2,4.6-4.7,15.4-8.1,19.1c-2,2.2-20.6,2.8-21.9,3.5
							c-0.9,0.4-0.3,4.6-0.1,5.3c0.6,1.6,20.6,2.5,26.1,0.3C359.7,191.4,373,165.5,367.8,162.6z"/>
					</g>
					<path class="st243" d="M360.1,142.1c0.1-1.7,0.1-4.5,2.1-6.9c2-2.4,9.8-4.8,13.9-2c5,3.5,3.4,6.7,9.6,9.3
						c6.3,2.5,4.4,5.3,2.6,8.2c-1.8,2.9-1.2,3.3,1.7,6.3c2.9,3,6.7,10.5,0,14.7c-6.7,4.3-21.3,1.5-27.2-4.2
						c-5.8-5.6,1.1-9.3-0.6-12.7c-1.6-3.4-3.5-2.6-3.5-6.2C358.8,146,359.9,144.7,360.1,142.1z"/>
					<path class="st220" d="M372.7,158.6c0,0-13.3,2.2-13.7,6.3c-0.2,1.7,2.1,5.1,1.5,6.9c-0.9,2.5-2.3,4,0.3,10.1
						c2.1,4.9-1.5,15-1.4,16.2c0.4,4.5,7.5,5.3,10.5,5.2c4.2-0.1,16.2-2.8,16.2-5.4c0-2.3-5.6-7.2-6.1-11.1s9.6-19.5,7.6-23
						C383.7,157.2,372.7,158.6,372.7,158.6z"/>
					<g>
						<path class="st242" d="M385.5,200.5c-0.1,0-3.4,0.9-4,1.2c-0.5,0.3-1.6,1.4-2,1.7c-0.8,0.8,0.3,1.1,1,0.8
							c1-0.4,1.3-0.7,1.7-0.8c0.2,0,0.4,0,0.6,0c-0.3,0.4-1.4,2-2.4,2.8c-0.6,0.5-1.1,0.8-1.9,1.4c-0.4,0.3-0.1,0.8,0.4,0.7
							c0.4,0,1.5-0.4,2.4-1.1c0.4-0.3,0.7-0.6,1-0.9c0,0-0.7,0.8-1.1,1.2c-0.5,0.5-1.1,0.8-1.9,1.4c-0.4,0.3-0.1,0.7,0.4,0.6
							c0.1,0,0.4-0.1,0.7-0.2c-0.1,0.3,0.1,0.6,0.5,0.5c0.2,0,0.5-0.2,1-0.4c0.1,0.1,0.2,0.2,0.4,0.1c2.1-0.5,5.7-3.5,6.5-4.6
							C390.9,201.2,387.8,200.2,385.5,200.5z"/>
						<path class="st220" d="M382.6,160.5c-2.1,1.7-4.1,5.4-1,10.1c3.1,4.7,11.9,9.6,14.1,14.1c1.3,2.7-10.6,14.3-10.6,15.8
							c0,1.5,2.2,5.1,3.1,5.5c1.5,0.7,18.3-15.5,18.3-21.4S387.2,156.8,382.6,160.5z"/>
					</g>
					<path class="st242" d="M374.7,148.4c0,0,0.3,3.4,1.3,6.1c1,2.7,2.1,3.5,3.4,4.7c1.3,1.1-5.1,8-10.8,9.7c0,0-4.1-5-2.2-7.9
						c1.9-2.8,3.4-3.1,2.7-6.8c-0.6-3.3-0.9-5.1-0.9-5.1L374.7,148.4z"/>
					<g>
						<g>
							<path class="st1" d="M365.9,150.1c0,1.6-0.7,2.9-1.5,2.9c-0.8,0-1.5-1.3-1.5-2.9c0-1.1,0.3-2,0.8-2.5c0.1-0.2,0-0.3-0.2-0.1
								c-0.5,0.5-0.8,1.5-0.8,2.7c0,1.8,0.7,3.1,1.7,3.1c1,0,1.7-1.4,1.7-3.1c0-0.9-0.1-1.6-0.5-2.2c0,0-0.1,0.1-0.2,0.2
								C365.8,148.6,365.9,149.3,365.9,150.1z"/>
						</g>
						<g>
							<path class="st255" d="M374.7,148.4c0,0-0.9,7-7.5,6.5c-3.3-0.2-5-7-3.7-8.8c0,0-0.6-3.4,0-6.2c0.6-2.8,6.1-4.3,10.6-2.9
								c0,0,1.3,1.2,0.8,6.8c0,0,0.8-1,2.1-0.3c1,0.5,1.1,1.8,0.8,3C377.5,147.9,376,149.2,374.7,148.4z"/>
							<path class="st256" d="M375.2,147.8l0.5-1.3l-0.8-0.3c0,0,0.5-2.5,1.9-1.5C377.9,145.4,376.6,148.3,375.2,147.8z"/>
							<g>
								<path class="st1" d="M377.3,150.1c0,1.6-0.7,2.9-1.5,2.9c-0.8,0-1.5-1.3-1.5-2.9c0-1.1,0.3-2,0.8-2.5c0.1-0.2,0-0.3-0.2-0.1
									c-0.5,0.5-0.8,1.5-0.8,2.7c0,1.8,0.7,3.1,1.7,3.1c1,0,1.7-1.4,1.7-3.1c0-0.9-0.1-1.6-0.5-2.2c0,0-0.1,0.1-0.2,0.2
									C377.2,148.6,377.3,149.3,377.3,150.1z"/>
							</g>
						</g>
						<g>
							<g>
								<path class="st230" d="M365.5,150.5c0,0,0.4-1.1,3.9-0.7C369,151.6,365.8,152.5,365.5,150.5z"/>
								<g>
									<path class="st256" d="M365.5,150.5c0,0,2.1,0,3.9-0.7"/>
									<path class="st256" d="M365.5,150.5c1.3-0.2,2.6-0.4,3.9-0.7c-0.6,0.3-1.2,0.5-1.9,0.6
										C366.8,150.5,366.2,150.6,365.5,150.5z"/>
								</g>
							</g>
							<g>
								<path class="st243" d="M363.5,146c0,0.3,0.4,0.3,0.9,0.3c0.5,0,0.9-0.1,0.9-0.4c0-0.3-0.5-0.5-0.9-0.5
									C363.9,145.4,363.5,145.7,363.5,146z"/>
								<path class="st243" d="M362.5,144.7c0,0,1.2-1,1.5-1c0.3,0,1.5,0.5,1.6,0.3c0.1-0.2,0.2-0.5,0.2-0.5s-1.6-0.3-2-0.2
									C363.5,143.4,362.6,144.4,362.5,144.7z"/>
							</g>
							<g>
								<path class="st243" d="M368.1,145.7c0,0.3,0.4,0.3,0.9,0.3c0.5,0,0.9-0.1,0.9-0.4c0-0.3-0.5-0.5-0.9-0.5
									C368.5,145.1,368.1,145.3,368.1,145.7z"/>
								<path class="st243" d="M371.1,143.7c0,0-1.5-0.6-1.9-0.5c-0.4,0.1-1.6,0.7-1.8,0.6c-0.2-0.1-0.4-0.5-0.4-0.5
									s1.8-0.6,2.3-0.6C369.7,142.7,370.8,143.3,371.1,143.7z"/>
							</g>
							<g>
								<path class="st257" d="M366.1,148.7c0,0,1.2,0,1.1-0.4c0-0.3-2.4-0.7-2.6-0.4C364.5,148.1,365.6,148.5,366.1,148.7z"/>
								<path class="st256" d="M365.9,143.9c0,0,0.3,1.4,0.2,2c-0.2,0.5-1.2,1.7-1.3,1.9c0,0.2,1.2,0.9,1.3,0.9s-1.7-0.2-1.7-0.8
									c0.1-0.6,1.4-2,1.5-2.3C365.9,145.3,365.9,143.9,365.9,143.9z"/>
							</g>
						</g>
					</g>
					<path class="st243" d="M372.7,137.5c-5.5,0.6-7.9,5.8-12,5.8c-2.5-4.3,5.1-15.3,14.1-6.8c4.1,3.9,0.4,6.9,0.4,6.9l-0.9,3.2
						c0,0,0.1-2.4-0.8-3.3C371.1,140.6,372.7,137.5,372.7,137.5z"/>
				</g>
			</g>
		</g>
	</g>
	<g>
		<path class="st268" d="M336.8,108.4l-56.5-13.9l0,0l-7.1-1.8c-2.8-0.7-5.6,1-6.3,3.8l-5.6,22.8l0,0l-0.3,1.3l-2.6,10.4
			c-0.7,2.8,1,5.6,3.8,6.3l62.6,15.4c2.8,0.7,5.6-1,6.3-3.8l0.7-3l0,0l2.1-8.7l0,0l3.1-12.6l0,0l2.7-11.1
			C340.4,111.2,339,108.9,336.8,108.4z"/>
		<g>
			<path class="st218" d="M323.8,150.6l-62.6-15.4c-2.8-0.7-4.5-3.5-3.8-6.3l8.5-34.5c0.7-2.8,3.5-4.5,6.3-3.8l62.6,15.4
				c2.8,0.7,4.5,3.5,3.8,6.3l-8.5,34.5C329.4,149.6,326.6,151.3,323.8,150.6z"/>
			<path class="st217" d="M270.2,103.1c-2.1,5.7-1.4,13.5,4.3,16.3c20.3,12.1,42,11,61.6,3.1l2.7-11.1c0.5-2.2-0.8-4.5-3-5
				l-56.5-13.9C275.1,94.8,272,98.9,270.2,103.1z"/>
			
				<rect x="258.1" y="126" transform="matrix(0.971 0.239 -0.239 0.971 39.7538 -66.8489)" class="st220" width="74.8" height="8.9"/>
			<path class="st220" d="M291.8,105.3l-22-5.4c-1.1-0.3-1.8-1.4-1.5-2.5l0.1-0.3c0.3-1.1,1.4-1.8,2.5-1.5l22,5.4
				c1.1,0.3,1.8,1.4,1.5,2.5l-0.1,0.3C294,104.8,292.9,105.5,291.8,105.3z"/>
			<path class="st220" d="M311,114.6l-43.3-10.7c-0.6-0.1-0.9-0.7-0.8-1.3l0-0.1c0.1-0.6,0.7-0.9,1.3-0.8l43.3,10.7
				c0.6,0.1,0.9,0.7,0.8,1.3l0,0.1C312.2,114.4,311.6,114.7,311,114.6z"/>
			<g>
				<path class="st1" d="M302.2,122.8l-1.4-0.3c-0.8-0.2-1.3-1-1.1-1.8l0.1-0.2c0.2-0.8,1-1.3,1.8-1.1l1.4,0.3
					c0.8,0.2,1.3,1,1.1,1.8l-0.1,0.2C303.7,122.5,303,123,302.2,122.8z"/>
				<path class="st1" d="M307.6,124.2l-1.4-0.3c-0.8-0.2-1.3-1-1.1-1.8l0.1-0.2c0.2-0.8,1-1.3,1.8-1.1l1.4,0.3
					c0.8,0.2,1.3,1,1.1,1.8l-0.1,0.2C309.2,123.9,308.4,124.3,307.6,124.2z"/>
				<path class="st1" d="M313,125.5l-1.4-0.3c-0.8-0.2-1.3-1-1.1-1.8l0.1-0.2c0.2-0.8,1-1.3,1.8-1.1l1.4,0.3c0.8,0.2,1.3,1,1.1,1.8
					l-0.1,0.2C314.6,125.2,313.8,125.7,313,125.5z"/>
			</g>
			<g>
				<path class="st230" d="M325.8,109.5c-0.6-1.1-1.7-2-3.1-2.3c-2.6-0.6-5.2,1-5.9,3.6c-0.6,2.6,1,5.2,3.6,5.9
					c1.3,0.3,2.7,0.1,3.8-0.6c-0.6-1-0.8-2.3-0.5-3.6C324,111.2,324.8,110.1,325.8,109.5z"/>
				<path class="st230" d="M329.6,108.9c-1.3-0.3-2.7-0.1-3.8,0.6c0.6,1,0.8,2.3,0.5,3.6c-0.3,1.3-1.1,2.3-2.1,2.9
					c0.6,1.1,1.7,2,3.1,2.3c2.6,0.6,5.2-1,5.9-3.6C333.8,112.1,332.2,109.5,329.6,108.9z"/>
			</g>
		</g>
	</g>
</g>
</svg>
