<?xml version="1.0" encoding="utf-8"?>
<!-- Generator: Adobe Illustrator 23.0.5, SVG Export Plug-In . SVG Version: 6.00 Build 0)  -->
<svg version="1.1" id="Layer_1" xmlns="http://www.w3.org/2000/svg" xmlns:xlink="http://www.w3.org/1999/xlink" x="0px" y="0px"
	 viewBox="0 0 530.1 373" style="enable-background:new 0 0 530.1 373;" xml:space="preserve">
<style type="text/css">
	.st0{fill:#E4EBF7;}
	.st1{fill:#FFFFFF;}
	.st2{fill:#D793C9;}
	.st3{fill:#ABDAF7;}
	.st4{fill:#70B2DD;}
	.st5{fill:#F29C8B;}
	.st6{fill:url(#SVGID_1_);}
	.st7{fill:#3150BC;}
	.st8{fill:#78AAF9;}
	.st9{fill:#FEB19E;}
	.st10{fill:#525559;}
	.st11{fill:url(#SVGID_2_);}
	.st12{fill:#FF856A;}
	.st13{fill:#1B3151;}
	.st14{fill:#23406D;}
	.st15{fill:#4E79B7;}
	.st16{opacity:0.49;fill:#1B3151;}
	.st17{fill:url(#SVGID_3_);}
	.st18{fill:url(#SVGID_4_);}
	.st19{fill:url(#SVGID_5_);}
	.st20{fill:url(#SVGID_6_);}
	.st21{fill:url(#SVGID_7_);}
	.st22{fill:#94D6D4;}
	.st23{fill:url(#SVGID_8_);}
	.st24{fill:#FFF7D1;}
	.st25{fill:url(#SVGID_9_);}
	.st26{fill:url(#SVGID_10_);}
	.st27{fill:url(#SVGID_11_);}
	.st28{fill:#F5E5A1;}
	.st29{fill:#CDCDCD;}
	.st30{fill:#1B1464;}
	.st31{fill:url(#SVGID_12_);}
	.st32{fill:url(#SVGID_13_);}
	.st33{fill:#D78785;}
	.st34{fill:#CA605D;}
	.st35{fill:#C5514E;}
	.st36{fill:#BE3C39;}
	.st37{fill:#B5211E;}
	.st38{fill:url(#SVGID_14_);}
	.st39{fill:#CA6AB6;}
	.st40{fill:#C55BAF;}
	.st41{fill:#BE45A6;}
	.st42{fill:#B5279A;}
	.st43{fill:url(#SVGID_15_);}
	.st44{fill:#9BC7D7;}
	.st45{fill:#72B1CA;}
	.st46{fill:#63AAC5;}
	.st47{fill:#4CA0BE;}
	.st48{fill:#2E92B5;}
	.st49{fill:url(#SVGID_16_);}
	.st50{fill:url(#SVGID_17_);}
	.st51{fill:url(#SVGID_18_);}
	.st52{fill:url(#SVGID_19_);}
	.st53{fill:#E6E6E6;}
	.st54{fill:url(#SVGID_20_);}
	.st55{fill:url(#SVGID_21_);}
	.st56{fill:url(#SVGID_22_);}
	.st57{fill:url(#SVGID_23_);}
	.st58{fill:url(#SVGID_24_);}
	.st59{fill:#E47EDA;}
	.st60{fill:#3C2BDA;}
	.st61{fill:#619CE3;}
	.st62{fill:#CCCCCC;}
	.st63{fill:#4D4D4D;}
	.st64{fill:url(#SVGID_25_);}
	.st65{fill:#999999;}
	.st66{fill:#666666;}
	.st67{fill:#F1D34E;}
	.st68{fill:#C85676;}
	.st69{fill:#8043B1;}
	.st70{fill:#FF0000;}
	.st71{fill:#FFFF00;}
	.st72{fill:#00FF00;}
	.st73{fill:#00FFFF;}
	.st74{fill:#0000FF;}
	.st75{fill:#FF00FF;}
	.st76{fill:#BF272D;}
	.st77{fill:#EF5A24;}
	.st78{fill:#F9AE3B;}
	.st79{fill:#FAEC21;}
	.st80{fill:#39B34A;}
	.st81{fill:#8AC43F;}
	.st82{fill:#006837;}
	.st83{fill:#00A79B;}
	.st84{fill:#0071BA;}
	.st85{fill:#333333;}
	.st86{fill:#808080;}
	.st87{fill:#B3B3B3;}
	.st88{fill:#F2F2F2;}
	.st89{fill:#EB1C24;}
	.st90{fill:url(#SVGID_26_);}
	.st91{fill:url(#SVGID_27_);}
	.st92{fill:url(#SVGID_28_);}
	.st93{fill:url(#SVGID_29_);}
	.st94{fill:url(#SVGID_30_);}
	.st95{fill:url(#SVGID_31_);}
	.st96{fill:url(#SVGID_32_);}
	.st97{fill:url(#SVGID_33_);}
	.st98{fill:url(#SVGID_34_);}
	.st99{fill:url(#SVGID_35_);}
	.st100{fill:url(#SVGID_36_);}
	.st101{fill:url(#SVGID_37_);}
	.st102{fill:url(#SVGID_38_);}
	.st103{fill:#FFB293;}
	.st104{fill:#FFCAB5;}
	.st105{fill:url(#SVGID_39_);}
	.st106{fill:url(#SVGID_40_);}
	.st107{fill:url(#SVGID_41_);}
	.st108{fill:url(#SVGID_42_);}
	.st109{fill:url(#SVGID_43_);}
	.st110{fill:url(#SVGID_44_);}
	.st111{fill:url(#SVGID_45_);}
	.st112{fill:url(#SVGID_46_);}
	.st113{fill:url(#SVGID_47_);}
	.st114{fill:url(#SVGID_48_);}
	.st115{fill:url(#SVGID_49_);}
	.st116{fill:url(#SVGID_50_);}
	.st117{fill:url(#SVGID_51_);}
	.st118{fill:#FFE2E6;}
	.st119{opacity:0.4;fill:url(#SVGID_52_);}
	.st120{opacity:4.000000e-02;}
	.st121{fill:url(#SVGID_53_);}
	.st122{fill:#FFD275;}
	.st123{fill:url(#SVGID_54_);}
	.st124{opacity:0.4;fill:url(#SVGID_55_);}
	.st125{fill:#FF7872;}
	.st126{fill:url(#SVGID_56_);}
	.st127{fill:#005048;}
	.st128{fill:#57ABB9;}
	.st129{fill:#DFF3F7;}
	.st130{fill:#3C7582;}
	.st131{fill:#A0E0D6;}
	.st132{fill:#E7E7CE;}
	.st133{fill:#00BEA6;}
	.st134{fill:none;stroke:#161636;stroke-width:0.9096;stroke-linecap:round;stroke-linejoin:round;}
	.st135{fill:none;stroke:#161636;stroke-width:0.9096;stroke-linecap:round;stroke-linejoin:round;stroke-dasharray:2.697,3.596;}
	.st136{fill:none;stroke:#161636;stroke-width:0.9096;stroke-linecap:round;stroke-linejoin:round;stroke-dasharray:2.615,3.4866;}
	.st137{fill:#161636;}
	.st138{opacity:0.4;}
	.st139{fill:#FBF9DD;}
	.st140{fill:#FE7F58;}
	.st141{fill:#EE4026;}
	.st142{fill:#95170A;}
	.st143{fill:url(#SVGID_57_);}
	.st144{fill:url(#SVGID_58_);}
	.st145{fill:#FF9E7D;}
	.st146{fill:#004D62;}
	.st147{fill:#D5495B;}
	.st148{fill:#FF605B;}
	.st149{fill:#F8F8DC;}
	.st150{fill:#00BEA5;}
	.st151{fill:#FFBEAA;}
	.st152{fill:url(#SVGID_59_);}
	.st153{fill:#FD5757;}
	.st154{fill:#FF8B8B;}
	.st155{fill:#06061E;}
	.st156{fill:#005160;}
	.st157{fill:#005A6C;}
	.st158{fill:#FF9F81;}
	.st159{fill:url(#SVGID_60_);}
	.st160{fill:#FFB8A0;}
	.st161{fill:url(#SVGID_61_);}
	.st162{fill:#003746;}
	.st163{fill:#3B7A8B;}
	.st164{opacity:0.2;fill-rule:evenodd;clip-rule:evenodd;fill:url(#SVGID_62_);}
	.st165{clip-path:url(#SVGID_64_);}
	.st166{fill-rule:evenodd;clip-rule:evenodd;fill:#C7C0DD;}
	.st167{opacity:0.4;fill-rule:evenodd;clip-rule:evenodd;fill:url(#SVGID_65_);}
	.st168{fill-rule:evenodd;clip-rule:evenodd;fill:#350A3D;}
	.st169{fill-rule:evenodd;clip-rule:evenodd;fill:url(#SVGID_66_);}
	.st170{fill-rule:evenodd;clip-rule:evenodd;fill:#CB6459;}
	.st171{fill-rule:evenodd;clip-rule:evenodd;fill:#B24949;}
	.st172{fill-rule:evenodd;clip-rule:evenodd;fill:#005A6C;}
	.st173{fill-rule:evenodd;clip-rule:evenodd;fill:#E6AD83;}
	.st174{fill-rule:evenodd;clip-rule:evenodd;fill:#B02539;}
	.st175{fill-rule:evenodd;clip-rule:evenodd;fill:#ECD8DA;}
	.st176{fill-rule:evenodd;clip-rule:evenodd;fill:#DF9AA3;}
	.st177{fill-rule:evenodd;clip-rule:evenodd;fill:#C73048;}
	.st178{fill-rule:evenodd;clip-rule:evenodd;fill:#CF4A60;}
	.st179{fill-rule:evenodd;clip-rule:evenodd;fill:#D4A037;}
	.st180{fill-rule:evenodd;clip-rule:evenodd;fill:url(#SVGID_67_);}
	.st181{fill-rule:evenodd;clip-rule:evenodd;fill:url(#SVGID_68_);}
	.st182{fill-rule:evenodd;clip-rule:evenodd;fill:url(#SVGID_69_);}
	.st183{fill-rule:evenodd;clip-rule:evenodd;fill:#FFFFFF;}
	.st184{fill-rule:evenodd;clip-rule:evenodd;fill:url(#SVGID_70_);}
	.st185{fill-rule:evenodd;clip-rule:evenodd;fill:#F2DBDF;}
	.st186{fill-rule:evenodd;clip-rule:evenodd;fill:#BD263E;}
	.st187{fill-rule:evenodd;clip-rule:evenodd;fill:#472055;}
	.st188{fill-rule:evenodd;clip-rule:evenodd;fill:#542763;}
	.st189{fill-rule:evenodd;clip-rule:evenodd;fill:#9EBCD2;}
	.st190{fill-rule:evenodd;clip-rule:evenodd;fill:#7696AE;}
	.st191{fill-rule:evenodd;clip-rule:evenodd;fill:url(#SVGID_71_);}
	.st192{fill-rule:evenodd;clip-rule:evenodd;fill:url(#SVGID_72_);}
	.st193{fill-rule:evenodd;clip-rule:evenodd;fill:url(#SVGID_73_);}
	.st194{fill-rule:evenodd;clip-rule:evenodd;fill:#E7E2EF;}
	.st195{fill:#F4A640;}
	.st196{fill:#ADCFD8;}
	.st197{fill:#55769F;}
	.st198{fill:#DAEEF7;}
	.st199{fill:#FEB546;}
	.st200{fill:#FF5B7E;}
	.st201{fill:#E03268;}
	.st202{fill:#07085B;}
	.st203{fill:#02CCC0;}
	.st204{fill:#06BFAD;}
	.st205{opacity:0.5;fill:#55769F;}
	.st206{fill:#C4DFE8;}
	.st207{fill:#FFC0BB;}
	.st208{opacity:0.6;fill:#FC8D84;}
	.st209{fill:#050645;}
	.st210{fill:#F99893;}
	.st211{fill:#6F747A;}
	.st212{fill:#CDD6E0;}
	.st213{fill:#D9D9D9;}
	.st214{fill:#71BF9D;}
	.st215{fill:none;stroke:#E57E55;stroke-width:0.8859;stroke-linecap:round;stroke-linejoin:round;stroke-miterlimit:10;}
	.st216{fill:none;stroke:#E57E55;stroke-width:0.7092;stroke-linecap:round;stroke-linejoin:round;stroke-miterlimit:10;}
	.st217{fill:#FFD25A;}
	.st218{fill:#FFBE57;}
	.st219{fill:none;stroke:#FFFFFF;stroke-width:0.8649;stroke-miterlimit:10;}
	.st220{fill:#764582;}
	.st221{fill:#9D68AA;}
	.st222{fill:#FFFFFF;stroke:#764582;stroke-width:0.865;stroke-miterlimit:10;}
	.st223{fill-rule:evenodd;clip-rule:evenodd;fill:#764582;}
	.st224{fill-rule:evenodd;clip-rule:evenodd;fill:#FFFFFF;stroke:#764582;stroke-width:0.9101;stroke-miterlimit:10;}
	.st225{fill:none;stroke:#764582;stroke-width:1.1238;stroke-miterlimit:10;}
	.st226{fill:#FFFFFF;stroke:#764582;stroke-width:0.9101;stroke-linecap:round;stroke-linejoin:round;stroke-miterlimit:10;}
	.st227{opacity:0.7;fill:#A1ABAD;}
	.st228{fill:#DD4026;}
	.st229{fill:#E2E2E2;}
	.st230{fill:#FD6141;}
	.st231{fill:none;}
	.st232{fill:none;stroke:#EFE9DA;stroke-width:1.0282;stroke-linecap:round;stroke-miterlimit:10;}
	.st233{fill:none;stroke:#EFE9DA;stroke-width:1.0282;stroke-miterlimit:10;}
	.st234{fill:#3C8460;}
	.st235{opacity:0.2;fill:#764582;}
	.st236{fill:#E4BCE8;}
	.st237{fill:none;stroke:#FFFFFF;stroke-width:0.8648;stroke-miterlimit:10;}
	.st238{fill:#FDEEFF;}
	.st239{fill:#A1ABAD;}
	.st240{fill:#FFCC5A;stroke:#764582;stroke-width:0.865;stroke-miterlimit:10;}
	.st241{fill-rule:evenodd;clip-rule:evenodd;fill:#9D68AA;}
	.st242{fill:#FFB072;}
	.st243{fill:#3E2344;}
	.st244{fill:#FFDCAE;}
	.st245{fill:#FFFFFF;stroke:#FD6141;stroke-width:1.6475;stroke-linecap:round;stroke-linejoin:round;stroke-miterlimit:10;}
	.st246{fill:#FF8976;}
	.st247{fill:#F99441;}
	.st248{clip-path:url(#SVGID_75_);fill:#FFAEC1;}
	.st249{clip-path:url(#SVGID_75_);fill:#FFB072;}
	.st250{fill:#552F5E;}
	.st251{fill:#F29353;}
	.st252{clip-path:url(#SVGID_77_);fill:#FFAEC1;}
	.st253{clip-path:url(#SVGID_77_);fill:#FFB072;}
	.st254{fill:none;stroke:#FFFFFF;stroke-width:0.4429;stroke-miterlimit:10;}
	.st255{fill-rule:evenodd;clip-rule:evenodd;fill:#FFB072;}
	.st256{fill:#E57E55;}
	.st257{opacity:0.5;fill:#E57E55;}
	.st258{opacity:0.7;fill-rule:evenodd;clip-rule:evenodd;fill:#A1ABAD;}
	.st259{fill:none;stroke:#FFFFFF;stroke-width:0.4429;stroke-linecap:round;stroke-linejoin:round;stroke-miterlimit:10;}
	.st260{fill-rule:evenodd;clip-rule:evenodd;fill:#FD6141;}
	.st261{opacity:0.5;}
	.st262{fill-rule:evenodd;clip-rule:evenodd;fill:#DD4026;}
	.st263{clip-path:url(#SVGID_79_);fill:#DD4026;}
	.st264{fill:#F7B614;}
	.st265{opacity:0.5;fill:#FFBE57;}
	.st266{clip-path:url(#SVGID_81_);fill:#DD4026;}
	.st267{fill:none;stroke:#FFFFFF;stroke-width:0.4429;stroke-linecap:round;stroke-miterlimit:10;}
	.st268{opacity:0.3;fill:#764582;}
</style>
<g>
	<g>
		<g>
			<path class="st195" d="M269.5,301.3l46.8,18.8l57.9-144.3L334.6,160c-4-1.6-8.5,0.3-10.1,4.3L269.5,301.3z"/>
			<g>
				
					<rect x="274.4" y="176.9" transform="matrix(-0.9846 -0.1746 0.1746 -0.9846 592.9099 533.9191)" class="st196" width="91" height="128"/>
				
					<rect x="308.5" y="190.4" transform="matrix(-0.9846 -0.1746 0.1746 -0.9846 619.3613 436.1662)" class="st197" width="40.6" height="0.9"/>
				
					<rect x="300.4" y="188.1" transform="matrix(-0.9846 -0.1746 0.1746 -0.9846 620.5604 431.7149)" class="st197" width="57.7" height="0.9"/>
				
					<rect x="292.2" y="199.8" transform="matrix(-0.9846 -0.1746 0.1746 -0.9846 614.395 454.5982)" class="st197" width="70" height="0.9"/>
				
					<rect x="291.4" y="204.1" transform="matrix(-0.9846 -0.1746 0.1746 -0.9846 612.1207 463.0406)" class="st197" width="70" height="0.9"/>
				
					<rect x="289.9" y="212.8" transform="matrix(-0.9846 -0.1746 0.1746 -0.9846 607.5712 479.9261)" class="st197" width="70" height="0.9"/>
				
					<rect x="289.1" y="217.1" transform="matrix(-0.9846 -0.1746 0.1746 -0.9846 605.2961 488.3695)" class="st197" width="70" height="0.9"/>
				
					<rect x="288.3" y="221.4" transform="matrix(-0.9846 -0.1746 0.1746 -0.9846 603.0218 496.8117)" class="st197" width="70" height="0.9"/>
				
					<rect x="285" y="240.4" transform="matrix(-0.9846 -0.1746 0.1746 -0.9846 593.0162 533.9468)" class="st197" width="70" height="0.9"/>
				
					<rect x="284.2" y="244.9" transform="matrix(-0.9846 -0.1746 0.1746 -0.9846 590.6573 542.7016)" class="st197" width="70" height="0.9"/>
				
					<rect x="283.4" y="249.4" transform="matrix(-0.9846 -0.1746 0.1746 -0.9846 588.2997 551.455)" class="st197" width="70" height="0.9"/>
				
					<rect x="282.6" y="253.9" transform="matrix(-0.9846 -0.1746 0.1746 -0.9846 585.9397 560.2111)" class="st197" width="70" height="0.9"/>
				
					<rect x="281.8" y="258.4" transform="matrix(-0.9846 -0.1746 0.1746 -0.9846 583.5808 568.9657)" class="st197" width="70" height="0.9"/>
				
					<rect x="281" y="262.8" transform="matrix(-0.9846 -0.1746 0.1746 -0.9846 581.2211 577.7214)" class="st197" width="70" height="0.9"/>
				
					<rect x="280.2" y="267.3" transform="matrix(-0.9846 -0.1746 0.1746 -0.9846 578.8625 586.4758)" class="st197" width="70" height="0.9"/>
			</g>
			<g>
				
					<rect x="281.4" y="176.3" transform="matrix(-0.9671 -0.2545 0.2545 -0.9671 581.9596 555.8007)" class="st198" width="91" height="128"/>
				
					<rect x="319.6" y="190.7" transform="matrix(-0.9671 -0.2545 0.2545 -0.9671 620.0173 462.4421)" class="st197" width="40.6" height="0.9"/>
				
					<rect x="311.7" y="188.4" transform="matrix(-0.9671 -0.2545 0.2545 -0.9671 621.745 458.1904)" class="st197" width="57.7" height="0.9"/>
				
					<rect x="302.5" y="199.9" transform="matrix(-0.9671 -0.2545 0.2545 -0.9671 612.8622 480.0482)" class="st197" width="70" height="0.9"/>
				
					<rect x="301.4" y="204.2" transform="matrix(-0.9671 -0.2545 0.2545 -0.9671 609.5845 488.1134)" class="st197" width="70" height="0.9"/>
				
					<rect x="299.1" y="212.7" transform="matrix(-0.9671 -0.2545 0.2545 -0.9671 603.0303 504.2415)" class="st197" width="70" height="0.9"/>
				
					<rect x="298" y="216.9" transform="matrix(-0.9671 -0.2545 0.2545 -0.9671 599.7531 512.3061)" class="st197" width="70" height="0.9"/>
				
					<rect x="296.9" y="221.1" transform="matrix(-0.9671 -0.2545 0.2545 -0.9671 596.4755 520.3707)" class="st197" width="70" height="0.9"/>
				
					<rect x="292" y="239.8" transform="matrix(-0.9671 -0.2545 0.2545 -0.9671 582.0596 555.8422)" class="st197" width="70" height="0.9"/>
				
					<rect x="290.8" y="244.2" transform="matrix(-0.9671 -0.2545 0.2545 -0.9671 578.6617 564.2042)" class="st197" width="70" height="0.9"/>
				
					<rect x="289.7" y="248.6" transform="matrix(-0.9671 -0.2545 0.2545 -0.9671 575.2642 572.5661)" class="st197" width="70" height="0.9"/>
				
					<rect x="288.5" y="253" transform="matrix(-0.9671 -0.2545 0.2545 -0.9671 571.8651 580.9291)" class="st197" width="70" height="0.9"/>
				
					<rect x="287.3" y="257.4" transform="matrix(-0.9671 -0.2545 0.2545 -0.9671 568.4662 589.2919)" class="st197" width="70" height="0.9"/>
				
					<rect x="286.2" y="261.8" transform="matrix(-0.9671 -0.2545 0.2545 -0.9671 565.0665 597.6555)" class="st197" width="70" height="0.9"/>
				
					<rect x="285" y="266.2" transform="matrix(-0.9671 -0.2545 0.2545 -0.9671 561.6699 606.0164)" class="st197" width="70" height="0.9"/>
			</g>
			<path class="st199" d="M287.2,308.4l94.2,37.8l55-136.9l-79.2-48.8c-4.5-2.7-10.3-0.8-12.2,4L287.2,308.4z"/>
		</g>
		<g>
			<path class="st200" d="M400.6,294.1l17.1-5c3-12.4,4.8-23,4.8-23c-20.6,0.8-36.5,7.1-48.6,16.1l-2.5,20.3l-5.4-13.6
				c-28.8,27.5-32.2,69.8-32.2,69.8s57.9-22.7,69-32c4.3-3.6,8.2-13.5,11.4-24.2C408.4,299.4,400.6,294.1,400.6,294.1z"/>
			<path class="st201" d="M422.5,266.1c0,0-67.8,53.2-88.8,92.6c0,0,57.9-22.7,69-32c4.3-3.6,8.2-13.5,11.4-24.2
				c-5.8-3.1-13.5-8.4-13.5-8.4l17.1-5C420.7,276.7,422.5,266.1,422.5,266.1z"/>
			<path class="st200" d="M434.2,318.3c-12-3.5-23.4-4-33.8-2.6c-1.9,4.5-4.4,9.8-4.4,9.8l-2.7-8.5c-39.1,8.8-64.1,43.5-64.1,43.5
				c26.2,8,46.4,6.7,61.7,1.1c0.1-3.3,0.2-8.1,0.2-8.1l4.7,6.2c7.2-3.2,13.2-7.4,18.1-11.8c-2.4-3.2-5.1-6.9-5.1-6.9l9.6,2.5
				C429.9,331.1,434.2,318.3,434.2,318.3z"/>
			<path class="st201" d="M390.9,361.6c0.1-3.3,0.2-8.1,0.2-8.1l4.7,6.2c7.2-3.2,13.2-7.4,18.1-11.8c-2.4-3.2-5.1-6.9-5.1-6.9
				l9.6,2.5c11.6-12.3,15.9-25.1,15.9-25.1c-46.5,7.1-105,42.2-105,42.2C355.4,368.4,375.6,367.1,390.9,361.6z"/>
		</g>
		<g>
			<path class="st201" d="M138.1,214.5h-6.4c1.1-0.7,2.4-1.2,3.8-1.2h161.4c8.4,0,15.3,6.1,15.3,13.6v8.6c0,7.5-6.8,13.6-15.3,13.6
				l-159.6,0L138.1,214.5z"/>
			<path class="st199" d="M298.7,235.5v-8.6c0-7.5-6.8-13.6-15.3-13.6h3.5c8.4,0,15.3,6.1,15.3,13.6v8.6c0,7.5-6.8,13.6-15.3,13.6
				l-3.4,0C291.8,249,298.7,243,298.7,235.5z"/>
			<path class="st199" d="M260.9,235.5v-8.6c0-7.5-6.8-13.6-15.3-13.6h3.5c8.4,0,15.3,6.1,15.3,13.6v8.6c0,7.5-6.8,13.6-15.3,13.6
				l-3.4,0C254,249,260.9,243,260.9,235.5z"/>
			<path class="st200" d="M229.8,213.4c8.1,0,14.6,5.8,14.6,13v9.7c0,7.2-6.5,13-14.6,13H129.3v-2.2h0.4l25.5-2.1l5.2-18
				c0,0-10-9.9-10.6-10.2c-0.6-0.3-20.1-1-20.1-1l-0.4,0v-2.2H229.8z"/>
			<path class="st198" d="M135.8,231.1c0-10.5-6.1-15.6-6.1-15.6h98c7.4,0,13.4,5.3,13.4,11.9v7.5c0,6.6-6,11.9-13.4,11.9h-98
				C129.7,246.9,135.8,244.4,135.8,231.1z"/>
			<path class="st198" d="M241.1,227.5v7.5c0,1-0.1,1.9-0.4,2.9c-3.3-7.2-9.6-14.1-21.7-16.3c-28.2-5.2-89.4-6-89.4-6h98
				C235.1,215.5,241.1,220.9,241.1,227.5z"/>
		</g>
		<g>
			<path class="st202" d="M140.8,285.9h-7.3c1.2-0.9,2.7-1.4,4.3-1.4h182.7c9.6,0,17.3,7.6,17.3,17v10.8c0,9.4-7.7,17-17.3,17
				l-180.7-0.1L140.8,285.9z"/>
			<path class="st197" d="M244.5,284.5c9.1,0,16.6,7.3,16.6,16.2v12.2c0,9-7.4,16.2-16.6,16.2H130.8v-2.7h0.5l28.9-2.7l5.8-22.5
				c0,0-11.3-12.4-12-12.7c-0.7-0.3-22.7-1.3-22.7-1.3l-0.5,0v-2.7H244.5z"/>
			<path class="st198" d="M138.1,306.7c0-13.1-6.9-19.5-6.9-19.5h111c8.4,0,15.2,6.7,15.2,14.9v9.4c0,8.2-6.8,14.9-15.2,14.9h-111
				C131.2,326.4,138.1,323.3,138.1,306.7z"/>
			<path class="st198" d="M257.4,302.1v9.4c0,1.2-0.2,2.4-0.4,3.6c-3.7-9-10.9-17.6-24.6-20.4c-31.9-6.5-101.2-7.5-101.2-7.5h111
				C250.6,287.2,257.4,293.9,257.4,302.1z"/>
		</g>
		<g>
			<path class="st203" d="M343.8,250.1h7.3c-1.2-0.7-2.7-1.1-4.3-1.1H164c-9.6,0-17.3,6-17.3,13.5v8.6c0,7.4,7.8,13.5,17.3,13.5
				l180.7,0L343.8,250.1z"/>
			<path class="st204" d="M240.1,249c-9.1,0-16.6,5.8-16.6,12.9v9.7c0,7.1,7.4,12.9,16.6,12.9h113.8v-2.2h-0.5l-28.9-2.1l-5.8-17.8
				c0,0,11.3-9.9,12-10.1c0.7-0.3,22.8-1,22.8-1l0.5,0V249H240.1z"/>
			<path class="st198" d="M346.5,266.6c0-10.4,6.9-15.5,6.9-15.5h-111c-8.4,0-15.2,5.3-15.2,11.8v7.4c0,6.5,6.8,11.8,15.2,11.8h111
				C353.4,282.3,346.5,279.8,346.5,266.6z"/>
			<path class="st198" d="M227.2,263v7.4c0,1,0.2,1.9,0.4,2.8c3.7-7.1,10.9-14,24.6-16.2c31.9-5.2,101.2-5.9,101.2-5.9h-111
				C234,251.2,227.2,256.5,227.2,263z"/>
			<path class="st205" d="M180.2,271v-8.6c0-7.4,7.8-13.5,17.3-13.5h-17.4c-9.6,0-17.3,6-17.3,13.5v8.6c0,7.4,7.8,13.5,17.3,13.5
				l17.1,0C187.8,284.4,180.2,278.4,180.2,271z"/>
		</g>
		<path class="st199" d="M355.9,330.5h9.1c-1.5-0.8-3.4-1.3-5.4-1.3H130.5c-12,0-21.7,6.7-21.7,15v9.6c0,8.3,9.7,15,21.7,15
			l226.6-0.1L355.9,330.5z"/>
		<path class="st195" d="M225.8,329.3c-11.5,0-20.8,6.4-20.8,14.4v10.8c0,7.9,9.3,14.4,20.8,14.4h142.7v-2.4h-0.6l-36.3-2.4
			l-7.3-19.9c0,0,14.1-11,15.1-11.3c0.9-0.3,28.5-1.1,28.5-1.1l0.6,0v-2.4H225.8z"/>
		<path class="st198" d="M359.2,349c0-11.7,8.7-17.3,8.7-17.3H228.7c-10.5,0-19.1,5.9-19.1,13.2v8.3c0,7.3,8.5,13.2,19.1,13.2h139.2
			C367.9,366.4,359.2,363.7,359.2,349z"/>
		<path class="st198" d="M209.6,344.9v8.3c0,1.1,0.2,2.2,0.6,3.2c4.7-8,13.7-15.6,30.8-18.1c40-5.8,126.9-6.6,126.9-6.6H228.7
			C218.2,331.7,209.6,337.6,209.6,344.9z"/>
		<path class="st206" d="M83.6,373h332.3c1,0,1.8-0.8,1.8-1.8v-0.8c0-1-0.8-1.8-1.8-1.8H83.6c-1,0-1.8,0.8-1.8,1.8v0.8
			C81.8,372.2,82.6,373,83.6,373z"/>
		<polygon class="st195" points="419.7,224.5 355.6,187.9 346.9,205 412.5,239.8 		"/>
		<path class="st203" d="M367,91.9c0,0,0.5,5,4.4,5.3c-3.9,0.3-4.4,5.3-4.4,5.3s-0.5-5-4.4-5.3C366.5,96.9,367,91.9,367,91.9z"/>
		<path class="st200" d="M436.4,237.4c0,0,0.8,7.5,6.7,8c-5.9,0.5-6.7,8-6.7,8s-0.8-7.5-6.7-8C435.7,244.9,436.4,237.4,436.4,237.4z
			"/>
		<path class="st199" d="M417.9,51.1c0,0,0.7,6.6,5.9,7.1c-5.2,0.5-5.9,7.1-5.9,7.1s-0.7-6.6-5.9-7.1
			C417.2,57.8,417.9,51.1,417.9,51.1z"/>
		<path class="st199" d="M105.7,266.8c0,0,0.5,4.5,4,4.8c-3.5,0.3-4,4.8-4,4.8s-0.5-4.5-4-4.8C105.3,271.3,105.7,266.8,105.7,266.8z
			"/>
		<path class="st200" d="M394.3,141.1c0,0,0.5,4.5,4,4.8c-3.5,0.3-4,4.8-4,4.8s-0.5-4.5-4-4.8C393.9,145.6,394.3,141.1,394.3,141.1z
			"/>
		<path class="st200" d="M333,24c0,0,0.5,4.5,4,4.8c-3.5,0.3-4,4.8-4,4.8s-0.5-4.5-4-4.8C332.6,28.5,333,24,333,24z"/>
		<path class="st200" d="M148.4,80.8c0,0,0.6,5.8,5.2,6.2c-4.6,0.4-5.2,6.2-5.2,6.2s-0.6-5.8-5.2-6.2
			C147.8,86.6,148.4,80.8,148.4,80.8z"/>
		<path class="st200" d="M108.8,182c0,0,0.9,8.6,7.6,9.1c-6.8,0.6-7.6,9.1-7.6,9.1s-0.9-8.6-7.6-9.1
			C107.9,190.5,108.8,182,108.8,182z"/>
		<path class="st200" d="M315.2,104.2c0,0,0.7,6.6,5.9,7.1c-5.2,0.5-5.9,7.1-5.9,7.1s-0.7-6.6-5.9-7.1
			C314.5,110.9,315.2,104.2,315.2,104.2z"/>
		<path class="st203" d="M442.3,176c0,0,0.7,6.6,5.9,7.1c-5.2,0.5-5.9,7.1-5.9,7.1s-0.7-6.6-5.9-7.1
			C441.7,182.6,442.3,176,442.3,176z"/>
		<path class="st203" d="M113,39.6c0,0,0.5,4.7,4.2,5.1c-3.7,0.3-4.2,5.1-4.2,5.1s-0.5-4.7-4.2-5.1C112.5,44.3,113,39.6,113,39.6z"
			/>
		<path class="st203" d="M162.9,156.6c0,0,0.8,7.6,6.8,8.1c-6,0.5-6.8,8.1-6.8,8.1s-0.8-7.6-6.8-8.1
			C162.1,164.2,162.9,156.6,162.9,156.6z"/>
		<path class="st199" d="M96.5,107.3c0,0,0.5,6,4.6,6.4c-4.1,0.4-4.6,6.4-4.6,6.4s-0.5-6-4.6-6.4C95.9,113.3,96.5,107.3,96.5,107.3z
			"/>
		<path class="st199" d="M194.3,11.1c0,0,0.5,6,4.6,6.4c-4.1,0.4-4.6,6.4-4.6,6.4s-0.5-6-4.6-6.4C193.8,17.1,194.3,11.1,194.3,11.1z
			"/>
		<g>
			<g>
				<path class="st198" d="M259.1,132.2l10.4,0.8l-3.3,8.4l-5.2-0.4l-2.2,7c-0.5-0.2-0.9-0.4-1-0.5c-0.2-0.1-0.7-3.6-1.2-6.8
					L259.1,132.2z"/>
				<path class="st201" d="M265,209.2v3.6c0,0.3,0.2,0.5,0.5,0.5h8.5c0.6,0,0.9-0.8,0.3-1.1l-4.8-3.1
					C269.6,209.2,267.8,210.6,265,209.2z"/>
				<path class="st207" d="M248.3,54.5c-0.1,0-0.3-0.1-0.2-0.2c0.2-1,0.9-4.2,0.6-4.3c-0.3-0.1-0.9,2.7-1.2,2.7
					c-0.3,0,0.4-2.7,0.1-2.8c-0.3-0.1-0.9,2.4-1,2.4c-0.2,0,0.1-2.5,0-2.6c-0.2-0.2-0.8,2.4-1,2.5c-0.2,0.1-0.4-1.9-0.5-1.9
					c-0.2,0-0.3,0-1.1,4.5c0,0-0.1,1.6-0.3,2l0.6,1.3l2,0.1c0,0,4.4-4,4.3-4.2C250.4,53.8,250.2,53.7,248.3,54.5z"/>
				<path class="st207" d="M269,55.5c0.1,0.1,0.3,0.1,0.3-0.1c0.3-1,1.1-4.1,1.4-4.1c0.3,0-0.4,2.8-0.1,3c0.2,0.2,0.9-2.6,1.2-2.5
					c0.3,0.1-0.3,2.6-0.2,2.7c0.1,0.1,1-2.3,1.2-2.3c0.2-0.1-0.4,2.5-0.3,2.7c0.1,0.1,1.2-1.5,1.3-1.4c0.2,0.1,0.3,0.1-1,4.5
					c0,0-0.7,1.5-0.6,2l-1.2,0.9l-1.8-0.9c0,0-2.1-5.5-1.9-5.7C267.4,53.9,267.6,54,269,55.5z"/>
				<polygon class="st207" points="253,91.5 253,99.2 245.6,98 246.8,89.4 				"/>
				<path class="st208" d="M246.3,93.3l0.6-4l6.2,2.8l0,1.5C251.5,94.1,248.7,94.4,246.3,93.3z"/>
				<path class="st201" d="M239.5,208.8v4c0,0.3-0.3,0.6-0.6,0.6h-9.4c-0.7,0-0.9-0.9-0.4-1.3l5.3-3.4
					C234.5,208.8,236.5,210.3,239.5,208.8z"/>
				<g>
					<g>
						<g>
							<path class="st202" d="M231,140.8c0-0.9-2.2,1.7-2.2,1c0.9-14.2,28.6-2.3,28.6-2.3l6.8,5l7.7,65.9c0,0-4.2,1.2-6.9,0.2
								L248,154.1l-2.1-0.8C246,153.3,236.7,146.8,231,140.8z"/>
						</g>
					</g>
				</g>
				<g>
					<g>
						<g>
							<path class="st204" d="M228.8,142.3c0,0.2,0,0.3,0,0.5C228.8,142.7,228.8,142.5,228.8,142.3z"/>
						</g>
						<g>
							<path class="st204" d="M228.7,142.9c0,0.2,0,0.4,0,0.5C228.7,143.2,228.7,143,228.7,142.9z"/>
						</g>
						<g>
							<path class="st204" d="M228.7,143.5c0,0.2,0,0.4,0,0.6C228.7,143.9,228.7,143.7,228.7,143.5z"/>
						</g>
						<g>
							<path class="st204" d="M228.8,141.8c0,0.2,0,0.3,0,0.5C228.8,142.1,228.8,141.9,228.8,141.8z"/>
						</g>
						<g>
							<path class="st202" d="M228.8,138.5c5.7,6,17.2,14.7,17.2,14.7l2.1,0.8l-2.1-0.8l-6.4,57c0,0-4.6,0.9-7.2-0.5
								C232.3,209.8,228.4,155.5,228.8,138.5z"/>
						</g>
						<g>
							<path class="st204" d="M271.9,210.3c0,0-1.8,0.5-3.8,0.6C270.1,210.8,271.9,210.3,271.9,210.3L271.9,210.3z"/>
						</g>
						<g>
							<path class="st204" d="M265.8,210.7c0.2,0,0.4,0.1,0.6,0.1C266.2,210.8,266,210.8,265.8,210.7z"/>
						</g>
						<g>
							<path class="st204" d="M268.1,210.9c-0.5,0-1,0-1.4,0C267.1,210.9,267.6,210.9,268.1,210.9z"/>
						</g>
					</g>
				</g>
				<path class="st209" d="M264.2,144.4l1.1,9.4c-2.9,1.1-9.9,2.3-15.2-9.3c-1.7-3.7-2.1-6.3-1.8-8.2c5.1,1.4,9.2,3.1,9.2,3.1
					L264.2,144.4z"/>
				<path class="st198" d="M238.7,106.1c0.3,0,5.1-10.9,5.1-10.9c4.1,2.9,9.7,0.9,9.7,0.9s22.5,41.1,7.4,47.5
					c-15.1,6.4-29.3-1.4-29.3-1.4s-3.2-8.3-3.2-8.7C228.5,133.2,238.4,106.1,238.7,106.1z"/>
				<path class="st197" d="M268,59.9c0,0,1,19.5-0.9,23.1C261.1,94.8,253.6,96,253.6,96s-2.6,41.5-0.5,51.4c0,0,7.1,2.2,17.6-2.7
					c0,0-8-32.2-7.6-36.2c0,0,12.8-11.4,13.3-24.9c0.4-13.5-3.1-25.4-3.1-25.4L268,59.9z"/>
				<path class="st197" d="M233.5,146c0,0,0.8-15.4,4.3-30.1c3.5-14.6,6.1-20.7,6.1-20.7c-4.7-5.2-3.9-9.9-3.5-16
					c0.5-7.1,7.4-21.2,7.4-21.2l-4.6-3c-22.3,26.8-9.9,48.1-9.9,48.1s-8.3,29.5-9.5,38.5C223.7,141.5,228.1,144.1,233.5,146z"/>
				<path class="st1" d="M262.9,108.5c-0.3-0.2-0.6-0.5-0.9-0.9c-0.9-1.1-1.4-2.4-1.8-3.9c0.2,0.6,0.8,2.4,1.9,3.7
					c0.5,0.6,0.8,0.8,1,1c0,0-0.1,0.1-0.1,0.1c0,0,0,0.1,0,0.1c-0.3,0.1-0.8,0.1-1.7-0.4c-0.5-0.3-1-0.6-1.4-1
					c0.3,0.2,0.9,0.7,1.5,0.9C261.9,108.3,262.4,108.5,262.9,108.5z"/>
				<path class="st1" d="M233.3,102.9c0.4-0.2,0.7-0.6,1-0.9c0.9-1.1,1.5-2.4,1.9-3.7c-0.3,1.4-0.8,2.7-1.8,3.9
					c-0.3,0.4-0.6,0.7-0.9,0.9c0.2,0,0.5,0,0.6-0.1c0.3-0.1,0.5-0.2,0.8-0.3c0.5-0.3,1.1-0.6,1.5-0.9c-0.4,0.3-0.9,0.7-1.4,1
					c-0.3,0.1-0.5,0.3-0.8,0.3c-0.3,0.1-0.6,0.1-0.9,0l-0.2,0L233.3,102.9z"/>
				<polygon class="st202" points="242.3,75.8 241.9,81.1 242.7,81.6 244.2,75.2 				"/>
				<path class="st210" d="M243.4,80.5c0.2,1.2-0.4,2.3-1.3,2.5c-1,0.2-1.9-0.6-2.1-1.8c-0.2-1.2,0.4-2.3,1.3-2.5
					C242.2,78.5,243.2,79.3,243.4,80.5z"/>
				<path class="st207" d="M242.1,85.4c-0.2-1.5-0.2-3.1-0.1-4.4c0-0.3,0-0.6,0-0.9c0-1.2,0.3-2.4,0.8-3.5c1.6-3.8,5.7-6.1,9.8-5.6
					c5.5,0.7,9.2,5.9,8.1,11.2c0.6-0.2,1.3-0.1,1.8,0.2c1,0.7,1.1,2.3,0.2,3.5c-0.9,1.2-2.4,1.7-3.4,1c-0.1-0.1-0.3-0.2-0.4-0.3
					c-1.4,4.4-5.8,7.2-10.2,6.2C245.4,92,242.6,89.3,242.1,85.4z"/>
				<path class="st85" d="M252.3,81.2c-0.2,0.5,0.2,1.1,0.8,1.1c0.3,0,0.6-0.2,0.7-0.5c0.2-0.5-0.2-1.1-0.8-1.1
					C252.7,80.7,252.4,80.9,252.3,81.2z"/>
				<path class="st85" d="M245.3,80.1c-0.2,0.5,0.2,1.1,0.8,1.1c0.3,0,0.6-0.2,0.7-0.5c0.2-0.5-0.2-1.1-0.8-1.1
					C245.7,79.6,245.4,79.8,245.3,80.1z"/>
				<path class="st210" d="M251.2,86.9c-0.4,0.2-0.9,0.4-1.3,0.5c-0.5,0.1-0.9,0.1-1.4,0.1c-0.5-0.1-0.9-0.2-1.3-0.5
					c-0.4-0.2-0.8-0.5-1.1-0.9c0.3,0.5,0.6,0.7,1,1c0.4,0.3,0.8,0.4,1.3,0.5c0.5,0.1,1,0,1.4-0.1C250.3,87.4,250.8,87.2,251.2,86.9z
					"/>
				<path class="st202" d="M251.6,79.5c0.4-0.1,0.8-0.1,1.2-0.1c0.4,0,0.8,0,1.1,0.1c0.4,0.1,0.7,0.2,1,0.5c0.4,0.3,0.8,0.6,1,0.7
					c-0.1-0.4-0.4-0.8-0.7-1.1c-0.3-0.3-0.7-0.5-1.2-0.7c-0.4-0.1-0.9-0.1-1.4,0C252.3,79,251.9,79.2,251.6,79.5z"/>
				<path class="st202" d="M248.3,79c-0.2-0.4-0.5-0.7-0.9-0.9c-0.4-0.2-0.8-0.4-1.3-0.4c-0.5,0-0.9,0-1.3,0.2
					c-0.4,0.1-0.8,0.5-1,0.8c0.3-0.1,0.7-0.3,1.2-0.4c0.4-0.1,0.8-0.1,1.1-0.1c0.4,0,0.8,0.1,1.1,0.2C247.6,78.6,248,78.8,248.3,79z
					"/>
				<path class="st210" d="M249.8,80c-0.4,0.4-0.7,0.8-1.1,1.2c-0.3,0.4-0.6,0.8-0.9,1.3c-0.2,0.3-0.4,0.6-0.4,1
					c0,0.2,0,0.3,0.3,0.6c0.2,0.2,0.4,0.4,0.6,0.5c0.2,0.1,0.4,0.3,0.7,0.4c-0.4-0.3-0.8-0.7-1.1-1.1c-0.1-0.1-0.1-0.2-0.2-0.3
					c0-0.1,0-0.2,0.1-0.3c0.1-0.2,0.2-0.5,0.3-0.7c0.3-0.4,0.6-0.9,0.8-1.3C249.2,80.9,249.5,80.5,249.8,80z"/>
				<path class="st202" d="M243.3,70.2c0,0-2.8-0.5,0.6-2.2c3.4-1.7,11.8-2.6,16.1,1.1c0,0,1.5-1.9,2.8-1.1c1.3,0.8-1.4,1.7-1.4,1.7
					s1.8,0.4,2.2,1.4c0.3,0.8-0.9,0.5-1.5,0.4c1,0.4,4,3.2,0.1,10.8c-0.7-0.3-5.1-6.6-5.1-6.6s-8.8,2.9-7.2,0.5
					c0,0-10.3,2.6-7.8-2.1C242.3,74.2,238.5,73.6,243.3,70.2z"/>
				<path class="st202" d="M262.3,82.3c0,0-0.7-0.5-1.7-0.1c-1,0.4-1.7,2.7-1.7,2.7s-3.3,2.7-1.7-9.1c1.6-11.7,3.8,1.9,3.8,1.9
					L262.3,82.3z"/>
			</g>
		</g>
		<g>
			<path class="st199" d="M267.2,45.8L252,44.7c-0.8-0.1-1.3-0.7-1.3-1.5l0,0c0.1-0.8,0.7-1.3,1.5-1.3l15.2,1.1
				c0.8,0.1,1.3,0.7,1.3,1.5l0,0C268.6,45.3,268,45.9,267.2,45.8z"/>
			<polygon class="st199" points="262.8,0 268.1,13 281.9,16 271.1,25.1 272.5,39.1 260.6,31.7 247.7,37.4 251,23.7 241.7,13.2 
				255.7,12.1 			"/>
			<g>
				<g>
					<polygon class="st195" points="262.8,0 261.5,19.1 268.1,13 					"/>
					<polygon class="st195" points="281.9,16 261.5,19.1 271.1,25.1 					"/>
					<polygon class="st195" points="261.5,19.1 255.7,12.1 241.7,13.2 					"/>
					<polygon class="st195" points="247.7,37.4 261.5,19.1 251,23.7 					"/>
					<polygon class="st195" points="272.5,39.1 261.5,19.1 260.6,31.7 					"/>
				</g>
			</g>
			
				<rect x="247.7" y="45.5" transform="matrix(0.9975 7.106790e-02 -7.106790e-02 0.9975 4.1818 -18.301)" class="st211" width="23.2" height="8.1"/>
			
				<rect x="258.6" y="41.7" transform="matrix(7.109516e-02 -0.9975 0.9975 7.109516e-02 187.5076 307.8164)" class="st212" width="0.9" height="23.2"/>
			
				<rect x="259.1" y="34.2" transform="matrix(7.109516e-02 -0.9975 0.9975 7.109516e-02 195.4445 301.4153)" class="st212" width="0.9" height="23.2"/>
			<path class="st195" d="M270.9,46.8l-22.8-1.6c-0.6,0-1-0.5-1-1.1l0,0c0-0.6,0.5-1,1.1-1l22.8,1.6c0.6,0,1,0.5,1,1.1l0,0
				C272,46.4,271.5,46.8,270.9,46.8z"/>
			<path class="st211" d="M270.8,56.4l-24.3-1.7c-0.2,0-0.3-0.1-0.3-0.3l0.1-1.5c0-0.2,0.1-0.3,0.3-0.3l24.3,1.7
				c0.2,0,0.3,0.1,0.3,0.3l-0.1,1.5C271.1,56.3,271,56.4,270.8,56.4z"/>
			<path class="st199" d="M263.4,51.8l-8.8-0.6c-1.1-0.1-1.9-1-1.8-2.1l0,0c0.1-1.1,1-1.9,2.1-1.8l8.8,0.6c1.1,0.1,1.9,1,1.8,2.1
				l0,0C265.5,51.1,264.5,51.9,263.4,51.8z"/>
			<path class="st213" d="M254.7,50.6c-0.8-0.1-1.4-0.8-1.2-1.6c0.1-0.7,0.8-1.1,1.4-1.1l8.7,0.6c0.7,0,1.2,0.6,1.3,1.3
				c0,0.8-0.6,1.4-1.4,1.4L254.7,50.6z"/>
			<path class="st199" d="M262.2,43.5l-4.9-0.3l0-0.5c0.1-1.8,0.3-5.7,3.2-11l0,0c2.2,6.1,1.8,9.5,1.6,11.3L262.2,43.5z"/>
		</g>
	</g>
</g>
</svg>
