<svg width="313.8" height="25" xmlns="http://www.w3.org/2000/svg">
 <style type="text/css">.st0{fill:#AAB7C4;}
	.st1{opacity:0.5;fill:#AAB7C4;enable-background:new    ;}
	.st2{opacity:0.75;fill:#AAB7C4;enable-background:new    ;}</style>

 <g>
  <title>Layer 1</title>
  <path id="svg_1" d="m78,6l-2.8,13l-3.4,0l2.8,-13l3.4,0zm14.1,8.4l1.8,-4.9l1,4.9l-2.8,0zm3.8,4.6l3.1,0l-2.7,-13l-2.9,0c-0.6,0 -1.2,0.4 -1.4,1l-5,12l3.5,0l0.7,-1.9l4.3,0l0.4,1.9zm-8.8,-4.3c0,-3.4 -4.7,-3.6 -4.7,-5.1c0.1,-0.7 0.7,-1.1 1.4,-1.1c1.1,-0.1 2.3,0.1 3.3,0.6l0.6,-2.8c-1,-0.4 -2.1,-0.6 -3.1,-0.6c-3.3,0 -5.7,1.8 -5.7,4.3c0,1.9 1.7,2.9 2.9,3.5c1.3,0.6 1.8,1 1.7,1.6c0,0.9 -1,1.3 -2,1.3c-1.2,0 -2.4,-0.3 -3.5,-0.8l-0.6,2.8c1.2,0.5 2.5,0.7 3.7,0.7c3.7,0.1 6,-1.7 6,-4.4m-13.9,-8.7l-5.4,13l-3.6,0l-2.7,-10.4c0,-0.5 -0.4,-0.9 -0.8,-1.1c-1,-0.5 -2.1,-0.9 -3.3,-1.1l0.1,-0.4l5.7,0c0.8,0 1.4,0.6 1.5,1.3l1.4,7.5l3.6,-8.8l3.5,0z" class="st0"/>
  <path id="svg_2" d="m220.7,11.5l0,-1.3c0,-0.5 -0.5,-1 -1,-1l-1.4,0l0,2.3l-1.5,0l0,-6.5l3.7,0c0.9,-0.1 1.8,0.5 1.9,1.4l0,0.5c0,0.6 -0.3,1.2 -0.9,1.5c0.5,0.3 0.8,0.9 0.7,1.5l0,1.6l-1.5,0m-2.5,-3.8l1.6,0c0.3,0.1 0.7,-0.1 0.8,-0.4c0.1,-0.3 -0.1,-0.7 -0.4,-0.8l-2,0l0,1.2m21.3,3.8l-2.4,-4.4l0,4.4l-3,0l-0.5,-1.4l-2.8,0l-0.5,1.4l-3.2,0c0,0 -2,-0.3 -2,-3.1c0,-3.4 1.7,-3.5 2.4,-3.5l1.9,0l0,1.5l-1.5,0c-0.7,0.1 -1.2,0.7 -1.1,1.4l0,0.5c0,2.2 2.6,1.5 2.7,1.5l1.9,-4.9l2.1,0l2.3,5.9l0,-5.8l2.1,0l2.4,4.3l0,-4.3l1.5,0l0,6.6l-2.3,-0.1m-8,-3l1.5,0l-0.7,-1.9l-0.8,1.9m-22.7,3l0,-4.5l-1.9,4.5l-1.2,0l-1.9,-4.5l0,4.5l-3,0l-0.5,-1.4l-2.8,0l-0.5,1.4l-1.7,0l2.5,-6.6l2.1,0l2.3,6l0,-5.9l2.4,0l1.7,4.1l1.7,-4.1l2.4,0l0,6.6l-1.6,-0.1m-10.7,-3l1.5,0l-0.7,-1.9l-0.8,1.9m13.1,3l0,-6.5l4.7,0l0,1.5l-3.2,0l0,1l3.1,0l0,1.5l-3.1,0l0,1.1l3.2,0l0,1.4l-4.7,0m11.8,0.1l0,-6.6l1.5,0l0,6.6l-1.5,0m3.3,8.4l0,-1.3c0,-0.6 -0.5,-1 -1.1,-1l-1.6,0l0,2.3l-1.6,0l0,-6.5l3.9,0c1,-0.2 1.9,0.5 2,1.5l0,0.4c0,0.6 -0.3,1.2 -0.9,1.5c0.5,0.3 0.8,0.9 0.8,1.5l0,1.6l-1.5,0m-2.6,-3.8l1.7,0c0.3,0.1 0.7,-0.1 0.8,-0.4s-0.1,-0.7 -0.4,-0.8c-0.1,-0.1 -0.3,-0.1 -0.4,0l-1.7,0l0,1.2m-8.1,3.8l-1.4,0l-1.7,-1.9l-1.7,1.9l-6,0l0,-6.5l5.9,0l1.8,2.1l1.9,-2.1l5.1,0c1,-0.1 1.9,0.5 2,1.5l0,0.4c0,1.9 -0.7,2.5 -2.8,2.5l-1.6,0l0,2.1l-1.5,0m-2,-3.2l2,2.3l0,-4.5l-2,2.2m-7.2,1.8l3.4,0l1.6,-1.8l-1.6,-1.8l-3.4,0l0,1l3.3,0l0,1.5l-3.3,0l0,1.1m10.8,-2.4l1.7,0c0.3,0.1 0.7,-0.1 0.8,-0.4s-0.1,-0.7 -0.4,-0.8c-0.1,-0.1 -0.3,-0.1 -0.4,0l-1.7,0l0,1.2m20.1,3.8l-2.9,0l0,-1.5l2.5,0c0,0 0.9,0.1 0.9,-0.5s-1.4,-0.5 -1.4,-0.5c-1.1,0.2 -2,-0.6 -2.2,-1.6l0,-0.3c-0.1,-1 0.7,-1.9 1.7,-2l3.4,0l0,1.4l-2.5,0c0,0 -0.9,-0.2 -0.9,0.5c0,0.5 1.2,0.5 1.2,0.5s2.5,-0.2 2.5,1.8c0.1,1.1 -0.6,2.1 -1.8,2.3l-0.4,0l-0.1,-0.1m-8.6,0l0,-6.5l5,0l0,1.5l-3.4,0l0,1l3.3,0l0,1.5l-3.3,0l0,1.1l3.4,0l0,1.4l-5,0m14.2,0l-2.9,0l0,-1.5l2.5,0c0,0 0.9,0.1 0.9,-0.5s-1.4,-0.5 -1.4,-0.5c-1.1,0.2 -2,-0.6 -2.2,-1.7l0,-0.3c-0.1,-1 0.7,-1.9 1.7,-2l3.4,0l0,1.5l-2.5,0c0,0 -0.9,-0.2 -0.9,0.5c0,0.5 1.2,0.5 1.2,0.5s2.5,-0.2 2.5,1.8c0.1,1.1 -0.6,2.1 -1.8,2.3l-0.4,0c0,-0.1 0,-0.1 -0.1,-0.1m16.4,-12l-2.5,0l0,8.9l2.5,0c1.1,0.1 2.2,-0.3 3.1,-1c1,-0.9 1.6,-2.1 1.6,-3.4c0.1,-2.4 -1.8,-4.4 -4.2,-4.5l-0.5,0zm2,6.7c-0.6,0.5 -1.5,0.8 -2.3,0.7l-0.5,0l0,-5.9l0.5,0c0.8,-0.1 1.7,0.2 2.3,0.7c0.6,0.6 0.9,1.4 0.9,2.2c0,0.9 -0.3,1.7 -0.9,2.3zm3.4,2.2l1.7,0l0,-8.9l-1.7,0l0,8.9zm5.8,-5.5c-1,-0.4 -1.3,-0.6 -1.3,-1.1c0.1,-0.6 0.6,-1.1 1.2,-1c0.5,0 1,0.3 1.4,0.7l0.9,-1.2c-0.7,-0.6 -1.6,-1 -2.5,-1c-1.4,-0.1 -2.6,1 -2.7,2.4l0,0.1c0,1.2 0.5,1.9 2.1,2.4c0.4,0.1 0.8,0.3 1.2,0.5c0.3,0.2 0.5,0.5 0.5,0.9c0,0.7 -0.6,1.3 -1.2,1.3l-0.1,0c-0.8,0 -1.5,-0.5 -1.8,-1.2l-1.1,1.1c0.6,1.1 1.8,1.7 3,1.7c1.6,0.1 2.9,-1.1 3,-2.7l0,-0.3c-0.1,-1.2 -0.6,-1.8 -2.6,-2.6zm3.1,1.1c0,2.5 2,4.6 4.5,4.6c0.8,0 1.5,-0.2 2.2,-0.5l0,-2c-0.5,0.6 -1.2,1 -2,1c-1.6,0 -2.9,-1.2 -2.9,-2.8l0,-0.2c-0.1,-1.6 1.2,-3 2.8,-3.1c0.8,0 1.6,0.4 2.1,1l0,-2c-0.6,-0.4 -1.4,-0.5 -2.1,-0.5c-2.6,-0.2 -4.6,1.9 -4.6,4.5zm20.3,1.5l-2.3,-6l-1.8,0l3.7,9.1l0.9,0l3.7,-9.1l-1.8,0l-2.4,6l0,0zm5,2.9l4.8,0l0,-1.5l-3.1,0l0,-2.4l3,0l0,-1.5l-3,0l0,-2l3.1,0l0,-1.5l-4.8,0l0,8.9zm11.5,-6.3c0,-1.7 -1.1,-2.6 -3.1,-2.6l-2.5,0l0,8.9l1.7,0l0,-3.6l0.2,0l2.3,3.6l2.1,0l-2.7,-3.7c1.2,-0.2 2.1,-1.3 2,-2.6l0,0zm-3.4,1.5l-0.5,0l0,-2.7l0.5,0c1.1,0 1.6,0.5 1.6,1.3c0,0.9 -0.5,1.4 -1.6,1.4z" class="st0"/>
  <path id="svg_3" d="m285.5,7.9c-2.5,0 -4.6,2 -4.6,4.6c0,2.5 2,4.6 4.6,4.7c2.6,0.1 4.6,-2 4.7,-4.6c-0.1,-2.6 -2.1,-4.7 -4.7,-4.7z" class="st1"/>
  <g id="svg_4">
   <path id="svg_5" d="m139.5,10c-0.6,0 -1.4,0.2 -1.8,0.9c-0.3,-0.5 -0.9,-0.9 -1.7,-0.9c-0.5,0 -1.1,0.1 -1.5,0.7l0,-0.6l-1.1,0l0,4.9l1.1,0l0,-2.7c0,-0.8 0.6,-1.3 1.3,-1.3c0.7,0 1.1,0.5 1.1,1.3l0,2.7l1.1,0l0,-2.7c0,-0.8 0.6,-1.3 1.3,-1.3c0.7,0 1.1,0.5 1.1,1.3l0,2.7l1.1,0l0,-3c0,-1.2 -0.8,-2 -2,-2zm6.9,0.8c-0.3,-0.4 -0.8,-0.7 -1.5,-0.7c-1.4,0 -2.4,1.1 -2.4,2.6s1.1,2.6 2.4,2.6c0.7,0 1.2,-0.3 1.5,-0.7l0,0.4l1.1,0l0,-4.9l-1.1,0l0,0.7zm-1.4,3.4c-0.9,0 -1.5,-0.7 -1.5,-1.6s0.6,-1.6 1.5,-1.6s1.5,0.7 1.5,1.6s-0.6,1.6 -1.5,1.6zm6.2,-2.1l-0.5,-0.1c-0.4,-0.1 -0.8,-0.2 -0.8,-0.5s0.3,-0.6 0.9,-0.6c0.6,0 1.2,0.2 1.5,0.4l0.5,-0.8c-0.5,-0.3 -1.2,-0.5 -2,-0.5c-1.2,0 -2,0.6 -2,1.6c0,0.8 0.6,1.3 1.6,1.4l0.5,0.1c0.6,0.1 0.8,0.3 0.8,0.5c0,0.4 -0.4,0.6 -1.1,0.6c-0.8,0 -1.3,-0.2 -1.6,-0.5l-0.5,0.8c0.7,0.5 1.6,0.6 2.1,0.6c1.4,0 2.2,-0.7 2.2,-1.6c0.1,-0.8 -0.5,-1.2 -1.6,-1.4zm5.4,2.1c-0.4,0 -0.8,-0.3 -0.8,-0.9l0,-2.1l1.9,0l0,-1l-1.9,0l0,-1.5l-1.1,0l0,1.5l-1,0l0,1l1,0l0,2.1c0,1.3 0.6,1.9 1.7,1.9c0.6,0 1.1,-0.2 1.5,-0.5l-0.4,-0.9c-0.3,0.2 -0.6,0.4 -0.9,0.4zm4.4,-4.2c-1.4,0 -2.4,1 -2.4,2.6s1,2.6 2.5,2.6c0.7,0 1.4,-0.2 2,-0.7l-0.5,-0.8c-0.4,0.3 -0.9,0.5 -1.4,0.5c-0.7,0 -1.3,-0.4 -1.4,-1.2l3.6,0l0,-0.4c-0.1,-1.5 -1,-2.6 -2.4,-2.6zm-1.3,2.2c0.1,-0.7 0.5,-1.2 1.3,-1.2c0.7,0 1.1,0.4 1.2,1.2l-2.5,0zm5.9,-1.5l0,-0.6l-1.1,0l0,4.9l1.1,0l0,-2.7c0,-0.8 0.5,-1.3 1.2,-1.3c0.3,0 0.6,0.1 0.8,0.2l0.3,-1.1c-0.2,-0.1 -0.5,-0.1 -0.8,-0.1c-0.7,0 -1.2,0.2 -1.5,0.7zm5,0.3c0.5,0 0.8,0.2 1.2,0.5l0.7,-0.7c-0.4,-0.5 -1.1,-0.8 -1.8,-0.8c-1.5,0 -2.6,1.1 -2.6,2.6s1,2.6 2.6,2.6c0.7,0 1.4,-0.3 1.8,-0.8l-0.7,-0.7c-0.3,0.3 -0.7,0.5 -1.2,0.5c-0.8,0 -1.4,-0.6 -1.4,-1.6c0,-1 0.6,-1.6 1.4,-1.6zm6.4,-0.2c-0.3,-0.4 -0.8,-0.7 -1.5,-0.7c-1.4,0 -2.4,1.1 -2.4,2.6s1.1,2.6 2.4,2.6c0.7,0 1.2,-0.3 1.5,-0.7l0,0.4l1.1,0l0,-4.9l-1.1,0l0,0.7zm-1.4,3.4c-0.9,0 -1.5,-0.7 -1.5,-1.6s0.6,-1.6 1.5,-1.6c0.9,0 1.5,0.7 1.5,1.6s-0.6,1.6 -1.5,1.6zm5.1,-3.5l0,-0.6l-1.1,0l0,4.9l1.1,0l0,-2.7c0,-0.8 0.5,-1.3 1.2,-1.3c0.3,0 0.6,0.1 0.8,0.2l0.3,-1.1c-0.2,-0.1 -0.5,-0.1 -0.8,-0.1c-0.7,0 -1.2,0.2 -1.5,0.7zm6.4,-3l0,3c-0.3,-0.4 -0.8,-0.7 -1.5,-0.7c-1.4,0 -2.4,1.1 -2.4,2.6s1.1,2.6 2.4,2.6c0.7,0 1.2,-0.3 1.5,-0.7l0,0.5l1.1,0l0,-7.3l-1.1,0zm-1.4,6.5c-0.9,0 -1.5,-0.7 -1.5,-1.6s0.6,-1.6 1.5,-1.6s1.5,0.7 1.5,1.6s-0.6,1.6 -1.5,1.6zm-72.2,-1.6c0,-2.4 1.1,-4.5 2.8,-5.9c-1.3,-1 -2.9,-1.6 -4.6,-1.6c-4.1,-0.1 -7.4,3.3 -7.4,7.5s3.3,7.6 7.4,7.6c1.7,0 3.3,-0.6 4.6,-1.6c-1.7,-1.5 -2.8,-3.6 -2.8,-6z" class="st0"/>
   <path id="svg_6" d="m120.9,5c-1.7,0 -3.3,0.6 -4.6,1.6c1.7,1.4 2.8,3.5 2.8,5.9s-1.1,4.5 -2.8,5.9c1.3,1 2.9,1.6 4.6,1.6c4.1,0 7.4,-3.4 7.4,-7.5s-3.3,-7.5 -7.4,-7.5z" class="st1"/>
   <path id="svg_7" d="m119.1,12.6c0,-2.4 -1.1,-4.5 -2.8,-5.9c-1.7,1.4 -3.8,3.5 -3.8,5.9s2,4.5 3.8,5.9c1.7,-1.4 2.8,-3.5 2.8,-5.9z" class="st2"/>
  </g>
 </g>
</svg>