<svg id="Layer_1" data-name="Layer 1" xmlns="http://www.w3.org/2000/svg" viewBox="0 0 76 84"><defs><style>.cls-1{fill:#ef2648;}.cls-2{fill:#ffd4b0;}.cls-3{fill:#ffdc13;}.cls-4{fill:#edc4a2;}.cls-5{fill:#b20d24;}.cls-6{fill:#ffa511;}.cls-7{fill:#f08015;}.cls-8{fill:#4db5ff;}.cls-9{fill:#3596d8;}</style></defs><title>build-partnerships</title><path class="cls-1" d="M27.57,34.18V26.35a5.21,5.21,0,0,1,5.21-5.21h0a11.69,11.69,0,0,0,10.44,0h0a5.21,5.21,0,0,1,5.21,5.21v7.83a2.6,2.6,0,0,1-2.61,2.6H30.18A2.6,2.6,0,0,1,27.57,34.18Z"/><circle class="cls-2" cx="38" cy="10.71" r="6.52"/><path class="cls-3" d="M8,43.3A1.3,1.3,0,0,1,6.71,42a31.28,31.28,0,0,1,19-28.81,1.32,1.32,0,0,1,1.72.69,1.3,1.3,0,0,1-.69,1.71h0A28.66,28.66,0,0,0,9.32,42,1.31,1.31,0,0,1,8,43.3Z"/><path class="cls-3" d="M68,43.3A1.31,1.31,0,0,1,66.68,42,28.66,28.66,0,0,0,49.22,15.59a1.3,1.3,0,0,1-.69-1.71,1.32,1.32,0,0,1,1.72-.69A31.28,31.28,0,0,1,69.29,42,1.3,1.3,0,0,1,68,43.3Z"/><path class="cls-3" d="M38,73.29a31.26,31.26,0,0,1-12.25-2.48,1.31,1.31,0,0,1-.68-1.72,1.29,1.29,0,0,1,1.71-.68,28.92,28.92,0,0,0,22.44,0,1.29,1.29,0,0,1,1.71.68,1.31,1.31,0,0,1-.68,1.72A31.26,31.26,0,0,1,38,73.29Z"/><path class="cls-3" d="M28.87,75.9a1.3,1.3,0,0,1-1.15-.7l-2.61-5a1.3,1.3,0,0,1,.55-1.76,1.73,1.73,0,0,1,.24-.1l5.21-1.53a1.31,1.31,0,0,1,.74,2.51l-3.7,1.08L30,74a1.31,1.31,0,0,1-1.16,1.91Z"/><path class="cls-3" d="M68,43.3a1.26,1.26,0,0,1-.92-.38L63.15,39A1.3,1.3,0,0,1,65,37.17l3,3,3-3A1.3,1.3,0,0,1,72.82,39l-3.91,3.91A1.28,1.28,0,0,1,68,43.3Z"/><path class="cls-3" d="M23.66,21.14a1.4,1.4,0,0,1-.57-.13,1.31,1.31,0,0,1-.61-1.74l2-4.24-4-1.83a1.3,1.3,0,0,1,1.08-2.37l5.22,2.38a1.31,1.31,0,0,1,.64,1.73v0L24.83,20.4A1.3,1.3,0,0,1,23.66,21.14Z"/><path class="cls-4" d="M41.9,5.51a6.49,6.49,0,0,1-9.1,9.09,6.5,6.5,0,1,0,9.1-9.09Z"/><circle class="cls-2" cx="65.38" cy="53.73" r="6.52"/><path class="cls-4" d="M69.28,48.53a6.5,6.5,0,0,1-9.1,9.1,6.5,6.5,0,0,0,10.44-7.75A6.59,6.59,0,0,0,69.28,48.53Z"/><circle class="cls-2" cx="10.62" cy="53.73" r="6.52"/><path class="cls-4" d="M14.52,48.53a6.5,6.5,0,0,1-9.1,9.1,6.5,6.5,0,0,0,10.44-7.75A6.59,6.59,0,0,0,14.52,48.53Z"/><path class="cls-5" d="M27.57,34.18a2.6,2.6,0,0,0,2.61,2.6H45.82a2.6,2.6,0,0,0,2.61-2.6V26.35a5.07,5.07,0,0,0-.71-2.57A24.74,24.74,0,0,1,27.57,34.18Z"/><path class="cls-6" d="M.19,77.2V69.38A5.22,5.22,0,0,1,5.4,64.16h0a11.63,11.63,0,0,0,10.44,0h0a5.22,5.22,0,0,1,5.21,5.22V77.2a2.61,2.61,0,0,1-2.61,2.61H2.8A2.61,2.61,0,0,1,.19,77.2Z"/><path class="cls-7" d="M.19,77.2A2.61,2.61,0,0,0,2.8,79.81H18.44a2.61,2.61,0,0,0,2.61-2.61V69.38a5.08,5.08,0,0,0-.71-2.58A24.72,24.72,0,0,1,.19,77.2Z"/><path class="cls-8" d="M55,77.2V69.38a5.22,5.22,0,0,1,5.21-5.22h0a11.63,11.63,0,0,0,10.44,0h0a5.22,5.22,0,0,1,5.21,5.22V77.2a2.61,2.61,0,0,1-2.61,2.61H57.56A2.61,2.61,0,0,1,55,77.2Z"/><path class="cls-9" d="M55,77.2a2.61,2.61,0,0,0,2.61,2.61H73.2a2.61,2.61,0,0,0,2.61-2.61V69.38a5.08,5.08,0,0,0-.71-2.58A24.69,24.69,0,0,1,55,77.2Z"/></svg>