<svg id="Layer_1" data-name="Layer 1" xmlns="http://www.w3.org/2000/svg" viewBox="0 0 76 84"><defs><style>.cls-1{fill:#90a4ae;}.cls-2{fill:#78909c;}.cls-3{fill:#e8916f;}.cls-4{fill:#ebad88;}.cls-5{fill:#4db5ff;}.cls-6{fill:#3596d8;}.cls-7{fill:#fff7e6;}.cls-8{fill:#7d4d3d;}.cls-9{fill:#704537;}.cls-10{fill:#ffd740;}.cls-11{fill:#ffc400;}.cls-12{fill:#607d8b;}.cls-13{fill:#546e7a;}</style></defs><title>our-customer</title><path class="cls-1" d="M63.93,35.24H12.07V23.17A22.75,22.75,0,0,1,34.82.41h6.92A22.19,22.19,0,0,1,63.93,22.6Z"/><path class="cls-2" d="M41.75.41h-5a22.19,22.19,0,0,1,22.18,22.2V35.24h5V22.61A22.19,22.19,0,0,0,41.75.41Z"/><path class="cls-3" d="M33,54.79H43V71.52H33Z"/><path class="cls-4" d="M19.93,39.48V26.05A17,17,0,0,1,37,9H39a17,17,0,0,1,17,17V39.48A18.07,18.07,0,0,1,38,57.54h0A18.07,18.07,0,0,1,19.93,39.48Z"/><path class="cls-3" d="M39,9H37c-.5,0-1,0-1.48.06a17,17,0,0,1,15.56,17V39.48A18.07,18.07,0,0,1,35.49,57.37a18.74,18.74,0,0,0,2.5.17h0A18.07,18.07,0,0,0,56.07,39.48V26.05A17,17,0,0,0,39,9Z"/><path class="cls-5" d="M28.29,64.48H47.71A15.4,15.4,0,0,1,63.1,79.88v2.7a1,1,0,0,1-1,1H13.9a1,1,0,0,1-1-1v-2.7a15.4,15.4,0,0,1,15.39-15.4Z"/><path class="cls-6" d="M47.71,64.48h-5a15.4,15.4,0,0,1,15.39,15.4v3.71h4a1,1,0,0,0,1-1v-2.7A15.4,15.4,0,0,0,47.71,64.48Z"/><path class="cls-7" d="M32.79,61.55l-3.25,2.71a.34.34,0,0,0,0,.48l4.65,5.16a.33.33,0,0,0,.53-.05L38,64.48l-4.82-3A.35.35,0,0,0,32.79,61.55Z"/><path class="cls-7" d="M43.21,61.55l3.25,2.71a.34.34,0,0,1,0,.48L41.84,69.9a.33.33,0,0,1-.53-.05L38,64.48l4.82-3A.35.35,0,0,1,43.21,61.55Z"/><path class="cls-8" d="M58.45,31.65c-2.37.43-2.38,4.81-2.38,4.81s-1.73.71-2.36-.31-1.16-7.68-1.4-10.57-2.18-6.83-6.75-5a22.07,22.07,0,0,1-15.12,0c-4.57-1.78-6.51,2.15-6.75,5s-.77,9.54-1.4,10.57-2.36.31-2.36.31,0-4.38-2.38-4.81a22.43,22.43,0,0,1-.91-11.16C18,13.29,22,6.41,38,6.41s20,6.88,21.36,14.08a22.43,22.43,0,0,1-.91,11.16Z"/><path class="cls-9" d="M59.36,20.49C58,13.29,54,6.41,38,6.41c-.87,0-1.71,0-2.51.07,13.89.69,17.54,7.2,18.85,14a22.43,22.43,0,0,1-.91,11.16,1.86,1.86,0,0,0-.53.19,16.93,16.93,0,0,0,.81,4.31c.63,1,2.36.31,2.36.31s0-4.38,2.38-4.81a22.43,22.43,0,0,0,.91-11.16Z"/><path class="cls-10" d="M58.36,45.18H64.1a4.69,4.69,0,0,0,4.68-4.69V29.78A4.69,4.69,0,0,0,64.1,25.1H58.36a2.3,2.3,0,0,0-2.29,2.29V42.88A2.3,2.3,0,0,0,58.36,45.18Z"/><path class="cls-11" d="M64.1,25.1h-5a4.69,4.69,0,0,1,4.68,4.68V40.49a4.69,4.69,0,0,1-4.68,4.69h5a4.69,4.69,0,0,0,4.68-4.69V29.78A4.69,4.69,0,0,0,64.1,25.1Z"/><path class="cls-2" d="M33,48.65H15.24a.46.46,0,0,1-.45-.46v-3a1.22,1.22,0,1,0-2.44,0v3a2.89,2.89,0,0,0,2.89,2.89H33a1.22,1.22,0,1,0,0-2.43Z"/><path class="cls-7" d="M43,83.59V79.24a.67.67,0,0,1,.67-.67H54.4a.67.67,0,0,1,.67.67v4.35Z"/><path class="cls-12" d="M41.68,52.54H34.32A1.34,1.34,0,0,1,33,51.2V48.53a1.34,1.34,0,0,1,1.34-1.34h7.36A1.34,1.34,0,0,1,43,48.53V51.2A1.34,1.34,0,0,1,41.68,52.54Z"/><path class="cls-13" d="M41.68,47.19h-5A1.34,1.34,0,0,1,38,48.53V51.2a1.34,1.34,0,0,1-1.34,1.34h5A1.34,1.34,0,0,0,43,51.2V48.53A1.34,1.34,0,0,0,41.68,47.19Z"/><path class="cls-10" d="M17.64,45.18H11.9a4.69,4.69,0,0,1-4.68-4.69V29.78A4.69,4.69,0,0,1,11.9,25.1h5.74a2.3,2.3,0,0,1,2.29,2.29V42.88a2.3,2.3,0,0,1-2.29,2.3Z"/><path class="cls-11" d="M17.64,25.1h-5a2.3,2.3,0,0,1,2.29,2.29V42.88a2.3,2.3,0,0,1-2.29,2.3h5a2.3,2.3,0,0,0,2.29-2.3V27.39A2.3,2.3,0,0,0,17.64,25.1Z"/></svg>