<svg id="Layer_1" data-name="Layer 1" xmlns="http://www.w3.org/2000/svg" viewBox="0 0 76 84"><defs><style>.cls-1{fill:#fbbd5e;}.cls-2{fill:#183651;}.cls-3{fill:#fff;}.cls-4{fill:#4fbf9f;}.cls-5{fill:#f06151;}</style></defs><title>our-process</title><rect class="cls-1" x="23.2" y="5.29" width="29.48" height="16.81"/><path class="cls-2" d="M52.8,23.29H23.2A1.12,1.12,0,0,1,22,22.11V5.29A1.12,1.12,0,0,1,23.2,4.11H52.8A1.12,1.12,0,0,1,54,5.29V22.11A1.19,1.19,0,0,1,52.8,23.29ZM24.38,20.92H51.62V6.48H24.38Z"/><rect class="cls-3" x="27.94" y="10.03" width="20.01" height="7.46"/><rect class="cls-4" x="23.2" y="33.47" width="29.48" height="16.81"/><path class="cls-2" d="M52.8,51.59H23.2A1.12,1.12,0,0,1,22,50.41V33.47a1.12,1.12,0,0,1,1.19-1.18H52.8A1.12,1.12,0,0,1,54,33.47V50.29A1.3,1.3,0,0,1,52.8,51.59ZM24.38,49.22H51.62V34.66H24.38Z"/><rect class="cls-3" x="27.94" y="38.21" width="20.01" height="7.46"/><rect class="cls-5" x="23.2" y="61.89" width="29.48" height="16.81"/><path class="cls-2" d="M52.8,79.89H23.2A1.12,1.12,0,0,1,22,78.71V61.89a1.12,1.12,0,0,1,1.19-1.18H52.8A1.12,1.12,0,0,1,54,61.89V78.71A1.19,1.19,0,0,1,52.8,79.89ZM24.38,77.52H51.62V63.08H24.38Z"/><rect class="cls-3" x="27.94" y="66.51" width="20.01" height="7.46"/><path class="cls-2" d="M11.48,18.44a1.16,1.16,0,0,1,.23-1.66l3.79-3-3.79-3a1.28,1.28,0,0,1-.23-1.66A1.27,1.27,0,0,1,13.13,9l5,3.91a.8.8,0,0,1,.47.83,1.39,1.39,0,0,1-.35,1l-5,3.9A1.28,1.28,0,0,1,11.48,18.44Z"/><path class="cls-2" d="M17.4,14.88H1.29A1.11,1.11,0,0,1,.11,13.7a1.11,1.11,0,0,1,1.18-1.18H17.4a1.11,1.11,0,0,1,1.18,1.18A1.11,1.11,0,0,1,17.4,14.88Z"/><path class="cls-2" d="M62.87,46.85l-5-3.9a1.49,1.49,0,0,1-.47-1,1.09,1.09,0,0,1,.47-1l5-3.91A1.19,1.19,0,0,1,64.29,39L60.5,42l3.79,3a1.18,1.18,0,0,1-1.42,1.89Z"/><path class="cls-2" d="M74.71,43.18H58.6a1.18,1.18,0,0,1,0-2.36H73.52V14.88H60.26a1.11,1.11,0,0,1-1.18-1.18,1.11,1.11,0,0,1,1.18-1.18H74.71a1.11,1.11,0,0,1,1.18,1.18V41.88A1.29,1.29,0,0,1,74.71,43.18Z"/><path class="cls-2" d="M11.48,74.92a1.16,1.16,0,0,1,.23-1.66l3.79-3-3.79-3a1.18,1.18,0,0,1,1.42-1.89l5,3.9a1.52,1.52,0,0,1,.47,1,1.09,1.09,0,0,1-.47,1l-5,3.91A1.29,1.29,0,0,1,11.48,74.92Z"/><path class="cls-2" d="M17.4,71.37H1.29A1.12,1.12,0,0,1,.11,70.18V42a1.11,1.11,0,0,1,1.18-1.18H15.74a1.18,1.18,0,1,1,0,2.36H2.48V69H17.4a1.19,1.19,0,0,1,0,2.37Z"/><rect class="cls-2" x="31.13" y="12.52" width="2.37" height="2.37"/><rect class="cls-2" x="36.82" y="12.52" width="2.37" height="2.37"/><rect class="cls-2" x="42.5" y="12.52" width="2.37" height="2.37"/><rect class="cls-2" x="31.13" y="40.82" width="2.37" height="2.37"/><rect class="cls-2" x="36.82" y="40.82" width="2.37" height="2.37"/><rect class="cls-2" x="42.5" y="40.82" width="2.37" height="2.37"/><rect class="cls-2" x="31.13" y="69.12" width="2.37" height="2.37"/><rect class="cls-2" x="36.82" y="69.12" width="2.37" height="2.37"/><rect class="cls-2" x="42.5" y="69.12" width="2.37" height="2.37"/></svg>