<svg id="Layer_1" data-name="Layer 1" xmlns="http://www.w3.org/2000/svg" viewBox="0 0 76 84"><defs><style>.cls-1{fill:#dd3e46;}.cls-2{fill:#f98c96;}.cls-3{fill:#fff;}</style></defs><title>we-love</title><path class="cls-1" d="M66.64,17.26c-6.51,0-8.45,4.65-10.41,6.51-2-1.86-3.91-6.51-10.42-6.51-6,0-9.11,7-9.11,13,0,10.42,19.53,22.14,19.53,22.14S75.76,40.7,75.76,30.28C75.76,24.24,72.69,17.26,66.64,17.26Z"/><path class="cls-2" d="M30.19,4.24c-6.51,0-8.46,4.65-10.42,6.51-2-1.86-3.9-6.51-10.41-6.51-6,0-9.12,7-9.12,13C.24,27.68,19.77,39.4,19.77,39.4S39.3,27.68,39.3,17.26C39.3,11.22,36.23,4.24,30.19,4.24Z"/><path class="cls-2" d="M48.42,44.6C41.91,44.6,40,49.25,38,51.11c-2-1.86-3.91-6.51-10.42-6.51-6,0-9.11,7-9.11,13C18.47,68,38,79.76,38,79.76S57.53,68,57.53,57.62C57.53,51.58,54.46,44.6,48.42,44.6Z"/><path class="cls-3" d="M21.8,32.67,20.35,30.5C20.46,30.43,31.49,23,31.49,16h2.6C34.09,24.37,22.3,32.33,21.8,32.67Z"/><path class="cls-3" d="M34.09,12.05h-2.6a1.19,1.19,0,0,0-.35-1,1.21,1.21,0,0,0-1-.34l0-2.6a3.79,3.79,0,0,1,3.9,3.9Z"/><path class="cls-3" d="M58.25,45.69l-1.44-2.17C56.92,43.45,68,36,68,29h2.6C70.55,37.39,58.75,45.35,58.25,45.69Z"/><path class="cls-3" d="M70.55,25.07H68a1.2,1.2,0,0,0-.36-1,1.18,1.18,0,0,0-1-.34v-2.6a3.8,3.8,0,0,1,3.91,3.9Z"/><path class="cls-3" d="M40,73l-1.44-2.17c.11-.07,11.14-7.52,11.14-14.54h2.6C52.32,64.73,40.53,72.69,40,73Z"/><path class="cls-3" d="M52.32,52.42h-2.6a1.2,1.2,0,0,0-1.32-1.31l0-2.6a3.8,3.8,0,0,1,3.9,3.91Z"/></svg>